%TF.GenerationSoftware,KiCad,Pcbnew,5.1.10*%
%TF.CreationDate,2021-07-02T20:44:02+02:00*%
%TF.ProjectId,9v-preamp,39762d70-7265-4616-9d70-2e6b69636164,rev?*%
%TF.SameCoordinates,Original*%
%TF.FileFunction,Soldermask,Top*%
%TF.FilePolarity,Negative*%
%FSLAX46Y46*%
G04 Gerber Fmt 4.6, Leading zero omitted, Abs format (unit mm)*
G04 Created by KiCad (PCBNEW 5.1.10) date 2021-07-02 20:44:02*
%MOMM*%
%LPD*%
G01*
G04 APERTURE LIST*
%ADD10C,3.800000*%
%ADD11C,1.600000*%
%ADD12O,1.600000X1.600000*%
%ADD13O,1.700000X1.700000*%
%ADD14R,1.700000X1.700000*%
%ADD15R,1.350000X1.350000*%
%ADD16O,1.350000X1.350000*%
%ADD17R,1.800000X1.800000*%
%ADD18C,1.800000*%
%ADD19R,1.600000X1.600000*%
%ADD20C,3.500000*%
%ADD21C,1.400000*%
%ADD22O,1.400000X1.400000*%
G04 APERTURE END LIST*
D10*
%TO.C,J8*%
X45500000Y-89000000D03*
%TD*%
%TO.C,J9*%
X107000000Y-89000000D03*
%TD*%
%TO.C,J7*%
X107000000Y-135500000D03*
%TD*%
%TO.C,J6*%
X45500000Y-135500000D03*
%TD*%
D11*
%TO.C,R1*%
X58880000Y-109000000D03*
D12*
X66500000Y-109000000D03*
%TD*%
D11*
%TO.C,C7*%
X51000000Y-91000000D03*
X53500000Y-91000000D03*
%TD*%
D13*
%TO.C,BT1*%
X47500000Y-117540000D03*
D14*
X47500000Y-115000000D03*
%TD*%
D11*
%TO.C,C4*%
X54000000Y-117500000D03*
X54000000Y-115000000D03*
%TD*%
%TO.C,C2*%
X97500000Y-119500000D03*
X95000000Y-119500000D03*
%TD*%
%TO.C,C3*%
X94500000Y-128000000D03*
X94500000Y-125500000D03*
%TD*%
D15*
%TO.C,SW1*%
X47500000Y-122500000D03*
D16*
X47500000Y-124500000D03*
%TD*%
D10*
%TO.C,J2*%
X47825000Y-96675000D03*
%TD*%
%TO.C,J1*%
X47825000Y-102025000D03*
%TD*%
D14*
%TO.C,RV1*%
X59000000Y-91000000D03*
D13*
X61540000Y-91000000D03*
X64080000Y-91000000D03*
%TD*%
D17*
%TO.C,D1*%
X101500000Y-127500000D03*
D18*
X101500000Y-124960000D03*
%TD*%
D11*
%TO.C,C6*%
X54000000Y-122000000D03*
X54000000Y-124500000D03*
%TD*%
D19*
%TO.C,C1*%
X52500000Y-102500000D03*
D11*
X55000000Y-102500000D03*
%TD*%
D19*
%TO.C,C5*%
X55000000Y-133500000D03*
D11*
X51500000Y-133500000D03*
%TD*%
%TO.C,C8*%
X59500000Y-115000000D03*
X59500000Y-117500000D03*
%TD*%
%TO.C,C9*%
X59000000Y-124500000D03*
X59000000Y-122000000D03*
%TD*%
%TO.C,C10*%
X64000000Y-124500000D03*
X64000000Y-122000000D03*
%TD*%
%TO.C,C11*%
X64500000Y-115000000D03*
X64500000Y-117500000D03*
%TD*%
D12*
%TO.C,D2*%
X74380000Y-127500000D03*
D19*
X82000000Y-127500000D03*
%TD*%
%TO.C,D3*%
X74380000Y-134000000D03*
D12*
X82000000Y-134000000D03*
%TD*%
D20*
%TO.C,J3*%
X98000000Y-105000000D03*
%TD*%
%TO.C,J4*%
X98000000Y-111000000D03*
%TD*%
D10*
%TO.C,J5*%
X98000000Y-99500000D03*
%TD*%
D21*
%TO.C,R2*%
X80580000Y-121500000D03*
D22*
X75500000Y-121500000D03*
%TD*%
%TO.C,R3*%
X80580000Y-114000000D03*
D21*
X75500000Y-114000000D03*
%TD*%
D22*
%TO.C,R4*%
X71000000Y-111000000D03*
D21*
X71000000Y-116080000D03*
%TD*%
%TO.C,R5*%
X80500000Y-111000000D03*
D22*
X75420000Y-111000000D03*
%TD*%
%TO.C,R6*%
X80580000Y-117500000D03*
D21*
X75500000Y-117500000D03*
%TD*%
%TO.C,R7*%
X85000000Y-116080000D03*
D22*
X85000000Y-111000000D03*
%TD*%
D19*
%TO.C,U2*%
X74500000Y-96500000D03*
D12*
X82120000Y-104120000D03*
X74500000Y-99040000D03*
X82120000Y-101580000D03*
X74500000Y-101580000D03*
X82120000Y-99040000D03*
X74500000Y-104120000D03*
X82120000Y-96500000D03*
%TD*%
D19*
%TO.C,U1*%
X59000000Y-96380000D03*
D12*
X66620000Y-104000000D03*
X59000000Y-98920000D03*
X66620000Y-101460000D03*
X59000000Y-101460000D03*
X66620000Y-98920000D03*
X59000000Y-104000000D03*
X66620000Y-96380000D03*
%TD*%
M02*
