%TF.GenerationSoftware,KiCad,Pcbnew,5.1.10*%
%TF.CreationDate,2021-07-22T01:23:26+02:00*%
%TF.ProjectId,9v-preamp,39762d70-7265-4616-9d70-2e6b69636164,rev?*%
%TF.SameCoordinates,Original*%
%TF.FileFunction,Other,Fab,Top*%
%FSLAX46Y46*%
G04 Gerber Fmt 4.6, Leading zero omitted, Abs format (unit mm)*
G04 Created by KiCad (PCBNEW 5.1.10) date 2021-07-22 01:23:26*
%MOMM*%
%LPD*%
G01*
G04 APERTURE LIST*
%ADD10C,0.100000*%
%ADD11C,0.150000*%
%ADD12C,0.114000*%
%ADD13C,0.120000*%
%ADD14C,0.108000*%
G04 APERTURE END LIST*
D10*
%TO.C,R1*%
X66500000Y-109000000D02*
X65840000Y-109000000D01*
X58880000Y-109000000D02*
X59540000Y-109000000D01*
X65840000Y-107750000D02*
X59540000Y-107750000D01*
X65840000Y-110250000D02*
X65840000Y-107750000D01*
X59540000Y-110250000D02*
X65840000Y-110250000D01*
X59540000Y-107750000D02*
X59540000Y-110250000D01*
%TO.C,C7*%
X54150000Y-89700000D02*
X50350000Y-89700000D01*
X54150000Y-92300000D02*
X54150000Y-89700000D01*
X50350000Y-92300000D02*
X54150000Y-92300000D01*
X50350000Y-89700000D02*
X50350000Y-92300000D01*
%TO.C,BT1*%
X46865000Y-113730000D02*
X48770000Y-113730000D01*
X48770000Y-113730000D02*
X48770000Y-118810000D01*
X48770000Y-118810000D02*
X46230000Y-118810000D01*
X46230000Y-118810000D02*
X46230000Y-114365000D01*
X46230000Y-114365000D02*
X46865000Y-113730000D01*
%TO.C,C4*%
X55300000Y-118150000D02*
X55300000Y-114350000D01*
X52700000Y-118150000D02*
X55300000Y-118150000D01*
X52700000Y-114350000D02*
X52700000Y-118150000D01*
X55300000Y-114350000D02*
X52700000Y-114350000D01*
%TO.C,C2*%
X98150000Y-118200000D02*
X94350000Y-118200000D01*
X98150000Y-120800000D02*
X98150000Y-118200000D01*
X94350000Y-120800000D02*
X98150000Y-120800000D01*
X94350000Y-118200000D02*
X94350000Y-120800000D01*
%TO.C,C3*%
X93200000Y-128650000D02*
X95800000Y-128650000D01*
X95800000Y-128650000D02*
X95800000Y-124850000D01*
X95800000Y-124850000D02*
X93200000Y-124850000D01*
X93200000Y-124850000D02*
X93200000Y-128650000D01*
%TO.C,SW1*%
X48500000Y-122500000D02*
X48500000Y-125500000D01*
X48500000Y-125500000D02*
X46500000Y-125500000D01*
X46500000Y-125500000D02*
X46500000Y-121500000D01*
X46500000Y-121500000D02*
X47500000Y-121500000D01*
X47500000Y-121500000D02*
X48500000Y-122500000D01*
%TO.C,RV1*%
X57730000Y-91635000D02*
X57730000Y-89730000D01*
X57730000Y-89730000D02*
X65350000Y-89730000D01*
X65350000Y-89730000D02*
X65350000Y-92270000D01*
X65350000Y-92270000D02*
X58365000Y-92270000D01*
X58365000Y-92270000D02*
X57730000Y-91635000D01*
%TO.C,D1*%
X100250000Y-123830000D02*
X100250000Y-128630000D01*
X102750000Y-123830000D02*
X100250000Y-123830000D01*
X102750000Y-128630000D02*
X102750000Y-123830000D01*
X100250000Y-128630000D02*
X102750000Y-128630000D01*
X102500000Y-126230000D02*
G75*
G03*
X102500000Y-126230000I-1000000J0D01*
G01*
%TO.C,C6*%
X55300000Y-121350000D02*
X52700000Y-121350000D01*
X52700000Y-121350000D02*
X52700000Y-125150000D01*
X52700000Y-125150000D02*
X55300000Y-125150000D01*
X55300000Y-125150000D02*
X55300000Y-121350000D01*
%TO.C,C1*%
X56900000Y-102500000D02*
G75*
G03*
X56900000Y-102500000I-3150000J0D01*
G01*
X51056028Y-101126500D02*
X51686028Y-101126500D01*
X51371028Y-100811500D02*
X51371028Y-101441500D01*
%TO.C,C5*%
X56276759Y-135647500D02*
X56276759Y-134847500D01*
X56676759Y-135247500D02*
X55876759Y-135247500D01*
X57250000Y-133500000D02*
G75*
G03*
X57250000Y-133500000I-4000000J0D01*
G01*
%TO.C,C8*%
X60750000Y-113750000D02*
X58250000Y-113750000D01*
X58250000Y-113750000D02*
X58250000Y-118750000D01*
X58250000Y-118750000D02*
X60750000Y-118750000D01*
X60750000Y-118750000D02*
X60750000Y-113750000D01*
%TO.C,C9*%
X60250000Y-125750000D02*
X60250000Y-120750000D01*
X57750000Y-125750000D02*
X60250000Y-125750000D01*
X57750000Y-120750000D02*
X57750000Y-125750000D01*
X60250000Y-120750000D02*
X57750000Y-120750000D01*
%TO.C,C10*%
X65250000Y-125750000D02*
X65250000Y-120750000D01*
X62750000Y-125750000D02*
X65250000Y-125750000D01*
X62750000Y-120750000D02*
X62750000Y-125750000D01*
X65250000Y-120750000D02*
X62750000Y-120750000D01*
%TO.C,C11*%
X65750000Y-113750000D02*
X63250000Y-113750000D01*
X63250000Y-113750000D02*
X63250000Y-118750000D01*
X63250000Y-118750000D02*
X65750000Y-118750000D01*
X65750000Y-118750000D02*
X65750000Y-113750000D01*
%TO.C,D2*%
X79690000Y-128500000D02*
X79690000Y-126500000D01*
X79490000Y-128500000D02*
X79490000Y-126500000D01*
X79590000Y-128500000D02*
X79590000Y-126500000D01*
X74380000Y-127500000D02*
X76190000Y-127500000D01*
X82000000Y-127500000D02*
X80190000Y-127500000D01*
X76190000Y-128500000D02*
X80190000Y-128500000D01*
X76190000Y-126500000D02*
X76190000Y-128500000D01*
X80190000Y-126500000D02*
X76190000Y-126500000D01*
X80190000Y-128500000D02*
X80190000Y-126500000D01*
%TO.C,D3*%
X76190000Y-133000000D02*
X76190000Y-135000000D01*
X76190000Y-135000000D02*
X80190000Y-135000000D01*
X80190000Y-135000000D02*
X80190000Y-133000000D01*
X80190000Y-133000000D02*
X76190000Y-133000000D01*
X74380000Y-134000000D02*
X76190000Y-134000000D01*
X82000000Y-134000000D02*
X80190000Y-134000000D01*
X76790000Y-133000000D02*
X76790000Y-135000000D01*
X76890000Y-133000000D02*
X76890000Y-135000000D01*
X76690000Y-133000000D02*
X76690000Y-135000000D01*
%TO.C,R2*%
X79840000Y-122300000D02*
X79840000Y-120700000D01*
X79840000Y-120700000D02*
X76240000Y-120700000D01*
X76240000Y-120700000D02*
X76240000Y-122300000D01*
X76240000Y-122300000D02*
X79840000Y-122300000D01*
X80580000Y-121500000D02*
X79840000Y-121500000D01*
X75500000Y-121500000D02*
X76240000Y-121500000D01*
%TO.C,R3*%
X80580000Y-114000000D02*
X79840000Y-114000000D01*
X75500000Y-114000000D02*
X76240000Y-114000000D01*
X79840000Y-113200000D02*
X76240000Y-113200000D01*
X79840000Y-114800000D02*
X79840000Y-113200000D01*
X76240000Y-114800000D02*
X79840000Y-114800000D01*
X76240000Y-113200000D02*
X76240000Y-114800000D01*
%TO.C,R4*%
X71000000Y-111000000D02*
X71000000Y-111740000D01*
X71000000Y-116080000D02*
X71000000Y-115340000D01*
X70200000Y-111740000D02*
X70200000Y-115340000D01*
X71800000Y-111740000D02*
X70200000Y-111740000D01*
X71800000Y-115340000D02*
X71800000Y-111740000D01*
X70200000Y-115340000D02*
X71800000Y-115340000D01*
%TO.C,R5*%
X79760000Y-111800000D02*
X79760000Y-110200000D01*
X79760000Y-110200000D02*
X76160000Y-110200000D01*
X76160000Y-110200000D02*
X76160000Y-111800000D01*
X76160000Y-111800000D02*
X79760000Y-111800000D01*
X80500000Y-111000000D02*
X79760000Y-111000000D01*
X75420000Y-111000000D02*
X76160000Y-111000000D01*
%TO.C,R6*%
X80580000Y-117500000D02*
X79840000Y-117500000D01*
X75500000Y-117500000D02*
X76240000Y-117500000D01*
X79840000Y-116700000D02*
X76240000Y-116700000D01*
X79840000Y-118300000D02*
X79840000Y-116700000D01*
X76240000Y-118300000D02*
X79840000Y-118300000D01*
X76240000Y-116700000D02*
X76240000Y-118300000D01*
%TO.C,R7*%
X84200000Y-115340000D02*
X85800000Y-115340000D01*
X85800000Y-115340000D02*
X85800000Y-111740000D01*
X85800000Y-111740000D02*
X84200000Y-111740000D01*
X84200000Y-111740000D02*
X84200000Y-115340000D01*
X85000000Y-116080000D02*
X85000000Y-115340000D01*
X85000000Y-111000000D02*
X85000000Y-111740000D01*
%TO.C,U2*%
X76135000Y-95230000D02*
X81485000Y-95230000D01*
X81485000Y-95230000D02*
X81485000Y-105390000D01*
X81485000Y-105390000D02*
X75135000Y-105390000D01*
X75135000Y-105390000D02*
X75135000Y-96230000D01*
X75135000Y-96230000D02*
X76135000Y-95230000D01*
X73230000Y-95170000D02*
X73230000Y-105450000D01*
X73230000Y-105450000D02*
X83390000Y-105450000D01*
X83390000Y-105450000D02*
X83390000Y-95170000D01*
X83390000Y-95170000D02*
X73230000Y-95170000D01*
%TO.C,U1*%
X60635000Y-95110000D02*
X65985000Y-95110000D01*
X65985000Y-95110000D02*
X65985000Y-105270000D01*
X65985000Y-105270000D02*
X59635000Y-105270000D01*
X59635000Y-105270000D02*
X59635000Y-96110000D01*
X59635000Y-96110000D02*
X60635000Y-95110000D01*
X57730000Y-95050000D02*
X57730000Y-105330000D01*
X57730000Y-105330000D02*
X67890000Y-105330000D01*
X67890000Y-105330000D02*
X67890000Y-95050000D01*
X67890000Y-95050000D02*
X57730000Y-95050000D01*
%TD*%
%TO.C,J8*%
D11*
X38714285Y-92257142D02*
X38666666Y-92304761D01*
X38523809Y-92352380D01*
X38428571Y-92352380D01*
X38285714Y-92304761D01*
X38190476Y-92209523D01*
X38142857Y-92114285D01*
X38095238Y-91923809D01*
X38095238Y-91780952D01*
X38142857Y-91590476D01*
X38190476Y-91495238D01*
X38285714Y-91400000D01*
X38428571Y-91352380D01*
X38523809Y-91352380D01*
X38666666Y-91400000D01*
X38714285Y-91447619D01*
X39285714Y-92352380D02*
X39190476Y-92304761D01*
X39142857Y-92257142D01*
X39095238Y-92161904D01*
X39095238Y-91876190D01*
X39142857Y-91780952D01*
X39190476Y-91733333D01*
X39285714Y-91685714D01*
X39428571Y-91685714D01*
X39523809Y-91733333D01*
X39571428Y-91780952D01*
X39619047Y-91876190D01*
X39619047Y-92161904D01*
X39571428Y-92257142D01*
X39523809Y-92304761D01*
X39428571Y-92352380D01*
X39285714Y-92352380D01*
X40047619Y-91685714D02*
X40047619Y-92352380D01*
X40047619Y-91780952D02*
X40095238Y-91733333D01*
X40190476Y-91685714D01*
X40333333Y-91685714D01*
X40428571Y-91733333D01*
X40476190Y-91828571D01*
X40476190Y-92352380D01*
X40952380Y-91685714D02*
X40952380Y-92352380D01*
X40952380Y-91780952D02*
X41000000Y-91733333D01*
X41095238Y-91685714D01*
X41238095Y-91685714D01*
X41333333Y-91733333D01*
X41380952Y-91828571D01*
X41380952Y-92352380D01*
X41619047Y-92447619D02*
X42380952Y-92447619D01*
X42809523Y-91352380D02*
X42904761Y-91352380D01*
X43000000Y-91400000D01*
X43047619Y-91447619D01*
X43095238Y-91542857D01*
X43142857Y-91733333D01*
X43142857Y-91971428D01*
X43095238Y-92161904D01*
X43047619Y-92257142D01*
X43000000Y-92304761D01*
X42904761Y-92352380D01*
X42809523Y-92352380D01*
X42714285Y-92304761D01*
X42666666Y-92257142D01*
X42619047Y-92161904D01*
X42571428Y-91971428D01*
X42571428Y-91733333D01*
X42619047Y-91542857D01*
X42666666Y-91447619D01*
X42714285Y-91400000D01*
X42809523Y-91352380D01*
X44095238Y-92352380D02*
X43523809Y-92352380D01*
X43809523Y-92352380D02*
X43809523Y-91352380D01*
X43714285Y-91495238D01*
X43619047Y-91590476D01*
X43523809Y-91638095D01*
X44428571Y-92352380D02*
X44952380Y-91685714D01*
X44428571Y-91685714D02*
X44952380Y-92352380D01*
X45523809Y-91352380D02*
X45619047Y-91352380D01*
X45714285Y-91400000D01*
X45761904Y-91447619D01*
X45809523Y-91542857D01*
X45857142Y-91733333D01*
X45857142Y-91971428D01*
X45809523Y-92161904D01*
X45761904Y-92257142D01*
X45714285Y-92304761D01*
X45619047Y-92352380D01*
X45523809Y-92352380D01*
X45428571Y-92304761D01*
X45380952Y-92257142D01*
X45333333Y-92161904D01*
X45285714Y-91971428D01*
X45285714Y-91733333D01*
X45333333Y-91542857D01*
X45380952Y-91447619D01*
X45428571Y-91400000D01*
X45523809Y-91352380D01*
X46809523Y-92352380D02*
X46238095Y-92352380D01*
X46523809Y-92352380D02*
X46523809Y-91352380D01*
X46428571Y-91495238D01*
X46333333Y-91590476D01*
X46238095Y-91638095D01*
X47000000Y-92447619D02*
X47761904Y-92447619D01*
X48333333Y-91828571D02*
X48000000Y-91828571D01*
X48000000Y-92352380D02*
X48000000Y-91352380D01*
X48476190Y-91352380D01*
X49238095Y-92304761D02*
X49142857Y-92352380D01*
X48952380Y-92352380D01*
X48857142Y-92304761D01*
X48809523Y-92209523D01*
X48809523Y-91828571D01*
X48857142Y-91733333D01*
X48952380Y-91685714D01*
X49142857Y-91685714D01*
X49238095Y-91733333D01*
X49285714Y-91828571D01*
X49285714Y-91923809D01*
X48809523Y-92019047D01*
X49714285Y-92352380D02*
X49714285Y-91685714D01*
X49714285Y-91780952D02*
X49761904Y-91733333D01*
X49857142Y-91685714D01*
X50000000Y-91685714D01*
X50095238Y-91733333D01*
X50142857Y-91828571D01*
X50142857Y-92352380D01*
X50142857Y-91828571D02*
X50190476Y-91733333D01*
X50285714Y-91685714D01*
X50428571Y-91685714D01*
X50523809Y-91733333D01*
X50571428Y-91828571D01*
X50571428Y-92352380D01*
X51476190Y-92352380D02*
X51476190Y-91828571D01*
X51428571Y-91733333D01*
X51333333Y-91685714D01*
X51142857Y-91685714D01*
X51047619Y-91733333D01*
X51476190Y-92304761D02*
X51380952Y-92352380D01*
X51142857Y-92352380D01*
X51047619Y-92304761D01*
X51000000Y-92209523D01*
X51000000Y-92114285D01*
X51047619Y-92019047D01*
X51142857Y-91971428D01*
X51380952Y-91971428D01*
X51476190Y-91923809D01*
X52095238Y-92352380D02*
X52000000Y-92304761D01*
X51952380Y-92209523D01*
X51952380Y-91352380D01*
X52857142Y-92304761D02*
X52761904Y-92352380D01*
X52571428Y-92352380D01*
X52476190Y-92304761D01*
X52428571Y-92209523D01*
X52428571Y-91828571D01*
X52476190Y-91733333D01*
X52571428Y-91685714D01*
X52761904Y-91685714D01*
X52857142Y-91733333D01*
X52904761Y-91828571D01*
X52904761Y-91923809D01*
X52428571Y-92019047D01*
X45466666Y-88452380D02*
X45466666Y-89166666D01*
X45419047Y-89309523D01*
X45323809Y-89404761D01*
X45180952Y-89452380D01*
X45085714Y-89452380D01*
X46085714Y-88880952D02*
X45990476Y-88833333D01*
X45942857Y-88785714D01*
X45895238Y-88690476D01*
X45895238Y-88642857D01*
X45942857Y-88547619D01*
X45990476Y-88500000D01*
X46085714Y-88452380D01*
X46276190Y-88452380D01*
X46371428Y-88500000D01*
X46419047Y-88547619D01*
X46466666Y-88642857D01*
X46466666Y-88690476D01*
X46419047Y-88785714D01*
X46371428Y-88833333D01*
X46276190Y-88880952D01*
X46085714Y-88880952D01*
X45990476Y-88928571D01*
X45942857Y-88976190D01*
X45895238Y-89071428D01*
X45895238Y-89261904D01*
X45942857Y-89357142D01*
X45990476Y-89404761D01*
X46085714Y-89452380D01*
X46276190Y-89452380D01*
X46371428Y-89404761D01*
X46419047Y-89357142D01*
X46466666Y-89261904D01*
X46466666Y-89071428D01*
X46419047Y-88976190D01*
X46371428Y-88928571D01*
X46276190Y-88880952D01*
%TO.C,J9*%
X100214285Y-92257142D02*
X100166666Y-92304761D01*
X100023809Y-92352380D01*
X99928571Y-92352380D01*
X99785714Y-92304761D01*
X99690476Y-92209523D01*
X99642857Y-92114285D01*
X99595238Y-91923809D01*
X99595238Y-91780952D01*
X99642857Y-91590476D01*
X99690476Y-91495238D01*
X99785714Y-91400000D01*
X99928571Y-91352380D01*
X100023809Y-91352380D01*
X100166666Y-91400000D01*
X100214285Y-91447619D01*
X100785714Y-92352380D02*
X100690476Y-92304761D01*
X100642857Y-92257142D01*
X100595238Y-92161904D01*
X100595238Y-91876190D01*
X100642857Y-91780952D01*
X100690476Y-91733333D01*
X100785714Y-91685714D01*
X100928571Y-91685714D01*
X101023809Y-91733333D01*
X101071428Y-91780952D01*
X101119047Y-91876190D01*
X101119047Y-92161904D01*
X101071428Y-92257142D01*
X101023809Y-92304761D01*
X100928571Y-92352380D01*
X100785714Y-92352380D01*
X101547619Y-91685714D02*
X101547619Y-92352380D01*
X101547619Y-91780952D02*
X101595238Y-91733333D01*
X101690476Y-91685714D01*
X101833333Y-91685714D01*
X101928571Y-91733333D01*
X101976190Y-91828571D01*
X101976190Y-92352380D01*
X102452380Y-91685714D02*
X102452380Y-92352380D01*
X102452380Y-91780952D02*
X102500000Y-91733333D01*
X102595238Y-91685714D01*
X102738095Y-91685714D01*
X102833333Y-91733333D01*
X102880952Y-91828571D01*
X102880952Y-92352380D01*
X103119047Y-92447619D02*
X103880952Y-92447619D01*
X104309523Y-91352380D02*
X104404761Y-91352380D01*
X104500000Y-91400000D01*
X104547619Y-91447619D01*
X104595238Y-91542857D01*
X104642857Y-91733333D01*
X104642857Y-91971428D01*
X104595238Y-92161904D01*
X104547619Y-92257142D01*
X104500000Y-92304761D01*
X104404761Y-92352380D01*
X104309523Y-92352380D01*
X104214285Y-92304761D01*
X104166666Y-92257142D01*
X104119047Y-92161904D01*
X104071428Y-91971428D01*
X104071428Y-91733333D01*
X104119047Y-91542857D01*
X104166666Y-91447619D01*
X104214285Y-91400000D01*
X104309523Y-91352380D01*
X105595238Y-92352380D02*
X105023809Y-92352380D01*
X105309523Y-92352380D02*
X105309523Y-91352380D01*
X105214285Y-91495238D01*
X105119047Y-91590476D01*
X105023809Y-91638095D01*
X105928571Y-92352380D02*
X106452380Y-91685714D01*
X105928571Y-91685714D02*
X106452380Y-92352380D01*
X107023809Y-91352380D02*
X107119047Y-91352380D01*
X107214285Y-91400000D01*
X107261904Y-91447619D01*
X107309523Y-91542857D01*
X107357142Y-91733333D01*
X107357142Y-91971428D01*
X107309523Y-92161904D01*
X107261904Y-92257142D01*
X107214285Y-92304761D01*
X107119047Y-92352380D01*
X107023809Y-92352380D01*
X106928571Y-92304761D01*
X106880952Y-92257142D01*
X106833333Y-92161904D01*
X106785714Y-91971428D01*
X106785714Y-91733333D01*
X106833333Y-91542857D01*
X106880952Y-91447619D01*
X106928571Y-91400000D01*
X107023809Y-91352380D01*
X108309523Y-92352380D02*
X107738095Y-92352380D01*
X108023809Y-92352380D02*
X108023809Y-91352380D01*
X107928571Y-91495238D01*
X107833333Y-91590476D01*
X107738095Y-91638095D01*
X108500000Y-92447619D02*
X109261904Y-92447619D01*
X109833333Y-91828571D02*
X109500000Y-91828571D01*
X109500000Y-92352380D02*
X109500000Y-91352380D01*
X109976190Y-91352380D01*
X110738095Y-92304761D02*
X110642857Y-92352380D01*
X110452380Y-92352380D01*
X110357142Y-92304761D01*
X110309523Y-92209523D01*
X110309523Y-91828571D01*
X110357142Y-91733333D01*
X110452380Y-91685714D01*
X110642857Y-91685714D01*
X110738095Y-91733333D01*
X110785714Y-91828571D01*
X110785714Y-91923809D01*
X110309523Y-92019047D01*
X111214285Y-92352380D02*
X111214285Y-91685714D01*
X111214285Y-91780952D02*
X111261904Y-91733333D01*
X111357142Y-91685714D01*
X111500000Y-91685714D01*
X111595238Y-91733333D01*
X111642857Y-91828571D01*
X111642857Y-92352380D01*
X111642857Y-91828571D02*
X111690476Y-91733333D01*
X111785714Y-91685714D01*
X111928571Y-91685714D01*
X112023809Y-91733333D01*
X112071428Y-91828571D01*
X112071428Y-92352380D01*
X112976190Y-92352380D02*
X112976190Y-91828571D01*
X112928571Y-91733333D01*
X112833333Y-91685714D01*
X112642857Y-91685714D01*
X112547619Y-91733333D01*
X112976190Y-92304761D02*
X112880952Y-92352380D01*
X112642857Y-92352380D01*
X112547619Y-92304761D01*
X112500000Y-92209523D01*
X112500000Y-92114285D01*
X112547619Y-92019047D01*
X112642857Y-91971428D01*
X112880952Y-91971428D01*
X112976190Y-91923809D01*
X113595238Y-92352380D02*
X113500000Y-92304761D01*
X113452380Y-92209523D01*
X113452380Y-91352380D01*
X114357142Y-92304761D02*
X114261904Y-92352380D01*
X114071428Y-92352380D01*
X113976190Y-92304761D01*
X113928571Y-92209523D01*
X113928571Y-91828571D01*
X113976190Y-91733333D01*
X114071428Y-91685714D01*
X114261904Y-91685714D01*
X114357142Y-91733333D01*
X114404761Y-91828571D01*
X114404761Y-91923809D01*
X113928571Y-92019047D01*
X106966666Y-88452380D02*
X106966666Y-89166666D01*
X106919047Y-89309523D01*
X106823809Y-89404761D01*
X106680952Y-89452380D01*
X106585714Y-89452380D01*
X107490476Y-89452380D02*
X107680952Y-89452380D01*
X107776190Y-89404761D01*
X107823809Y-89357142D01*
X107919047Y-89214285D01*
X107966666Y-89023809D01*
X107966666Y-88642857D01*
X107919047Y-88547619D01*
X107871428Y-88500000D01*
X107776190Y-88452380D01*
X107585714Y-88452380D01*
X107490476Y-88500000D01*
X107442857Y-88547619D01*
X107395238Y-88642857D01*
X107395238Y-88880952D01*
X107442857Y-88976190D01*
X107490476Y-89023809D01*
X107585714Y-89071428D01*
X107776190Y-89071428D01*
X107871428Y-89023809D01*
X107919047Y-88976190D01*
X107966666Y-88880952D01*
%TO.C,J7*%
X100214285Y-138757142D02*
X100166666Y-138804761D01*
X100023809Y-138852380D01*
X99928571Y-138852380D01*
X99785714Y-138804761D01*
X99690476Y-138709523D01*
X99642857Y-138614285D01*
X99595238Y-138423809D01*
X99595238Y-138280952D01*
X99642857Y-138090476D01*
X99690476Y-137995238D01*
X99785714Y-137900000D01*
X99928571Y-137852380D01*
X100023809Y-137852380D01*
X100166666Y-137900000D01*
X100214285Y-137947619D01*
X100785714Y-138852380D02*
X100690476Y-138804761D01*
X100642857Y-138757142D01*
X100595238Y-138661904D01*
X100595238Y-138376190D01*
X100642857Y-138280952D01*
X100690476Y-138233333D01*
X100785714Y-138185714D01*
X100928571Y-138185714D01*
X101023809Y-138233333D01*
X101071428Y-138280952D01*
X101119047Y-138376190D01*
X101119047Y-138661904D01*
X101071428Y-138757142D01*
X101023809Y-138804761D01*
X100928571Y-138852380D01*
X100785714Y-138852380D01*
X101547619Y-138185714D02*
X101547619Y-138852380D01*
X101547619Y-138280952D02*
X101595238Y-138233333D01*
X101690476Y-138185714D01*
X101833333Y-138185714D01*
X101928571Y-138233333D01*
X101976190Y-138328571D01*
X101976190Y-138852380D01*
X102452380Y-138185714D02*
X102452380Y-138852380D01*
X102452380Y-138280952D02*
X102500000Y-138233333D01*
X102595238Y-138185714D01*
X102738095Y-138185714D01*
X102833333Y-138233333D01*
X102880952Y-138328571D01*
X102880952Y-138852380D01*
X103119047Y-138947619D02*
X103880952Y-138947619D01*
X104309523Y-137852380D02*
X104404761Y-137852380D01*
X104500000Y-137900000D01*
X104547619Y-137947619D01*
X104595238Y-138042857D01*
X104642857Y-138233333D01*
X104642857Y-138471428D01*
X104595238Y-138661904D01*
X104547619Y-138757142D01*
X104500000Y-138804761D01*
X104404761Y-138852380D01*
X104309523Y-138852380D01*
X104214285Y-138804761D01*
X104166666Y-138757142D01*
X104119047Y-138661904D01*
X104071428Y-138471428D01*
X104071428Y-138233333D01*
X104119047Y-138042857D01*
X104166666Y-137947619D01*
X104214285Y-137900000D01*
X104309523Y-137852380D01*
X105595238Y-138852380D02*
X105023809Y-138852380D01*
X105309523Y-138852380D02*
X105309523Y-137852380D01*
X105214285Y-137995238D01*
X105119047Y-138090476D01*
X105023809Y-138138095D01*
X105928571Y-138852380D02*
X106452380Y-138185714D01*
X105928571Y-138185714D02*
X106452380Y-138852380D01*
X107023809Y-137852380D02*
X107119047Y-137852380D01*
X107214285Y-137900000D01*
X107261904Y-137947619D01*
X107309523Y-138042857D01*
X107357142Y-138233333D01*
X107357142Y-138471428D01*
X107309523Y-138661904D01*
X107261904Y-138757142D01*
X107214285Y-138804761D01*
X107119047Y-138852380D01*
X107023809Y-138852380D01*
X106928571Y-138804761D01*
X106880952Y-138757142D01*
X106833333Y-138661904D01*
X106785714Y-138471428D01*
X106785714Y-138233333D01*
X106833333Y-138042857D01*
X106880952Y-137947619D01*
X106928571Y-137900000D01*
X107023809Y-137852380D01*
X108309523Y-138852380D02*
X107738095Y-138852380D01*
X108023809Y-138852380D02*
X108023809Y-137852380D01*
X107928571Y-137995238D01*
X107833333Y-138090476D01*
X107738095Y-138138095D01*
X108500000Y-138947619D02*
X109261904Y-138947619D01*
X109833333Y-138328571D02*
X109500000Y-138328571D01*
X109500000Y-138852380D02*
X109500000Y-137852380D01*
X109976190Y-137852380D01*
X110738095Y-138804761D02*
X110642857Y-138852380D01*
X110452380Y-138852380D01*
X110357142Y-138804761D01*
X110309523Y-138709523D01*
X110309523Y-138328571D01*
X110357142Y-138233333D01*
X110452380Y-138185714D01*
X110642857Y-138185714D01*
X110738095Y-138233333D01*
X110785714Y-138328571D01*
X110785714Y-138423809D01*
X110309523Y-138519047D01*
X111214285Y-138852380D02*
X111214285Y-138185714D01*
X111214285Y-138280952D02*
X111261904Y-138233333D01*
X111357142Y-138185714D01*
X111500000Y-138185714D01*
X111595238Y-138233333D01*
X111642857Y-138328571D01*
X111642857Y-138852380D01*
X111642857Y-138328571D02*
X111690476Y-138233333D01*
X111785714Y-138185714D01*
X111928571Y-138185714D01*
X112023809Y-138233333D01*
X112071428Y-138328571D01*
X112071428Y-138852380D01*
X112976190Y-138852380D02*
X112976190Y-138328571D01*
X112928571Y-138233333D01*
X112833333Y-138185714D01*
X112642857Y-138185714D01*
X112547619Y-138233333D01*
X112976190Y-138804761D02*
X112880952Y-138852380D01*
X112642857Y-138852380D01*
X112547619Y-138804761D01*
X112500000Y-138709523D01*
X112500000Y-138614285D01*
X112547619Y-138519047D01*
X112642857Y-138471428D01*
X112880952Y-138471428D01*
X112976190Y-138423809D01*
X113595238Y-138852380D02*
X113500000Y-138804761D01*
X113452380Y-138709523D01*
X113452380Y-137852380D01*
X114357142Y-138804761D02*
X114261904Y-138852380D01*
X114071428Y-138852380D01*
X113976190Y-138804761D01*
X113928571Y-138709523D01*
X113928571Y-138328571D01*
X113976190Y-138233333D01*
X114071428Y-138185714D01*
X114261904Y-138185714D01*
X114357142Y-138233333D01*
X114404761Y-138328571D01*
X114404761Y-138423809D01*
X113928571Y-138519047D01*
X106966666Y-134952380D02*
X106966666Y-135666666D01*
X106919047Y-135809523D01*
X106823809Y-135904761D01*
X106680952Y-135952380D01*
X106585714Y-135952380D01*
X107347619Y-134952380D02*
X108014285Y-134952380D01*
X107585714Y-135952380D01*
%TO.C,J6*%
X38714285Y-138757142D02*
X38666666Y-138804761D01*
X38523809Y-138852380D01*
X38428571Y-138852380D01*
X38285714Y-138804761D01*
X38190476Y-138709523D01*
X38142857Y-138614285D01*
X38095238Y-138423809D01*
X38095238Y-138280952D01*
X38142857Y-138090476D01*
X38190476Y-137995238D01*
X38285714Y-137900000D01*
X38428571Y-137852380D01*
X38523809Y-137852380D01*
X38666666Y-137900000D01*
X38714285Y-137947619D01*
X39285714Y-138852380D02*
X39190476Y-138804761D01*
X39142857Y-138757142D01*
X39095238Y-138661904D01*
X39095238Y-138376190D01*
X39142857Y-138280952D01*
X39190476Y-138233333D01*
X39285714Y-138185714D01*
X39428571Y-138185714D01*
X39523809Y-138233333D01*
X39571428Y-138280952D01*
X39619047Y-138376190D01*
X39619047Y-138661904D01*
X39571428Y-138757142D01*
X39523809Y-138804761D01*
X39428571Y-138852380D01*
X39285714Y-138852380D01*
X40047619Y-138185714D02*
X40047619Y-138852380D01*
X40047619Y-138280952D02*
X40095238Y-138233333D01*
X40190476Y-138185714D01*
X40333333Y-138185714D01*
X40428571Y-138233333D01*
X40476190Y-138328571D01*
X40476190Y-138852380D01*
X40952380Y-138185714D02*
X40952380Y-138852380D01*
X40952380Y-138280952D02*
X41000000Y-138233333D01*
X41095238Y-138185714D01*
X41238095Y-138185714D01*
X41333333Y-138233333D01*
X41380952Y-138328571D01*
X41380952Y-138852380D01*
X41619047Y-138947619D02*
X42380952Y-138947619D01*
X42809523Y-137852380D02*
X42904761Y-137852380D01*
X43000000Y-137900000D01*
X43047619Y-137947619D01*
X43095238Y-138042857D01*
X43142857Y-138233333D01*
X43142857Y-138471428D01*
X43095238Y-138661904D01*
X43047619Y-138757142D01*
X43000000Y-138804761D01*
X42904761Y-138852380D01*
X42809523Y-138852380D01*
X42714285Y-138804761D01*
X42666666Y-138757142D01*
X42619047Y-138661904D01*
X42571428Y-138471428D01*
X42571428Y-138233333D01*
X42619047Y-138042857D01*
X42666666Y-137947619D01*
X42714285Y-137900000D01*
X42809523Y-137852380D01*
X44095238Y-138852380D02*
X43523809Y-138852380D01*
X43809523Y-138852380D02*
X43809523Y-137852380D01*
X43714285Y-137995238D01*
X43619047Y-138090476D01*
X43523809Y-138138095D01*
X44428571Y-138852380D02*
X44952380Y-138185714D01*
X44428571Y-138185714D02*
X44952380Y-138852380D01*
X45523809Y-137852380D02*
X45619047Y-137852380D01*
X45714285Y-137900000D01*
X45761904Y-137947619D01*
X45809523Y-138042857D01*
X45857142Y-138233333D01*
X45857142Y-138471428D01*
X45809523Y-138661904D01*
X45761904Y-138757142D01*
X45714285Y-138804761D01*
X45619047Y-138852380D01*
X45523809Y-138852380D01*
X45428571Y-138804761D01*
X45380952Y-138757142D01*
X45333333Y-138661904D01*
X45285714Y-138471428D01*
X45285714Y-138233333D01*
X45333333Y-138042857D01*
X45380952Y-137947619D01*
X45428571Y-137900000D01*
X45523809Y-137852380D01*
X46809523Y-138852380D02*
X46238095Y-138852380D01*
X46523809Y-138852380D02*
X46523809Y-137852380D01*
X46428571Y-137995238D01*
X46333333Y-138090476D01*
X46238095Y-138138095D01*
X47000000Y-138947619D02*
X47761904Y-138947619D01*
X48333333Y-138328571D02*
X48000000Y-138328571D01*
X48000000Y-138852380D02*
X48000000Y-137852380D01*
X48476190Y-137852380D01*
X49238095Y-138804761D02*
X49142857Y-138852380D01*
X48952380Y-138852380D01*
X48857142Y-138804761D01*
X48809523Y-138709523D01*
X48809523Y-138328571D01*
X48857142Y-138233333D01*
X48952380Y-138185714D01*
X49142857Y-138185714D01*
X49238095Y-138233333D01*
X49285714Y-138328571D01*
X49285714Y-138423809D01*
X48809523Y-138519047D01*
X49714285Y-138852380D02*
X49714285Y-138185714D01*
X49714285Y-138280952D02*
X49761904Y-138233333D01*
X49857142Y-138185714D01*
X50000000Y-138185714D01*
X50095238Y-138233333D01*
X50142857Y-138328571D01*
X50142857Y-138852380D01*
X50142857Y-138328571D02*
X50190476Y-138233333D01*
X50285714Y-138185714D01*
X50428571Y-138185714D01*
X50523809Y-138233333D01*
X50571428Y-138328571D01*
X50571428Y-138852380D01*
X51476190Y-138852380D02*
X51476190Y-138328571D01*
X51428571Y-138233333D01*
X51333333Y-138185714D01*
X51142857Y-138185714D01*
X51047619Y-138233333D01*
X51476190Y-138804761D02*
X51380952Y-138852380D01*
X51142857Y-138852380D01*
X51047619Y-138804761D01*
X51000000Y-138709523D01*
X51000000Y-138614285D01*
X51047619Y-138519047D01*
X51142857Y-138471428D01*
X51380952Y-138471428D01*
X51476190Y-138423809D01*
X52095238Y-138852380D02*
X52000000Y-138804761D01*
X51952380Y-138709523D01*
X51952380Y-137852380D01*
X52857142Y-138804761D02*
X52761904Y-138852380D01*
X52571428Y-138852380D01*
X52476190Y-138804761D01*
X52428571Y-138709523D01*
X52428571Y-138328571D01*
X52476190Y-138233333D01*
X52571428Y-138185714D01*
X52761904Y-138185714D01*
X52857142Y-138233333D01*
X52904761Y-138328571D01*
X52904761Y-138423809D01*
X52428571Y-138519047D01*
X45466666Y-134952380D02*
X45466666Y-135666666D01*
X45419047Y-135809523D01*
X45323809Y-135904761D01*
X45180952Y-135952380D01*
X45085714Y-135952380D01*
X46371428Y-134952380D02*
X46180952Y-134952380D01*
X46085714Y-135000000D01*
X46038095Y-135047619D01*
X45942857Y-135190476D01*
X45895238Y-135380952D01*
X45895238Y-135761904D01*
X45942857Y-135857142D01*
X45990476Y-135904761D01*
X46085714Y-135952380D01*
X46276190Y-135952380D01*
X46371428Y-135904761D01*
X46419047Y-135857142D01*
X46466666Y-135761904D01*
X46466666Y-135523809D01*
X46419047Y-135428571D01*
X46371428Y-135380952D01*
X46276190Y-135333333D01*
X46085714Y-135333333D01*
X45990476Y-135380952D01*
X45942857Y-135428571D01*
X45895238Y-135523809D01*
%TO.C,R1*%
X62499523Y-111822380D02*
X61928095Y-111822380D01*
X62213809Y-111822380D02*
X62213809Y-110822380D01*
X62118571Y-110965238D01*
X62023333Y-111060476D01*
X61928095Y-111108095D01*
X63118571Y-110822380D02*
X63213809Y-110822380D01*
X63309047Y-110870000D01*
X63356666Y-110917619D01*
X63404285Y-111012857D01*
X63451904Y-111203333D01*
X63451904Y-111441428D01*
X63404285Y-111631904D01*
X63356666Y-111727142D01*
X63309047Y-111774761D01*
X63213809Y-111822380D01*
X63118571Y-111822380D01*
X63023333Y-111774761D01*
X62975714Y-111727142D01*
X62928095Y-111631904D01*
X62880476Y-111441428D01*
X62880476Y-111203333D01*
X62928095Y-111012857D01*
X62975714Y-110917619D01*
X63023333Y-110870000D01*
X63118571Y-110822380D01*
X62523333Y-109452380D02*
X62190000Y-108976190D01*
X61951904Y-109452380D02*
X61951904Y-108452380D01*
X62332857Y-108452380D01*
X62428095Y-108500000D01*
X62475714Y-108547619D01*
X62523333Y-108642857D01*
X62523333Y-108785714D01*
X62475714Y-108880952D01*
X62428095Y-108928571D01*
X62332857Y-108976190D01*
X61951904Y-108976190D01*
X63475714Y-109452380D02*
X62904285Y-109452380D01*
X63190000Y-109452380D02*
X63190000Y-108452380D01*
X63094761Y-108595238D01*
X62999523Y-108690476D01*
X62904285Y-108738095D01*
%TO.C,C7*%
X50130952Y-93002380D02*
X50226190Y-93002380D01*
X50321428Y-93050000D01*
X50369047Y-93097619D01*
X50416666Y-93192857D01*
X50464285Y-93383333D01*
X50464285Y-93621428D01*
X50416666Y-93811904D01*
X50369047Y-93907142D01*
X50321428Y-93954761D01*
X50226190Y-94002380D01*
X50130952Y-94002380D01*
X50035714Y-93954761D01*
X49988095Y-93907142D01*
X49940476Y-93811904D01*
X49892857Y-93621428D01*
X49892857Y-93383333D01*
X49940476Y-93192857D01*
X49988095Y-93097619D01*
X50035714Y-93050000D01*
X50130952Y-93002380D01*
X50892857Y-93907142D02*
X50940476Y-93954761D01*
X50892857Y-94002380D01*
X50845238Y-93954761D01*
X50892857Y-93907142D01*
X50892857Y-94002380D01*
X51559523Y-93002380D02*
X51654761Y-93002380D01*
X51750000Y-93050000D01*
X51797619Y-93097619D01*
X51845238Y-93192857D01*
X51892857Y-93383333D01*
X51892857Y-93621428D01*
X51845238Y-93811904D01*
X51797619Y-93907142D01*
X51750000Y-93954761D01*
X51654761Y-94002380D01*
X51559523Y-94002380D01*
X51464285Y-93954761D01*
X51416666Y-93907142D01*
X51369047Y-93811904D01*
X51321428Y-93621428D01*
X51321428Y-93383333D01*
X51369047Y-93192857D01*
X51416666Y-93097619D01*
X51464285Y-93050000D01*
X51559523Y-93002380D01*
X52797619Y-93002380D02*
X52321428Y-93002380D01*
X52273809Y-93478571D01*
X52321428Y-93430952D01*
X52416666Y-93383333D01*
X52654761Y-93383333D01*
X52750000Y-93430952D01*
X52797619Y-93478571D01*
X52845238Y-93573809D01*
X52845238Y-93811904D01*
X52797619Y-93907142D01*
X52750000Y-93954761D01*
X52654761Y-94002380D01*
X52416666Y-94002380D01*
X52321428Y-93954761D01*
X52273809Y-93907142D01*
X53702380Y-93335714D02*
X53702380Y-94002380D01*
X53273809Y-93335714D02*
X53273809Y-93859523D01*
X53321428Y-93954761D01*
X53416666Y-94002380D01*
X53559523Y-94002380D01*
X53654761Y-93954761D01*
X53702380Y-93907142D01*
X54511904Y-93478571D02*
X54178571Y-93478571D01*
X54178571Y-94002380D02*
X54178571Y-93002380D01*
X54654761Y-93002380D01*
D12*
X52123333Y-91271428D02*
X52087142Y-91307619D01*
X51978571Y-91343809D01*
X51906190Y-91343809D01*
X51797619Y-91307619D01*
X51725238Y-91235238D01*
X51689047Y-91162857D01*
X51652857Y-91018095D01*
X51652857Y-90909523D01*
X51689047Y-90764761D01*
X51725238Y-90692380D01*
X51797619Y-90620000D01*
X51906190Y-90583809D01*
X51978571Y-90583809D01*
X52087142Y-90620000D01*
X52123333Y-90656190D01*
X52376666Y-90583809D02*
X52883333Y-90583809D01*
X52557619Y-91343809D01*
%TO.C,BT1*%
D11*
X40476190Y-120036666D02*
X40952380Y-120036666D01*
X40380952Y-120322380D02*
X40714285Y-119322380D01*
X41047619Y-120322380D01*
X41952380Y-120227142D02*
X41904761Y-120274761D01*
X41761904Y-120322380D01*
X41666666Y-120322380D01*
X41523809Y-120274761D01*
X41428571Y-120179523D01*
X41380952Y-120084285D01*
X41333333Y-119893809D01*
X41333333Y-119750952D01*
X41380952Y-119560476D01*
X41428571Y-119465238D01*
X41523809Y-119370000D01*
X41666666Y-119322380D01*
X41761904Y-119322380D01*
X41904761Y-119370000D01*
X41952380Y-119417619D01*
X42952380Y-120227142D02*
X42904761Y-120274761D01*
X42761904Y-120322380D01*
X42666666Y-120322380D01*
X42523809Y-120274761D01*
X42428571Y-120179523D01*
X42380952Y-120084285D01*
X42333333Y-119893809D01*
X42333333Y-119750952D01*
X42380952Y-119560476D01*
X42428571Y-119465238D01*
X42523809Y-119370000D01*
X42666666Y-119322380D01*
X42761904Y-119322380D01*
X42904761Y-119370000D01*
X42952380Y-119417619D01*
X43380952Y-119941428D02*
X44142857Y-119941428D01*
X44666666Y-120322380D02*
X44857142Y-120322380D01*
X44952380Y-120274761D01*
X45000000Y-120227142D01*
X45095238Y-120084285D01*
X45142857Y-119893809D01*
X45142857Y-119512857D01*
X45095238Y-119417619D01*
X45047619Y-119370000D01*
X44952380Y-119322380D01*
X44761904Y-119322380D01*
X44666666Y-119370000D01*
X44619047Y-119417619D01*
X44571428Y-119512857D01*
X44571428Y-119750952D01*
X44619047Y-119846190D01*
X44666666Y-119893809D01*
X44761904Y-119941428D01*
X44952380Y-119941428D01*
X45047619Y-119893809D01*
X45095238Y-119846190D01*
X45142857Y-119750952D01*
X45428571Y-119322380D02*
X45761904Y-120322380D01*
X46095238Y-119322380D01*
X47000000Y-120227142D02*
X46952380Y-120274761D01*
X46809523Y-120322380D01*
X46714285Y-120322380D01*
X46571428Y-120274761D01*
X46476190Y-120179523D01*
X46428571Y-120084285D01*
X46380952Y-119893809D01*
X46380952Y-119750952D01*
X46428571Y-119560476D01*
X46476190Y-119465238D01*
X46571428Y-119370000D01*
X46714285Y-119322380D01*
X46809523Y-119322380D01*
X46952380Y-119370000D01*
X47000000Y-119417619D01*
X47904761Y-120322380D02*
X47428571Y-120322380D01*
X47428571Y-119322380D01*
X48238095Y-120322380D02*
X48238095Y-119322380D01*
X48714285Y-120322380D02*
X48714285Y-119322380D01*
X49095238Y-119322380D01*
X49190476Y-119370000D01*
X49238095Y-119417619D01*
X49285714Y-119512857D01*
X49285714Y-119655714D01*
X49238095Y-119750952D01*
X49190476Y-119798571D01*
X49095238Y-119846190D01*
X48714285Y-119846190D01*
X49714285Y-119941428D02*
X50476190Y-119941428D01*
X50904761Y-119417619D02*
X50952380Y-119370000D01*
X51047619Y-119322380D01*
X51285714Y-119322380D01*
X51380952Y-119370000D01*
X51428571Y-119417619D01*
X51476190Y-119512857D01*
X51476190Y-119608095D01*
X51428571Y-119750952D01*
X50857142Y-120322380D01*
X51476190Y-120322380D01*
X51809523Y-119322380D02*
X52428571Y-119322380D01*
X52095238Y-119703333D01*
X52238095Y-119703333D01*
X52333333Y-119750952D01*
X52380952Y-119798571D01*
X52428571Y-119893809D01*
X52428571Y-120131904D01*
X52380952Y-120227142D01*
X52333333Y-120274761D01*
X52238095Y-120322380D01*
X51952380Y-120322380D01*
X51857142Y-120274761D01*
X51809523Y-120227142D01*
X52761904Y-119322380D02*
X53380952Y-119322380D01*
X53047619Y-119703333D01*
X53190476Y-119703333D01*
X53285714Y-119750952D01*
X53333333Y-119798571D01*
X53380952Y-119893809D01*
X53380952Y-120131904D01*
X53333333Y-120227142D01*
X53285714Y-120274761D01*
X53190476Y-120322380D01*
X52904761Y-120322380D01*
X52809523Y-120274761D01*
X52761904Y-120227142D01*
X53809523Y-120322380D02*
X53809523Y-119322380D01*
X54142857Y-120036666D01*
X54476190Y-119322380D01*
X54476190Y-120322380D01*
X47428571Y-117055714D02*
X47476190Y-116912857D01*
X47523809Y-116865238D01*
X47619047Y-116817619D01*
X47761904Y-116817619D01*
X47857142Y-116865238D01*
X47904761Y-116912857D01*
X47952380Y-117008095D01*
X47952380Y-117389047D01*
X46952380Y-117389047D01*
X46952380Y-117055714D01*
X47000000Y-116960476D01*
X47047619Y-116912857D01*
X47142857Y-116865238D01*
X47238095Y-116865238D01*
X47333333Y-116912857D01*
X47380952Y-116960476D01*
X47428571Y-117055714D01*
X47428571Y-117389047D01*
X46952380Y-116531904D02*
X46952380Y-115960476D01*
X47952380Y-116246190D02*
X46952380Y-116246190D01*
X47952380Y-115103333D02*
X47952380Y-115674761D01*
X47952380Y-115389047D02*
X46952380Y-115389047D01*
X47095238Y-115484285D01*
X47190476Y-115579523D01*
X47238095Y-115674761D01*
%TO.C,C4*%
X51235714Y-117654761D02*
X51902380Y-117654761D01*
X50854761Y-117892857D02*
X51569047Y-118130952D01*
X51569047Y-117511904D01*
X51807142Y-117130952D02*
X51854761Y-117083333D01*
X51902380Y-117130952D01*
X51854761Y-117178571D01*
X51807142Y-117130952D01*
X51902380Y-117130952D01*
X50902380Y-116749999D02*
X50902380Y-116083333D01*
X51902380Y-116511904D01*
X51235714Y-115273809D02*
X51902380Y-115273809D01*
X51235714Y-115702380D02*
X51759523Y-115702380D01*
X51854761Y-115654761D01*
X51902380Y-115559523D01*
X51902380Y-115416666D01*
X51854761Y-115321428D01*
X51807142Y-115273809D01*
X51378571Y-114464285D02*
X51378571Y-114797619D01*
X51902380Y-114797619D02*
X50902380Y-114797619D01*
X50902380Y-114321428D01*
D12*
X54271428Y-116376666D02*
X54307619Y-116412857D01*
X54343809Y-116521428D01*
X54343809Y-116593809D01*
X54307619Y-116702380D01*
X54235238Y-116774761D01*
X54162857Y-116810952D01*
X54018095Y-116847142D01*
X53909523Y-116847142D01*
X53764761Y-116810952D01*
X53692380Y-116774761D01*
X53620000Y-116702380D01*
X53583809Y-116593809D01*
X53583809Y-116521428D01*
X53620000Y-116412857D01*
X53656190Y-116376666D01*
X53837142Y-115725238D02*
X54343809Y-115725238D01*
X53547619Y-115906190D02*
X54090476Y-116087142D01*
X54090476Y-115616666D01*
%TO.C,C2*%
D11*
X95654761Y-122502380D02*
X95083333Y-122502380D01*
X95369047Y-122502380D02*
X95369047Y-121502380D01*
X95273809Y-121645238D01*
X95178571Y-121740476D01*
X95083333Y-121788095D01*
X96083333Y-121835714D02*
X96083333Y-122502380D01*
X96083333Y-121930952D02*
X96130952Y-121883333D01*
X96226190Y-121835714D01*
X96369047Y-121835714D01*
X96464285Y-121883333D01*
X96511904Y-121978571D01*
X96511904Y-122502380D01*
X97321428Y-121978571D02*
X96988095Y-121978571D01*
X96988095Y-122502380D02*
X96988095Y-121502380D01*
X97464285Y-121502380D01*
D12*
X96123333Y-119771428D02*
X96087142Y-119807619D01*
X95978571Y-119843809D01*
X95906190Y-119843809D01*
X95797619Y-119807619D01*
X95725238Y-119735238D01*
X95689047Y-119662857D01*
X95652857Y-119518095D01*
X95652857Y-119409523D01*
X95689047Y-119264761D01*
X95725238Y-119192380D01*
X95797619Y-119120000D01*
X95906190Y-119083809D01*
X95978571Y-119083809D01*
X96087142Y-119120000D01*
X96123333Y-119156190D01*
X96412857Y-119156190D02*
X96449047Y-119120000D01*
X96521428Y-119083809D01*
X96702380Y-119083809D01*
X96774761Y-119120000D01*
X96810952Y-119156190D01*
X96847142Y-119228571D01*
X96847142Y-119300952D01*
X96810952Y-119409523D01*
X96376666Y-119843809D01*
X96847142Y-119843809D01*
%TO.C,C3*%
D11*
X97502380Y-128297619D02*
X97502380Y-128869047D01*
X97502380Y-128583333D02*
X96502380Y-128583333D01*
X96645238Y-128678571D01*
X96740476Y-128773809D01*
X96788095Y-128869047D01*
X96502380Y-127678571D02*
X96502380Y-127583333D01*
X96550000Y-127488095D01*
X96597619Y-127440476D01*
X96692857Y-127392857D01*
X96883333Y-127345238D01*
X97121428Y-127345238D01*
X97311904Y-127392857D01*
X97407142Y-127440476D01*
X97454761Y-127488095D01*
X97502380Y-127583333D01*
X97502380Y-127678571D01*
X97454761Y-127773809D01*
X97407142Y-127821428D01*
X97311904Y-127869047D01*
X97121428Y-127916666D01*
X96883333Y-127916666D01*
X96692857Y-127869047D01*
X96597619Y-127821428D01*
X96550000Y-127773809D01*
X96502380Y-127678571D01*
X96502380Y-126726190D02*
X96502380Y-126630952D01*
X96550000Y-126535714D01*
X96597619Y-126488095D01*
X96692857Y-126440476D01*
X96883333Y-126392857D01*
X97121428Y-126392857D01*
X97311904Y-126440476D01*
X97407142Y-126488095D01*
X97454761Y-126535714D01*
X97502380Y-126630952D01*
X97502380Y-126726190D01*
X97454761Y-126821428D01*
X97407142Y-126869047D01*
X97311904Y-126916666D01*
X97121428Y-126964285D01*
X96883333Y-126964285D01*
X96692857Y-126916666D01*
X96597619Y-126869047D01*
X96550000Y-126821428D01*
X96502380Y-126726190D01*
X96835714Y-125964285D02*
X97502380Y-125964285D01*
X96930952Y-125964285D02*
X96883333Y-125916666D01*
X96835714Y-125821428D01*
X96835714Y-125678571D01*
X96883333Y-125583333D01*
X96978571Y-125535714D01*
X97502380Y-125535714D01*
X96978571Y-124726190D02*
X96978571Y-125059523D01*
X97502380Y-125059523D02*
X96502380Y-125059523D01*
X96502380Y-124583333D01*
D12*
X94771428Y-126876666D02*
X94807619Y-126912857D01*
X94843809Y-127021428D01*
X94843809Y-127093809D01*
X94807619Y-127202380D01*
X94735238Y-127274761D01*
X94662857Y-127310952D01*
X94518095Y-127347142D01*
X94409523Y-127347142D01*
X94264761Y-127310952D01*
X94192380Y-127274761D01*
X94120000Y-127202380D01*
X94083809Y-127093809D01*
X94083809Y-127021428D01*
X94120000Y-126912857D01*
X94156190Y-126876666D01*
X94083809Y-126623333D02*
X94083809Y-126152857D01*
X94373333Y-126406190D01*
X94373333Y-126297619D01*
X94409523Y-126225238D01*
X94445714Y-126189047D01*
X94518095Y-126152857D01*
X94699047Y-126152857D01*
X94771428Y-126189047D01*
X94807619Y-126225238D01*
X94843809Y-126297619D01*
X94843809Y-126514761D01*
X94807619Y-126587142D01*
X94771428Y-126623333D01*
%TO.C,SW1*%
D11*
X45225714Y-128809523D02*
X45892380Y-128809523D01*
X44844761Y-129047619D02*
X45559047Y-129285714D01*
X45559047Y-128666666D01*
X44892380Y-127809523D02*
X44892380Y-128285714D01*
X45368571Y-128333333D01*
X45320952Y-128285714D01*
X45273333Y-128190476D01*
X45273333Y-127952380D01*
X45320952Y-127857142D01*
X45368571Y-127809523D01*
X45463809Y-127761904D01*
X45701904Y-127761904D01*
X45797142Y-127809523D01*
X45844761Y-127857142D01*
X45892380Y-127952380D01*
X45892380Y-128190476D01*
X45844761Y-128285714D01*
X45797142Y-128333333D01*
X45892380Y-126809523D02*
X45892380Y-127380952D01*
X45892380Y-127095238D02*
X44892380Y-127095238D01*
X45035238Y-127190476D01*
X45130476Y-127285714D01*
X45178095Y-127380952D01*
X45511428Y-126380952D02*
X45511428Y-125619047D01*
X45892380Y-124619047D02*
X45892380Y-125190476D01*
X45892380Y-124904761D02*
X44892380Y-124904761D01*
X45035238Y-125000000D01*
X45130476Y-125095238D01*
X45178095Y-125190476D01*
X45892380Y-123666666D02*
X45892380Y-124238095D01*
X45892380Y-123952380D02*
X44892380Y-123952380D01*
X45035238Y-124047619D01*
X45130476Y-124142857D01*
X45178095Y-124238095D01*
X44892380Y-122761904D02*
X44892380Y-123238095D01*
X45368571Y-123285714D01*
X45320952Y-123238095D01*
X45273333Y-123142857D01*
X45273333Y-122904761D01*
X45320952Y-122809523D01*
X45368571Y-122761904D01*
X45463809Y-122714285D01*
X45701904Y-122714285D01*
X45797142Y-122761904D01*
X45844761Y-122809523D01*
X45892380Y-122904761D01*
X45892380Y-123142857D01*
X45844761Y-123238095D01*
X45797142Y-123285714D01*
X45320952Y-122142857D02*
X45273333Y-122238095D01*
X45225714Y-122285714D01*
X45130476Y-122333333D01*
X45082857Y-122333333D01*
X44987619Y-122285714D01*
X44940000Y-122238095D01*
X44892380Y-122142857D01*
X44892380Y-121952380D01*
X44940000Y-121857142D01*
X44987619Y-121809523D01*
X45082857Y-121761904D01*
X45130476Y-121761904D01*
X45225714Y-121809523D01*
X45273333Y-121857142D01*
X45320952Y-121952380D01*
X45320952Y-122142857D01*
X45368571Y-122238095D01*
X45416190Y-122285714D01*
X45511428Y-122333333D01*
X45701904Y-122333333D01*
X45797142Y-122285714D01*
X45844761Y-122238095D01*
X45892380Y-122142857D01*
X45892380Y-121952380D01*
X45844761Y-121857142D01*
X45797142Y-121809523D01*
X45701904Y-121761904D01*
X45511428Y-121761904D01*
X45416190Y-121809523D01*
X45368571Y-121857142D01*
X45320952Y-121952380D01*
X45511428Y-121333333D02*
X45511428Y-120571428D01*
X45892380Y-120095238D02*
X44892380Y-120095238D01*
X45892380Y-119523809D01*
X44892380Y-119523809D01*
X45892380Y-119047619D02*
X44892380Y-119047619D01*
X44892380Y-118809523D01*
X44940000Y-118666666D01*
X45035238Y-118571428D01*
X45130476Y-118523809D01*
X45320952Y-118476190D01*
X45463809Y-118476190D01*
X45654285Y-118523809D01*
X45749523Y-118571428D01*
X45844761Y-118666666D01*
X45892380Y-118809523D01*
X45892380Y-119047619D01*
X46166666Y-123904761D02*
X46309523Y-123952380D01*
X46547619Y-123952380D01*
X46642857Y-123904761D01*
X46690476Y-123857142D01*
X46738095Y-123761904D01*
X46738095Y-123666666D01*
X46690476Y-123571428D01*
X46642857Y-123523809D01*
X46547619Y-123476190D01*
X46357142Y-123428571D01*
X46261904Y-123380952D01*
X46214285Y-123333333D01*
X46166666Y-123238095D01*
X46166666Y-123142857D01*
X46214285Y-123047619D01*
X46261904Y-123000000D01*
X46357142Y-122952380D01*
X46595238Y-122952380D01*
X46738095Y-123000000D01*
X47071428Y-122952380D02*
X47309523Y-123952380D01*
X47500000Y-123238095D01*
X47690476Y-123952380D01*
X47928571Y-122952380D01*
X48833333Y-123952380D02*
X48261904Y-123952380D01*
X48547619Y-123952380D02*
X48547619Y-122952380D01*
X48452380Y-123095238D01*
X48357142Y-123190476D01*
X48261904Y-123238095D01*
%TO.C,J2*%
X45377380Y-99913095D02*
X44377380Y-99913095D01*
X45091666Y-99579761D01*
X44377380Y-99246428D01*
X45377380Y-99246428D01*
X44377380Y-98484523D02*
X45091666Y-98484523D01*
X45234523Y-98532142D01*
X45329761Y-98627380D01*
X45377380Y-98770238D01*
X45377380Y-98865476D01*
X44996428Y-98008333D02*
X44996428Y-97246428D01*
X44377380Y-96865476D02*
X44377380Y-96246428D01*
X44758333Y-96579761D01*
X44758333Y-96436904D01*
X44805952Y-96341666D01*
X44853571Y-96294047D01*
X44948809Y-96246428D01*
X45186904Y-96246428D01*
X45282142Y-96294047D01*
X45329761Y-96341666D01*
X45377380Y-96436904D01*
X45377380Y-96722619D01*
X45329761Y-96817857D01*
X45282142Y-96865476D01*
X44377380Y-95341666D02*
X44377380Y-95817857D01*
X44853571Y-95865476D01*
X44805952Y-95817857D01*
X44758333Y-95722619D01*
X44758333Y-95484523D01*
X44805952Y-95389285D01*
X44853571Y-95341666D01*
X44948809Y-95294047D01*
X45186904Y-95294047D01*
X45282142Y-95341666D01*
X45329761Y-95389285D01*
X45377380Y-95484523D01*
X45377380Y-95722619D01*
X45329761Y-95817857D01*
X45282142Y-95865476D01*
X44377380Y-94960714D02*
X44377380Y-94341666D01*
X44758333Y-94675000D01*
X44758333Y-94532142D01*
X44805952Y-94436904D01*
X44853571Y-94389285D01*
X44948809Y-94341666D01*
X45186904Y-94341666D01*
X45282142Y-94389285D01*
X45329761Y-94436904D01*
X45377380Y-94532142D01*
X45377380Y-94817857D01*
X45329761Y-94913095D01*
X45282142Y-94960714D01*
X44377380Y-93484523D02*
X44377380Y-93675000D01*
X44425000Y-93770238D01*
X44472619Y-93817857D01*
X44615476Y-93913095D01*
X44805952Y-93960714D01*
X45186904Y-93960714D01*
X45282142Y-93913095D01*
X45329761Y-93865476D01*
X45377380Y-93770238D01*
X45377380Y-93579761D01*
X45329761Y-93484523D01*
X45282142Y-93436904D01*
X45186904Y-93389285D01*
X44948809Y-93389285D01*
X44853571Y-93436904D01*
X44805952Y-93484523D01*
X44758333Y-93579761D01*
X44758333Y-93770238D01*
X44805952Y-93865476D01*
X44853571Y-93913095D01*
X44948809Y-93960714D01*
X47277380Y-97308333D02*
X47991666Y-97308333D01*
X48134523Y-97355952D01*
X48229761Y-97451190D01*
X48277380Y-97594047D01*
X48277380Y-97689285D01*
X47372619Y-96879761D02*
X47325000Y-96832142D01*
X47277380Y-96736904D01*
X47277380Y-96498809D01*
X47325000Y-96403571D01*
X47372619Y-96355952D01*
X47467857Y-96308333D01*
X47563095Y-96308333D01*
X47705952Y-96355952D01*
X48277380Y-96927380D01*
X48277380Y-96308333D01*
%TO.C,J1*%
X44425000Y-102786904D02*
X44377380Y-102882142D01*
X44377380Y-103025000D01*
X44425000Y-103167857D01*
X44520238Y-103263095D01*
X44615476Y-103310714D01*
X44805952Y-103358333D01*
X44948809Y-103358333D01*
X45139285Y-103310714D01*
X45234523Y-103263095D01*
X45329761Y-103167857D01*
X45377380Y-103025000D01*
X45377380Y-102929761D01*
X45329761Y-102786904D01*
X45282142Y-102739285D01*
X44948809Y-102739285D01*
X44948809Y-102929761D01*
X45377380Y-102310714D02*
X44377380Y-102310714D01*
X45377380Y-101739285D01*
X44377380Y-101739285D01*
X45377380Y-101263095D02*
X44377380Y-101263095D01*
X44377380Y-101025000D01*
X44425000Y-100882142D01*
X44520238Y-100786904D01*
X44615476Y-100739285D01*
X44805952Y-100691666D01*
X44948809Y-100691666D01*
X45139285Y-100739285D01*
X45234523Y-100786904D01*
X45329761Y-100882142D01*
X45377380Y-101025000D01*
X45377380Y-101263095D01*
X47277380Y-102658333D02*
X47991666Y-102658333D01*
X48134523Y-102705952D01*
X48229761Y-102801190D01*
X48277380Y-102944047D01*
X48277380Y-103039285D01*
X48277380Y-101658333D02*
X48277380Y-102229761D01*
X48277380Y-101944047D02*
X47277380Y-101944047D01*
X47420238Y-102039285D01*
X47515476Y-102134523D01*
X47563095Y-102229761D01*
%TO.C,RV1*%
X66862380Y-96309523D02*
X66862380Y-96119047D01*
X66814761Y-96023809D01*
X66767142Y-95976190D01*
X66624285Y-95880952D01*
X66433809Y-95833333D01*
X66052857Y-95833333D01*
X65957619Y-95880952D01*
X65910000Y-95928571D01*
X65862380Y-96023809D01*
X65862380Y-96214285D01*
X65910000Y-96309523D01*
X65957619Y-96357142D01*
X66052857Y-96404761D01*
X66290952Y-96404761D01*
X66386190Y-96357142D01*
X66433809Y-96309523D01*
X66481428Y-96214285D01*
X66481428Y-96023809D01*
X66433809Y-95928571D01*
X66386190Y-95880952D01*
X66290952Y-95833333D01*
X66290952Y-95261904D02*
X66243333Y-95357142D01*
X66195714Y-95404761D01*
X66100476Y-95452380D01*
X66052857Y-95452380D01*
X65957619Y-95404761D01*
X65910000Y-95357142D01*
X65862380Y-95261904D01*
X65862380Y-95071428D01*
X65910000Y-94976190D01*
X65957619Y-94928571D01*
X66052857Y-94880952D01*
X66100476Y-94880952D01*
X66195714Y-94928571D01*
X66243333Y-94976190D01*
X66290952Y-95071428D01*
X66290952Y-95261904D01*
X66338571Y-95357142D01*
X66386190Y-95404761D01*
X66481428Y-95452380D01*
X66671904Y-95452380D01*
X66767142Y-95404761D01*
X66814761Y-95357142D01*
X66862380Y-95261904D01*
X66862380Y-95071428D01*
X66814761Y-94976190D01*
X66767142Y-94928571D01*
X66671904Y-94880952D01*
X66481428Y-94880952D01*
X66386190Y-94928571D01*
X66338571Y-94976190D01*
X66290952Y-95071428D01*
X65862380Y-94547619D02*
X65862380Y-93880952D01*
X66862380Y-94309523D01*
X66481428Y-93500000D02*
X66481428Y-92738095D01*
X66862380Y-91738095D02*
X66862380Y-92309523D01*
X66862380Y-92023809D02*
X65862380Y-92023809D01*
X66005238Y-92119047D01*
X66100476Y-92214285D01*
X66148095Y-92309523D01*
X65862380Y-91404761D02*
X65862380Y-90738095D01*
X66862380Y-91166666D01*
X66862380Y-89833333D02*
X66862380Y-90404761D01*
X66862380Y-90119047D02*
X65862380Y-90119047D01*
X66005238Y-90214285D01*
X66100476Y-90309523D01*
X66148095Y-90404761D01*
X65862380Y-89214285D02*
X65862380Y-89119047D01*
X65910000Y-89023809D01*
X65957619Y-88976190D01*
X66052857Y-88928571D01*
X66243333Y-88880952D01*
X66481428Y-88880952D01*
X66671904Y-88928571D01*
X66767142Y-88976190D01*
X66814761Y-89023809D01*
X66862380Y-89119047D01*
X66862380Y-89214285D01*
X66814761Y-89309523D01*
X66767142Y-89357142D01*
X66671904Y-89404761D01*
X66481428Y-89452380D01*
X66243333Y-89452380D01*
X66052857Y-89404761D01*
X65957619Y-89357142D01*
X65910000Y-89309523D01*
X65862380Y-89214285D01*
X66481428Y-88452380D02*
X66481428Y-87690476D01*
X66862380Y-87214285D02*
X65862380Y-87214285D01*
X66862380Y-86642857D01*
X65862380Y-86642857D01*
X66862380Y-86166666D02*
X65862380Y-86166666D01*
X65862380Y-85928571D01*
X65910000Y-85785714D01*
X66005238Y-85690476D01*
X66100476Y-85642857D01*
X66290952Y-85595238D01*
X66433809Y-85595238D01*
X66624285Y-85642857D01*
X66719523Y-85690476D01*
X66814761Y-85785714D01*
X66862380Y-85928571D01*
X66862380Y-86166666D01*
X60944761Y-91452380D02*
X60611428Y-90976190D01*
X60373333Y-91452380D02*
X60373333Y-90452380D01*
X60754285Y-90452380D01*
X60849523Y-90500000D01*
X60897142Y-90547619D01*
X60944761Y-90642857D01*
X60944761Y-90785714D01*
X60897142Y-90880952D01*
X60849523Y-90928571D01*
X60754285Y-90976190D01*
X60373333Y-90976190D01*
X61230476Y-90452380D02*
X61563809Y-91452380D01*
X61897142Y-90452380D01*
X62754285Y-91452380D02*
X62182857Y-91452380D01*
X62468571Y-91452380D02*
X62468571Y-90452380D01*
X62373333Y-90595238D01*
X62278095Y-90690476D01*
X62182857Y-90738095D01*
%TO.C,D1*%
X104262380Y-130325238D02*
X104262380Y-130801428D01*
X103262380Y-130801428D01*
X103357619Y-130039523D02*
X103310000Y-129991904D01*
X103262380Y-129896666D01*
X103262380Y-129658571D01*
X103310000Y-129563333D01*
X103357619Y-129515714D01*
X103452857Y-129468095D01*
X103548095Y-129468095D01*
X103690952Y-129515714D01*
X104262380Y-130087142D01*
X104262380Y-129468095D01*
X103262380Y-128849047D02*
X103262380Y-128753809D01*
X103310000Y-128658571D01*
X103357619Y-128610952D01*
X103452857Y-128563333D01*
X103643333Y-128515714D01*
X103881428Y-128515714D01*
X104071904Y-128563333D01*
X104167142Y-128610952D01*
X104214761Y-128658571D01*
X104262380Y-128753809D01*
X104262380Y-128849047D01*
X104214761Y-128944285D01*
X104167142Y-128991904D01*
X104071904Y-129039523D01*
X103881428Y-129087142D01*
X103643333Y-129087142D01*
X103452857Y-129039523D01*
X103357619Y-128991904D01*
X103310000Y-128944285D01*
X103262380Y-128849047D01*
X103262380Y-127658571D02*
X103262380Y-127849047D01*
X103310000Y-127944285D01*
X103357619Y-127991904D01*
X103500476Y-128087142D01*
X103690952Y-128134761D01*
X104071904Y-128134761D01*
X104167142Y-128087142D01*
X104214761Y-128039523D01*
X104262380Y-127944285D01*
X104262380Y-127753809D01*
X104214761Y-127658571D01*
X104167142Y-127610952D01*
X104071904Y-127563333D01*
X103833809Y-127563333D01*
X103738571Y-127610952D01*
X103690952Y-127658571D01*
X103643333Y-127753809D01*
X103643333Y-127944285D01*
X103690952Y-128039523D01*
X103738571Y-128087142D01*
X103833809Y-128134761D01*
X104262380Y-127087142D02*
X104262380Y-126896666D01*
X104214761Y-126801428D01*
X104167142Y-126753809D01*
X104024285Y-126658571D01*
X103833809Y-126610952D01*
X103452857Y-126610952D01*
X103357619Y-126658571D01*
X103310000Y-126706190D01*
X103262380Y-126801428D01*
X103262380Y-126991904D01*
X103310000Y-127087142D01*
X103357619Y-127134761D01*
X103452857Y-127182380D01*
X103690952Y-127182380D01*
X103786190Y-127134761D01*
X103833809Y-127087142D01*
X103881428Y-126991904D01*
X103881428Y-126801428D01*
X103833809Y-126706190D01*
X103786190Y-126658571D01*
X103690952Y-126610952D01*
X103262380Y-126277619D02*
X103262380Y-125610952D01*
X104262380Y-126039523D01*
X103881428Y-125230000D02*
X103881428Y-124468095D01*
X104262380Y-123991904D02*
X103262380Y-123991904D01*
X104262380Y-123420476D01*
X103262380Y-123420476D01*
X104262380Y-122944285D02*
X103262380Y-122944285D01*
X103262380Y-122706190D01*
X103310000Y-122563333D01*
X103405238Y-122468095D01*
X103500476Y-122420476D01*
X103690952Y-122372857D01*
X103833809Y-122372857D01*
X104024285Y-122420476D01*
X104119523Y-122468095D01*
X104214761Y-122563333D01*
X104262380Y-122706190D01*
X104262380Y-122944285D01*
%TO.C,C6*%
X50902380Y-124892857D02*
X50902380Y-124797619D01*
X50950000Y-124702380D01*
X50997619Y-124654761D01*
X51092857Y-124607142D01*
X51283333Y-124559523D01*
X51521428Y-124559523D01*
X51711904Y-124607142D01*
X51807142Y-124654761D01*
X51854761Y-124702380D01*
X51902380Y-124797619D01*
X51902380Y-124892857D01*
X51854761Y-124988095D01*
X51807142Y-125035714D01*
X51711904Y-125083333D01*
X51521428Y-125130952D01*
X51283333Y-125130952D01*
X51092857Y-125083333D01*
X50997619Y-125035714D01*
X50950000Y-124988095D01*
X50902380Y-124892857D01*
X51807142Y-124130952D02*
X51854761Y-124083333D01*
X51902380Y-124130952D01*
X51854761Y-124178571D01*
X51807142Y-124130952D01*
X51902380Y-124130952D01*
X51902380Y-123130952D02*
X51902380Y-123702380D01*
X51902380Y-123416666D02*
X50902380Y-123416666D01*
X51045238Y-123511904D01*
X51140476Y-123607142D01*
X51188095Y-123702380D01*
X51235714Y-122273809D02*
X51902380Y-122273809D01*
X51235714Y-122702380D02*
X51759523Y-122702380D01*
X51854761Y-122654761D01*
X51902380Y-122559523D01*
X51902380Y-122416666D01*
X51854761Y-122321428D01*
X51807142Y-122273809D01*
X51378571Y-121464285D02*
X51378571Y-121797619D01*
X51902380Y-121797619D02*
X50902380Y-121797619D01*
X50902380Y-121321428D01*
D12*
X54271428Y-123376666D02*
X54307619Y-123412857D01*
X54343809Y-123521428D01*
X54343809Y-123593809D01*
X54307619Y-123702380D01*
X54235238Y-123774761D01*
X54162857Y-123810952D01*
X54018095Y-123847142D01*
X53909523Y-123847142D01*
X53764761Y-123810952D01*
X53692380Y-123774761D01*
X53620000Y-123702380D01*
X53583809Y-123593809D01*
X53583809Y-123521428D01*
X53620000Y-123412857D01*
X53656190Y-123376666D01*
X53583809Y-122725238D02*
X53583809Y-122870000D01*
X53620000Y-122942380D01*
X53656190Y-122978571D01*
X53764761Y-123050952D01*
X53909523Y-123087142D01*
X54199047Y-123087142D01*
X54271428Y-123050952D01*
X54307619Y-123014761D01*
X54343809Y-122942380D01*
X54343809Y-122797619D01*
X54307619Y-122725238D01*
X54271428Y-122689047D01*
X54199047Y-122652857D01*
X54018095Y-122652857D01*
X53945714Y-122689047D01*
X53909523Y-122725238D01*
X53873333Y-122797619D01*
X53873333Y-122942380D01*
X53909523Y-123014761D01*
X53945714Y-123050952D01*
X54018095Y-123087142D01*
%TO.C,C1*%
D11*
X51178571Y-106447619D02*
X51226190Y-106400000D01*
X51321428Y-106352380D01*
X51559523Y-106352380D01*
X51654761Y-106400000D01*
X51702380Y-106447619D01*
X51750000Y-106542857D01*
X51750000Y-106638095D01*
X51702380Y-106780952D01*
X51130952Y-107352380D01*
X51750000Y-107352380D01*
X52130952Y-106447619D02*
X52178571Y-106400000D01*
X52273809Y-106352380D01*
X52511904Y-106352380D01*
X52607142Y-106400000D01*
X52654761Y-106447619D01*
X52702380Y-106542857D01*
X52702380Y-106638095D01*
X52654761Y-106780952D01*
X52083333Y-107352380D01*
X52702380Y-107352380D01*
X53321428Y-106352380D02*
X53416666Y-106352380D01*
X53511904Y-106400000D01*
X53559523Y-106447619D01*
X53607142Y-106542857D01*
X53654761Y-106733333D01*
X53654761Y-106971428D01*
X53607142Y-107161904D01*
X53559523Y-107257142D01*
X53511904Y-107304761D01*
X53416666Y-107352380D01*
X53321428Y-107352380D01*
X53226190Y-107304761D01*
X53178571Y-107257142D01*
X53130952Y-107161904D01*
X53083333Y-106971428D01*
X53083333Y-106733333D01*
X53130952Y-106542857D01*
X53178571Y-106447619D01*
X53226190Y-106400000D01*
X53321428Y-106352380D01*
X54845238Y-106685714D02*
X54845238Y-107685714D01*
X55321428Y-107209523D02*
X55369047Y-107304761D01*
X55464285Y-107352380D01*
X54845238Y-107209523D02*
X54892857Y-107304761D01*
X54988095Y-107352380D01*
X55178571Y-107352380D01*
X55273809Y-107304761D01*
X55321428Y-107209523D01*
X55321428Y-106685714D01*
X56226190Y-106828571D02*
X55892857Y-106828571D01*
X55892857Y-107352380D02*
X55892857Y-106352380D01*
X56369047Y-106352380D01*
X53583333Y-102857142D02*
X53535714Y-102904761D01*
X53392857Y-102952380D01*
X53297619Y-102952380D01*
X53154761Y-102904761D01*
X53059523Y-102809523D01*
X53011904Y-102714285D01*
X52964285Y-102523809D01*
X52964285Y-102380952D01*
X53011904Y-102190476D01*
X53059523Y-102095238D01*
X53154761Y-102000000D01*
X53297619Y-101952380D01*
X53392857Y-101952380D01*
X53535714Y-102000000D01*
X53583333Y-102047619D01*
X54535714Y-102952380D02*
X53964285Y-102952380D01*
X54250000Y-102952380D02*
X54250000Y-101952380D01*
X54154761Y-102095238D01*
X54059523Y-102190476D01*
X53964285Y-102238095D01*
%TO.C,C5*%
X51702380Y-128702380D02*
X51130952Y-128702380D01*
X51416666Y-128702380D02*
X51416666Y-127702380D01*
X51321428Y-127845238D01*
X51226190Y-127940476D01*
X51130952Y-127988095D01*
X52321428Y-127702380D02*
X52416666Y-127702380D01*
X52511904Y-127750000D01*
X52559523Y-127797619D01*
X52607142Y-127892857D01*
X52654761Y-128083333D01*
X52654761Y-128321428D01*
X52607142Y-128511904D01*
X52559523Y-128607142D01*
X52511904Y-128654761D01*
X52416666Y-128702380D01*
X52321428Y-128702380D01*
X52226190Y-128654761D01*
X52178571Y-128607142D01*
X52130952Y-128511904D01*
X52083333Y-128321428D01*
X52083333Y-128083333D01*
X52130952Y-127892857D01*
X52178571Y-127797619D01*
X52226190Y-127750000D01*
X52321428Y-127702380D01*
X53273809Y-127702380D02*
X53369047Y-127702380D01*
X53464285Y-127750000D01*
X53511904Y-127797619D01*
X53559523Y-127892857D01*
X53607142Y-128083333D01*
X53607142Y-128321428D01*
X53559523Y-128511904D01*
X53511904Y-128607142D01*
X53464285Y-128654761D01*
X53369047Y-128702380D01*
X53273809Y-128702380D01*
X53178571Y-128654761D01*
X53130952Y-128607142D01*
X53083333Y-128511904D01*
X53035714Y-128321428D01*
X53035714Y-128083333D01*
X53083333Y-127892857D01*
X53130952Y-127797619D01*
X53178571Y-127750000D01*
X53273809Y-127702380D01*
X54464285Y-128035714D02*
X54464285Y-128702380D01*
X54035714Y-128035714D02*
X54035714Y-128559523D01*
X54083333Y-128654761D01*
X54178571Y-128702380D01*
X54321428Y-128702380D01*
X54416666Y-128654761D01*
X54464285Y-128607142D01*
X55273809Y-128178571D02*
X54940476Y-128178571D01*
X54940476Y-128702380D02*
X54940476Y-127702380D01*
X55416666Y-127702380D01*
X53083333Y-133857142D02*
X53035714Y-133904761D01*
X52892857Y-133952380D01*
X52797619Y-133952380D01*
X52654761Y-133904761D01*
X52559523Y-133809523D01*
X52511904Y-133714285D01*
X52464285Y-133523809D01*
X52464285Y-133380952D01*
X52511904Y-133190476D01*
X52559523Y-133095238D01*
X52654761Y-133000000D01*
X52797619Y-132952380D01*
X52892857Y-132952380D01*
X53035714Y-133000000D01*
X53083333Y-133047619D01*
X53988095Y-132952380D02*
X53511904Y-132952380D01*
X53464285Y-133428571D01*
X53511904Y-133380952D01*
X53607142Y-133333333D01*
X53845238Y-133333333D01*
X53940476Y-133380952D01*
X53988095Y-133428571D01*
X54035714Y-133523809D01*
X54035714Y-133761904D01*
X53988095Y-133857142D01*
X53940476Y-133904761D01*
X53845238Y-133952380D01*
X53607142Y-133952380D01*
X53511904Y-133904761D01*
X53464285Y-133857142D01*
%TO.C,C8*%
X56452380Y-117940476D02*
X56452380Y-117321428D01*
X56833333Y-117654761D01*
X56833333Y-117511904D01*
X56880952Y-117416666D01*
X56928571Y-117369047D01*
X57023809Y-117321428D01*
X57261904Y-117321428D01*
X57357142Y-117369047D01*
X57404761Y-117416666D01*
X57452380Y-117511904D01*
X57452380Y-117797619D01*
X57404761Y-117892857D01*
X57357142Y-117940476D01*
X56452380Y-116988095D02*
X56452380Y-116369047D01*
X56833333Y-116702380D01*
X56833333Y-116559523D01*
X56880952Y-116464285D01*
X56928571Y-116416666D01*
X57023809Y-116369047D01*
X57261904Y-116369047D01*
X57357142Y-116416666D01*
X57404761Y-116464285D01*
X57452380Y-116559523D01*
X57452380Y-116845238D01*
X57404761Y-116940476D01*
X57357142Y-116988095D01*
X56785714Y-115511904D02*
X57452380Y-115511904D01*
X56785714Y-115940476D02*
X57309523Y-115940476D01*
X57404761Y-115892857D01*
X57452380Y-115797619D01*
X57452380Y-115654761D01*
X57404761Y-115559523D01*
X57357142Y-115511904D01*
X56928571Y-114702380D02*
X56928571Y-115035714D01*
X57452380Y-115035714D02*
X56452380Y-115035714D01*
X56452380Y-114559523D01*
X59857142Y-116416666D02*
X59904761Y-116464285D01*
X59952380Y-116607142D01*
X59952380Y-116702380D01*
X59904761Y-116845238D01*
X59809523Y-116940476D01*
X59714285Y-116988095D01*
X59523809Y-117035714D01*
X59380952Y-117035714D01*
X59190476Y-116988095D01*
X59095238Y-116940476D01*
X59000000Y-116845238D01*
X58952380Y-116702380D01*
X58952380Y-116607142D01*
X59000000Y-116464285D01*
X59047619Y-116416666D01*
X59380952Y-115845238D02*
X59333333Y-115940476D01*
X59285714Y-115988095D01*
X59190476Y-116035714D01*
X59142857Y-116035714D01*
X59047619Y-115988095D01*
X59000000Y-115940476D01*
X58952380Y-115845238D01*
X58952380Y-115654761D01*
X59000000Y-115559523D01*
X59047619Y-115511904D01*
X59142857Y-115464285D01*
X59190476Y-115464285D01*
X59285714Y-115511904D01*
X59333333Y-115559523D01*
X59380952Y-115654761D01*
X59380952Y-115845238D01*
X59428571Y-115940476D01*
X59476190Y-115988095D01*
X59571428Y-116035714D01*
X59761904Y-116035714D01*
X59857142Y-115988095D01*
X59904761Y-115940476D01*
X59952380Y-115845238D01*
X59952380Y-115654761D01*
X59904761Y-115559523D01*
X59857142Y-115511904D01*
X59761904Y-115464285D01*
X59571428Y-115464285D01*
X59476190Y-115511904D01*
X59428571Y-115559523D01*
X59380952Y-115654761D01*
%TO.C,C9*%
X56285714Y-124416666D02*
X56952380Y-124416666D01*
X55904761Y-124654761D02*
X56619047Y-124892857D01*
X56619047Y-124273809D01*
X55952380Y-123988095D02*
X55952380Y-123321428D01*
X56952380Y-123750000D01*
X56285714Y-122511904D02*
X56952380Y-122511904D01*
X56285714Y-122940476D02*
X56809523Y-122940476D01*
X56904761Y-122892857D01*
X56952380Y-122797619D01*
X56952380Y-122654761D01*
X56904761Y-122559523D01*
X56857142Y-122511904D01*
X56428571Y-121702380D02*
X56428571Y-122035714D01*
X56952380Y-122035714D02*
X55952380Y-122035714D01*
X55952380Y-121559523D01*
X59357142Y-123416666D02*
X59404761Y-123464285D01*
X59452380Y-123607142D01*
X59452380Y-123702380D01*
X59404761Y-123845238D01*
X59309523Y-123940476D01*
X59214285Y-123988095D01*
X59023809Y-124035714D01*
X58880952Y-124035714D01*
X58690476Y-123988095D01*
X58595238Y-123940476D01*
X58500000Y-123845238D01*
X58452380Y-123702380D01*
X58452380Y-123607142D01*
X58500000Y-123464285D01*
X58547619Y-123416666D01*
X59452380Y-122940476D02*
X59452380Y-122750000D01*
X59404761Y-122654761D01*
X59357142Y-122607142D01*
X59214285Y-122511904D01*
X59023809Y-122464285D01*
X58642857Y-122464285D01*
X58547619Y-122511904D01*
X58500000Y-122559523D01*
X58452380Y-122654761D01*
X58452380Y-122845238D01*
X58500000Y-122940476D01*
X58547619Y-122988095D01*
X58642857Y-123035714D01*
X58880952Y-123035714D01*
X58976190Y-122988095D01*
X59023809Y-122940476D01*
X59071428Y-122845238D01*
X59071428Y-122654761D01*
X59023809Y-122559523D01*
X58976190Y-122511904D01*
X58880952Y-122464285D01*
%TO.C,C10*%
X61285714Y-124416666D02*
X61952380Y-124416666D01*
X60904761Y-124654761D02*
X61619047Y-124892857D01*
X61619047Y-124273809D01*
X60952380Y-123988095D02*
X60952380Y-123321428D01*
X61952380Y-123750000D01*
X61285714Y-122511904D02*
X61952380Y-122511904D01*
X61285714Y-122940476D02*
X61809523Y-122940476D01*
X61904761Y-122892857D01*
X61952380Y-122797619D01*
X61952380Y-122654761D01*
X61904761Y-122559523D01*
X61857142Y-122511904D01*
X61428571Y-121702380D02*
X61428571Y-122035714D01*
X61952380Y-122035714D02*
X60952380Y-122035714D01*
X60952380Y-121559523D01*
X64357142Y-123892857D02*
X64404761Y-123940476D01*
X64452380Y-124083333D01*
X64452380Y-124178571D01*
X64404761Y-124321428D01*
X64309523Y-124416666D01*
X64214285Y-124464285D01*
X64023809Y-124511904D01*
X63880952Y-124511904D01*
X63690476Y-124464285D01*
X63595238Y-124416666D01*
X63500000Y-124321428D01*
X63452380Y-124178571D01*
X63452380Y-124083333D01*
X63500000Y-123940476D01*
X63547619Y-123892857D01*
X64452380Y-122940476D02*
X64452380Y-123511904D01*
X64452380Y-123226190D02*
X63452380Y-123226190D01*
X63595238Y-123321428D01*
X63690476Y-123416666D01*
X63738095Y-123511904D01*
X63452380Y-122321428D02*
X63452380Y-122226190D01*
X63500000Y-122130952D01*
X63547619Y-122083333D01*
X63642857Y-122035714D01*
X63833333Y-121988095D01*
X64071428Y-121988095D01*
X64261904Y-122035714D01*
X64357142Y-122083333D01*
X64404761Y-122130952D01*
X64452380Y-122226190D01*
X64452380Y-122321428D01*
X64404761Y-122416666D01*
X64357142Y-122464285D01*
X64261904Y-122511904D01*
X64071428Y-122559523D01*
X63833333Y-122559523D01*
X63642857Y-122511904D01*
X63547619Y-122464285D01*
X63500000Y-122416666D01*
X63452380Y-122321428D01*
%TO.C,C11*%
X62452380Y-117321428D02*
X62452380Y-117892857D01*
X62452380Y-117607142D02*
X61452380Y-117607142D01*
X61595238Y-117702380D01*
X61690476Y-117797619D01*
X61738095Y-117892857D01*
X61452380Y-116702380D02*
X61452380Y-116607142D01*
X61500000Y-116511904D01*
X61547619Y-116464285D01*
X61642857Y-116416666D01*
X61833333Y-116369047D01*
X62071428Y-116369047D01*
X62261904Y-116416666D01*
X62357142Y-116464285D01*
X62404761Y-116511904D01*
X62452380Y-116607142D01*
X62452380Y-116702380D01*
X62404761Y-116797619D01*
X62357142Y-116845238D01*
X62261904Y-116892857D01*
X62071428Y-116940476D01*
X61833333Y-116940476D01*
X61642857Y-116892857D01*
X61547619Y-116845238D01*
X61500000Y-116797619D01*
X61452380Y-116702380D01*
X61785714Y-115511904D02*
X62452380Y-115511904D01*
X61785714Y-115940476D02*
X62309523Y-115940476D01*
X62404761Y-115892857D01*
X62452380Y-115797619D01*
X62452380Y-115654761D01*
X62404761Y-115559523D01*
X62357142Y-115511904D01*
X61928571Y-114702380D02*
X61928571Y-115035714D01*
X62452380Y-115035714D02*
X61452380Y-115035714D01*
X61452380Y-114559523D01*
X64857142Y-116892857D02*
X64904761Y-116940476D01*
X64952380Y-117083333D01*
X64952380Y-117178571D01*
X64904761Y-117321428D01*
X64809523Y-117416666D01*
X64714285Y-117464285D01*
X64523809Y-117511904D01*
X64380952Y-117511904D01*
X64190476Y-117464285D01*
X64095238Y-117416666D01*
X64000000Y-117321428D01*
X63952380Y-117178571D01*
X63952380Y-117083333D01*
X64000000Y-116940476D01*
X64047619Y-116892857D01*
X64952380Y-115940476D02*
X64952380Y-116511904D01*
X64952380Y-116226190D02*
X63952380Y-116226190D01*
X64095238Y-116321428D01*
X64190476Y-116416666D01*
X64238095Y-116511904D01*
X64952380Y-114988095D02*
X64952380Y-115559523D01*
X64952380Y-115273809D02*
X63952380Y-115273809D01*
X64095238Y-115369047D01*
X64190476Y-115464285D01*
X64238095Y-115559523D01*
%TO.C,D2*%
X76047142Y-125832380D02*
X75475714Y-125832380D01*
X75761428Y-125832380D02*
X75761428Y-124832380D01*
X75666190Y-124975238D01*
X75570952Y-125070476D01*
X75475714Y-125118095D01*
X76475714Y-125832380D02*
X76475714Y-124832380D01*
X77047142Y-125832380D01*
X77047142Y-124832380D01*
X77951904Y-125165714D02*
X77951904Y-125832380D01*
X77713809Y-124784761D02*
X77475714Y-125499047D01*
X78094761Y-125499047D01*
X78999523Y-125832380D02*
X78428095Y-125832380D01*
X78713809Y-125832380D02*
X78713809Y-124832380D01*
X78618571Y-124975238D01*
X78523333Y-125070476D01*
X78428095Y-125118095D01*
X79856666Y-125165714D02*
X79856666Y-125832380D01*
X79618571Y-124784761D02*
X79380476Y-125499047D01*
X79999523Y-125499047D01*
X80523333Y-125260952D02*
X80428095Y-125213333D01*
X80380476Y-125165714D01*
X80332857Y-125070476D01*
X80332857Y-125022857D01*
X80380476Y-124927619D01*
X80428095Y-124880000D01*
X80523333Y-124832380D01*
X80713809Y-124832380D01*
X80809047Y-124880000D01*
X80856666Y-124927619D01*
X80904285Y-125022857D01*
X80904285Y-125070476D01*
X80856666Y-125165714D01*
X80809047Y-125213333D01*
X80713809Y-125260952D01*
X80523333Y-125260952D01*
X80428095Y-125308571D01*
X80380476Y-125356190D01*
X80332857Y-125451428D01*
X80332857Y-125641904D01*
X80380476Y-125737142D01*
X80428095Y-125784761D01*
X80523333Y-125832380D01*
X80713809Y-125832380D01*
X80809047Y-125784761D01*
X80856666Y-125737142D01*
X80904285Y-125641904D01*
X80904285Y-125451428D01*
X80856666Y-125356190D01*
X80809047Y-125308571D01*
X80713809Y-125260952D01*
X81738095Y-129752380D02*
X81738095Y-128752380D01*
X82309523Y-129752380D02*
X81880952Y-129180952D01*
X82309523Y-128752380D02*
X81738095Y-129323809D01*
D13*
X77299523Y-127861904D02*
X77299523Y-127061904D01*
X77490000Y-127061904D01*
X77604285Y-127100000D01*
X77680476Y-127176190D01*
X77718571Y-127252380D01*
X77756666Y-127404761D01*
X77756666Y-127519047D01*
X77718571Y-127671428D01*
X77680476Y-127747619D01*
X77604285Y-127823809D01*
X77490000Y-127861904D01*
X77299523Y-127861904D01*
X78061428Y-127138095D02*
X78099523Y-127100000D01*
X78175714Y-127061904D01*
X78366190Y-127061904D01*
X78442380Y-127100000D01*
X78480476Y-127138095D01*
X78518571Y-127214285D01*
X78518571Y-127290476D01*
X78480476Y-127404761D01*
X78023333Y-127861904D01*
X78518571Y-127861904D01*
%TO.C,D3*%
D11*
X76047142Y-136572380D02*
X75475714Y-136572380D01*
X75761428Y-136572380D02*
X75761428Y-135572380D01*
X75666190Y-135715238D01*
X75570952Y-135810476D01*
X75475714Y-135858095D01*
X76475714Y-136572380D02*
X76475714Y-135572380D01*
X77047142Y-136572380D01*
X77047142Y-135572380D01*
X77951904Y-135905714D02*
X77951904Y-136572380D01*
X77713809Y-135524761D02*
X77475714Y-136239047D01*
X78094761Y-136239047D01*
X78999523Y-136572380D02*
X78428095Y-136572380D01*
X78713809Y-136572380D02*
X78713809Y-135572380D01*
X78618571Y-135715238D01*
X78523333Y-135810476D01*
X78428095Y-135858095D01*
X79856666Y-135905714D02*
X79856666Y-136572380D01*
X79618571Y-135524761D02*
X79380476Y-136239047D01*
X79999523Y-136239047D01*
X80523333Y-136000952D02*
X80428095Y-135953333D01*
X80380476Y-135905714D01*
X80332857Y-135810476D01*
X80332857Y-135762857D01*
X80380476Y-135667619D01*
X80428095Y-135620000D01*
X80523333Y-135572380D01*
X80713809Y-135572380D01*
X80809047Y-135620000D01*
X80856666Y-135667619D01*
X80904285Y-135762857D01*
X80904285Y-135810476D01*
X80856666Y-135905714D01*
X80809047Y-135953333D01*
X80713809Y-136000952D01*
X80523333Y-136000952D01*
X80428095Y-136048571D01*
X80380476Y-136096190D01*
X80332857Y-136191428D01*
X80332857Y-136381904D01*
X80380476Y-136477142D01*
X80428095Y-136524761D01*
X80523333Y-136572380D01*
X80713809Y-136572380D01*
X80809047Y-136524761D01*
X80856666Y-136477142D01*
X80904285Y-136381904D01*
X80904285Y-136191428D01*
X80856666Y-136096190D01*
X80809047Y-136048571D01*
X80713809Y-136000952D01*
D13*
X77899523Y-134361904D02*
X77899523Y-133561904D01*
X78090000Y-133561904D01*
X78204285Y-133600000D01*
X78280476Y-133676190D01*
X78318571Y-133752380D01*
X78356666Y-133904761D01*
X78356666Y-134019047D01*
X78318571Y-134171428D01*
X78280476Y-134247619D01*
X78204285Y-134323809D01*
X78090000Y-134361904D01*
X77899523Y-134361904D01*
X78623333Y-133561904D02*
X79118571Y-133561904D01*
X78851904Y-133866666D01*
X78966190Y-133866666D01*
X79042380Y-133904761D01*
X79080476Y-133942857D01*
X79118571Y-134019047D01*
X79118571Y-134209523D01*
X79080476Y-134285714D01*
X79042380Y-134323809D01*
X78966190Y-134361904D01*
X78737619Y-134361904D01*
X78661428Y-134323809D01*
X78623333Y-134285714D01*
D11*
X74118095Y-132652380D02*
X74118095Y-131652380D01*
X74689523Y-132652380D02*
X74260952Y-132080952D01*
X74689523Y-131652380D02*
X74118095Y-132223809D01*
%TO.C,J3*%
X91214285Y-108107142D02*
X91166666Y-108154761D01*
X91023809Y-108202380D01*
X90928571Y-108202380D01*
X90785714Y-108154761D01*
X90690476Y-108059523D01*
X90642857Y-107964285D01*
X90595238Y-107773809D01*
X90595238Y-107630952D01*
X90642857Y-107440476D01*
X90690476Y-107345238D01*
X90785714Y-107250000D01*
X90928571Y-107202380D01*
X91023809Y-107202380D01*
X91166666Y-107250000D01*
X91214285Y-107297619D01*
X91785714Y-108202380D02*
X91690476Y-108154761D01*
X91642857Y-108107142D01*
X91595238Y-108011904D01*
X91595238Y-107726190D01*
X91642857Y-107630952D01*
X91690476Y-107583333D01*
X91785714Y-107535714D01*
X91928571Y-107535714D01*
X92023809Y-107583333D01*
X92071428Y-107630952D01*
X92119047Y-107726190D01*
X92119047Y-108011904D01*
X92071428Y-108107142D01*
X92023809Y-108154761D01*
X91928571Y-108202380D01*
X91785714Y-108202380D01*
X92547619Y-107535714D02*
X92547619Y-108202380D01*
X92547619Y-107630952D02*
X92595238Y-107583333D01*
X92690476Y-107535714D01*
X92833333Y-107535714D01*
X92928571Y-107583333D01*
X92976190Y-107678571D01*
X92976190Y-108202380D01*
X93452380Y-107535714D02*
X93452380Y-108202380D01*
X93452380Y-107630952D02*
X93500000Y-107583333D01*
X93595238Y-107535714D01*
X93738095Y-107535714D01*
X93833333Y-107583333D01*
X93880952Y-107678571D01*
X93880952Y-108202380D01*
X94119047Y-108297619D02*
X94880952Y-108297619D01*
X95309523Y-107202380D02*
X95404761Y-107202380D01*
X95500000Y-107250000D01*
X95547619Y-107297619D01*
X95595238Y-107392857D01*
X95642857Y-107583333D01*
X95642857Y-107821428D01*
X95595238Y-108011904D01*
X95547619Y-108107142D01*
X95500000Y-108154761D01*
X95404761Y-108202380D01*
X95309523Y-108202380D01*
X95214285Y-108154761D01*
X95166666Y-108107142D01*
X95119047Y-108011904D01*
X95071428Y-107821428D01*
X95071428Y-107583333D01*
X95119047Y-107392857D01*
X95166666Y-107297619D01*
X95214285Y-107250000D01*
X95309523Y-107202380D01*
X96595238Y-108202380D02*
X96023809Y-108202380D01*
X96309523Y-108202380D02*
X96309523Y-107202380D01*
X96214285Y-107345238D01*
X96119047Y-107440476D01*
X96023809Y-107488095D01*
X96928571Y-108202380D02*
X97452380Y-107535714D01*
X96928571Y-107535714D02*
X97452380Y-108202380D01*
X98023809Y-107202380D02*
X98119047Y-107202380D01*
X98214285Y-107250000D01*
X98261904Y-107297619D01*
X98309523Y-107392857D01*
X98357142Y-107583333D01*
X98357142Y-107821428D01*
X98309523Y-108011904D01*
X98261904Y-108107142D01*
X98214285Y-108154761D01*
X98119047Y-108202380D01*
X98023809Y-108202380D01*
X97928571Y-108154761D01*
X97880952Y-108107142D01*
X97833333Y-108011904D01*
X97785714Y-107821428D01*
X97785714Y-107583333D01*
X97833333Y-107392857D01*
X97880952Y-107297619D01*
X97928571Y-107250000D01*
X98023809Y-107202380D01*
X99309523Y-108202380D02*
X98738095Y-108202380D01*
X99023809Y-108202380D02*
X99023809Y-107202380D01*
X98928571Y-107345238D01*
X98833333Y-107440476D01*
X98738095Y-107488095D01*
X99500000Y-108297619D02*
X100261904Y-108297619D01*
X100833333Y-107678571D02*
X100500000Y-107678571D01*
X100500000Y-108202380D02*
X100500000Y-107202380D01*
X100976190Y-107202380D01*
X101738095Y-108154761D02*
X101642857Y-108202380D01*
X101452380Y-108202380D01*
X101357142Y-108154761D01*
X101309523Y-108059523D01*
X101309523Y-107678571D01*
X101357142Y-107583333D01*
X101452380Y-107535714D01*
X101642857Y-107535714D01*
X101738095Y-107583333D01*
X101785714Y-107678571D01*
X101785714Y-107773809D01*
X101309523Y-107869047D01*
X102214285Y-108202380D02*
X102214285Y-107535714D01*
X102214285Y-107630952D02*
X102261904Y-107583333D01*
X102357142Y-107535714D01*
X102500000Y-107535714D01*
X102595238Y-107583333D01*
X102642857Y-107678571D01*
X102642857Y-108202380D01*
X102642857Y-107678571D02*
X102690476Y-107583333D01*
X102785714Y-107535714D01*
X102928571Y-107535714D01*
X103023809Y-107583333D01*
X103071428Y-107678571D01*
X103071428Y-108202380D01*
X103976190Y-108202380D02*
X103976190Y-107678571D01*
X103928571Y-107583333D01*
X103833333Y-107535714D01*
X103642857Y-107535714D01*
X103547619Y-107583333D01*
X103976190Y-108154761D02*
X103880952Y-108202380D01*
X103642857Y-108202380D01*
X103547619Y-108154761D01*
X103500000Y-108059523D01*
X103500000Y-107964285D01*
X103547619Y-107869047D01*
X103642857Y-107821428D01*
X103880952Y-107821428D01*
X103976190Y-107773809D01*
X104595238Y-108202380D02*
X104500000Y-108154761D01*
X104452380Y-108059523D01*
X104452380Y-107202380D01*
X105357142Y-108154761D02*
X105261904Y-108202380D01*
X105071428Y-108202380D01*
X104976190Y-108154761D01*
X104928571Y-108059523D01*
X104928571Y-107678571D01*
X104976190Y-107583333D01*
X105071428Y-107535714D01*
X105261904Y-107535714D01*
X105357142Y-107583333D01*
X105404761Y-107678571D01*
X105404761Y-107773809D01*
X104928571Y-107869047D01*
X97966666Y-104452380D02*
X97966666Y-105166666D01*
X97919047Y-105309523D01*
X97823809Y-105404761D01*
X97680952Y-105452380D01*
X97585714Y-105452380D01*
X98347619Y-104452380D02*
X98966666Y-104452380D01*
X98633333Y-104833333D01*
X98776190Y-104833333D01*
X98871428Y-104880952D01*
X98919047Y-104928571D01*
X98966666Y-105023809D01*
X98966666Y-105261904D01*
X98919047Y-105357142D01*
X98871428Y-105404761D01*
X98776190Y-105452380D01*
X98490476Y-105452380D01*
X98395238Y-105404761D01*
X98347619Y-105357142D01*
%TO.C,J4*%
X91214285Y-114107142D02*
X91166666Y-114154761D01*
X91023809Y-114202380D01*
X90928571Y-114202380D01*
X90785714Y-114154761D01*
X90690476Y-114059523D01*
X90642857Y-113964285D01*
X90595238Y-113773809D01*
X90595238Y-113630952D01*
X90642857Y-113440476D01*
X90690476Y-113345238D01*
X90785714Y-113250000D01*
X90928571Y-113202380D01*
X91023809Y-113202380D01*
X91166666Y-113250000D01*
X91214285Y-113297619D01*
X91785714Y-114202380D02*
X91690476Y-114154761D01*
X91642857Y-114107142D01*
X91595238Y-114011904D01*
X91595238Y-113726190D01*
X91642857Y-113630952D01*
X91690476Y-113583333D01*
X91785714Y-113535714D01*
X91928571Y-113535714D01*
X92023809Y-113583333D01*
X92071428Y-113630952D01*
X92119047Y-113726190D01*
X92119047Y-114011904D01*
X92071428Y-114107142D01*
X92023809Y-114154761D01*
X91928571Y-114202380D01*
X91785714Y-114202380D01*
X92547619Y-113535714D02*
X92547619Y-114202380D01*
X92547619Y-113630952D02*
X92595238Y-113583333D01*
X92690476Y-113535714D01*
X92833333Y-113535714D01*
X92928571Y-113583333D01*
X92976190Y-113678571D01*
X92976190Y-114202380D01*
X93452380Y-113535714D02*
X93452380Y-114202380D01*
X93452380Y-113630952D02*
X93500000Y-113583333D01*
X93595238Y-113535714D01*
X93738095Y-113535714D01*
X93833333Y-113583333D01*
X93880952Y-113678571D01*
X93880952Y-114202380D01*
X94119047Y-114297619D02*
X94880952Y-114297619D01*
X95309523Y-113202380D02*
X95404761Y-113202380D01*
X95500000Y-113250000D01*
X95547619Y-113297619D01*
X95595238Y-113392857D01*
X95642857Y-113583333D01*
X95642857Y-113821428D01*
X95595238Y-114011904D01*
X95547619Y-114107142D01*
X95500000Y-114154761D01*
X95404761Y-114202380D01*
X95309523Y-114202380D01*
X95214285Y-114154761D01*
X95166666Y-114107142D01*
X95119047Y-114011904D01*
X95071428Y-113821428D01*
X95071428Y-113583333D01*
X95119047Y-113392857D01*
X95166666Y-113297619D01*
X95214285Y-113250000D01*
X95309523Y-113202380D01*
X96595238Y-114202380D02*
X96023809Y-114202380D01*
X96309523Y-114202380D02*
X96309523Y-113202380D01*
X96214285Y-113345238D01*
X96119047Y-113440476D01*
X96023809Y-113488095D01*
X96928571Y-114202380D02*
X97452380Y-113535714D01*
X96928571Y-113535714D02*
X97452380Y-114202380D01*
X98023809Y-113202380D02*
X98119047Y-113202380D01*
X98214285Y-113250000D01*
X98261904Y-113297619D01*
X98309523Y-113392857D01*
X98357142Y-113583333D01*
X98357142Y-113821428D01*
X98309523Y-114011904D01*
X98261904Y-114107142D01*
X98214285Y-114154761D01*
X98119047Y-114202380D01*
X98023809Y-114202380D01*
X97928571Y-114154761D01*
X97880952Y-114107142D01*
X97833333Y-114011904D01*
X97785714Y-113821428D01*
X97785714Y-113583333D01*
X97833333Y-113392857D01*
X97880952Y-113297619D01*
X97928571Y-113250000D01*
X98023809Y-113202380D01*
X99309523Y-114202380D02*
X98738095Y-114202380D01*
X99023809Y-114202380D02*
X99023809Y-113202380D01*
X98928571Y-113345238D01*
X98833333Y-113440476D01*
X98738095Y-113488095D01*
X99500000Y-114297619D02*
X100261904Y-114297619D01*
X100833333Y-113678571D02*
X100500000Y-113678571D01*
X100500000Y-114202380D02*
X100500000Y-113202380D01*
X100976190Y-113202380D01*
X101738095Y-114154761D02*
X101642857Y-114202380D01*
X101452380Y-114202380D01*
X101357142Y-114154761D01*
X101309523Y-114059523D01*
X101309523Y-113678571D01*
X101357142Y-113583333D01*
X101452380Y-113535714D01*
X101642857Y-113535714D01*
X101738095Y-113583333D01*
X101785714Y-113678571D01*
X101785714Y-113773809D01*
X101309523Y-113869047D01*
X102214285Y-114202380D02*
X102214285Y-113535714D01*
X102214285Y-113630952D02*
X102261904Y-113583333D01*
X102357142Y-113535714D01*
X102500000Y-113535714D01*
X102595238Y-113583333D01*
X102642857Y-113678571D01*
X102642857Y-114202380D01*
X102642857Y-113678571D02*
X102690476Y-113583333D01*
X102785714Y-113535714D01*
X102928571Y-113535714D01*
X103023809Y-113583333D01*
X103071428Y-113678571D01*
X103071428Y-114202380D01*
X103976190Y-114202380D02*
X103976190Y-113678571D01*
X103928571Y-113583333D01*
X103833333Y-113535714D01*
X103642857Y-113535714D01*
X103547619Y-113583333D01*
X103976190Y-114154761D02*
X103880952Y-114202380D01*
X103642857Y-114202380D01*
X103547619Y-114154761D01*
X103500000Y-114059523D01*
X103500000Y-113964285D01*
X103547619Y-113869047D01*
X103642857Y-113821428D01*
X103880952Y-113821428D01*
X103976190Y-113773809D01*
X104595238Y-114202380D02*
X104500000Y-114154761D01*
X104452380Y-114059523D01*
X104452380Y-113202380D01*
X105357142Y-114154761D02*
X105261904Y-114202380D01*
X105071428Y-114202380D01*
X104976190Y-114154761D01*
X104928571Y-114059523D01*
X104928571Y-113678571D01*
X104976190Y-113583333D01*
X105071428Y-113535714D01*
X105261904Y-113535714D01*
X105357142Y-113583333D01*
X105404761Y-113678571D01*
X105404761Y-113773809D01*
X104928571Y-113869047D01*
X97966666Y-110452380D02*
X97966666Y-111166666D01*
X97919047Y-111309523D01*
X97823809Y-111404761D01*
X97680952Y-111452380D01*
X97585714Y-111452380D01*
X98871428Y-110785714D02*
X98871428Y-111452380D01*
X98633333Y-110404761D02*
X98395238Y-111119047D01*
X99014285Y-111119047D01*
%TO.C,J5*%
X91214285Y-102757142D02*
X91166666Y-102804761D01*
X91023809Y-102852380D01*
X90928571Y-102852380D01*
X90785714Y-102804761D01*
X90690476Y-102709523D01*
X90642857Y-102614285D01*
X90595238Y-102423809D01*
X90595238Y-102280952D01*
X90642857Y-102090476D01*
X90690476Y-101995238D01*
X90785714Y-101900000D01*
X90928571Y-101852380D01*
X91023809Y-101852380D01*
X91166666Y-101900000D01*
X91214285Y-101947619D01*
X91785714Y-102852380D02*
X91690476Y-102804761D01*
X91642857Y-102757142D01*
X91595238Y-102661904D01*
X91595238Y-102376190D01*
X91642857Y-102280952D01*
X91690476Y-102233333D01*
X91785714Y-102185714D01*
X91928571Y-102185714D01*
X92023809Y-102233333D01*
X92071428Y-102280952D01*
X92119047Y-102376190D01*
X92119047Y-102661904D01*
X92071428Y-102757142D01*
X92023809Y-102804761D01*
X91928571Y-102852380D01*
X91785714Y-102852380D01*
X92547619Y-102185714D02*
X92547619Y-102852380D01*
X92547619Y-102280952D02*
X92595238Y-102233333D01*
X92690476Y-102185714D01*
X92833333Y-102185714D01*
X92928571Y-102233333D01*
X92976190Y-102328571D01*
X92976190Y-102852380D01*
X93452380Y-102185714D02*
X93452380Y-102852380D01*
X93452380Y-102280952D02*
X93500000Y-102233333D01*
X93595238Y-102185714D01*
X93738095Y-102185714D01*
X93833333Y-102233333D01*
X93880952Y-102328571D01*
X93880952Y-102852380D01*
X94119047Y-102947619D02*
X94880952Y-102947619D01*
X95309523Y-101852380D02*
X95404761Y-101852380D01*
X95500000Y-101900000D01*
X95547619Y-101947619D01*
X95595238Y-102042857D01*
X95642857Y-102233333D01*
X95642857Y-102471428D01*
X95595238Y-102661904D01*
X95547619Y-102757142D01*
X95500000Y-102804761D01*
X95404761Y-102852380D01*
X95309523Y-102852380D01*
X95214285Y-102804761D01*
X95166666Y-102757142D01*
X95119047Y-102661904D01*
X95071428Y-102471428D01*
X95071428Y-102233333D01*
X95119047Y-102042857D01*
X95166666Y-101947619D01*
X95214285Y-101900000D01*
X95309523Y-101852380D01*
X96595238Y-102852380D02*
X96023809Y-102852380D01*
X96309523Y-102852380D02*
X96309523Y-101852380D01*
X96214285Y-101995238D01*
X96119047Y-102090476D01*
X96023809Y-102138095D01*
X96928571Y-102852380D02*
X97452380Y-102185714D01*
X96928571Y-102185714D02*
X97452380Y-102852380D01*
X98023809Y-101852380D02*
X98119047Y-101852380D01*
X98214285Y-101900000D01*
X98261904Y-101947619D01*
X98309523Y-102042857D01*
X98357142Y-102233333D01*
X98357142Y-102471428D01*
X98309523Y-102661904D01*
X98261904Y-102757142D01*
X98214285Y-102804761D01*
X98119047Y-102852380D01*
X98023809Y-102852380D01*
X97928571Y-102804761D01*
X97880952Y-102757142D01*
X97833333Y-102661904D01*
X97785714Y-102471428D01*
X97785714Y-102233333D01*
X97833333Y-102042857D01*
X97880952Y-101947619D01*
X97928571Y-101900000D01*
X98023809Y-101852380D01*
X99309523Y-102852380D02*
X98738095Y-102852380D01*
X99023809Y-102852380D02*
X99023809Y-101852380D01*
X98928571Y-101995238D01*
X98833333Y-102090476D01*
X98738095Y-102138095D01*
X99500000Y-102947619D02*
X100261904Y-102947619D01*
X100833333Y-102328571D02*
X100500000Y-102328571D01*
X100500000Y-102852380D02*
X100500000Y-101852380D01*
X100976190Y-101852380D01*
X101738095Y-102804761D02*
X101642857Y-102852380D01*
X101452380Y-102852380D01*
X101357142Y-102804761D01*
X101309523Y-102709523D01*
X101309523Y-102328571D01*
X101357142Y-102233333D01*
X101452380Y-102185714D01*
X101642857Y-102185714D01*
X101738095Y-102233333D01*
X101785714Y-102328571D01*
X101785714Y-102423809D01*
X101309523Y-102519047D01*
X102214285Y-102852380D02*
X102214285Y-102185714D01*
X102214285Y-102280952D02*
X102261904Y-102233333D01*
X102357142Y-102185714D01*
X102500000Y-102185714D01*
X102595238Y-102233333D01*
X102642857Y-102328571D01*
X102642857Y-102852380D01*
X102642857Y-102328571D02*
X102690476Y-102233333D01*
X102785714Y-102185714D01*
X102928571Y-102185714D01*
X103023809Y-102233333D01*
X103071428Y-102328571D01*
X103071428Y-102852380D01*
X103976190Y-102852380D02*
X103976190Y-102328571D01*
X103928571Y-102233333D01*
X103833333Y-102185714D01*
X103642857Y-102185714D01*
X103547619Y-102233333D01*
X103976190Y-102804761D02*
X103880952Y-102852380D01*
X103642857Y-102852380D01*
X103547619Y-102804761D01*
X103500000Y-102709523D01*
X103500000Y-102614285D01*
X103547619Y-102519047D01*
X103642857Y-102471428D01*
X103880952Y-102471428D01*
X103976190Y-102423809D01*
X104595238Y-102852380D02*
X104500000Y-102804761D01*
X104452380Y-102709523D01*
X104452380Y-101852380D01*
X105357142Y-102804761D02*
X105261904Y-102852380D01*
X105071428Y-102852380D01*
X104976190Y-102804761D01*
X104928571Y-102709523D01*
X104928571Y-102328571D01*
X104976190Y-102233333D01*
X105071428Y-102185714D01*
X105261904Y-102185714D01*
X105357142Y-102233333D01*
X105404761Y-102328571D01*
X105404761Y-102423809D01*
X104928571Y-102519047D01*
X97966666Y-98952380D02*
X97966666Y-99666666D01*
X97919047Y-99809523D01*
X97823809Y-99904761D01*
X97680952Y-99952380D01*
X97585714Y-99952380D01*
X98919047Y-98952380D02*
X98442857Y-98952380D01*
X98395238Y-99428571D01*
X98442857Y-99380952D01*
X98538095Y-99333333D01*
X98776190Y-99333333D01*
X98871428Y-99380952D01*
X98919047Y-99428571D01*
X98966666Y-99523809D01*
X98966666Y-99761904D01*
X98919047Y-99857142D01*
X98871428Y-99904761D01*
X98776190Y-99952380D01*
X98538095Y-99952380D01*
X98442857Y-99904761D01*
X98395238Y-99857142D01*
%TO.C,R2*%
X77301904Y-119032380D02*
X76825714Y-119032380D01*
X76778095Y-119508571D01*
X76825714Y-119460952D01*
X76920952Y-119413333D01*
X77159047Y-119413333D01*
X77254285Y-119460952D01*
X77301904Y-119508571D01*
X77349523Y-119603809D01*
X77349523Y-119841904D01*
X77301904Y-119937142D01*
X77254285Y-119984761D01*
X77159047Y-120032380D01*
X76920952Y-120032380D01*
X76825714Y-119984761D01*
X76778095Y-119937142D01*
X78206666Y-119032380D02*
X78016190Y-119032380D01*
X77920952Y-119080000D01*
X77873333Y-119127619D01*
X77778095Y-119270476D01*
X77730476Y-119460952D01*
X77730476Y-119841904D01*
X77778095Y-119937142D01*
X77825714Y-119984761D01*
X77920952Y-120032380D01*
X78111428Y-120032380D01*
X78206666Y-119984761D01*
X78254285Y-119937142D01*
X78301904Y-119841904D01*
X78301904Y-119603809D01*
X78254285Y-119508571D01*
X78206666Y-119460952D01*
X78111428Y-119413333D01*
X77920952Y-119413333D01*
X77825714Y-119460952D01*
X77778095Y-119508571D01*
X77730476Y-119603809D01*
X78730476Y-120032380D02*
X78730476Y-119032380D01*
X79301904Y-120032380D02*
X78873333Y-119460952D01*
X79301904Y-119032380D02*
X78730476Y-119603809D01*
D14*
X77920000Y-121825714D02*
X77680000Y-121482857D01*
X77508571Y-121825714D02*
X77508571Y-121105714D01*
X77782857Y-121105714D01*
X77851428Y-121140000D01*
X77885714Y-121174285D01*
X77920000Y-121242857D01*
X77920000Y-121345714D01*
X77885714Y-121414285D01*
X77851428Y-121448571D01*
X77782857Y-121482857D01*
X77508571Y-121482857D01*
X78194285Y-121174285D02*
X78228571Y-121140000D01*
X78297142Y-121105714D01*
X78468571Y-121105714D01*
X78537142Y-121140000D01*
X78571428Y-121174285D01*
X78605714Y-121242857D01*
X78605714Y-121311428D01*
X78571428Y-121414285D01*
X78160000Y-121825714D01*
X78605714Y-121825714D01*
%TO.C,R3*%
D11*
X77754285Y-116372380D02*
X77182857Y-116372380D01*
X77468571Y-116372380D02*
X77468571Y-115372380D01*
X77373333Y-115515238D01*
X77278095Y-115610476D01*
X77182857Y-115658095D01*
X78182857Y-116372380D02*
X78182857Y-115372380D01*
X78516190Y-116086666D01*
X78849523Y-115372380D01*
X78849523Y-116372380D01*
D14*
X77920000Y-114325714D02*
X77680000Y-113982857D01*
X77508571Y-114325714D02*
X77508571Y-113605714D01*
X77782857Y-113605714D01*
X77851428Y-113640000D01*
X77885714Y-113674285D01*
X77920000Y-113742857D01*
X77920000Y-113845714D01*
X77885714Y-113914285D01*
X77851428Y-113948571D01*
X77782857Y-113982857D01*
X77508571Y-113982857D01*
X78160000Y-113605714D02*
X78605714Y-113605714D01*
X78365714Y-113880000D01*
X78468571Y-113880000D01*
X78537142Y-113914285D01*
X78571428Y-113948571D01*
X78605714Y-114017142D01*
X78605714Y-114188571D01*
X78571428Y-114257142D01*
X78537142Y-114291428D01*
X78468571Y-114325714D01*
X78262857Y-114325714D01*
X78194285Y-114291428D01*
X78160000Y-114257142D01*
%TO.C,R4*%
D11*
X72705714Y-114301904D02*
X73372380Y-114301904D01*
X72324761Y-114540000D02*
X73039047Y-114778095D01*
X73039047Y-114159047D01*
X72372380Y-113873333D02*
X72372380Y-113206666D01*
X73372380Y-113635238D01*
X72372380Y-112635238D02*
X72372380Y-112540000D01*
X72420000Y-112444761D01*
X72467619Y-112397142D01*
X72562857Y-112349523D01*
X72753333Y-112301904D01*
X72991428Y-112301904D01*
X73181904Y-112349523D01*
X73277142Y-112397142D01*
X73324761Y-112444761D01*
X73372380Y-112540000D01*
X73372380Y-112635238D01*
X73324761Y-112730476D01*
X73277142Y-112778095D01*
X73181904Y-112825714D01*
X72991428Y-112873333D01*
X72753333Y-112873333D01*
X72562857Y-112825714D01*
X72467619Y-112778095D01*
X72420000Y-112730476D01*
X72372380Y-112635238D01*
D14*
X71325714Y-113660000D02*
X70982857Y-113900000D01*
X71325714Y-114071428D02*
X70605714Y-114071428D01*
X70605714Y-113797142D01*
X70640000Y-113728571D01*
X70674285Y-113694285D01*
X70742857Y-113660000D01*
X70845714Y-113660000D01*
X70914285Y-113694285D01*
X70948571Y-113728571D01*
X70982857Y-113797142D01*
X70982857Y-114071428D01*
X70845714Y-113042857D02*
X71325714Y-113042857D01*
X70571428Y-113214285D02*
X71085714Y-113385714D01*
X71085714Y-112940000D01*
%TO.C,R5*%
D11*
X77293333Y-109532380D02*
X76721904Y-109532380D01*
X77007619Y-109532380D02*
X77007619Y-108532380D01*
X76912380Y-108675238D01*
X76817142Y-108770476D01*
X76721904Y-108818095D01*
X77912380Y-108532380D02*
X78007619Y-108532380D01*
X78102857Y-108580000D01*
X78150476Y-108627619D01*
X78198095Y-108722857D01*
X78245714Y-108913333D01*
X78245714Y-109151428D01*
X78198095Y-109341904D01*
X78150476Y-109437142D01*
X78102857Y-109484761D01*
X78007619Y-109532380D01*
X77912380Y-109532380D01*
X77817142Y-109484761D01*
X77769523Y-109437142D01*
X77721904Y-109341904D01*
X77674285Y-109151428D01*
X77674285Y-108913333D01*
X77721904Y-108722857D01*
X77769523Y-108627619D01*
X77817142Y-108580000D01*
X77912380Y-108532380D01*
X78864761Y-108532380D02*
X78960000Y-108532380D01*
X79055238Y-108580000D01*
X79102857Y-108627619D01*
X79150476Y-108722857D01*
X79198095Y-108913333D01*
X79198095Y-109151428D01*
X79150476Y-109341904D01*
X79102857Y-109437142D01*
X79055238Y-109484761D01*
X78960000Y-109532380D01*
X78864761Y-109532380D01*
X78769523Y-109484761D01*
X78721904Y-109437142D01*
X78674285Y-109341904D01*
X78626666Y-109151428D01*
X78626666Y-108913333D01*
X78674285Y-108722857D01*
X78721904Y-108627619D01*
X78769523Y-108580000D01*
X78864761Y-108532380D01*
D14*
X77840000Y-111325714D02*
X77600000Y-110982857D01*
X77428571Y-111325714D02*
X77428571Y-110605714D01*
X77702857Y-110605714D01*
X77771428Y-110640000D01*
X77805714Y-110674285D01*
X77840000Y-110742857D01*
X77840000Y-110845714D01*
X77805714Y-110914285D01*
X77771428Y-110948571D01*
X77702857Y-110982857D01*
X77428571Y-110982857D01*
X78491428Y-110605714D02*
X78148571Y-110605714D01*
X78114285Y-110948571D01*
X78148571Y-110914285D01*
X78217142Y-110880000D01*
X78388571Y-110880000D01*
X78457142Y-110914285D01*
X78491428Y-110948571D01*
X78525714Y-111017142D01*
X78525714Y-111188571D01*
X78491428Y-111257142D01*
X78457142Y-111291428D01*
X78388571Y-111325714D01*
X78217142Y-111325714D01*
X78148571Y-111291428D01*
X78114285Y-111257142D01*
%TO.C,R6*%
D11*
X77301904Y-118872380D02*
X76825714Y-118872380D01*
X76778095Y-119348571D01*
X76825714Y-119300952D01*
X76920952Y-119253333D01*
X77159047Y-119253333D01*
X77254285Y-119300952D01*
X77301904Y-119348571D01*
X77349523Y-119443809D01*
X77349523Y-119681904D01*
X77301904Y-119777142D01*
X77254285Y-119824761D01*
X77159047Y-119872380D01*
X76920952Y-119872380D01*
X76825714Y-119824761D01*
X76778095Y-119777142D01*
X78206666Y-118872380D02*
X78016190Y-118872380D01*
X77920952Y-118920000D01*
X77873333Y-118967619D01*
X77778095Y-119110476D01*
X77730476Y-119300952D01*
X77730476Y-119681904D01*
X77778095Y-119777142D01*
X77825714Y-119824761D01*
X77920952Y-119872380D01*
X78111428Y-119872380D01*
X78206666Y-119824761D01*
X78254285Y-119777142D01*
X78301904Y-119681904D01*
X78301904Y-119443809D01*
X78254285Y-119348571D01*
X78206666Y-119300952D01*
X78111428Y-119253333D01*
X77920952Y-119253333D01*
X77825714Y-119300952D01*
X77778095Y-119348571D01*
X77730476Y-119443809D01*
X78730476Y-119872380D02*
X78730476Y-118872380D01*
X79301904Y-119872380D02*
X78873333Y-119300952D01*
X79301904Y-118872380D02*
X78730476Y-119443809D01*
D14*
X77920000Y-117825714D02*
X77680000Y-117482857D01*
X77508571Y-117825714D02*
X77508571Y-117105714D01*
X77782857Y-117105714D01*
X77851428Y-117140000D01*
X77885714Y-117174285D01*
X77920000Y-117242857D01*
X77920000Y-117345714D01*
X77885714Y-117414285D01*
X77851428Y-117448571D01*
X77782857Y-117482857D01*
X77508571Y-117482857D01*
X78537142Y-117105714D02*
X78400000Y-117105714D01*
X78331428Y-117140000D01*
X78297142Y-117174285D01*
X78228571Y-117277142D01*
X78194285Y-117414285D01*
X78194285Y-117688571D01*
X78228571Y-117757142D01*
X78262857Y-117791428D01*
X78331428Y-117825714D01*
X78468571Y-117825714D01*
X78537142Y-117791428D01*
X78571428Y-117757142D01*
X78605714Y-117688571D01*
X78605714Y-117517142D01*
X78571428Y-117448571D01*
X78537142Y-117414285D01*
X78468571Y-117380000D01*
X78331428Y-117380000D01*
X78262857Y-117414285D01*
X78228571Y-117448571D01*
X78194285Y-117517142D01*
%TO.C,R7*%
D11*
X86705714Y-113849523D02*
X87372380Y-113849523D01*
X86324761Y-114087619D02*
X87039047Y-114325714D01*
X87039047Y-113706666D01*
X87372380Y-113325714D02*
X86372380Y-113325714D01*
X87372380Y-112754285D02*
X86800952Y-113182857D01*
X86372380Y-112754285D02*
X86943809Y-113325714D01*
D14*
X85325714Y-113660000D02*
X84982857Y-113900000D01*
X85325714Y-114071428D02*
X84605714Y-114071428D01*
X84605714Y-113797142D01*
X84640000Y-113728571D01*
X84674285Y-113694285D01*
X84742857Y-113660000D01*
X84845714Y-113660000D01*
X84914285Y-113694285D01*
X84948571Y-113728571D01*
X84982857Y-113797142D01*
X84982857Y-114071428D01*
X84605714Y-113420000D02*
X84605714Y-112940000D01*
X85325714Y-113248571D01*
%TO.C,U2*%
D11*
X75667142Y-106902380D02*
X75667142Y-105902380D01*
X76238571Y-106902380D01*
X76238571Y-105902380D01*
X76714761Y-106378571D02*
X77048095Y-106378571D01*
X77190952Y-106902380D02*
X76714761Y-106902380D01*
X76714761Y-105902380D01*
X77190952Y-105902380D01*
X78095714Y-105902380D02*
X77619523Y-105902380D01*
X77571904Y-106378571D01*
X77619523Y-106330952D01*
X77714761Y-106283333D01*
X77952857Y-106283333D01*
X78048095Y-106330952D01*
X78095714Y-106378571D01*
X78143333Y-106473809D01*
X78143333Y-106711904D01*
X78095714Y-106807142D01*
X78048095Y-106854761D01*
X77952857Y-106902380D01*
X77714761Y-106902380D01*
X77619523Y-106854761D01*
X77571904Y-106807142D01*
X79048095Y-105902380D02*
X78571904Y-105902380D01*
X78524285Y-106378571D01*
X78571904Y-106330952D01*
X78667142Y-106283333D01*
X78905238Y-106283333D01*
X79000476Y-106330952D01*
X79048095Y-106378571D01*
X79095714Y-106473809D01*
X79095714Y-106711904D01*
X79048095Y-106807142D01*
X79000476Y-106854761D01*
X78905238Y-106902380D01*
X78667142Y-106902380D01*
X78571904Y-106854761D01*
X78524285Y-106807142D01*
X79429047Y-105902380D02*
X80048095Y-105902380D01*
X79714761Y-106283333D01*
X79857619Y-106283333D01*
X79952857Y-106330952D01*
X80000476Y-106378571D01*
X80048095Y-106473809D01*
X80048095Y-106711904D01*
X80000476Y-106807142D01*
X79952857Y-106854761D01*
X79857619Y-106902380D01*
X79571904Y-106902380D01*
X79476666Y-106854761D01*
X79429047Y-106807142D01*
X80905238Y-106235714D02*
X80905238Y-106902380D01*
X80667142Y-105854761D02*
X80429047Y-106569047D01*
X81048095Y-106569047D01*
X77548095Y-99762380D02*
X77548095Y-100571904D01*
X77595714Y-100667142D01*
X77643333Y-100714761D01*
X77738571Y-100762380D01*
X77929047Y-100762380D01*
X78024285Y-100714761D01*
X78071904Y-100667142D01*
X78119523Y-100571904D01*
X78119523Y-99762380D01*
X78548095Y-99857619D02*
X78595714Y-99810000D01*
X78690952Y-99762380D01*
X78929047Y-99762380D01*
X79024285Y-99810000D01*
X79071904Y-99857619D01*
X79119523Y-99952857D01*
X79119523Y-100048095D01*
X79071904Y-100190952D01*
X78500476Y-100762380D01*
X79119523Y-100762380D01*
%TO.C,U1*%
X56929047Y-106782380D02*
X56452857Y-106782380D01*
X56452857Y-105782380D01*
X57262380Y-106782380D02*
X57262380Y-105782380D01*
X57595714Y-106496666D01*
X57929047Y-105782380D01*
X57929047Y-106782380D01*
X58310000Y-105782380D02*
X58929047Y-105782380D01*
X58595714Y-106163333D01*
X58738571Y-106163333D01*
X58833809Y-106210952D01*
X58881428Y-106258571D01*
X58929047Y-106353809D01*
X58929047Y-106591904D01*
X58881428Y-106687142D01*
X58833809Y-106734761D01*
X58738571Y-106782380D01*
X58452857Y-106782380D01*
X58357619Y-106734761D01*
X58310000Y-106687142D01*
X59500476Y-106210952D02*
X59405238Y-106163333D01*
X59357619Y-106115714D01*
X59310000Y-106020476D01*
X59310000Y-105972857D01*
X59357619Y-105877619D01*
X59405238Y-105830000D01*
X59500476Y-105782380D01*
X59690952Y-105782380D01*
X59786190Y-105830000D01*
X59833809Y-105877619D01*
X59881428Y-105972857D01*
X59881428Y-106020476D01*
X59833809Y-106115714D01*
X59786190Y-106163333D01*
X59690952Y-106210952D01*
X59500476Y-106210952D01*
X59405238Y-106258571D01*
X59357619Y-106306190D01*
X59310000Y-106401428D01*
X59310000Y-106591904D01*
X59357619Y-106687142D01*
X59405238Y-106734761D01*
X59500476Y-106782380D01*
X59690952Y-106782380D01*
X59786190Y-106734761D01*
X59833809Y-106687142D01*
X59881428Y-106591904D01*
X59881428Y-106401428D01*
X59833809Y-106306190D01*
X59786190Y-106258571D01*
X59690952Y-106210952D01*
X60738571Y-105782380D02*
X60548095Y-105782380D01*
X60452857Y-105830000D01*
X60405238Y-105877619D01*
X60310000Y-106020476D01*
X60262380Y-106210952D01*
X60262380Y-106591904D01*
X60310000Y-106687142D01*
X60357619Y-106734761D01*
X60452857Y-106782380D01*
X60643333Y-106782380D01*
X60738571Y-106734761D01*
X60786190Y-106687142D01*
X60833809Y-106591904D01*
X60833809Y-106353809D01*
X60786190Y-106258571D01*
X60738571Y-106210952D01*
X60643333Y-106163333D01*
X60452857Y-106163333D01*
X60357619Y-106210952D01*
X60310000Y-106258571D01*
X60262380Y-106353809D01*
X61262380Y-106782380D02*
X61262380Y-105782380D01*
X61833809Y-106782380D01*
X61833809Y-105782380D01*
X62310000Y-106401428D02*
X63071904Y-106401428D01*
X63976666Y-106115714D02*
X63976666Y-106782380D01*
X63738571Y-105734761D02*
X63500476Y-106449047D01*
X64119523Y-106449047D01*
X65214761Y-105734761D02*
X64357619Y-107020476D01*
X65548095Y-106782380D02*
X65548095Y-105782380D01*
X66119523Y-106782380D01*
X66119523Y-105782380D01*
X66786190Y-105782380D02*
X66976666Y-105782380D01*
X67071904Y-105830000D01*
X67167142Y-105925238D01*
X67214761Y-106115714D01*
X67214761Y-106449047D01*
X67167142Y-106639523D01*
X67071904Y-106734761D01*
X66976666Y-106782380D01*
X66786190Y-106782380D01*
X66690952Y-106734761D01*
X66595714Y-106639523D01*
X66548095Y-106449047D01*
X66548095Y-106115714D01*
X66595714Y-105925238D01*
X66690952Y-105830000D01*
X66786190Y-105782380D01*
X67643333Y-106782380D02*
X67643333Y-105782380D01*
X68024285Y-105782380D01*
X68119523Y-105830000D01*
X68167142Y-105877619D01*
X68214761Y-105972857D01*
X68214761Y-106115714D01*
X68167142Y-106210952D01*
X68119523Y-106258571D01*
X68024285Y-106306190D01*
X67643333Y-106306190D01*
X68976666Y-106258571D02*
X69119523Y-106306190D01*
X69167142Y-106353809D01*
X69214761Y-106449047D01*
X69214761Y-106591904D01*
X69167142Y-106687142D01*
X69119523Y-106734761D01*
X69024285Y-106782380D01*
X68643333Y-106782380D01*
X68643333Y-105782380D01*
X68976666Y-105782380D01*
X69071904Y-105830000D01*
X69119523Y-105877619D01*
X69167142Y-105972857D01*
X69167142Y-106068095D01*
X69119523Y-106163333D01*
X69071904Y-106210952D01*
X68976666Y-106258571D01*
X68643333Y-106258571D01*
X62048095Y-99642380D02*
X62048095Y-100451904D01*
X62095714Y-100547142D01*
X62143333Y-100594761D01*
X62238571Y-100642380D01*
X62429047Y-100642380D01*
X62524285Y-100594761D01*
X62571904Y-100547142D01*
X62619523Y-100451904D01*
X62619523Y-99642380D01*
X63619523Y-100642380D02*
X63048095Y-100642380D01*
X63333809Y-100642380D02*
X63333809Y-99642380D01*
X63238571Y-99785238D01*
X63143333Y-99880476D01*
X63048095Y-99928095D01*
%TD*%
M02*
