%TF.GenerationSoftware,KiCad,Pcbnew,5.1.10*%
%TF.CreationDate,2021-06-28T13:13:06+02:00*%
%TF.ProjectId,9v-preamp,39762d70-7265-4616-9d70-2e6b69636164,rev?*%
%TF.SameCoordinates,Original*%
%TF.FileFunction,Copper,L2,Bot*%
%TF.FilePolarity,Positive*%
%FSLAX46Y46*%
G04 Gerber Fmt 4.6, Leading zero omitted, Abs format (unit mm)*
G04 Created by KiCad (PCBNEW 5.1.10) date 2021-06-28 13:13:06*
%MOMM*%
%LPD*%
G01*
G04 APERTURE LIST*
%TA.AperFunction,ComponentPad*%
%ADD10C,3.800000*%
%TD*%
%TA.AperFunction,ComponentPad*%
%ADD11C,1.600000*%
%TD*%
%TA.AperFunction,ComponentPad*%
%ADD12O,1.600000X1.600000*%
%TD*%
%TA.AperFunction,ComponentPad*%
%ADD13O,1.700000X1.700000*%
%TD*%
%TA.AperFunction,ComponentPad*%
%ADD14R,1.700000X1.700000*%
%TD*%
%TA.AperFunction,ComponentPad*%
%ADD15R,1.350000X1.350000*%
%TD*%
%TA.AperFunction,ComponentPad*%
%ADD16O,1.350000X1.350000*%
%TD*%
%TA.AperFunction,ComponentPad*%
%ADD17R,1.800000X1.800000*%
%TD*%
%TA.AperFunction,ComponentPad*%
%ADD18C,1.800000*%
%TD*%
%TA.AperFunction,ComponentPad*%
%ADD19R,1.600000X1.600000*%
%TD*%
%TA.AperFunction,ComponentPad*%
%ADD20C,3.500000*%
%TD*%
%TA.AperFunction,ComponentPad*%
%ADD21C,1.400000*%
%TD*%
%TA.AperFunction,ComponentPad*%
%ADD22O,1.400000X1.400000*%
%TD*%
%TA.AperFunction,ViaPad*%
%ADD23C,0.800000*%
%TD*%
%TA.AperFunction,Conductor*%
%ADD24C,0.200000*%
%TD*%
%TA.AperFunction,Conductor*%
%ADD25C,0.254000*%
%TD*%
%TA.AperFunction,Conductor*%
%ADD26C,0.100000*%
%TD*%
G04 APERTURE END LIST*
D10*
%TO.P,J8,1*%
%TO.N,Earth*%
X45500000Y-89000000D03*
%TD*%
%TO.P,J9,1*%
%TO.N,Earth*%
X107000000Y-89000000D03*
%TD*%
%TO.P,J7,1*%
%TO.N,Earth*%
X107000000Y-135500000D03*
%TD*%
%TO.P,J6,1*%
%TO.N,Earth*%
X45500000Y-135500000D03*
%TD*%
D11*
%TO.P,R1,1*%
%TO.N,Net-(C7-Pad1)*%
X58880000Y-109000000D03*
D12*
%TO.P,R1,2*%
%TO.N,GND*%
X66500000Y-109000000D03*
%TD*%
D11*
%TO.P,C7,1*%
%TO.N,Net-(C7-Pad1)*%
X51000000Y-91000000D03*
%TO.P,C7,2*%
%TO.N,Net-(C1-Pad2)*%
X53500000Y-91000000D03*
%TD*%
D13*
%TO.P,BT1,2*%
%TO.N,GND*%
X47500000Y-117540000D03*
D14*
%TO.P,BT1,1*%
%TO.N,Net-(BT1-Pad1)*%
X47500000Y-115000000D03*
%TD*%
D11*
%TO.P,C4,2*%
%TO.N,GND*%
X54000000Y-117500000D03*
%TO.P,C4,1*%
%TO.N,Net-(C2-Pad2)*%
X54000000Y-115000000D03*
%TD*%
%TO.P,C2,2*%
%TO.N,Net-(C2-Pad2)*%
X97500000Y-119500000D03*
%TO.P,C2,1*%
%TO.N,GND*%
X95000000Y-119500000D03*
%TD*%
%TO.P,C3,1*%
%TO.N,GND*%
X94500000Y-128000000D03*
%TO.P,C3,2*%
%TO.N,Net-(C2-Pad2)*%
X94500000Y-125500000D03*
%TD*%
D15*
%TO.P,SW1,1*%
%TO.N,Net-(BT1-Pad1)*%
X47500000Y-122500000D03*
D16*
%TO.P,SW1,2*%
%TO.N,Net-(C2-Pad2)*%
X47500000Y-124500000D03*
%TD*%
D10*
%TO.P,J2,1*%
%TO.N,GND*%
X47825000Y-96675000D03*
%TD*%
%TO.P,J1,1*%
%TO.N,Net-(C1-Pad1)*%
X47825000Y-102025000D03*
%TD*%
D14*
%TO.P,RV1,1*%
%TO.N,+out*%
X59000000Y-91000000D03*
D13*
%TO.P,RV1,2*%
%TO.N,Net-(RV1-Pad2)*%
X61540000Y-91000000D03*
%TO.P,RV1,3*%
%TO.N,GND*%
X64080000Y-91000000D03*
%TD*%
D17*
%TO.P,D1,1*%
%TO.N,GND*%
X101500000Y-127500000D03*
D18*
%TO.P,D1,2*%
%TO.N,Net-(C2-Pad2)*%
X101500000Y-124960000D03*
%TD*%
D11*
%TO.P,C6,1*%
%TO.N,GND*%
X54000000Y-122000000D03*
%TO.P,C6,2*%
%TO.N,Net-(C2-Pad2)*%
X54000000Y-124500000D03*
%TD*%
D19*
%TO.P,C1,1*%
%TO.N,Net-(C1-Pad1)*%
X52500000Y-102500000D03*
D11*
%TO.P,C1,2*%
%TO.N,Net-(C1-Pad2)*%
X55000000Y-102500000D03*
%TD*%
D19*
%TO.P,C5,1*%
%TO.N,Net-(C2-Pad2)*%
X55000000Y-133500000D03*
D11*
%TO.P,C5,2*%
%TO.N,GND*%
X51500000Y-133500000D03*
%TD*%
%TO.P,C8,1*%
%TO.N,VCC*%
X59500000Y-115000000D03*
%TO.P,C8,2*%
%TO.N,GND*%
X59500000Y-117500000D03*
%TD*%
%TO.P,C9,2*%
%TO.N,Net-(C9-Pad2)*%
X59000000Y-124500000D03*
%TO.P,C9,1*%
%TO.N,+out*%
X59000000Y-122000000D03*
%TD*%
%TO.P,C10,2*%
%TO.N,Net-(C10-Pad2)*%
X64000000Y-124500000D03*
%TO.P,C10,1*%
%TO.N,GND*%
X64000000Y-122000000D03*
%TD*%
%TO.P,C11,1*%
%TO.N,Net-(C11-Pad1)*%
X64500000Y-115000000D03*
%TO.P,C11,2*%
%TO.N,GND*%
X64500000Y-117500000D03*
%TD*%
D12*
%TO.P,D2,2*%
%TO.N,Net-(D2-Pad2)*%
X74380000Y-127500000D03*
D19*
%TO.P,D2,1*%
%TO.N,VCC*%
X82000000Y-127500000D03*
%TD*%
%TO.P,D3,1*%
%TO.N,Net-(D2-Pad2)*%
X74380000Y-134000000D03*
D12*
%TO.P,D3,2*%
%TO.N,GND*%
X82000000Y-134000000D03*
%TD*%
D20*
%TO.P,J3,1*%
%TO.N,Net-(D2-Pad2)*%
X98000000Y-105000000D03*
%TD*%
%TO.P,J4,1*%
%TO.N,GND*%
X98000000Y-111000000D03*
%TD*%
D10*
%TO.P,J5,1*%
%TO.N,Earth*%
X98000000Y-99500000D03*
%TD*%
D21*
%TO.P,R2,1*%
%TO.N,VCC*%
X80580000Y-121500000D03*
D22*
%TO.P,R2,2*%
%TO.N,Net-(C11-Pad1)*%
X75500000Y-121500000D03*
%TD*%
%TO.P,R3,2*%
%TO.N,Net-(D2-Pad2)*%
X80580000Y-114000000D03*
D21*
%TO.P,R3,1*%
%TO.N,Net-(C11-Pad1)*%
X75500000Y-114000000D03*
%TD*%
D22*
%TO.P,R4,2*%
%TO.N,Net-(R4-Pad2)*%
X71000000Y-111000000D03*
D21*
%TO.P,R4,1*%
%TO.N,Net-(C9-Pad2)*%
X71000000Y-116080000D03*
%TD*%
%TO.P,R5,1*%
%TO.N,Net-(C10-Pad2)*%
X80500000Y-111000000D03*
D22*
%TO.P,R5,2*%
%TO.N,Net-(R5-Pad2)*%
X75420000Y-111000000D03*
%TD*%
%TO.P,R6,2*%
%TO.N,GND*%
X80580000Y-117500000D03*
D21*
%TO.P,R6,1*%
%TO.N,Net-(C11-Pad1)*%
X75500000Y-117500000D03*
%TD*%
%TO.P,R7,1*%
%TO.N,Net-(R4-Pad2)*%
X85000000Y-116080000D03*
D22*
%TO.P,R7,2*%
%TO.N,Net-(R5-Pad2)*%
X85000000Y-111000000D03*
%TD*%
D19*
%TO.P,U2,1*%
%TO.N,Net-(U2-Pad1)*%
X74500000Y-96500000D03*
D12*
%TO.P,U2,5*%
%TO.N,Net-(U2-Pad5)*%
X82120000Y-104120000D03*
%TO.P,U2,2*%
%TO.N,Net-(R5-Pad2)*%
X74500000Y-99040000D03*
%TO.P,U2,6*%
%TO.N,Net-(R4-Pad2)*%
X82120000Y-101580000D03*
%TO.P,U2,3*%
%TO.N,Net-(D2-Pad2)*%
X74500000Y-101580000D03*
%TO.P,U2,7*%
%TO.N,VCC*%
X82120000Y-99040000D03*
%TO.P,U2,4*%
%TO.N,V-*%
X74500000Y-104120000D03*
%TO.P,U2,8*%
%TO.N,Net-(U2-Pad8)*%
X82120000Y-96500000D03*
%TD*%
D19*
%TO.P,U1,1*%
%TO.N,Net-(U1-Pad1)*%
X59000000Y-96380000D03*
D12*
%TO.P,U1,5*%
%TO.N,Net-(C1-Pad2)*%
X66620000Y-104000000D03*
%TO.P,U1,2*%
%TO.N,GND*%
X59000000Y-98920000D03*
%TO.P,U1,6*%
%TO.N,VCC*%
X66620000Y-101460000D03*
%TO.P,U1,3*%
%TO.N,Net-(RV1-Pad2)*%
X59000000Y-101460000D03*
%TO.P,U1,7*%
%TO.N,Net-(U1-Pad7)*%
X66620000Y-98920000D03*
%TO.P,U1,4*%
%TO.N,GND*%
X59000000Y-104000000D03*
%TO.P,U1,8*%
%TO.N,Net-(U1-Pad8)*%
X66620000Y-96380000D03*
%TD*%
D23*
%TO.N,Earth*%
X56000000Y-120000000D03*
X51500000Y-98000000D03*
X80500000Y-119500000D03*
%TD*%
D24*
%TO.N,GND*%
X64500000Y-117500000D02*
X65593200Y-116406800D01*
X65593200Y-116406800D02*
X65593200Y-109000000D01*
X64000000Y-122000000D02*
X64500000Y-121500000D01*
X64500000Y-121500000D02*
X64500000Y-117500000D01*
X65593200Y-109000000D02*
X66500000Y-109000000D01*
X60030300Y-104000000D02*
X65030300Y-109000000D01*
X65030300Y-109000000D02*
X65593200Y-109000000D01*
X59000000Y-104000000D02*
X60030300Y-104000000D01*
X83030400Y-126410000D02*
X83030400Y-120880700D01*
X83030400Y-120880700D02*
X80580000Y-118430300D01*
X82000000Y-132969700D02*
X83030400Y-131939300D01*
X83030400Y-131939300D02*
X83030400Y-126410000D01*
X93469600Y-126410000D02*
X93469600Y-121030400D01*
X93469600Y-121030400D02*
X95000000Y-119500000D01*
X94500000Y-128000000D02*
X93469600Y-126969600D01*
X93469600Y-126969600D02*
X93469600Y-126410000D01*
X83030400Y-126410000D02*
X93469600Y-126410000D01*
X54000000Y-117540000D02*
X54000000Y-117500000D01*
X54000000Y-122000000D02*
X54000000Y-117540000D01*
X54000000Y-117540000D02*
X48580300Y-117540000D01*
X47500000Y-117540000D02*
X48580300Y-117540000D01*
X51500000Y-133500000D02*
X51500000Y-124500000D01*
X51500000Y-124500000D02*
X54000000Y-122000000D01*
X80580000Y-117500000D02*
X80580000Y-118430300D01*
X82000000Y-134000000D02*
X82000000Y-132969700D01*
X98000000Y-111000000D02*
X98000000Y-116500000D01*
X98000000Y-116500000D02*
X95000000Y-119500000D01*
%TO.N,Net-(C10-Pad2)*%
X80500000Y-111000000D02*
X77184200Y-111000000D01*
X77184200Y-111000000D02*
X73349600Y-114834600D01*
X73349600Y-114834600D02*
X73349600Y-115150400D01*
X73349600Y-115150400D02*
X64000000Y-124500000D01*
%TO.N,Net-(R5-Pad2)*%
X75420000Y-111000000D02*
X75420000Y-110069700D01*
X74500000Y-99040000D02*
X74500000Y-100070300D01*
X74500000Y-100070300D02*
X75530300Y-101100600D01*
X75530300Y-101100600D02*
X75530300Y-109959400D01*
X75530300Y-109959400D02*
X75420000Y-110069700D01*
%TO.N,VCC*%
X80580000Y-121500000D02*
X82000000Y-122920000D01*
X82000000Y-122920000D02*
X82000000Y-127500000D01*
%TO.N,Net-(C11-Pad1)*%
X75500000Y-117500000D02*
X75500000Y-121500000D01*
X75500000Y-114000000D02*
X75500000Y-117500000D01*
%TO.N,Net-(RV1-Pad2)*%
X59000000Y-101460000D02*
X59000000Y-100429700D01*
X59000000Y-100429700D02*
X61540000Y-97889700D01*
X61540000Y-97889700D02*
X61540000Y-91000000D01*
%TO.N,Net-(C1-Pad2)*%
X55000000Y-102500000D02*
X55000000Y-92500000D01*
X55000000Y-92500000D02*
X53500000Y-91000000D01*
%TO.N,+out*%
X59000000Y-91000000D02*
X59000000Y-92080300D01*
X59000000Y-122000000D02*
X57634200Y-120634200D01*
X57634200Y-120634200D02*
X57634200Y-93446100D01*
X57634200Y-93446100D02*
X59000000Y-92080300D01*
%TO.N,Net-(D2-Pad2)*%
X74380000Y-127500000D02*
X74380000Y-126469700D01*
X80580000Y-114000000D02*
X80580000Y-114930300D01*
X80580000Y-114930300D02*
X79649700Y-115860600D01*
X79649700Y-115860600D02*
X79649700Y-121200000D01*
X79649700Y-121200000D02*
X74380000Y-126469700D01*
X74380000Y-134000000D02*
X74380000Y-127500000D01*
%TO.N,Net-(R4-Pad2)*%
X82120000Y-101580000D02*
X82120000Y-102610300D01*
X82120000Y-102610300D02*
X83150300Y-103640600D01*
X83150300Y-103640600D02*
X83150300Y-114230300D01*
X83150300Y-114230300D02*
X85000000Y-116080000D01*
%TD*%
D25*
%TO.N,Earth*%
X110648001Y-139148000D02*
X41352000Y-139148000D01*
X41352000Y-121825000D01*
X46496418Y-121825000D01*
X46496418Y-123175000D01*
X46502732Y-123239103D01*
X46521430Y-123300743D01*
X46551794Y-123357550D01*
X46592657Y-123407343D01*
X46642450Y-123448206D01*
X46699257Y-123478570D01*
X46760897Y-123497268D01*
X46825000Y-123503582D01*
X47373250Y-123503582D01*
X47207727Y-123536507D01*
X47025375Y-123612039D01*
X46861262Y-123721696D01*
X46721696Y-123861262D01*
X46612039Y-124025375D01*
X46536507Y-124207727D01*
X46498000Y-124401312D01*
X46498000Y-124598688D01*
X46536507Y-124792273D01*
X46612039Y-124974625D01*
X46721696Y-125138738D01*
X46861262Y-125278304D01*
X47025375Y-125387961D01*
X47207727Y-125463493D01*
X47401312Y-125502000D01*
X47598688Y-125502000D01*
X47792273Y-125463493D01*
X47974625Y-125387961D01*
X48138738Y-125278304D01*
X48278304Y-125138738D01*
X48387961Y-124974625D01*
X48463493Y-124792273D01*
X48502000Y-124598688D01*
X48502000Y-124401312D01*
X48463493Y-124207727D01*
X48387961Y-124025375D01*
X48278304Y-123861262D01*
X48138738Y-123721696D01*
X47974625Y-123612039D01*
X47792273Y-123536507D01*
X47626750Y-123503582D01*
X48175000Y-123503582D01*
X48239103Y-123497268D01*
X48300743Y-123478570D01*
X48357550Y-123448206D01*
X48407343Y-123407343D01*
X48448206Y-123357550D01*
X48478570Y-123300743D01*
X48497268Y-123239103D01*
X48503582Y-123175000D01*
X48503582Y-121825000D01*
X48497268Y-121760897D01*
X48478570Y-121699257D01*
X48448206Y-121642450D01*
X48407343Y-121592657D01*
X48357550Y-121551794D01*
X48300743Y-121521430D01*
X48239103Y-121502732D01*
X48175000Y-121496418D01*
X46825000Y-121496418D01*
X46760897Y-121502732D01*
X46699257Y-121521430D01*
X46642450Y-121551794D01*
X46592657Y-121592657D01*
X46551794Y-121642450D01*
X46521430Y-121699257D01*
X46502732Y-121760897D01*
X46496418Y-121825000D01*
X41352000Y-121825000D01*
X41352000Y-117424076D01*
X46323000Y-117424076D01*
X46323000Y-117655924D01*
X46368231Y-117883318D01*
X46456956Y-118097519D01*
X46585764Y-118290294D01*
X46749706Y-118454236D01*
X46942481Y-118583044D01*
X47156682Y-118671769D01*
X47384076Y-118717000D01*
X47615924Y-118717000D01*
X47843318Y-118671769D01*
X48057519Y-118583044D01*
X48250294Y-118454236D01*
X48414236Y-118290294D01*
X48543044Y-118097519D01*
X48597107Y-117967000D01*
X52973582Y-117967000D01*
X53001266Y-118033835D01*
X53124602Y-118218421D01*
X53281579Y-118375398D01*
X53466165Y-118498734D01*
X53573001Y-118542987D01*
X53573000Y-120957013D01*
X53466165Y-121001266D01*
X53281579Y-121124602D01*
X53124602Y-121281579D01*
X53001266Y-121466165D01*
X52916310Y-121671266D01*
X52873000Y-121889000D01*
X52873000Y-122111000D01*
X52916310Y-122328734D01*
X52960563Y-122435569D01*
X51212896Y-124183236D01*
X51196606Y-124196605D01*
X51183237Y-124212895D01*
X51183232Y-124212900D01*
X51143245Y-124261624D01*
X51103596Y-124335804D01*
X51090554Y-124378798D01*
X51079179Y-124416294D01*
X51070935Y-124500000D01*
X51073001Y-124520977D01*
X51073000Y-132457013D01*
X50966165Y-132501266D01*
X50781579Y-132624602D01*
X50624602Y-132781579D01*
X50501266Y-132966165D01*
X50416310Y-133171266D01*
X50373000Y-133389000D01*
X50373000Y-133611000D01*
X50416310Y-133828734D01*
X50501266Y-134033835D01*
X50624602Y-134218421D01*
X50781579Y-134375398D01*
X50966165Y-134498734D01*
X51171266Y-134583690D01*
X51389000Y-134627000D01*
X51611000Y-134627000D01*
X51828734Y-134583690D01*
X52033835Y-134498734D01*
X52218421Y-134375398D01*
X52375398Y-134218421D01*
X52498734Y-134033835D01*
X52583690Y-133828734D01*
X52627000Y-133611000D01*
X52627000Y-133389000D01*
X52583690Y-133171266D01*
X52498734Y-132966165D01*
X52375398Y-132781579D01*
X52293819Y-132700000D01*
X53871418Y-132700000D01*
X53871418Y-134300000D01*
X53877732Y-134364103D01*
X53896430Y-134425743D01*
X53926794Y-134482550D01*
X53967657Y-134532343D01*
X54017450Y-134573206D01*
X54074257Y-134603570D01*
X54135897Y-134622268D01*
X54200000Y-134628582D01*
X55800000Y-134628582D01*
X55864103Y-134622268D01*
X55925743Y-134603570D01*
X55982550Y-134573206D01*
X56032343Y-134532343D01*
X56073206Y-134482550D01*
X56103570Y-134425743D01*
X56122268Y-134364103D01*
X56128582Y-134300000D01*
X56128582Y-133200000D01*
X73251418Y-133200000D01*
X73251418Y-134800000D01*
X73257732Y-134864103D01*
X73276430Y-134925743D01*
X73306794Y-134982550D01*
X73347657Y-135032343D01*
X73397450Y-135073206D01*
X73454257Y-135103570D01*
X73515897Y-135122268D01*
X73580000Y-135128582D01*
X75180000Y-135128582D01*
X75244103Y-135122268D01*
X75305743Y-135103570D01*
X75362550Y-135073206D01*
X75412343Y-135032343D01*
X75453206Y-134982550D01*
X75483570Y-134925743D01*
X75502268Y-134864103D01*
X75508582Y-134800000D01*
X75508582Y-133200000D01*
X75502268Y-133135897D01*
X75483570Y-133074257D01*
X75453206Y-133017450D01*
X75412343Y-132967657D01*
X75362550Y-132926794D01*
X75305743Y-132896430D01*
X75244103Y-132877732D01*
X75180000Y-132871418D01*
X74807000Y-132871418D01*
X74807000Y-128542987D01*
X74913835Y-128498734D01*
X75098421Y-128375398D01*
X75255398Y-128218421D01*
X75378734Y-128033835D01*
X75463690Y-127828734D01*
X75507000Y-127611000D01*
X75507000Y-127389000D01*
X75463690Y-127171266D01*
X75378734Y-126966165D01*
X75255398Y-126781579D01*
X75098421Y-126624602D01*
X74936894Y-126516674D01*
X79610491Y-121843079D01*
X79669885Y-121986467D01*
X79782277Y-122154674D01*
X79925326Y-122297723D01*
X80093533Y-122410115D01*
X80280435Y-122487533D01*
X80478849Y-122527000D01*
X80681151Y-122527000D01*
X80879565Y-122487533D01*
X80939032Y-122462901D01*
X81573000Y-123096870D01*
X81573001Y-126371418D01*
X81200000Y-126371418D01*
X81135897Y-126377732D01*
X81074257Y-126396430D01*
X81017450Y-126426794D01*
X80967657Y-126467657D01*
X80926794Y-126517450D01*
X80896430Y-126574257D01*
X80877732Y-126635897D01*
X80871418Y-126700000D01*
X80871418Y-128300000D01*
X80877732Y-128364103D01*
X80896430Y-128425743D01*
X80926794Y-128482550D01*
X80967657Y-128532343D01*
X81017450Y-128573206D01*
X81074257Y-128603570D01*
X81135897Y-128622268D01*
X81200000Y-128628582D01*
X82603401Y-128628582D01*
X82603400Y-131762431D01*
X81712895Y-132652937D01*
X81696606Y-132666305D01*
X81683237Y-132682595D01*
X81683232Y-132682600D01*
X81643245Y-132731324D01*
X81616384Y-132781579D01*
X81603596Y-132805504D01*
X81583601Y-132871418D01*
X81579179Y-132885994D01*
X81572150Y-132957365D01*
X81466165Y-133001266D01*
X81281579Y-133124602D01*
X81124602Y-133281579D01*
X81001266Y-133466165D01*
X80916310Y-133671266D01*
X80873000Y-133889000D01*
X80873000Y-134111000D01*
X80916310Y-134328734D01*
X81001266Y-134533835D01*
X81124602Y-134718421D01*
X81281579Y-134875398D01*
X81466165Y-134998734D01*
X81671266Y-135083690D01*
X81889000Y-135127000D01*
X82111000Y-135127000D01*
X82328734Y-135083690D01*
X82533835Y-134998734D01*
X82718421Y-134875398D01*
X82875398Y-134718421D01*
X82998734Y-134533835D01*
X83083690Y-134328734D01*
X83127000Y-134111000D01*
X83127000Y-133889000D01*
X83083690Y-133671266D01*
X82998734Y-133466165D01*
X82875398Y-133281579D01*
X82718421Y-133124602D01*
X82556894Y-133016674D01*
X83317506Y-132256063D01*
X83333795Y-132242695D01*
X83347164Y-132226405D01*
X83347168Y-132226401D01*
X83387156Y-132177677D01*
X83426805Y-132103497D01*
X83432488Y-132084763D01*
X83451222Y-132023007D01*
X83457400Y-131960278D01*
X83457400Y-131960267D01*
X83459465Y-131939300D01*
X83457400Y-131918333D01*
X83457400Y-126837000D01*
X93042600Y-126837000D01*
X93042600Y-126948632D01*
X93040535Y-126969600D01*
X93042600Y-126990567D01*
X93042600Y-126990577D01*
X93048778Y-127053306D01*
X93073195Y-127133795D01*
X93073196Y-127133796D01*
X93112845Y-127207976D01*
X93152832Y-127256700D01*
X93166205Y-127272995D01*
X93182500Y-127286368D01*
X93460563Y-127564431D01*
X93416310Y-127671266D01*
X93373000Y-127889000D01*
X93373000Y-128111000D01*
X93416310Y-128328734D01*
X93501266Y-128533835D01*
X93624602Y-128718421D01*
X93781579Y-128875398D01*
X93966165Y-128998734D01*
X94171266Y-129083690D01*
X94389000Y-129127000D01*
X94611000Y-129127000D01*
X94828734Y-129083690D01*
X95033835Y-128998734D01*
X95218421Y-128875398D01*
X95375398Y-128718421D01*
X95498734Y-128533835D01*
X95583690Y-128328734D01*
X95627000Y-128111000D01*
X95627000Y-127889000D01*
X95583690Y-127671266D01*
X95498734Y-127466165D01*
X95375398Y-127281579D01*
X95218421Y-127124602D01*
X95033835Y-127001266D01*
X94828734Y-126916310D01*
X94611000Y-126873000D01*
X94389000Y-126873000D01*
X94171266Y-126916310D01*
X94064431Y-126960563D01*
X93896600Y-126792732D01*
X93896600Y-126452252D01*
X93966165Y-126498734D01*
X94171266Y-126583690D01*
X94389000Y-126627000D01*
X94611000Y-126627000D01*
X94746738Y-126600000D01*
X100271418Y-126600000D01*
X100271418Y-128400000D01*
X100277732Y-128464103D01*
X100296430Y-128525743D01*
X100326794Y-128582550D01*
X100367657Y-128632343D01*
X100417450Y-128673206D01*
X100474257Y-128703570D01*
X100535897Y-128722268D01*
X100600000Y-128728582D01*
X102400000Y-128728582D01*
X102464103Y-128722268D01*
X102525743Y-128703570D01*
X102582550Y-128673206D01*
X102632343Y-128632343D01*
X102673206Y-128582550D01*
X102703570Y-128525743D01*
X102722268Y-128464103D01*
X102728582Y-128400000D01*
X102728582Y-126600000D01*
X102722268Y-126535897D01*
X102703570Y-126474257D01*
X102673206Y-126417450D01*
X102632343Y-126367657D01*
X102582550Y-126326794D01*
X102525743Y-126296430D01*
X102464103Y-126277732D01*
X102400000Y-126271418D01*
X100600000Y-126271418D01*
X100535897Y-126277732D01*
X100474257Y-126296430D01*
X100417450Y-126326794D01*
X100367657Y-126367657D01*
X100326794Y-126417450D01*
X100296430Y-126474257D01*
X100277732Y-126535897D01*
X100271418Y-126600000D01*
X94746738Y-126600000D01*
X94828734Y-126583690D01*
X95033835Y-126498734D01*
X95218421Y-126375398D01*
X95375398Y-126218421D01*
X95498734Y-126033835D01*
X95583690Y-125828734D01*
X95627000Y-125611000D01*
X95627000Y-125389000D01*
X95583690Y-125171266D01*
X95498734Y-124966165D01*
X95413867Y-124839151D01*
X100273000Y-124839151D01*
X100273000Y-125080849D01*
X100320153Y-125317903D01*
X100412647Y-125541202D01*
X100546927Y-125742167D01*
X100717833Y-125913073D01*
X100918798Y-126047353D01*
X101142097Y-126139847D01*
X101379151Y-126187000D01*
X101620849Y-126187000D01*
X101857903Y-126139847D01*
X102081202Y-126047353D01*
X102282167Y-125913073D01*
X102453073Y-125742167D01*
X102587353Y-125541202D01*
X102679847Y-125317903D01*
X102727000Y-125080849D01*
X102727000Y-124839151D01*
X102679847Y-124602097D01*
X102587353Y-124378798D01*
X102453073Y-124177833D01*
X102282167Y-124006927D01*
X102081202Y-123872647D01*
X101857903Y-123780153D01*
X101620849Y-123733000D01*
X101379151Y-123733000D01*
X101142097Y-123780153D01*
X100918798Y-123872647D01*
X100717833Y-124006927D01*
X100546927Y-124177833D01*
X100412647Y-124378798D01*
X100320153Y-124602097D01*
X100273000Y-124839151D01*
X95413867Y-124839151D01*
X95375398Y-124781579D01*
X95218421Y-124624602D01*
X95033835Y-124501266D01*
X94828734Y-124416310D01*
X94611000Y-124373000D01*
X94389000Y-124373000D01*
X94171266Y-124416310D01*
X93966165Y-124501266D01*
X93896600Y-124547748D01*
X93896600Y-121207268D01*
X94564431Y-120539437D01*
X94671266Y-120583690D01*
X94889000Y-120627000D01*
X95111000Y-120627000D01*
X95328734Y-120583690D01*
X95533835Y-120498734D01*
X95718421Y-120375398D01*
X95875398Y-120218421D01*
X95998734Y-120033835D01*
X96083690Y-119828734D01*
X96127000Y-119611000D01*
X96127000Y-119389000D01*
X96373000Y-119389000D01*
X96373000Y-119611000D01*
X96416310Y-119828734D01*
X96501266Y-120033835D01*
X96624602Y-120218421D01*
X96781579Y-120375398D01*
X96966165Y-120498734D01*
X97171266Y-120583690D01*
X97389000Y-120627000D01*
X97611000Y-120627000D01*
X97828734Y-120583690D01*
X98033835Y-120498734D01*
X98218421Y-120375398D01*
X98375398Y-120218421D01*
X98498734Y-120033835D01*
X98583690Y-119828734D01*
X98627000Y-119611000D01*
X98627000Y-119389000D01*
X98583690Y-119171266D01*
X98498734Y-118966165D01*
X98375398Y-118781579D01*
X98218421Y-118624602D01*
X98033835Y-118501266D01*
X97828734Y-118416310D01*
X97611000Y-118373000D01*
X97389000Y-118373000D01*
X97171266Y-118416310D01*
X96966165Y-118501266D01*
X96781579Y-118624602D01*
X96624602Y-118781579D01*
X96501266Y-118966165D01*
X96416310Y-119171266D01*
X96373000Y-119389000D01*
X96127000Y-119389000D01*
X96083690Y-119171266D01*
X96039437Y-119064431D01*
X98287105Y-116816764D01*
X98303395Y-116803395D01*
X98316764Y-116787105D01*
X98316768Y-116787101D01*
X98356756Y-116738377D01*
X98396404Y-116664197D01*
X98396405Y-116664196D01*
X98420822Y-116583707D01*
X98427000Y-116520978D01*
X98427000Y-116520967D01*
X98429065Y-116500000D01*
X98427000Y-116479033D01*
X98427000Y-113032755D01*
X98605839Y-112997182D01*
X98983829Y-112840614D01*
X99324011Y-112613311D01*
X99613311Y-112324011D01*
X99840614Y-111983829D01*
X99997182Y-111605839D01*
X100077000Y-111204567D01*
X100077000Y-110795433D01*
X99997182Y-110394161D01*
X99840614Y-110016171D01*
X99613311Y-109675989D01*
X99324011Y-109386689D01*
X98983829Y-109159386D01*
X98605839Y-109002818D01*
X98204567Y-108923000D01*
X97795433Y-108923000D01*
X97394161Y-109002818D01*
X97016171Y-109159386D01*
X96675989Y-109386689D01*
X96386689Y-109675989D01*
X96159386Y-110016171D01*
X96002818Y-110394161D01*
X95923000Y-110795433D01*
X95923000Y-111204567D01*
X96002818Y-111605839D01*
X96159386Y-111983829D01*
X96386689Y-112324011D01*
X96675989Y-112613311D01*
X97016171Y-112840614D01*
X97394161Y-112997182D01*
X97573000Y-113032755D01*
X97573001Y-116323130D01*
X95435569Y-118460563D01*
X95328734Y-118416310D01*
X95111000Y-118373000D01*
X94889000Y-118373000D01*
X94671266Y-118416310D01*
X94466165Y-118501266D01*
X94281579Y-118624602D01*
X94124602Y-118781579D01*
X94001266Y-118966165D01*
X93916310Y-119171266D01*
X93873000Y-119389000D01*
X93873000Y-119611000D01*
X93916310Y-119828734D01*
X93960563Y-119935569D01*
X93182495Y-120713636D01*
X93166206Y-120727005D01*
X93152837Y-120743295D01*
X93152832Y-120743300D01*
X93112845Y-120792024D01*
X93076661Y-120859722D01*
X93073196Y-120866204D01*
X93048779Y-120946693D01*
X93044420Y-120990955D01*
X93040535Y-121030400D01*
X93042601Y-121051377D01*
X93042600Y-125983000D01*
X83457400Y-125983000D01*
X83457400Y-120901667D01*
X83459465Y-120880700D01*
X83457400Y-120859733D01*
X83457400Y-120859722D01*
X83451222Y-120796993D01*
X83426805Y-120716504D01*
X83408348Y-120681973D01*
X83387155Y-120642323D01*
X83347168Y-120593599D01*
X83347164Y-120593595D01*
X83333795Y-120577305D01*
X83317505Y-120563936D01*
X81124744Y-118371176D01*
X81234674Y-118297723D01*
X81377723Y-118154674D01*
X81490115Y-117986467D01*
X81567533Y-117799565D01*
X81607000Y-117601151D01*
X81607000Y-117398849D01*
X81567533Y-117200435D01*
X81490115Y-117013533D01*
X81377723Y-116845326D01*
X81234674Y-116702277D01*
X81066467Y-116589885D01*
X80879565Y-116512467D01*
X80681151Y-116473000D01*
X80478849Y-116473000D01*
X80280435Y-116512467D01*
X80093533Y-116589885D01*
X80076700Y-116601132D01*
X80076700Y-116037468D01*
X80867105Y-115247064D01*
X80883395Y-115233695D01*
X80896764Y-115217405D01*
X80896768Y-115217401D01*
X80936755Y-115168677D01*
X80976404Y-115094497D01*
X80976405Y-115094496D01*
X81000822Y-115014007D01*
X81007000Y-114951278D01*
X81007000Y-114951267D01*
X81008696Y-114934045D01*
X81066467Y-114910115D01*
X81234674Y-114797723D01*
X81377723Y-114654674D01*
X81490115Y-114486467D01*
X81567533Y-114299565D01*
X81607000Y-114101151D01*
X81607000Y-113898849D01*
X81567533Y-113700435D01*
X81490115Y-113513533D01*
X81377723Y-113345326D01*
X81234674Y-113202277D01*
X81066467Y-113089885D01*
X80879565Y-113012467D01*
X80681151Y-112973000D01*
X80478849Y-112973000D01*
X80280435Y-113012467D01*
X80093533Y-113089885D01*
X79925326Y-113202277D01*
X79782277Y-113345326D01*
X79669885Y-113513533D01*
X79592467Y-113700435D01*
X79553000Y-113898849D01*
X79553000Y-114101151D01*
X79592467Y-114299565D01*
X79669885Y-114486467D01*
X79782277Y-114654674D01*
X79925326Y-114797723D01*
X80035256Y-114871176D01*
X79362600Y-115543832D01*
X79346305Y-115557205D01*
X79332933Y-115573499D01*
X79332932Y-115573500D01*
X79292945Y-115622224D01*
X79271752Y-115661874D01*
X79253295Y-115696405D01*
X79228878Y-115776894D01*
X79222700Y-115839623D01*
X79222700Y-115839633D01*
X79220635Y-115860600D01*
X79222700Y-115881567D01*
X79222701Y-121023129D01*
X74092896Y-126152936D01*
X74076606Y-126166305D01*
X74063237Y-126182595D01*
X74063232Y-126182600D01*
X74023245Y-126231324D01*
X74001815Y-126271418D01*
X73983596Y-126305504D01*
X73963601Y-126371418D01*
X73959179Y-126385994D01*
X73952150Y-126457365D01*
X73846165Y-126501266D01*
X73661579Y-126624602D01*
X73504602Y-126781579D01*
X73381266Y-126966165D01*
X73296310Y-127171266D01*
X73253000Y-127389000D01*
X73253000Y-127611000D01*
X73296310Y-127828734D01*
X73381266Y-128033835D01*
X73504602Y-128218421D01*
X73661579Y-128375398D01*
X73846165Y-128498734D01*
X73953001Y-128542987D01*
X73953000Y-132871418D01*
X73580000Y-132871418D01*
X73515897Y-132877732D01*
X73454257Y-132896430D01*
X73397450Y-132926794D01*
X73347657Y-132967657D01*
X73306794Y-133017450D01*
X73276430Y-133074257D01*
X73257732Y-133135897D01*
X73251418Y-133200000D01*
X56128582Y-133200000D01*
X56128582Y-132700000D01*
X56122268Y-132635897D01*
X56103570Y-132574257D01*
X56073206Y-132517450D01*
X56032343Y-132467657D01*
X55982550Y-132426794D01*
X55925743Y-132396430D01*
X55864103Y-132377732D01*
X55800000Y-132371418D01*
X54200000Y-132371418D01*
X54135897Y-132377732D01*
X54074257Y-132396430D01*
X54017450Y-132426794D01*
X53967657Y-132467657D01*
X53926794Y-132517450D01*
X53896430Y-132574257D01*
X53877732Y-132635897D01*
X53871418Y-132700000D01*
X52293819Y-132700000D01*
X52218421Y-132624602D01*
X52033835Y-132501266D01*
X51927000Y-132457013D01*
X51927000Y-124676868D01*
X52214868Y-124389000D01*
X52873000Y-124389000D01*
X52873000Y-124611000D01*
X52916310Y-124828734D01*
X53001266Y-125033835D01*
X53124602Y-125218421D01*
X53281579Y-125375398D01*
X53466165Y-125498734D01*
X53671266Y-125583690D01*
X53889000Y-125627000D01*
X54111000Y-125627000D01*
X54328734Y-125583690D01*
X54533835Y-125498734D01*
X54718421Y-125375398D01*
X54875398Y-125218421D01*
X54998734Y-125033835D01*
X55083690Y-124828734D01*
X55127000Y-124611000D01*
X55127000Y-124389000D01*
X57873000Y-124389000D01*
X57873000Y-124611000D01*
X57916310Y-124828734D01*
X58001266Y-125033835D01*
X58124602Y-125218421D01*
X58281579Y-125375398D01*
X58466165Y-125498734D01*
X58671266Y-125583690D01*
X58889000Y-125627000D01*
X59111000Y-125627000D01*
X59328734Y-125583690D01*
X59533835Y-125498734D01*
X59718421Y-125375398D01*
X59875398Y-125218421D01*
X59998734Y-125033835D01*
X60083690Y-124828734D01*
X60127000Y-124611000D01*
X60127000Y-124389000D01*
X62873000Y-124389000D01*
X62873000Y-124611000D01*
X62916310Y-124828734D01*
X63001266Y-125033835D01*
X63124602Y-125218421D01*
X63281579Y-125375398D01*
X63466165Y-125498734D01*
X63671266Y-125583690D01*
X63889000Y-125627000D01*
X64111000Y-125627000D01*
X64328734Y-125583690D01*
X64533835Y-125498734D01*
X64718421Y-125375398D01*
X64875398Y-125218421D01*
X64998734Y-125033835D01*
X65083690Y-124828734D01*
X65127000Y-124611000D01*
X65127000Y-124389000D01*
X65083690Y-124171266D01*
X65039437Y-124064431D01*
X73636705Y-115467164D01*
X73652995Y-115453795D01*
X73666364Y-115437505D01*
X73666368Y-115437501D01*
X73706355Y-115388777D01*
X73738448Y-115328734D01*
X73746005Y-115314596D01*
X73770422Y-115234107D01*
X73776600Y-115171378D01*
X73776600Y-115171368D01*
X73778665Y-115150401D01*
X73776600Y-115129434D01*
X73776600Y-115011468D01*
X74508491Y-114279577D01*
X74512467Y-114299565D01*
X74589885Y-114486467D01*
X74702277Y-114654674D01*
X74845326Y-114797723D01*
X75013533Y-114910115D01*
X75073000Y-114934747D01*
X75073001Y-116565252D01*
X75013533Y-116589885D01*
X74845326Y-116702277D01*
X74702277Y-116845326D01*
X74589885Y-117013533D01*
X74512467Y-117200435D01*
X74473000Y-117398849D01*
X74473000Y-117601151D01*
X74512467Y-117799565D01*
X74589885Y-117986467D01*
X74702277Y-118154674D01*
X74845326Y-118297723D01*
X75013533Y-118410115D01*
X75073000Y-118434747D01*
X75073001Y-120565252D01*
X75013533Y-120589885D01*
X74845326Y-120702277D01*
X74702277Y-120845326D01*
X74589885Y-121013533D01*
X74512467Y-121200435D01*
X74473000Y-121398849D01*
X74473000Y-121601151D01*
X74512467Y-121799565D01*
X74589885Y-121986467D01*
X74702277Y-122154674D01*
X74845326Y-122297723D01*
X75013533Y-122410115D01*
X75200435Y-122487533D01*
X75398849Y-122527000D01*
X75601151Y-122527000D01*
X75799565Y-122487533D01*
X75986467Y-122410115D01*
X76154674Y-122297723D01*
X76297723Y-122154674D01*
X76410115Y-121986467D01*
X76487533Y-121799565D01*
X76527000Y-121601151D01*
X76527000Y-121398849D01*
X76487533Y-121200435D01*
X76410115Y-121013533D01*
X76297723Y-120845326D01*
X76154674Y-120702277D01*
X75986467Y-120589885D01*
X75927000Y-120565253D01*
X75927000Y-118434747D01*
X75986467Y-118410115D01*
X76154674Y-118297723D01*
X76297723Y-118154674D01*
X76410115Y-117986467D01*
X76487533Y-117799565D01*
X76527000Y-117601151D01*
X76527000Y-117398849D01*
X76487533Y-117200435D01*
X76410115Y-117013533D01*
X76297723Y-116845326D01*
X76154674Y-116702277D01*
X75986467Y-116589885D01*
X75927000Y-116565253D01*
X75927000Y-114934747D01*
X75986467Y-114910115D01*
X76154674Y-114797723D01*
X76297723Y-114654674D01*
X76410115Y-114486467D01*
X76487533Y-114299565D01*
X76527000Y-114101151D01*
X76527000Y-113898849D01*
X76487533Y-113700435D01*
X76410115Y-113513533D01*
X76297723Y-113345326D01*
X76154674Y-113202277D01*
X75986467Y-113089885D01*
X75799565Y-113012467D01*
X75779578Y-113008491D01*
X77361070Y-111427000D01*
X79565253Y-111427000D01*
X79589885Y-111486467D01*
X79702277Y-111654674D01*
X79845326Y-111797723D01*
X80013533Y-111910115D01*
X80200435Y-111987533D01*
X80398849Y-112027000D01*
X80601151Y-112027000D01*
X80799565Y-111987533D01*
X80986467Y-111910115D01*
X81154674Y-111797723D01*
X81297723Y-111654674D01*
X81410115Y-111486467D01*
X81487533Y-111299565D01*
X81527000Y-111101151D01*
X81527000Y-110898849D01*
X81487533Y-110700435D01*
X81410115Y-110513533D01*
X81297723Y-110345326D01*
X81154674Y-110202277D01*
X80986467Y-110089885D01*
X80799565Y-110012467D01*
X80601151Y-109973000D01*
X80398849Y-109973000D01*
X80200435Y-110012467D01*
X80013533Y-110089885D01*
X79845326Y-110202277D01*
X79702277Y-110345326D01*
X79589885Y-110513533D01*
X79565253Y-110573000D01*
X77205164Y-110573000D01*
X77184199Y-110570935D01*
X77163234Y-110573000D01*
X77163222Y-110573000D01*
X77100493Y-110579178D01*
X77020004Y-110603595D01*
X76985473Y-110622052D01*
X76945823Y-110643245D01*
X76897098Y-110683232D01*
X76897089Y-110683241D01*
X76880805Y-110696605D01*
X76867441Y-110712889D01*
X76439010Y-111141320D01*
X76447000Y-111101151D01*
X76447000Y-110898849D01*
X76407533Y-110700435D01*
X76330115Y-110513533D01*
X76217723Y-110345326D01*
X76074674Y-110202277D01*
X75931797Y-110106810D01*
X75951122Y-110043107D01*
X75957300Y-109980378D01*
X75957300Y-109980367D01*
X75959365Y-109959400D01*
X75957300Y-109938433D01*
X75957300Y-101469000D01*
X80993000Y-101469000D01*
X80993000Y-101691000D01*
X81036310Y-101908734D01*
X81121266Y-102113835D01*
X81244602Y-102298421D01*
X81401579Y-102455398D01*
X81586165Y-102578734D01*
X81692150Y-102622635D01*
X81693001Y-102631277D01*
X81693001Y-102631278D01*
X81699179Y-102694007D01*
X81712639Y-102738376D01*
X81723596Y-102774496D01*
X81763245Y-102848676D01*
X81803232Y-102897400D01*
X81803237Y-102897405D01*
X81816606Y-102913695D01*
X81832895Y-102927063D01*
X81917110Y-103011278D01*
X81791266Y-103036310D01*
X81586165Y-103121266D01*
X81401579Y-103244602D01*
X81244602Y-103401579D01*
X81121266Y-103586165D01*
X81036310Y-103791266D01*
X80993000Y-104009000D01*
X80993000Y-104231000D01*
X81036310Y-104448734D01*
X81121266Y-104653835D01*
X81244602Y-104838421D01*
X81401579Y-104995398D01*
X81586165Y-105118734D01*
X81791266Y-105203690D01*
X82009000Y-105247000D01*
X82231000Y-105247000D01*
X82448734Y-105203690D01*
X82653835Y-105118734D01*
X82723300Y-105072319D01*
X82723301Y-114209323D01*
X82721235Y-114230300D01*
X82729479Y-114314006D01*
X82753896Y-114394496D01*
X82793545Y-114468676D01*
X82833532Y-114517400D01*
X82833537Y-114517405D01*
X82846906Y-114533695D01*
X82863196Y-114547064D01*
X84037099Y-115720968D01*
X84012467Y-115780435D01*
X83973000Y-115978849D01*
X83973000Y-116181151D01*
X84012467Y-116379565D01*
X84089885Y-116566467D01*
X84202277Y-116734674D01*
X84345326Y-116877723D01*
X84513533Y-116990115D01*
X84700435Y-117067533D01*
X84898849Y-117107000D01*
X85101151Y-117107000D01*
X85299565Y-117067533D01*
X85486467Y-116990115D01*
X85654674Y-116877723D01*
X85797723Y-116734674D01*
X85910115Y-116566467D01*
X85987533Y-116379565D01*
X86027000Y-116181151D01*
X86027000Y-115978849D01*
X85987533Y-115780435D01*
X85910115Y-115593533D01*
X85797723Y-115425326D01*
X85654674Y-115282277D01*
X85486467Y-115169885D01*
X85299565Y-115092467D01*
X85101151Y-115053000D01*
X84898849Y-115053000D01*
X84700435Y-115092467D01*
X84640968Y-115117099D01*
X83577300Y-114053432D01*
X83577300Y-110898849D01*
X83973000Y-110898849D01*
X83973000Y-111101151D01*
X84012467Y-111299565D01*
X84089885Y-111486467D01*
X84202277Y-111654674D01*
X84345326Y-111797723D01*
X84513533Y-111910115D01*
X84700435Y-111987533D01*
X84898849Y-112027000D01*
X85101151Y-112027000D01*
X85299565Y-111987533D01*
X85486467Y-111910115D01*
X85654674Y-111797723D01*
X85797723Y-111654674D01*
X85910115Y-111486467D01*
X85987533Y-111299565D01*
X86027000Y-111101151D01*
X86027000Y-110898849D01*
X85987533Y-110700435D01*
X85910115Y-110513533D01*
X85797723Y-110345326D01*
X85654674Y-110202277D01*
X85486467Y-110089885D01*
X85299565Y-110012467D01*
X85101151Y-109973000D01*
X84898849Y-109973000D01*
X84700435Y-110012467D01*
X84513533Y-110089885D01*
X84345326Y-110202277D01*
X84202277Y-110345326D01*
X84089885Y-110513533D01*
X84012467Y-110700435D01*
X83973000Y-110898849D01*
X83577300Y-110898849D01*
X83577300Y-104795433D01*
X95923000Y-104795433D01*
X95923000Y-105204567D01*
X96002818Y-105605839D01*
X96159386Y-105983829D01*
X96386689Y-106324011D01*
X96675989Y-106613311D01*
X97016171Y-106840614D01*
X97394161Y-106997182D01*
X97795433Y-107077000D01*
X98204567Y-107077000D01*
X98605839Y-106997182D01*
X98983829Y-106840614D01*
X99324011Y-106613311D01*
X99613311Y-106324011D01*
X99840614Y-105983829D01*
X99997182Y-105605839D01*
X100077000Y-105204567D01*
X100077000Y-104795433D01*
X99997182Y-104394161D01*
X99840614Y-104016171D01*
X99613311Y-103675989D01*
X99324011Y-103386689D01*
X98983829Y-103159386D01*
X98605839Y-103002818D01*
X98204567Y-102923000D01*
X97795433Y-102923000D01*
X97394161Y-103002818D01*
X97016171Y-103159386D01*
X96675989Y-103386689D01*
X96386689Y-103675989D01*
X96159386Y-104016171D01*
X96002818Y-104394161D01*
X95923000Y-104795433D01*
X83577300Y-104795433D01*
X83577300Y-103661566D01*
X83579365Y-103640599D01*
X83577300Y-103619632D01*
X83577300Y-103619622D01*
X83571122Y-103556893D01*
X83546705Y-103476404D01*
X83507056Y-103402225D01*
X83507055Y-103402223D01*
X83467068Y-103353498D01*
X83467059Y-103353489D01*
X83453695Y-103337205D01*
X83437412Y-103323842D01*
X82676895Y-102563326D01*
X82838421Y-102455398D01*
X82995398Y-102298421D01*
X83118734Y-102113835D01*
X83203690Y-101908734D01*
X83247000Y-101691000D01*
X83247000Y-101469000D01*
X83203690Y-101251266D01*
X83118734Y-101046165D01*
X82995398Y-100861579D01*
X82838421Y-100704602D01*
X82653835Y-100581266D01*
X82448734Y-100496310D01*
X82231000Y-100453000D01*
X82009000Y-100453000D01*
X81791266Y-100496310D01*
X81586165Y-100581266D01*
X81401579Y-100704602D01*
X81244602Y-100861579D01*
X81121266Y-101046165D01*
X81036310Y-101251266D01*
X80993000Y-101469000D01*
X75957300Y-101469000D01*
X75957300Y-101121566D01*
X75959365Y-101100599D01*
X75957300Y-101079632D01*
X75957300Y-101079622D01*
X75951122Y-101016893D01*
X75926705Y-100936404D01*
X75887056Y-100862225D01*
X75887055Y-100862223D01*
X75847068Y-100813498D01*
X75847059Y-100813489D01*
X75833695Y-100797205D01*
X75817412Y-100783842D01*
X75056895Y-100023326D01*
X75218421Y-99915398D01*
X75375398Y-99758421D01*
X75498734Y-99573835D01*
X75583690Y-99368734D01*
X75627000Y-99151000D01*
X75627000Y-98929000D01*
X80993000Y-98929000D01*
X80993000Y-99151000D01*
X81036310Y-99368734D01*
X81121266Y-99573835D01*
X81244602Y-99758421D01*
X81401579Y-99915398D01*
X81586165Y-100038734D01*
X81791266Y-100123690D01*
X82009000Y-100167000D01*
X82231000Y-100167000D01*
X82448734Y-100123690D01*
X82653835Y-100038734D01*
X82838421Y-99915398D01*
X82995398Y-99758421D01*
X83118734Y-99573835D01*
X83203690Y-99368734D01*
X83247000Y-99151000D01*
X83247000Y-98929000D01*
X83203690Y-98711266D01*
X83118734Y-98506165D01*
X82995398Y-98321579D01*
X82838421Y-98164602D01*
X82653835Y-98041266D01*
X82448734Y-97956310D01*
X82231000Y-97913000D01*
X82009000Y-97913000D01*
X81791266Y-97956310D01*
X81586165Y-98041266D01*
X81401579Y-98164602D01*
X81244602Y-98321579D01*
X81121266Y-98506165D01*
X81036310Y-98711266D01*
X80993000Y-98929000D01*
X75627000Y-98929000D01*
X75583690Y-98711266D01*
X75498734Y-98506165D01*
X75375398Y-98321579D01*
X75218421Y-98164602D01*
X75033835Y-98041266D01*
X74828734Y-97956310D01*
X74611000Y-97913000D01*
X74389000Y-97913000D01*
X74171266Y-97956310D01*
X73966165Y-98041266D01*
X73781579Y-98164602D01*
X73624602Y-98321579D01*
X73501266Y-98506165D01*
X73416310Y-98711266D01*
X73373000Y-98929000D01*
X73373000Y-99151000D01*
X73416310Y-99368734D01*
X73501266Y-99573835D01*
X73624602Y-99758421D01*
X73781579Y-99915398D01*
X73966165Y-100038734D01*
X74072150Y-100082635D01*
X74073001Y-100091277D01*
X74073001Y-100091278D01*
X74079179Y-100154007D01*
X74103596Y-100234496D01*
X74143245Y-100308676D01*
X74183232Y-100357400D01*
X74183237Y-100357405D01*
X74196606Y-100373695D01*
X74212895Y-100387063D01*
X74297110Y-100471278D01*
X74171266Y-100496310D01*
X73966165Y-100581266D01*
X73781579Y-100704602D01*
X73624602Y-100861579D01*
X73501266Y-101046165D01*
X73416310Y-101251266D01*
X73373000Y-101469000D01*
X73373000Y-101691000D01*
X73416310Y-101908734D01*
X73501266Y-102113835D01*
X73624602Y-102298421D01*
X73781579Y-102455398D01*
X73966165Y-102578734D01*
X74171266Y-102663690D01*
X74389000Y-102707000D01*
X74611000Y-102707000D01*
X74828734Y-102663690D01*
X75033835Y-102578734D01*
X75103300Y-102532319D01*
X75103300Y-103167681D01*
X75033835Y-103121266D01*
X74828734Y-103036310D01*
X74611000Y-102993000D01*
X74389000Y-102993000D01*
X74171266Y-103036310D01*
X73966165Y-103121266D01*
X73781579Y-103244602D01*
X73624602Y-103401579D01*
X73501266Y-103586165D01*
X73416310Y-103791266D01*
X73373000Y-104009000D01*
X73373000Y-104231000D01*
X73416310Y-104448734D01*
X73501266Y-104653835D01*
X73624602Y-104838421D01*
X73781579Y-104995398D01*
X73966165Y-105118734D01*
X74171266Y-105203690D01*
X74389000Y-105247000D01*
X74611000Y-105247000D01*
X74828734Y-105203690D01*
X75033835Y-105118734D01*
X75103300Y-105072319D01*
X75103301Y-109782517D01*
X75103237Y-109782595D01*
X75103232Y-109782600D01*
X75063245Y-109831324D01*
X75023596Y-109905504D01*
X75000883Y-109980378D01*
X74999179Y-109985994D01*
X74991304Y-110065955D01*
X74933533Y-110089885D01*
X74765326Y-110202277D01*
X74622277Y-110345326D01*
X74509885Y-110513533D01*
X74432467Y-110700435D01*
X74393000Y-110898849D01*
X74393000Y-111101151D01*
X74432467Y-111299565D01*
X74509885Y-111486467D01*
X74622277Y-111654674D01*
X74765326Y-111797723D01*
X74933533Y-111910115D01*
X75120435Y-111987533D01*
X75318849Y-112027000D01*
X75521151Y-112027000D01*
X75561321Y-112019010D01*
X73062500Y-114517832D01*
X73046205Y-114531205D01*
X73032833Y-114547499D01*
X73032832Y-114547500D01*
X72992845Y-114596224D01*
X72983594Y-114613532D01*
X72953195Y-114670405D01*
X72928778Y-114750894D01*
X72922600Y-114813623D01*
X72922600Y-114813633D01*
X72920535Y-114834600D01*
X72922600Y-114855567D01*
X72922600Y-114973531D01*
X72008797Y-115887334D01*
X71987533Y-115780435D01*
X71910115Y-115593533D01*
X71797723Y-115425326D01*
X71654674Y-115282277D01*
X71486467Y-115169885D01*
X71299565Y-115092467D01*
X71101151Y-115053000D01*
X70898849Y-115053000D01*
X70700435Y-115092467D01*
X70513533Y-115169885D01*
X70345326Y-115282277D01*
X70202277Y-115425326D01*
X70089885Y-115593533D01*
X70012467Y-115780435D01*
X69973000Y-115978849D01*
X69973000Y-116181151D01*
X70012467Y-116379565D01*
X70089885Y-116566467D01*
X70202277Y-116734674D01*
X70345326Y-116877723D01*
X70513533Y-116990115D01*
X70700435Y-117067533D01*
X70807335Y-117088797D01*
X64435569Y-123460563D01*
X64328734Y-123416310D01*
X64111000Y-123373000D01*
X63889000Y-123373000D01*
X63671266Y-123416310D01*
X63466165Y-123501266D01*
X63281579Y-123624602D01*
X63124602Y-123781579D01*
X63001266Y-123966165D01*
X62916310Y-124171266D01*
X62873000Y-124389000D01*
X60127000Y-124389000D01*
X60083690Y-124171266D01*
X59998734Y-123966165D01*
X59875398Y-123781579D01*
X59718421Y-123624602D01*
X59533835Y-123501266D01*
X59328734Y-123416310D01*
X59111000Y-123373000D01*
X58889000Y-123373000D01*
X58671266Y-123416310D01*
X58466165Y-123501266D01*
X58281579Y-123624602D01*
X58124602Y-123781579D01*
X58001266Y-123966165D01*
X57916310Y-124171266D01*
X57873000Y-124389000D01*
X55127000Y-124389000D01*
X55083690Y-124171266D01*
X54998734Y-123966165D01*
X54875398Y-123781579D01*
X54718421Y-123624602D01*
X54533835Y-123501266D01*
X54328734Y-123416310D01*
X54111000Y-123373000D01*
X53889000Y-123373000D01*
X53671266Y-123416310D01*
X53466165Y-123501266D01*
X53281579Y-123624602D01*
X53124602Y-123781579D01*
X53001266Y-123966165D01*
X52916310Y-124171266D01*
X52873000Y-124389000D01*
X52214868Y-124389000D01*
X53564431Y-123039437D01*
X53671266Y-123083690D01*
X53889000Y-123127000D01*
X54111000Y-123127000D01*
X54328734Y-123083690D01*
X54533835Y-122998734D01*
X54718421Y-122875398D01*
X54875398Y-122718421D01*
X54998734Y-122533835D01*
X55083690Y-122328734D01*
X55127000Y-122111000D01*
X55127000Y-121889000D01*
X55083690Y-121671266D01*
X54998734Y-121466165D01*
X54875398Y-121281579D01*
X54718421Y-121124602D01*
X54533835Y-121001266D01*
X54427000Y-120957013D01*
X54427000Y-118542987D01*
X54533835Y-118498734D01*
X54718421Y-118375398D01*
X54875398Y-118218421D01*
X54998734Y-118033835D01*
X55083690Y-117828734D01*
X55127000Y-117611000D01*
X55127000Y-117389000D01*
X55083690Y-117171266D01*
X54998734Y-116966165D01*
X54875398Y-116781579D01*
X54718421Y-116624602D01*
X54533835Y-116501266D01*
X54328734Y-116416310D01*
X54111000Y-116373000D01*
X53889000Y-116373000D01*
X53671266Y-116416310D01*
X53466165Y-116501266D01*
X53281579Y-116624602D01*
X53124602Y-116781579D01*
X53001266Y-116966165D01*
X52940445Y-117113000D01*
X48597107Y-117113000D01*
X48543044Y-116982481D01*
X48414236Y-116789706D01*
X48250294Y-116625764D01*
X48057519Y-116496956D01*
X47843318Y-116408231D01*
X47615924Y-116363000D01*
X47384076Y-116363000D01*
X47156682Y-116408231D01*
X46942481Y-116496956D01*
X46749706Y-116625764D01*
X46585764Y-116789706D01*
X46456956Y-116982481D01*
X46368231Y-117196682D01*
X46323000Y-117424076D01*
X41352000Y-117424076D01*
X41352000Y-114150000D01*
X46321418Y-114150000D01*
X46321418Y-115850000D01*
X46327732Y-115914103D01*
X46346430Y-115975743D01*
X46376794Y-116032550D01*
X46417657Y-116082343D01*
X46467450Y-116123206D01*
X46524257Y-116153570D01*
X46585897Y-116172268D01*
X46650000Y-116178582D01*
X48350000Y-116178582D01*
X48414103Y-116172268D01*
X48475743Y-116153570D01*
X48532550Y-116123206D01*
X48582343Y-116082343D01*
X48623206Y-116032550D01*
X48653570Y-115975743D01*
X48672268Y-115914103D01*
X48678582Y-115850000D01*
X48678582Y-114889000D01*
X52873000Y-114889000D01*
X52873000Y-115111000D01*
X52916310Y-115328734D01*
X53001266Y-115533835D01*
X53124602Y-115718421D01*
X53281579Y-115875398D01*
X53466165Y-115998734D01*
X53671266Y-116083690D01*
X53889000Y-116127000D01*
X54111000Y-116127000D01*
X54328734Y-116083690D01*
X54533835Y-115998734D01*
X54718421Y-115875398D01*
X54875398Y-115718421D01*
X54998734Y-115533835D01*
X55083690Y-115328734D01*
X55127000Y-115111000D01*
X55127000Y-114889000D01*
X55083690Y-114671266D01*
X54998734Y-114466165D01*
X54875398Y-114281579D01*
X54718421Y-114124602D01*
X54533835Y-114001266D01*
X54328734Y-113916310D01*
X54111000Y-113873000D01*
X53889000Y-113873000D01*
X53671266Y-113916310D01*
X53466165Y-114001266D01*
X53281579Y-114124602D01*
X53124602Y-114281579D01*
X53001266Y-114466165D01*
X52916310Y-114671266D01*
X52873000Y-114889000D01*
X48678582Y-114889000D01*
X48678582Y-114150000D01*
X48672268Y-114085897D01*
X48653570Y-114024257D01*
X48623206Y-113967450D01*
X48582343Y-113917657D01*
X48532550Y-113876794D01*
X48475743Y-113846430D01*
X48414103Y-113827732D01*
X48350000Y-113821418D01*
X46650000Y-113821418D01*
X46585897Y-113827732D01*
X46524257Y-113846430D01*
X46467450Y-113876794D01*
X46417657Y-113917657D01*
X46376794Y-113967450D01*
X46346430Y-114024257D01*
X46327732Y-114085897D01*
X46321418Y-114150000D01*
X41352000Y-114150000D01*
X41352000Y-101805660D01*
X45598000Y-101805660D01*
X45598000Y-102244340D01*
X45683582Y-102674592D01*
X45851458Y-103079880D01*
X46095176Y-103444630D01*
X46405370Y-103754824D01*
X46770120Y-103998542D01*
X47175408Y-104166418D01*
X47605660Y-104252000D01*
X48044340Y-104252000D01*
X48474592Y-104166418D01*
X48879880Y-103998542D01*
X49244630Y-103754824D01*
X49554824Y-103444630D01*
X49798542Y-103079880D01*
X49966418Y-102674592D01*
X50052000Y-102244340D01*
X50052000Y-101805660D01*
X50030984Y-101700000D01*
X51371418Y-101700000D01*
X51371418Y-103300000D01*
X51377732Y-103364103D01*
X51396430Y-103425743D01*
X51426794Y-103482550D01*
X51467657Y-103532343D01*
X51517450Y-103573206D01*
X51574257Y-103603570D01*
X51635897Y-103622268D01*
X51700000Y-103628582D01*
X53300000Y-103628582D01*
X53364103Y-103622268D01*
X53425743Y-103603570D01*
X53482550Y-103573206D01*
X53532343Y-103532343D01*
X53573206Y-103482550D01*
X53603570Y-103425743D01*
X53622268Y-103364103D01*
X53628582Y-103300000D01*
X53628582Y-101700000D01*
X53622268Y-101635897D01*
X53603570Y-101574257D01*
X53573206Y-101517450D01*
X53532343Y-101467657D01*
X53482550Y-101426794D01*
X53425743Y-101396430D01*
X53364103Y-101377732D01*
X53300000Y-101371418D01*
X51700000Y-101371418D01*
X51635897Y-101377732D01*
X51574257Y-101396430D01*
X51517450Y-101426794D01*
X51467657Y-101467657D01*
X51426794Y-101517450D01*
X51396430Y-101574257D01*
X51377732Y-101635897D01*
X51371418Y-101700000D01*
X50030984Y-101700000D01*
X49966418Y-101375408D01*
X49798542Y-100970120D01*
X49554824Y-100605370D01*
X49244630Y-100295176D01*
X48879880Y-100051458D01*
X48474592Y-99883582D01*
X48044340Y-99798000D01*
X47605660Y-99798000D01*
X47175408Y-99883582D01*
X46770120Y-100051458D01*
X46405370Y-100295176D01*
X46095176Y-100605370D01*
X45851458Y-100970120D01*
X45683582Y-101375408D01*
X45598000Y-101805660D01*
X41352000Y-101805660D01*
X41352000Y-96455660D01*
X45598000Y-96455660D01*
X45598000Y-96894340D01*
X45683582Y-97324592D01*
X45851458Y-97729880D01*
X46095176Y-98094630D01*
X46405370Y-98404824D01*
X46770120Y-98648542D01*
X47175408Y-98816418D01*
X47605660Y-98902000D01*
X48044340Y-98902000D01*
X48474592Y-98816418D01*
X48879880Y-98648542D01*
X49244630Y-98404824D01*
X49554824Y-98094630D01*
X49798542Y-97729880D01*
X49966418Y-97324592D01*
X50052000Y-96894340D01*
X50052000Y-96455660D01*
X49966418Y-96025408D01*
X49798542Y-95620120D01*
X49554824Y-95255370D01*
X49244630Y-94945176D01*
X48879880Y-94701458D01*
X48474592Y-94533582D01*
X48044340Y-94448000D01*
X47605660Y-94448000D01*
X47175408Y-94533582D01*
X46770120Y-94701458D01*
X46405370Y-94945176D01*
X46095176Y-95255370D01*
X45851458Y-95620120D01*
X45683582Y-96025408D01*
X45598000Y-96455660D01*
X41352000Y-96455660D01*
X41352000Y-90889000D01*
X49873000Y-90889000D01*
X49873000Y-91111000D01*
X49916310Y-91328734D01*
X50001266Y-91533835D01*
X50124602Y-91718421D01*
X50281579Y-91875398D01*
X50466165Y-91998734D01*
X50671266Y-92083690D01*
X50889000Y-92127000D01*
X51111000Y-92127000D01*
X51328734Y-92083690D01*
X51533835Y-91998734D01*
X51718421Y-91875398D01*
X51875398Y-91718421D01*
X51998734Y-91533835D01*
X52083690Y-91328734D01*
X52127000Y-91111000D01*
X52127000Y-90889000D01*
X52373000Y-90889000D01*
X52373000Y-91111000D01*
X52416310Y-91328734D01*
X52501266Y-91533835D01*
X52624602Y-91718421D01*
X52781579Y-91875398D01*
X52966165Y-91998734D01*
X53171266Y-92083690D01*
X53389000Y-92127000D01*
X53611000Y-92127000D01*
X53828734Y-92083690D01*
X53935569Y-92039437D01*
X54573001Y-92676871D01*
X54573000Y-101457013D01*
X54466165Y-101501266D01*
X54281579Y-101624602D01*
X54124602Y-101781579D01*
X54001266Y-101966165D01*
X53916310Y-102171266D01*
X53873000Y-102389000D01*
X53873000Y-102611000D01*
X53916310Y-102828734D01*
X54001266Y-103033835D01*
X54124602Y-103218421D01*
X54281579Y-103375398D01*
X54466165Y-103498734D01*
X54671266Y-103583690D01*
X54889000Y-103627000D01*
X55111000Y-103627000D01*
X55328734Y-103583690D01*
X55533835Y-103498734D01*
X55718421Y-103375398D01*
X55875398Y-103218421D01*
X55998734Y-103033835D01*
X56083690Y-102828734D01*
X56127000Y-102611000D01*
X56127000Y-102389000D01*
X56083690Y-102171266D01*
X55998734Y-101966165D01*
X55875398Y-101781579D01*
X55718421Y-101624602D01*
X55533835Y-101501266D01*
X55427000Y-101457013D01*
X55427000Y-93446100D01*
X57205135Y-93446100D01*
X57207201Y-93467077D01*
X57207200Y-120613233D01*
X57205135Y-120634200D01*
X57207200Y-120655167D01*
X57207200Y-120655177D01*
X57213378Y-120717906D01*
X57237795Y-120798395D01*
X57237796Y-120798396D01*
X57277445Y-120872576D01*
X57313337Y-120916310D01*
X57330805Y-120937595D01*
X57347100Y-120950968D01*
X57960563Y-121564431D01*
X57916310Y-121671266D01*
X57873000Y-121889000D01*
X57873000Y-122111000D01*
X57916310Y-122328734D01*
X58001266Y-122533835D01*
X58124602Y-122718421D01*
X58281579Y-122875398D01*
X58466165Y-122998734D01*
X58671266Y-123083690D01*
X58889000Y-123127000D01*
X59111000Y-123127000D01*
X59328734Y-123083690D01*
X59533835Y-122998734D01*
X59718421Y-122875398D01*
X59875398Y-122718421D01*
X59998734Y-122533835D01*
X60083690Y-122328734D01*
X60127000Y-122111000D01*
X60127000Y-121889000D01*
X60083690Y-121671266D01*
X59998734Y-121466165D01*
X59875398Y-121281579D01*
X59718421Y-121124602D01*
X59533835Y-121001266D01*
X59328734Y-120916310D01*
X59111000Y-120873000D01*
X58889000Y-120873000D01*
X58671266Y-120916310D01*
X58564431Y-120960563D01*
X58061200Y-120457332D01*
X58061200Y-117389000D01*
X58373000Y-117389000D01*
X58373000Y-117611000D01*
X58416310Y-117828734D01*
X58501266Y-118033835D01*
X58624602Y-118218421D01*
X58781579Y-118375398D01*
X58966165Y-118498734D01*
X59171266Y-118583690D01*
X59389000Y-118627000D01*
X59611000Y-118627000D01*
X59828734Y-118583690D01*
X60033835Y-118498734D01*
X60218421Y-118375398D01*
X60375398Y-118218421D01*
X60498734Y-118033835D01*
X60583690Y-117828734D01*
X60627000Y-117611000D01*
X60627000Y-117389000D01*
X60583690Y-117171266D01*
X60498734Y-116966165D01*
X60375398Y-116781579D01*
X60218421Y-116624602D01*
X60033835Y-116501266D01*
X59828734Y-116416310D01*
X59611000Y-116373000D01*
X59389000Y-116373000D01*
X59171266Y-116416310D01*
X58966165Y-116501266D01*
X58781579Y-116624602D01*
X58624602Y-116781579D01*
X58501266Y-116966165D01*
X58416310Y-117171266D01*
X58373000Y-117389000D01*
X58061200Y-117389000D01*
X58061200Y-114889000D01*
X58373000Y-114889000D01*
X58373000Y-115111000D01*
X58416310Y-115328734D01*
X58501266Y-115533835D01*
X58624602Y-115718421D01*
X58781579Y-115875398D01*
X58966165Y-115998734D01*
X59171266Y-116083690D01*
X59389000Y-116127000D01*
X59611000Y-116127000D01*
X59828734Y-116083690D01*
X60033835Y-115998734D01*
X60218421Y-115875398D01*
X60375398Y-115718421D01*
X60498734Y-115533835D01*
X60583690Y-115328734D01*
X60627000Y-115111000D01*
X60627000Y-114889000D01*
X60583690Y-114671266D01*
X60498734Y-114466165D01*
X60375398Y-114281579D01*
X60218421Y-114124602D01*
X60033835Y-114001266D01*
X59828734Y-113916310D01*
X59611000Y-113873000D01*
X59389000Y-113873000D01*
X59171266Y-113916310D01*
X58966165Y-114001266D01*
X58781579Y-114124602D01*
X58624602Y-114281579D01*
X58501266Y-114466165D01*
X58416310Y-114671266D01*
X58373000Y-114889000D01*
X58061200Y-114889000D01*
X58061200Y-109775019D01*
X58161579Y-109875398D01*
X58346165Y-109998734D01*
X58551266Y-110083690D01*
X58769000Y-110127000D01*
X58991000Y-110127000D01*
X59208734Y-110083690D01*
X59413835Y-109998734D01*
X59598421Y-109875398D01*
X59755398Y-109718421D01*
X59878734Y-109533835D01*
X59963690Y-109328734D01*
X60007000Y-109111000D01*
X60007000Y-108889000D01*
X59963690Y-108671266D01*
X59878734Y-108466165D01*
X59755398Y-108281579D01*
X59598421Y-108124602D01*
X59413835Y-108001266D01*
X59208734Y-107916310D01*
X58991000Y-107873000D01*
X58769000Y-107873000D01*
X58551266Y-107916310D01*
X58346165Y-108001266D01*
X58161579Y-108124602D01*
X58061200Y-108224981D01*
X58061200Y-104623533D01*
X58124602Y-104718421D01*
X58281579Y-104875398D01*
X58466165Y-104998734D01*
X58671266Y-105083690D01*
X58889000Y-105127000D01*
X59111000Y-105127000D01*
X59328734Y-105083690D01*
X59533835Y-104998734D01*
X59718421Y-104875398D01*
X59875398Y-104718421D01*
X59983326Y-104556894D01*
X64713536Y-109287105D01*
X64726905Y-109303395D01*
X64743195Y-109316764D01*
X64743199Y-109316768D01*
X64791923Y-109356756D01*
X64847927Y-109386689D01*
X64866104Y-109396405D01*
X64946593Y-109420822D01*
X65009322Y-109427000D01*
X65009333Y-109427000D01*
X65030300Y-109429065D01*
X65051267Y-109427000D01*
X65166201Y-109427000D01*
X65166200Y-114089709D01*
X65033835Y-114001266D01*
X64828734Y-113916310D01*
X64611000Y-113873000D01*
X64389000Y-113873000D01*
X64171266Y-113916310D01*
X63966165Y-114001266D01*
X63781579Y-114124602D01*
X63624602Y-114281579D01*
X63501266Y-114466165D01*
X63416310Y-114671266D01*
X63373000Y-114889000D01*
X63373000Y-115111000D01*
X63416310Y-115328734D01*
X63501266Y-115533835D01*
X63624602Y-115718421D01*
X63781579Y-115875398D01*
X63966165Y-115998734D01*
X64171266Y-116083690D01*
X64389000Y-116127000D01*
X64611000Y-116127000D01*
X64828734Y-116083690D01*
X65033835Y-115998734D01*
X65166200Y-115910291D01*
X65166200Y-116229930D01*
X64935568Y-116460562D01*
X64828734Y-116416310D01*
X64611000Y-116373000D01*
X64389000Y-116373000D01*
X64171266Y-116416310D01*
X63966165Y-116501266D01*
X63781579Y-116624602D01*
X63624602Y-116781579D01*
X63501266Y-116966165D01*
X63416310Y-117171266D01*
X63373000Y-117389000D01*
X63373000Y-117611000D01*
X63416310Y-117828734D01*
X63501266Y-118033835D01*
X63624602Y-118218421D01*
X63781579Y-118375398D01*
X63966165Y-118498734D01*
X64073001Y-118542987D01*
X64073000Y-120873000D01*
X63889000Y-120873000D01*
X63671266Y-120916310D01*
X63466165Y-121001266D01*
X63281579Y-121124602D01*
X63124602Y-121281579D01*
X63001266Y-121466165D01*
X62916310Y-121671266D01*
X62873000Y-121889000D01*
X62873000Y-122111000D01*
X62916310Y-122328734D01*
X63001266Y-122533835D01*
X63124602Y-122718421D01*
X63281579Y-122875398D01*
X63466165Y-122998734D01*
X63671266Y-123083690D01*
X63889000Y-123127000D01*
X64111000Y-123127000D01*
X64328734Y-123083690D01*
X64533835Y-122998734D01*
X64718421Y-122875398D01*
X64875398Y-122718421D01*
X64998734Y-122533835D01*
X65083690Y-122328734D01*
X65127000Y-122111000D01*
X65127000Y-121889000D01*
X65083690Y-121671266D01*
X64998734Y-121466165D01*
X64927000Y-121358807D01*
X64927000Y-118542987D01*
X65033835Y-118498734D01*
X65218421Y-118375398D01*
X65375398Y-118218421D01*
X65498734Y-118033835D01*
X65583690Y-117828734D01*
X65627000Y-117611000D01*
X65627000Y-117389000D01*
X65583690Y-117171266D01*
X65539438Y-117064432D01*
X65880312Y-116723558D01*
X65896595Y-116710195D01*
X65909959Y-116693911D01*
X65909968Y-116693902D01*
X65949955Y-116645177D01*
X65971148Y-116605527D01*
X65989605Y-116570996D01*
X66014022Y-116490507D01*
X66020200Y-116427778D01*
X66020200Y-116427766D01*
X66022265Y-116406801D01*
X66020200Y-116385836D01*
X66020200Y-110898849D01*
X69973000Y-110898849D01*
X69973000Y-111101151D01*
X70012467Y-111299565D01*
X70089885Y-111486467D01*
X70202277Y-111654674D01*
X70345326Y-111797723D01*
X70513533Y-111910115D01*
X70700435Y-111987533D01*
X70898849Y-112027000D01*
X71101151Y-112027000D01*
X71299565Y-111987533D01*
X71486467Y-111910115D01*
X71654674Y-111797723D01*
X71797723Y-111654674D01*
X71910115Y-111486467D01*
X71987533Y-111299565D01*
X72027000Y-111101151D01*
X72027000Y-110898849D01*
X71987533Y-110700435D01*
X71910115Y-110513533D01*
X71797723Y-110345326D01*
X71654674Y-110202277D01*
X71486467Y-110089885D01*
X71299565Y-110012467D01*
X71101151Y-109973000D01*
X70898849Y-109973000D01*
X70700435Y-110012467D01*
X70513533Y-110089885D01*
X70345326Y-110202277D01*
X70202277Y-110345326D01*
X70089885Y-110513533D01*
X70012467Y-110700435D01*
X69973000Y-110898849D01*
X66020200Y-110898849D01*
X66020200Y-110021116D01*
X66171266Y-110083690D01*
X66389000Y-110127000D01*
X66611000Y-110127000D01*
X66828734Y-110083690D01*
X67033835Y-109998734D01*
X67218421Y-109875398D01*
X67375398Y-109718421D01*
X67498734Y-109533835D01*
X67583690Y-109328734D01*
X67627000Y-109111000D01*
X67627000Y-108889000D01*
X67583690Y-108671266D01*
X67498734Y-108466165D01*
X67375398Y-108281579D01*
X67218421Y-108124602D01*
X67033835Y-108001266D01*
X66828734Y-107916310D01*
X66611000Y-107873000D01*
X66389000Y-107873000D01*
X66171266Y-107916310D01*
X65966165Y-108001266D01*
X65781579Y-108124602D01*
X65624602Y-108281579D01*
X65501266Y-108466165D01*
X65457013Y-108573000D01*
X65207169Y-108573000D01*
X60523169Y-103889000D01*
X65493000Y-103889000D01*
X65493000Y-104111000D01*
X65536310Y-104328734D01*
X65621266Y-104533835D01*
X65744602Y-104718421D01*
X65901579Y-104875398D01*
X66086165Y-104998734D01*
X66291266Y-105083690D01*
X66509000Y-105127000D01*
X66731000Y-105127000D01*
X66948734Y-105083690D01*
X67153835Y-104998734D01*
X67338421Y-104875398D01*
X67495398Y-104718421D01*
X67618734Y-104533835D01*
X67703690Y-104328734D01*
X67747000Y-104111000D01*
X67747000Y-103889000D01*
X67703690Y-103671266D01*
X67618734Y-103466165D01*
X67495398Y-103281579D01*
X67338421Y-103124602D01*
X67153835Y-103001266D01*
X66948734Y-102916310D01*
X66731000Y-102873000D01*
X66509000Y-102873000D01*
X66291266Y-102916310D01*
X66086165Y-103001266D01*
X65901579Y-103124602D01*
X65744602Y-103281579D01*
X65621266Y-103466165D01*
X65536310Y-103671266D01*
X65493000Y-103889000D01*
X60523169Y-103889000D01*
X60347068Y-103712900D01*
X60333695Y-103696605D01*
X60268676Y-103643245D01*
X60194496Y-103603595D01*
X60114007Y-103579178D01*
X60051278Y-103573000D01*
X60051267Y-103573000D01*
X60042635Y-103572150D01*
X59998734Y-103466165D01*
X59875398Y-103281579D01*
X59718421Y-103124602D01*
X59533835Y-103001266D01*
X59328734Y-102916310D01*
X59111000Y-102873000D01*
X58889000Y-102873000D01*
X58671266Y-102916310D01*
X58466165Y-103001266D01*
X58281579Y-103124602D01*
X58124602Y-103281579D01*
X58061200Y-103376467D01*
X58061200Y-102083533D01*
X58124602Y-102178421D01*
X58281579Y-102335398D01*
X58466165Y-102458734D01*
X58671266Y-102543690D01*
X58889000Y-102587000D01*
X59111000Y-102587000D01*
X59328734Y-102543690D01*
X59533835Y-102458734D01*
X59718421Y-102335398D01*
X59875398Y-102178421D01*
X59998734Y-101993835D01*
X60083690Y-101788734D01*
X60127000Y-101571000D01*
X60127000Y-101349000D01*
X65493000Y-101349000D01*
X65493000Y-101571000D01*
X65536310Y-101788734D01*
X65621266Y-101993835D01*
X65744602Y-102178421D01*
X65901579Y-102335398D01*
X66086165Y-102458734D01*
X66291266Y-102543690D01*
X66509000Y-102587000D01*
X66731000Y-102587000D01*
X66948734Y-102543690D01*
X67153835Y-102458734D01*
X67338421Y-102335398D01*
X67495398Y-102178421D01*
X67618734Y-101993835D01*
X67703690Y-101788734D01*
X67747000Y-101571000D01*
X67747000Y-101349000D01*
X67703690Y-101131266D01*
X67618734Y-100926165D01*
X67495398Y-100741579D01*
X67338421Y-100584602D01*
X67153835Y-100461266D01*
X66948734Y-100376310D01*
X66731000Y-100333000D01*
X66509000Y-100333000D01*
X66291266Y-100376310D01*
X66086165Y-100461266D01*
X65901579Y-100584602D01*
X65744602Y-100741579D01*
X65621266Y-100926165D01*
X65536310Y-101131266D01*
X65493000Y-101349000D01*
X60127000Y-101349000D01*
X60083690Y-101131266D01*
X59998734Y-100926165D01*
X59875398Y-100741579D01*
X59718421Y-100584602D01*
X59556894Y-100476674D01*
X61224568Y-98809000D01*
X65493000Y-98809000D01*
X65493000Y-99031000D01*
X65536310Y-99248734D01*
X65621266Y-99453835D01*
X65744602Y-99638421D01*
X65901579Y-99795398D01*
X66086165Y-99918734D01*
X66291266Y-100003690D01*
X66509000Y-100047000D01*
X66731000Y-100047000D01*
X66948734Y-100003690D01*
X67153835Y-99918734D01*
X67338421Y-99795398D01*
X67495398Y-99638421D01*
X67618734Y-99453835D01*
X67703690Y-99248734D01*
X67747000Y-99031000D01*
X67747000Y-98809000D01*
X67703690Y-98591266D01*
X67618734Y-98386165D01*
X67495398Y-98201579D01*
X67338421Y-98044602D01*
X67153835Y-97921266D01*
X66948734Y-97836310D01*
X66731000Y-97793000D01*
X66509000Y-97793000D01*
X66291266Y-97836310D01*
X66086165Y-97921266D01*
X65901579Y-98044602D01*
X65744602Y-98201579D01*
X65621266Y-98386165D01*
X65536310Y-98591266D01*
X65493000Y-98809000D01*
X61224568Y-98809000D01*
X61827106Y-98206463D01*
X61843395Y-98193095D01*
X61856764Y-98176805D01*
X61856767Y-98176802D01*
X61896755Y-98128077D01*
X61936404Y-98053897D01*
X61936405Y-98053896D01*
X61960822Y-97973407D01*
X61967000Y-97910678D01*
X61967000Y-97910666D01*
X61969065Y-97889701D01*
X61967000Y-97868736D01*
X61967000Y-96269000D01*
X65493000Y-96269000D01*
X65493000Y-96491000D01*
X65536310Y-96708734D01*
X65621266Y-96913835D01*
X65744602Y-97098421D01*
X65901579Y-97255398D01*
X66086165Y-97378734D01*
X66291266Y-97463690D01*
X66509000Y-97507000D01*
X66731000Y-97507000D01*
X66948734Y-97463690D01*
X67153835Y-97378734D01*
X67338421Y-97255398D01*
X67495398Y-97098421D01*
X67618734Y-96913835D01*
X67703690Y-96708734D01*
X67747000Y-96491000D01*
X67747000Y-96269000D01*
X67703690Y-96051266D01*
X67618734Y-95846165D01*
X67521071Y-95700000D01*
X73371418Y-95700000D01*
X73371418Y-97300000D01*
X73377732Y-97364103D01*
X73396430Y-97425743D01*
X73426794Y-97482550D01*
X73467657Y-97532343D01*
X73517450Y-97573206D01*
X73574257Y-97603570D01*
X73635897Y-97622268D01*
X73700000Y-97628582D01*
X75300000Y-97628582D01*
X75364103Y-97622268D01*
X75425743Y-97603570D01*
X75482550Y-97573206D01*
X75532343Y-97532343D01*
X75573206Y-97482550D01*
X75603570Y-97425743D01*
X75622268Y-97364103D01*
X75628582Y-97300000D01*
X75628582Y-96389000D01*
X80993000Y-96389000D01*
X80993000Y-96611000D01*
X81036310Y-96828734D01*
X81121266Y-97033835D01*
X81244602Y-97218421D01*
X81401579Y-97375398D01*
X81586165Y-97498734D01*
X81791266Y-97583690D01*
X82009000Y-97627000D01*
X82231000Y-97627000D01*
X82448734Y-97583690D01*
X82653835Y-97498734D01*
X82838421Y-97375398D01*
X82995398Y-97218421D01*
X83118734Y-97033835D01*
X83203690Y-96828734D01*
X83247000Y-96611000D01*
X83247000Y-96389000D01*
X83203690Y-96171266D01*
X83118734Y-95966165D01*
X82995398Y-95781579D01*
X82838421Y-95624602D01*
X82653835Y-95501266D01*
X82448734Y-95416310D01*
X82231000Y-95373000D01*
X82009000Y-95373000D01*
X81791266Y-95416310D01*
X81586165Y-95501266D01*
X81401579Y-95624602D01*
X81244602Y-95781579D01*
X81121266Y-95966165D01*
X81036310Y-96171266D01*
X80993000Y-96389000D01*
X75628582Y-96389000D01*
X75628582Y-95700000D01*
X75622268Y-95635897D01*
X75603570Y-95574257D01*
X75573206Y-95517450D01*
X75532343Y-95467657D01*
X75482550Y-95426794D01*
X75425743Y-95396430D01*
X75364103Y-95377732D01*
X75300000Y-95371418D01*
X73700000Y-95371418D01*
X73635897Y-95377732D01*
X73574257Y-95396430D01*
X73517450Y-95426794D01*
X73467657Y-95467657D01*
X73426794Y-95517450D01*
X73396430Y-95574257D01*
X73377732Y-95635897D01*
X73371418Y-95700000D01*
X67521071Y-95700000D01*
X67495398Y-95661579D01*
X67338421Y-95504602D01*
X67153835Y-95381266D01*
X66948734Y-95296310D01*
X66731000Y-95253000D01*
X66509000Y-95253000D01*
X66291266Y-95296310D01*
X66086165Y-95381266D01*
X65901579Y-95504602D01*
X65744602Y-95661579D01*
X65621266Y-95846165D01*
X65536310Y-96051266D01*
X65493000Y-96269000D01*
X61967000Y-96269000D01*
X61967000Y-92097107D01*
X62097519Y-92043044D01*
X62290294Y-91914236D01*
X62454236Y-91750294D01*
X62583044Y-91557519D01*
X62671769Y-91343318D01*
X62717000Y-91115924D01*
X62717000Y-90884076D01*
X62903000Y-90884076D01*
X62903000Y-91115924D01*
X62948231Y-91343318D01*
X63036956Y-91557519D01*
X63165764Y-91750294D01*
X63329706Y-91914236D01*
X63522481Y-92043044D01*
X63736682Y-92131769D01*
X63964076Y-92177000D01*
X64195924Y-92177000D01*
X64423318Y-92131769D01*
X64637519Y-92043044D01*
X64830294Y-91914236D01*
X64994236Y-91750294D01*
X65123044Y-91557519D01*
X65211769Y-91343318D01*
X65257000Y-91115924D01*
X65257000Y-90884076D01*
X65211769Y-90656682D01*
X65123044Y-90442481D01*
X64994236Y-90249706D01*
X64830294Y-90085764D01*
X64637519Y-89956956D01*
X64423318Y-89868231D01*
X64195924Y-89823000D01*
X63964076Y-89823000D01*
X63736682Y-89868231D01*
X63522481Y-89956956D01*
X63329706Y-90085764D01*
X63165764Y-90249706D01*
X63036956Y-90442481D01*
X62948231Y-90656682D01*
X62903000Y-90884076D01*
X62717000Y-90884076D01*
X62671769Y-90656682D01*
X62583044Y-90442481D01*
X62454236Y-90249706D01*
X62290294Y-90085764D01*
X62097519Y-89956956D01*
X61883318Y-89868231D01*
X61655924Y-89823000D01*
X61424076Y-89823000D01*
X61196682Y-89868231D01*
X60982481Y-89956956D01*
X60789706Y-90085764D01*
X60625764Y-90249706D01*
X60496956Y-90442481D01*
X60408231Y-90656682D01*
X60363000Y-90884076D01*
X60363000Y-91115924D01*
X60408231Y-91343318D01*
X60496956Y-91557519D01*
X60625764Y-91750294D01*
X60789706Y-91914236D01*
X60982481Y-92043044D01*
X61113001Y-92097107D01*
X61113000Y-97712831D01*
X60108722Y-98717110D01*
X60083690Y-98591266D01*
X59998734Y-98386165D01*
X59875398Y-98201579D01*
X59718421Y-98044602D01*
X59533835Y-97921266D01*
X59328734Y-97836310D01*
X59111000Y-97793000D01*
X58889000Y-97793000D01*
X58671266Y-97836310D01*
X58466165Y-97921266D01*
X58281579Y-98044602D01*
X58124602Y-98201579D01*
X58061200Y-98296467D01*
X58061200Y-97476591D01*
X58074257Y-97483570D01*
X58135897Y-97502268D01*
X58200000Y-97508582D01*
X59800000Y-97508582D01*
X59864103Y-97502268D01*
X59925743Y-97483570D01*
X59982550Y-97453206D01*
X60032343Y-97412343D01*
X60073206Y-97362550D01*
X60103570Y-97305743D01*
X60122268Y-97244103D01*
X60128582Y-97180000D01*
X60128582Y-95580000D01*
X60122268Y-95515897D01*
X60103570Y-95454257D01*
X60073206Y-95397450D01*
X60032343Y-95347657D01*
X59982550Y-95306794D01*
X59925743Y-95276430D01*
X59864103Y-95257732D01*
X59800000Y-95251418D01*
X58200000Y-95251418D01*
X58135897Y-95257732D01*
X58074257Y-95276430D01*
X58061200Y-95283409D01*
X58061200Y-93622968D01*
X59287105Y-92397064D01*
X59303395Y-92383695D01*
X59316764Y-92367405D01*
X59316768Y-92367401D01*
X59356755Y-92318677D01*
X59396404Y-92244497D01*
X59396405Y-92244496D01*
X59416401Y-92178582D01*
X59850000Y-92178582D01*
X59914103Y-92172268D01*
X59975743Y-92153570D01*
X60032550Y-92123206D01*
X60082343Y-92082343D01*
X60123206Y-92032550D01*
X60153570Y-91975743D01*
X60172268Y-91914103D01*
X60178582Y-91850000D01*
X60178582Y-90150000D01*
X60172268Y-90085897D01*
X60153570Y-90024257D01*
X60123206Y-89967450D01*
X60082343Y-89917657D01*
X60032550Y-89876794D01*
X59975743Y-89846430D01*
X59914103Y-89827732D01*
X59850000Y-89821418D01*
X58150000Y-89821418D01*
X58085897Y-89827732D01*
X58024257Y-89846430D01*
X57967450Y-89876794D01*
X57917657Y-89917657D01*
X57876794Y-89967450D01*
X57846430Y-90024257D01*
X57827732Y-90085897D01*
X57821418Y-90150000D01*
X57821418Y-91850000D01*
X57827732Y-91914103D01*
X57846430Y-91975743D01*
X57876794Y-92032550D01*
X57917657Y-92082343D01*
X57967450Y-92123206D01*
X58024257Y-92153570D01*
X58085897Y-92172268D01*
X58150000Y-92178582D01*
X58297849Y-92178582D01*
X57347095Y-93129336D01*
X57330806Y-93142705D01*
X57317437Y-93158995D01*
X57317432Y-93159000D01*
X57277445Y-93207724D01*
X57237796Y-93281904D01*
X57213379Y-93362394D01*
X57205135Y-93446100D01*
X55427000Y-93446100D01*
X55427000Y-92520964D01*
X55429065Y-92499999D01*
X55427000Y-92479034D01*
X55427000Y-92479022D01*
X55420822Y-92416293D01*
X55396405Y-92335804D01*
X55377948Y-92301273D01*
X55356755Y-92261623D01*
X55316768Y-92212898D01*
X55316759Y-92212889D01*
X55303395Y-92196605D01*
X55287111Y-92183241D01*
X54539437Y-91435569D01*
X54583690Y-91328734D01*
X54627000Y-91111000D01*
X54627000Y-90889000D01*
X54583690Y-90671266D01*
X54498734Y-90466165D01*
X54375398Y-90281579D01*
X54218421Y-90124602D01*
X54033835Y-90001266D01*
X53828734Y-89916310D01*
X53611000Y-89873000D01*
X53389000Y-89873000D01*
X53171266Y-89916310D01*
X52966165Y-90001266D01*
X52781579Y-90124602D01*
X52624602Y-90281579D01*
X52501266Y-90466165D01*
X52416310Y-90671266D01*
X52373000Y-90889000D01*
X52127000Y-90889000D01*
X52083690Y-90671266D01*
X51998734Y-90466165D01*
X51875398Y-90281579D01*
X51718421Y-90124602D01*
X51533835Y-90001266D01*
X51328734Y-89916310D01*
X51111000Y-89873000D01*
X50889000Y-89873000D01*
X50671266Y-89916310D01*
X50466165Y-90001266D01*
X50281579Y-90124602D01*
X50124602Y-90281579D01*
X50001266Y-90466165D01*
X49916310Y-90671266D01*
X49873000Y-90889000D01*
X41352000Y-90889000D01*
X41352000Y-85352000D01*
X110648000Y-85352000D01*
X110648001Y-139148000D01*
%TA.AperFunction,Conductor*%
D26*
G36*
X110648001Y-139148000D02*
G01*
X41352000Y-139148000D01*
X41352000Y-121825000D01*
X46496418Y-121825000D01*
X46496418Y-123175000D01*
X46502732Y-123239103D01*
X46521430Y-123300743D01*
X46551794Y-123357550D01*
X46592657Y-123407343D01*
X46642450Y-123448206D01*
X46699257Y-123478570D01*
X46760897Y-123497268D01*
X46825000Y-123503582D01*
X47373250Y-123503582D01*
X47207727Y-123536507D01*
X47025375Y-123612039D01*
X46861262Y-123721696D01*
X46721696Y-123861262D01*
X46612039Y-124025375D01*
X46536507Y-124207727D01*
X46498000Y-124401312D01*
X46498000Y-124598688D01*
X46536507Y-124792273D01*
X46612039Y-124974625D01*
X46721696Y-125138738D01*
X46861262Y-125278304D01*
X47025375Y-125387961D01*
X47207727Y-125463493D01*
X47401312Y-125502000D01*
X47598688Y-125502000D01*
X47792273Y-125463493D01*
X47974625Y-125387961D01*
X48138738Y-125278304D01*
X48278304Y-125138738D01*
X48387961Y-124974625D01*
X48463493Y-124792273D01*
X48502000Y-124598688D01*
X48502000Y-124401312D01*
X48463493Y-124207727D01*
X48387961Y-124025375D01*
X48278304Y-123861262D01*
X48138738Y-123721696D01*
X47974625Y-123612039D01*
X47792273Y-123536507D01*
X47626750Y-123503582D01*
X48175000Y-123503582D01*
X48239103Y-123497268D01*
X48300743Y-123478570D01*
X48357550Y-123448206D01*
X48407343Y-123407343D01*
X48448206Y-123357550D01*
X48478570Y-123300743D01*
X48497268Y-123239103D01*
X48503582Y-123175000D01*
X48503582Y-121825000D01*
X48497268Y-121760897D01*
X48478570Y-121699257D01*
X48448206Y-121642450D01*
X48407343Y-121592657D01*
X48357550Y-121551794D01*
X48300743Y-121521430D01*
X48239103Y-121502732D01*
X48175000Y-121496418D01*
X46825000Y-121496418D01*
X46760897Y-121502732D01*
X46699257Y-121521430D01*
X46642450Y-121551794D01*
X46592657Y-121592657D01*
X46551794Y-121642450D01*
X46521430Y-121699257D01*
X46502732Y-121760897D01*
X46496418Y-121825000D01*
X41352000Y-121825000D01*
X41352000Y-117424076D01*
X46323000Y-117424076D01*
X46323000Y-117655924D01*
X46368231Y-117883318D01*
X46456956Y-118097519D01*
X46585764Y-118290294D01*
X46749706Y-118454236D01*
X46942481Y-118583044D01*
X47156682Y-118671769D01*
X47384076Y-118717000D01*
X47615924Y-118717000D01*
X47843318Y-118671769D01*
X48057519Y-118583044D01*
X48250294Y-118454236D01*
X48414236Y-118290294D01*
X48543044Y-118097519D01*
X48597107Y-117967000D01*
X52973582Y-117967000D01*
X53001266Y-118033835D01*
X53124602Y-118218421D01*
X53281579Y-118375398D01*
X53466165Y-118498734D01*
X53573001Y-118542987D01*
X53573000Y-120957013D01*
X53466165Y-121001266D01*
X53281579Y-121124602D01*
X53124602Y-121281579D01*
X53001266Y-121466165D01*
X52916310Y-121671266D01*
X52873000Y-121889000D01*
X52873000Y-122111000D01*
X52916310Y-122328734D01*
X52960563Y-122435569D01*
X51212896Y-124183236D01*
X51196606Y-124196605D01*
X51183237Y-124212895D01*
X51183232Y-124212900D01*
X51143245Y-124261624D01*
X51103596Y-124335804D01*
X51090554Y-124378798D01*
X51079179Y-124416294D01*
X51070935Y-124500000D01*
X51073001Y-124520977D01*
X51073000Y-132457013D01*
X50966165Y-132501266D01*
X50781579Y-132624602D01*
X50624602Y-132781579D01*
X50501266Y-132966165D01*
X50416310Y-133171266D01*
X50373000Y-133389000D01*
X50373000Y-133611000D01*
X50416310Y-133828734D01*
X50501266Y-134033835D01*
X50624602Y-134218421D01*
X50781579Y-134375398D01*
X50966165Y-134498734D01*
X51171266Y-134583690D01*
X51389000Y-134627000D01*
X51611000Y-134627000D01*
X51828734Y-134583690D01*
X52033835Y-134498734D01*
X52218421Y-134375398D01*
X52375398Y-134218421D01*
X52498734Y-134033835D01*
X52583690Y-133828734D01*
X52627000Y-133611000D01*
X52627000Y-133389000D01*
X52583690Y-133171266D01*
X52498734Y-132966165D01*
X52375398Y-132781579D01*
X52293819Y-132700000D01*
X53871418Y-132700000D01*
X53871418Y-134300000D01*
X53877732Y-134364103D01*
X53896430Y-134425743D01*
X53926794Y-134482550D01*
X53967657Y-134532343D01*
X54017450Y-134573206D01*
X54074257Y-134603570D01*
X54135897Y-134622268D01*
X54200000Y-134628582D01*
X55800000Y-134628582D01*
X55864103Y-134622268D01*
X55925743Y-134603570D01*
X55982550Y-134573206D01*
X56032343Y-134532343D01*
X56073206Y-134482550D01*
X56103570Y-134425743D01*
X56122268Y-134364103D01*
X56128582Y-134300000D01*
X56128582Y-133200000D01*
X73251418Y-133200000D01*
X73251418Y-134800000D01*
X73257732Y-134864103D01*
X73276430Y-134925743D01*
X73306794Y-134982550D01*
X73347657Y-135032343D01*
X73397450Y-135073206D01*
X73454257Y-135103570D01*
X73515897Y-135122268D01*
X73580000Y-135128582D01*
X75180000Y-135128582D01*
X75244103Y-135122268D01*
X75305743Y-135103570D01*
X75362550Y-135073206D01*
X75412343Y-135032343D01*
X75453206Y-134982550D01*
X75483570Y-134925743D01*
X75502268Y-134864103D01*
X75508582Y-134800000D01*
X75508582Y-133200000D01*
X75502268Y-133135897D01*
X75483570Y-133074257D01*
X75453206Y-133017450D01*
X75412343Y-132967657D01*
X75362550Y-132926794D01*
X75305743Y-132896430D01*
X75244103Y-132877732D01*
X75180000Y-132871418D01*
X74807000Y-132871418D01*
X74807000Y-128542987D01*
X74913835Y-128498734D01*
X75098421Y-128375398D01*
X75255398Y-128218421D01*
X75378734Y-128033835D01*
X75463690Y-127828734D01*
X75507000Y-127611000D01*
X75507000Y-127389000D01*
X75463690Y-127171266D01*
X75378734Y-126966165D01*
X75255398Y-126781579D01*
X75098421Y-126624602D01*
X74936894Y-126516674D01*
X79610491Y-121843079D01*
X79669885Y-121986467D01*
X79782277Y-122154674D01*
X79925326Y-122297723D01*
X80093533Y-122410115D01*
X80280435Y-122487533D01*
X80478849Y-122527000D01*
X80681151Y-122527000D01*
X80879565Y-122487533D01*
X80939032Y-122462901D01*
X81573000Y-123096870D01*
X81573001Y-126371418D01*
X81200000Y-126371418D01*
X81135897Y-126377732D01*
X81074257Y-126396430D01*
X81017450Y-126426794D01*
X80967657Y-126467657D01*
X80926794Y-126517450D01*
X80896430Y-126574257D01*
X80877732Y-126635897D01*
X80871418Y-126700000D01*
X80871418Y-128300000D01*
X80877732Y-128364103D01*
X80896430Y-128425743D01*
X80926794Y-128482550D01*
X80967657Y-128532343D01*
X81017450Y-128573206D01*
X81074257Y-128603570D01*
X81135897Y-128622268D01*
X81200000Y-128628582D01*
X82603401Y-128628582D01*
X82603400Y-131762431D01*
X81712895Y-132652937D01*
X81696606Y-132666305D01*
X81683237Y-132682595D01*
X81683232Y-132682600D01*
X81643245Y-132731324D01*
X81616384Y-132781579D01*
X81603596Y-132805504D01*
X81583601Y-132871418D01*
X81579179Y-132885994D01*
X81572150Y-132957365D01*
X81466165Y-133001266D01*
X81281579Y-133124602D01*
X81124602Y-133281579D01*
X81001266Y-133466165D01*
X80916310Y-133671266D01*
X80873000Y-133889000D01*
X80873000Y-134111000D01*
X80916310Y-134328734D01*
X81001266Y-134533835D01*
X81124602Y-134718421D01*
X81281579Y-134875398D01*
X81466165Y-134998734D01*
X81671266Y-135083690D01*
X81889000Y-135127000D01*
X82111000Y-135127000D01*
X82328734Y-135083690D01*
X82533835Y-134998734D01*
X82718421Y-134875398D01*
X82875398Y-134718421D01*
X82998734Y-134533835D01*
X83083690Y-134328734D01*
X83127000Y-134111000D01*
X83127000Y-133889000D01*
X83083690Y-133671266D01*
X82998734Y-133466165D01*
X82875398Y-133281579D01*
X82718421Y-133124602D01*
X82556894Y-133016674D01*
X83317506Y-132256063D01*
X83333795Y-132242695D01*
X83347164Y-132226405D01*
X83347168Y-132226401D01*
X83387156Y-132177677D01*
X83426805Y-132103497D01*
X83432488Y-132084763D01*
X83451222Y-132023007D01*
X83457400Y-131960278D01*
X83457400Y-131960267D01*
X83459465Y-131939300D01*
X83457400Y-131918333D01*
X83457400Y-126837000D01*
X93042600Y-126837000D01*
X93042600Y-126948632D01*
X93040535Y-126969600D01*
X93042600Y-126990567D01*
X93042600Y-126990577D01*
X93048778Y-127053306D01*
X93073195Y-127133795D01*
X93073196Y-127133796D01*
X93112845Y-127207976D01*
X93152832Y-127256700D01*
X93166205Y-127272995D01*
X93182500Y-127286368D01*
X93460563Y-127564431D01*
X93416310Y-127671266D01*
X93373000Y-127889000D01*
X93373000Y-128111000D01*
X93416310Y-128328734D01*
X93501266Y-128533835D01*
X93624602Y-128718421D01*
X93781579Y-128875398D01*
X93966165Y-128998734D01*
X94171266Y-129083690D01*
X94389000Y-129127000D01*
X94611000Y-129127000D01*
X94828734Y-129083690D01*
X95033835Y-128998734D01*
X95218421Y-128875398D01*
X95375398Y-128718421D01*
X95498734Y-128533835D01*
X95583690Y-128328734D01*
X95627000Y-128111000D01*
X95627000Y-127889000D01*
X95583690Y-127671266D01*
X95498734Y-127466165D01*
X95375398Y-127281579D01*
X95218421Y-127124602D01*
X95033835Y-127001266D01*
X94828734Y-126916310D01*
X94611000Y-126873000D01*
X94389000Y-126873000D01*
X94171266Y-126916310D01*
X94064431Y-126960563D01*
X93896600Y-126792732D01*
X93896600Y-126452252D01*
X93966165Y-126498734D01*
X94171266Y-126583690D01*
X94389000Y-126627000D01*
X94611000Y-126627000D01*
X94746738Y-126600000D01*
X100271418Y-126600000D01*
X100271418Y-128400000D01*
X100277732Y-128464103D01*
X100296430Y-128525743D01*
X100326794Y-128582550D01*
X100367657Y-128632343D01*
X100417450Y-128673206D01*
X100474257Y-128703570D01*
X100535897Y-128722268D01*
X100600000Y-128728582D01*
X102400000Y-128728582D01*
X102464103Y-128722268D01*
X102525743Y-128703570D01*
X102582550Y-128673206D01*
X102632343Y-128632343D01*
X102673206Y-128582550D01*
X102703570Y-128525743D01*
X102722268Y-128464103D01*
X102728582Y-128400000D01*
X102728582Y-126600000D01*
X102722268Y-126535897D01*
X102703570Y-126474257D01*
X102673206Y-126417450D01*
X102632343Y-126367657D01*
X102582550Y-126326794D01*
X102525743Y-126296430D01*
X102464103Y-126277732D01*
X102400000Y-126271418D01*
X100600000Y-126271418D01*
X100535897Y-126277732D01*
X100474257Y-126296430D01*
X100417450Y-126326794D01*
X100367657Y-126367657D01*
X100326794Y-126417450D01*
X100296430Y-126474257D01*
X100277732Y-126535897D01*
X100271418Y-126600000D01*
X94746738Y-126600000D01*
X94828734Y-126583690D01*
X95033835Y-126498734D01*
X95218421Y-126375398D01*
X95375398Y-126218421D01*
X95498734Y-126033835D01*
X95583690Y-125828734D01*
X95627000Y-125611000D01*
X95627000Y-125389000D01*
X95583690Y-125171266D01*
X95498734Y-124966165D01*
X95413867Y-124839151D01*
X100273000Y-124839151D01*
X100273000Y-125080849D01*
X100320153Y-125317903D01*
X100412647Y-125541202D01*
X100546927Y-125742167D01*
X100717833Y-125913073D01*
X100918798Y-126047353D01*
X101142097Y-126139847D01*
X101379151Y-126187000D01*
X101620849Y-126187000D01*
X101857903Y-126139847D01*
X102081202Y-126047353D01*
X102282167Y-125913073D01*
X102453073Y-125742167D01*
X102587353Y-125541202D01*
X102679847Y-125317903D01*
X102727000Y-125080849D01*
X102727000Y-124839151D01*
X102679847Y-124602097D01*
X102587353Y-124378798D01*
X102453073Y-124177833D01*
X102282167Y-124006927D01*
X102081202Y-123872647D01*
X101857903Y-123780153D01*
X101620849Y-123733000D01*
X101379151Y-123733000D01*
X101142097Y-123780153D01*
X100918798Y-123872647D01*
X100717833Y-124006927D01*
X100546927Y-124177833D01*
X100412647Y-124378798D01*
X100320153Y-124602097D01*
X100273000Y-124839151D01*
X95413867Y-124839151D01*
X95375398Y-124781579D01*
X95218421Y-124624602D01*
X95033835Y-124501266D01*
X94828734Y-124416310D01*
X94611000Y-124373000D01*
X94389000Y-124373000D01*
X94171266Y-124416310D01*
X93966165Y-124501266D01*
X93896600Y-124547748D01*
X93896600Y-121207268D01*
X94564431Y-120539437D01*
X94671266Y-120583690D01*
X94889000Y-120627000D01*
X95111000Y-120627000D01*
X95328734Y-120583690D01*
X95533835Y-120498734D01*
X95718421Y-120375398D01*
X95875398Y-120218421D01*
X95998734Y-120033835D01*
X96083690Y-119828734D01*
X96127000Y-119611000D01*
X96127000Y-119389000D01*
X96373000Y-119389000D01*
X96373000Y-119611000D01*
X96416310Y-119828734D01*
X96501266Y-120033835D01*
X96624602Y-120218421D01*
X96781579Y-120375398D01*
X96966165Y-120498734D01*
X97171266Y-120583690D01*
X97389000Y-120627000D01*
X97611000Y-120627000D01*
X97828734Y-120583690D01*
X98033835Y-120498734D01*
X98218421Y-120375398D01*
X98375398Y-120218421D01*
X98498734Y-120033835D01*
X98583690Y-119828734D01*
X98627000Y-119611000D01*
X98627000Y-119389000D01*
X98583690Y-119171266D01*
X98498734Y-118966165D01*
X98375398Y-118781579D01*
X98218421Y-118624602D01*
X98033835Y-118501266D01*
X97828734Y-118416310D01*
X97611000Y-118373000D01*
X97389000Y-118373000D01*
X97171266Y-118416310D01*
X96966165Y-118501266D01*
X96781579Y-118624602D01*
X96624602Y-118781579D01*
X96501266Y-118966165D01*
X96416310Y-119171266D01*
X96373000Y-119389000D01*
X96127000Y-119389000D01*
X96083690Y-119171266D01*
X96039437Y-119064431D01*
X98287105Y-116816764D01*
X98303395Y-116803395D01*
X98316764Y-116787105D01*
X98316768Y-116787101D01*
X98356756Y-116738377D01*
X98396404Y-116664197D01*
X98396405Y-116664196D01*
X98420822Y-116583707D01*
X98427000Y-116520978D01*
X98427000Y-116520967D01*
X98429065Y-116500000D01*
X98427000Y-116479033D01*
X98427000Y-113032755D01*
X98605839Y-112997182D01*
X98983829Y-112840614D01*
X99324011Y-112613311D01*
X99613311Y-112324011D01*
X99840614Y-111983829D01*
X99997182Y-111605839D01*
X100077000Y-111204567D01*
X100077000Y-110795433D01*
X99997182Y-110394161D01*
X99840614Y-110016171D01*
X99613311Y-109675989D01*
X99324011Y-109386689D01*
X98983829Y-109159386D01*
X98605839Y-109002818D01*
X98204567Y-108923000D01*
X97795433Y-108923000D01*
X97394161Y-109002818D01*
X97016171Y-109159386D01*
X96675989Y-109386689D01*
X96386689Y-109675989D01*
X96159386Y-110016171D01*
X96002818Y-110394161D01*
X95923000Y-110795433D01*
X95923000Y-111204567D01*
X96002818Y-111605839D01*
X96159386Y-111983829D01*
X96386689Y-112324011D01*
X96675989Y-112613311D01*
X97016171Y-112840614D01*
X97394161Y-112997182D01*
X97573000Y-113032755D01*
X97573001Y-116323130D01*
X95435569Y-118460563D01*
X95328734Y-118416310D01*
X95111000Y-118373000D01*
X94889000Y-118373000D01*
X94671266Y-118416310D01*
X94466165Y-118501266D01*
X94281579Y-118624602D01*
X94124602Y-118781579D01*
X94001266Y-118966165D01*
X93916310Y-119171266D01*
X93873000Y-119389000D01*
X93873000Y-119611000D01*
X93916310Y-119828734D01*
X93960563Y-119935569D01*
X93182495Y-120713636D01*
X93166206Y-120727005D01*
X93152837Y-120743295D01*
X93152832Y-120743300D01*
X93112845Y-120792024D01*
X93076661Y-120859722D01*
X93073196Y-120866204D01*
X93048779Y-120946693D01*
X93044420Y-120990955D01*
X93040535Y-121030400D01*
X93042601Y-121051377D01*
X93042600Y-125983000D01*
X83457400Y-125983000D01*
X83457400Y-120901667D01*
X83459465Y-120880700D01*
X83457400Y-120859733D01*
X83457400Y-120859722D01*
X83451222Y-120796993D01*
X83426805Y-120716504D01*
X83408348Y-120681973D01*
X83387155Y-120642323D01*
X83347168Y-120593599D01*
X83347164Y-120593595D01*
X83333795Y-120577305D01*
X83317505Y-120563936D01*
X81124744Y-118371176D01*
X81234674Y-118297723D01*
X81377723Y-118154674D01*
X81490115Y-117986467D01*
X81567533Y-117799565D01*
X81607000Y-117601151D01*
X81607000Y-117398849D01*
X81567533Y-117200435D01*
X81490115Y-117013533D01*
X81377723Y-116845326D01*
X81234674Y-116702277D01*
X81066467Y-116589885D01*
X80879565Y-116512467D01*
X80681151Y-116473000D01*
X80478849Y-116473000D01*
X80280435Y-116512467D01*
X80093533Y-116589885D01*
X80076700Y-116601132D01*
X80076700Y-116037468D01*
X80867105Y-115247064D01*
X80883395Y-115233695D01*
X80896764Y-115217405D01*
X80896768Y-115217401D01*
X80936755Y-115168677D01*
X80976404Y-115094497D01*
X80976405Y-115094496D01*
X81000822Y-115014007D01*
X81007000Y-114951278D01*
X81007000Y-114951267D01*
X81008696Y-114934045D01*
X81066467Y-114910115D01*
X81234674Y-114797723D01*
X81377723Y-114654674D01*
X81490115Y-114486467D01*
X81567533Y-114299565D01*
X81607000Y-114101151D01*
X81607000Y-113898849D01*
X81567533Y-113700435D01*
X81490115Y-113513533D01*
X81377723Y-113345326D01*
X81234674Y-113202277D01*
X81066467Y-113089885D01*
X80879565Y-113012467D01*
X80681151Y-112973000D01*
X80478849Y-112973000D01*
X80280435Y-113012467D01*
X80093533Y-113089885D01*
X79925326Y-113202277D01*
X79782277Y-113345326D01*
X79669885Y-113513533D01*
X79592467Y-113700435D01*
X79553000Y-113898849D01*
X79553000Y-114101151D01*
X79592467Y-114299565D01*
X79669885Y-114486467D01*
X79782277Y-114654674D01*
X79925326Y-114797723D01*
X80035256Y-114871176D01*
X79362600Y-115543832D01*
X79346305Y-115557205D01*
X79332933Y-115573499D01*
X79332932Y-115573500D01*
X79292945Y-115622224D01*
X79271752Y-115661874D01*
X79253295Y-115696405D01*
X79228878Y-115776894D01*
X79222700Y-115839623D01*
X79222700Y-115839633D01*
X79220635Y-115860600D01*
X79222700Y-115881567D01*
X79222701Y-121023129D01*
X74092896Y-126152936D01*
X74076606Y-126166305D01*
X74063237Y-126182595D01*
X74063232Y-126182600D01*
X74023245Y-126231324D01*
X74001815Y-126271418D01*
X73983596Y-126305504D01*
X73963601Y-126371418D01*
X73959179Y-126385994D01*
X73952150Y-126457365D01*
X73846165Y-126501266D01*
X73661579Y-126624602D01*
X73504602Y-126781579D01*
X73381266Y-126966165D01*
X73296310Y-127171266D01*
X73253000Y-127389000D01*
X73253000Y-127611000D01*
X73296310Y-127828734D01*
X73381266Y-128033835D01*
X73504602Y-128218421D01*
X73661579Y-128375398D01*
X73846165Y-128498734D01*
X73953001Y-128542987D01*
X73953000Y-132871418D01*
X73580000Y-132871418D01*
X73515897Y-132877732D01*
X73454257Y-132896430D01*
X73397450Y-132926794D01*
X73347657Y-132967657D01*
X73306794Y-133017450D01*
X73276430Y-133074257D01*
X73257732Y-133135897D01*
X73251418Y-133200000D01*
X56128582Y-133200000D01*
X56128582Y-132700000D01*
X56122268Y-132635897D01*
X56103570Y-132574257D01*
X56073206Y-132517450D01*
X56032343Y-132467657D01*
X55982550Y-132426794D01*
X55925743Y-132396430D01*
X55864103Y-132377732D01*
X55800000Y-132371418D01*
X54200000Y-132371418D01*
X54135897Y-132377732D01*
X54074257Y-132396430D01*
X54017450Y-132426794D01*
X53967657Y-132467657D01*
X53926794Y-132517450D01*
X53896430Y-132574257D01*
X53877732Y-132635897D01*
X53871418Y-132700000D01*
X52293819Y-132700000D01*
X52218421Y-132624602D01*
X52033835Y-132501266D01*
X51927000Y-132457013D01*
X51927000Y-124676868D01*
X52214868Y-124389000D01*
X52873000Y-124389000D01*
X52873000Y-124611000D01*
X52916310Y-124828734D01*
X53001266Y-125033835D01*
X53124602Y-125218421D01*
X53281579Y-125375398D01*
X53466165Y-125498734D01*
X53671266Y-125583690D01*
X53889000Y-125627000D01*
X54111000Y-125627000D01*
X54328734Y-125583690D01*
X54533835Y-125498734D01*
X54718421Y-125375398D01*
X54875398Y-125218421D01*
X54998734Y-125033835D01*
X55083690Y-124828734D01*
X55127000Y-124611000D01*
X55127000Y-124389000D01*
X57873000Y-124389000D01*
X57873000Y-124611000D01*
X57916310Y-124828734D01*
X58001266Y-125033835D01*
X58124602Y-125218421D01*
X58281579Y-125375398D01*
X58466165Y-125498734D01*
X58671266Y-125583690D01*
X58889000Y-125627000D01*
X59111000Y-125627000D01*
X59328734Y-125583690D01*
X59533835Y-125498734D01*
X59718421Y-125375398D01*
X59875398Y-125218421D01*
X59998734Y-125033835D01*
X60083690Y-124828734D01*
X60127000Y-124611000D01*
X60127000Y-124389000D01*
X62873000Y-124389000D01*
X62873000Y-124611000D01*
X62916310Y-124828734D01*
X63001266Y-125033835D01*
X63124602Y-125218421D01*
X63281579Y-125375398D01*
X63466165Y-125498734D01*
X63671266Y-125583690D01*
X63889000Y-125627000D01*
X64111000Y-125627000D01*
X64328734Y-125583690D01*
X64533835Y-125498734D01*
X64718421Y-125375398D01*
X64875398Y-125218421D01*
X64998734Y-125033835D01*
X65083690Y-124828734D01*
X65127000Y-124611000D01*
X65127000Y-124389000D01*
X65083690Y-124171266D01*
X65039437Y-124064431D01*
X73636705Y-115467164D01*
X73652995Y-115453795D01*
X73666364Y-115437505D01*
X73666368Y-115437501D01*
X73706355Y-115388777D01*
X73738448Y-115328734D01*
X73746005Y-115314596D01*
X73770422Y-115234107D01*
X73776600Y-115171378D01*
X73776600Y-115171368D01*
X73778665Y-115150401D01*
X73776600Y-115129434D01*
X73776600Y-115011468D01*
X74508491Y-114279577D01*
X74512467Y-114299565D01*
X74589885Y-114486467D01*
X74702277Y-114654674D01*
X74845326Y-114797723D01*
X75013533Y-114910115D01*
X75073000Y-114934747D01*
X75073001Y-116565252D01*
X75013533Y-116589885D01*
X74845326Y-116702277D01*
X74702277Y-116845326D01*
X74589885Y-117013533D01*
X74512467Y-117200435D01*
X74473000Y-117398849D01*
X74473000Y-117601151D01*
X74512467Y-117799565D01*
X74589885Y-117986467D01*
X74702277Y-118154674D01*
X74845326Y-118297723D01*
X75013533Y-118410115D01*
X75073000Y-118434747D01*
X75073001Y-120565252D01*
X75013533Y-120589885D01*
X74845326Y-120702277D01*
X74702277Y-120845326D01*
X74589885Y-121013533D01*
X74512467Y-121200435D01*
X74473000Y-121398849D01*
X74473000Y-121601151D01*
X74512467Y-121799565D01*
X74589885Y-121986467D01*
X74702277Y-122154674D01*
X74845326Y-122297723D01*
X75013533Y-122410115D01*
X75200435Y-122487533D01*
X75398849Y-122527000D01*
X75601151Y-122527000D01*
X75799565Y-122487533D01*
X75986467Y-122410115D01*
X76154674Y-122297723D01*
X76297723Y-122154674D01*
X76410115Y-121986467D01*
X76487533Y-121799565D01*
X76527000Y-121601151D01*
X76527000Y-121398849D01*
X76487533Y-121200435D01*
X76410115Y-121013533D01*
X76297723Y-120845326D01*
X76154674Y-120702277D01*
X75986467Y-120589885D01*
X75927000Y-120565253D01*
X75927000Y-118434747D01*
X75986467Y-118410115D01*
X76154674Y-118297723D01*
X76297723Y-118154674D01*
X76410115Y-117986467D01*
X76487533Y-117799565D01*
X76527000Y-117601151D01*
X76527000Y-117398849D01*
X76487533Y-117200435D01*
X76410115Y-117013533D01*
X76297723Y-116845326D01*
X76154674Y-116702277D01*
X75986467Y-116589885D01*
X75927000Y-116565253D01*
X75927000Y-114934747D01*
X75986467Y-114910115D01*
X76154674Y-114797723D01*
X76297723Y-114654674D01*
X76410115Y-114486467D01*
X76487533Y-114299565D01*
X76527000Y-114101151D01*
X76527000Y-113898849D01*
X76487533Y-113700435D01*
X76410115Y-113513533D01*
X76297723Y-113345326D01*
X76154674Y-113202277D01*
X75986467Y-113089885D01*
X75799565Y-113012467D01*
X75779578Y-113008491D01*
X77361070Y-111427000D01*
X79565253Y-111427000D01*
X79589885Y-111486467D01*
X79702277Y-111654674D01*
X79845326Y-111797723D01*
X80013533Y-111910115D01*
X80200435Y-111987533D01*
X80398849Y-112027000D01*
X80601151Y-112027000D01*
X80799565Y-111987533D01*
X80986467Y-111910115D01*
X81154674Y-111797723D01*
X81297723Y-111654674D01*
X81410115Y-111486467D01*
X81487533Y-111299565D01*
X81527000Y-111101151D01*
X81527000Y-110898849D01*
X81487533Y-110700435D01*
X81410115Y-110513533D01*
X81297723Y-110345326D01*
X81154674Y-110202277D01*
X80986467Y-110089885D01*
X80799565Y-110012467D01*
X80601151Y-109973000D01*
X80398849Y-109973000D01*
X80200435Y-110012467D01*
X80013533Y-110089885D01*
X79845326Y-110202277D01*
X79702277Y-110345326D01*
X79589885Y-110513533D01*
X79565253Y-110573000D01*
X77205164Y-110573000D01*
X77184199Y-110570935D01*
X77163234Y-110573000D01*
X77163222Y-110573000D01*
X77100493Y-110579178D01*
X77020004Y-110603595D01*
X76985473Y-110622052D01*
X76945823Y-110643245D01*
X76897098Y-110683232D01*
X76897089Y-110683241D01*
X76880805Y-110696605D01*
X76867441Y-110712889D01*
X76439010Y-111141320D01*
X76447000Y-111101151D01*
X76447000Y-110898849D01*
X76407533Y-110700435D01*
X76330115Y-110513533D01*
X76217723Y-110345326D01*
X76074674Y-110202277D01*
X75931797Y-110106810D01*
X75951122Y-110043107D01*
X75957300Y-109980378D01*
X75957300Y-109980367D01*
X75959365Y-109959400D01*
X75957300Y-109938433D01*
X75957300Y-101469000D01*
X80993000Y-101469000D01*
X80993000Y-101691000D01*
X81036310Y-101908734D01*
X81121266Y-102113835D01*
X81244602Y-102298421D01*
X81401579Y-102455398D01*
X81586165Y-102578734D01*
X81692150Y-102622635D01*
X81693001Y-102631277D01*
X81693001Y-102631278D01*
X81699179Y-102694007D01*
X81712639Y-102738376D01*
X81723596Y-102774496D01*
X81763245Y-102848676D01*
X81803232Y-102897400D01*
X81803237Y-102897405D01*
X81816606Y-102913695D01*
X81832895Y-102927063D01*
X81917110Y-103011278D01*
X81791266Y-103036310D01*
X81586165Y-103121266D01*
X81401579Y-103244602D01*
X81244602Y-103401579D01*
X81121266Y-103586165D01*
X81036310Y-103791266D01*
X80993000Y-104009000D01*
X80993000Y-104231000D01*
X81036310Y-104448734D01*
X81121266Y-104653835D01*
X81244602Y-104838421D01*
X81401579Y-104995398D01*
X81586165Y-105118734D01*
X81791266Y-105203690D01*
X82009000Y-105247000D01*
X82231000Y-105247000D01*
X82448734Y-105203690D01*
X82653835Y-105118734D01*
X82723300Y-105072319D01*
X82723301Y-114209323D01*
X82721235Y-114230300D01*
X82729479Y-114314006D01*
X82753896Y-114394496D01*
X82793545Y-114468676D01*
X82833532Y-114517400D01*
X82833537Y-114517405D01*
X82846906Y-114533695D01*
X82863196Y-114547064D01*
X84037099Y-115720968D01*
X84012467Y-115780435D01*
X83973000Y-115978849D01*
X83973000Y-116181151D01*
X84012467Y-116379565D01*
X84089885Y-116566467D01*
X84202277Y-116734674D01*
X84345326Y-116877723D01*
X84513533Y-116990115D01*
X84700435Y-117067533D01*
X84898849Y-117107000D01*
X85101151Y-117107000D01*
X85299565Y-117067533D01*
X85486467Y-116990115D01*
X85654674Y-116877723D01*
X85797723Y-116734674D01*
X85910115Y-116566467D01*
X85987533Y-116379565D01*
X86027000Y-116181151D01*
X86027000Y-115978849D01*
X85987533Y-115780435D01*
X85910115Y-115593533D01*
X85797723Y-115425326D01*
X85654674Y-115282277D01*
X85486467Y-115169885D01*
X85299565Y-115092467D01*
X85101151Y-115053000D01*
X84898849Y-115053000D01*
X84700435Y-115092467D01*
X84640968Y-115117099D01*
X83577300Y-114053432D01*
X83577300Y-110898849D01*
X83973000Y-110898849D01*
X83973000Y-111101151D01*
X84012467Y-111299565D01*
X84089885Y-111486467D01*
X84202277Y-111654674D01*
X84345326Y-111797723D01*
X84513533Y-111910115D01*
X84700435Y-111987533D01*
X84898849Y-112027000D01*
X85101151Y-112027000D01*
X85299565Y-111987533D01*
X85486467Y-111910115D01*
X85654674Y-111797723D01*
X85797723Y-111654674D01*
X85910115Y-111486467D01*
X85987533Y-111299565D01*
X86027000Y-111101151D01*
X86027000Y-110898849D01*
X85987533Y-110700435D01*
X85910115Y-110513533D01*
X85797723Y-110345326D01*
X85654674Y-110202277D01*
X85486467Y-110089885D01*
X85299565Y-110012467D01*
X85101151Y-109973000D01*
X84898849Y-109973000D01*
X84700435Y-110012467D01*
X84513533Y-110089885D01*
X84345326Y-110202277D01*
X84202277Y-110345326D01*
X84089885Y-110513533D01*
X84012467Y-110700435D01*
X83973000Y-110898849D01*
X83577300Y-110898849D01*
X83577300Y-104795433D01*
X95923000Y-104795433D01*
X95923000Y-105204567D01*
X96002818Y-105605839D01*
X96159386Y-105983829D01*
X96386689Y-106324011D01*
X96675989Y-106613311D01*
X97016171Y-106840614D01*
X97394161Y-106997182D01*
X97795433Y-107077000D01*
X98204567Y-107077000D01*
X98605839Y-106997182D01*
X98983829Y-106840614D01*
X99324011Y-106613311D01*
X99613311Y-106324011D01*
X99840614Y-105983829D01*
X99997182Y-105605839D01*
X100077000Y-105204567D01*
X100077000Y-104795433D01*
X99997182Y-104394161D01*
X99840614Y-104016171D01*
X99613311Y-103675989D01*
X99324011Y-103386689D01*
X98983829Y-103159386D01*
X98605839Y-103002818D01*
X98204567Y-102923000D01*
X97795433Y-102923000D01*
X97394161Y-103002818D01*
X97016171Y-103159386D01*
X96675989Y-103386689D01*
X96386689Y-103675989D01*
X96159386Y-104016171D01*
X96002818Y-104394161D01*
X95923000Y-104795433D01*
X83577300Y-104795433D01*
X83577300Y-103661566D01*
X83579365Y-103640599D01*
X83577300Y-103619632D01*
X83577300Y-103619622D01*
X83571122Y-103556893D01*
X83546705Y-103476404D01*
X83507056Y-103402225D01*
X83507055Y-103402223D01*
X83467068Y-103353498D01*
X83467059Y-103353489D01*
X83453695Y-103337205D01*
X83437412Y-103323842D01*
X82676895Y-102563326D01*
X82838421Y-102455398D01*
X82995398Y-102298421D01*
X83118734Y-102113835D01*
X83203690Y-101908734D01*
X83247000Y-101691000D01*
X83247000Y-101469000D01*
X83203690Y-101251266D01*
X83118734Y-101046165D01*
X82995398Y-100861579D01*
X82838421Y-100704602D01*
X82653835Y-100581266D01*
X82448734Y-100496310D01*
X82231000Y-100453000D01*
X82009000Y-100453000D01*
X81791266Y-100496310D01*
X81586165Y-100581266D01*
X81401579Y-100704602D01*
X81244602Y-100861579D01*
X81121266Y-101046165D01*
X81036310Y-101251266D01*
X80993000Y-101469000D01*
X75957300Y-101469000D01*
X75957300Y-101121566D01*
X75959365Y-101100599D01*
X75957300Y-101079632D01*
X75957300Y-101079622D01*
X75951122Y-101016893D01*
X75926705Y-100936404D01*
X75887056Y-100862225D01*
X75887055Y-100862223D01*
X75847068Y-100813498D01*
X75847059Y-100813489D01*
X75833695Y-100797205D01*
X75817412Y-100783842D01*
X75056895Y-100023326D01*
X75218421Y-99915398D01*
X75375398Y-99758421D01*
X75498734Y-99573835D01*
X75583690Y-99368734D01*
X75627000Y-99151000D01*
X75627000Y-98929000D01*
X80993000Y-98929000D01*
X80993000Y-99151000D01*
X81036310Y-99368734D01*
X81121266Y-99573835D01*
X81244602Y-99758421D01*
X81401579Y-99915398D01*
X81586165Y-100038734D01*
X81791266Y-100123690D01*
X82009000Y-100167000D01*
X82231000Y-100167000D01*
X82448734Y-100123690D01*
X82653835Y-100038734D01*
X82838421Y-99915398D01*
X82995398Y-99758421D01*
X83118734Y-99573835D01*
X83203690Y-99368734D01*
X83247000Y-99151000D01*
X83247000Y-98929000D01*
X83203690Y-98711266D01*
X83118734Y-98506165D01*
X82995398Y-98321579D01*
X82838421Y-98164602D01*
X82653835Y-98041266D01*
X82448734Y-97956310D01*
X82231000Y-97913000D01*
X82009000Y-97913000D01*
X81791266Y-97956310D01*
X81586165Y-98041266D01*
X81401579Y-98164602D01*
X81244602Y-98321579D01*
X81121266Y-98506165D01*
X81036310Y-98711266D01*
X80993000Y-98929000D01*
X75627000Y-98929000D01*
X75583690Y-98711266D01*
X75498734Y-98506165D01*
X75375398Y-98321579D01*
X75218421Y-98164602D01*
X75033835Y-98041266D01*
X74828734Y-97956310D01*
X74611000Y-97913000D01*
X74389000Y-97913000D01*
X74171266Y-97956310D01*
X73966165Y-98041266D01*
X73781579Y-98164602D01*
X73624602Y-98321579D01*
X73501266Y-98506165D01*
X73416310Y-98711266D01*
X73373000Y-98929000D01*
X73373000Y-99151000D01*
X73416310Y-99368734D01*
X73501266Y-99573835D01*
X73624602Y-99758421D01*
X73781579Y-99915398D01*
X73966165Y-100038734D01*
X74072150Y-100082635D01*
X74073001Y-100091277D01*
X74073001Y-100091278D01*
X74079179Y-100154007D01*
X74103596Y-100234496D01*
X74143245Y-100308676D01*
X74183232Y-100357400D01*
X74183237Y-100357405D01*
X74196606Y-100373695D01*
X74212895Y-100387063D01*
X74297110Y-100471278D01*
X74171266Y-100496310D01*
X73966165Y-100581266D01*
X73781579Y-100704602D01*
X73624602Y-100861579D01*
X73501266Y-101046165D01*
X73416310Y-101251266D01*
X73373000Y-101469000D01*
X73373000Y-101691000D01*
X73416310Y-101908734D01*
X73501266Y-102113835D01*
X73624602Y-102298421D01*
X73781579Y-102455398D01*
X73966165Y-102578734D01*
X74171266Y-102663690D01*
X74389000Y-102707000D01*
X74611000Y-102707000D01*
X74828734Y-102663690D01*
X75033835Y-102578734D01*
X75103300Y-102532319D01*
X75103300Y-103167681D01*
X75033835Y-103121266D01*
X74828734Y-103036310D01*
X74611000Y-102993000D01*
X74389000Y-102993000D01*
X74171266Y-103036310D01*
X73966165Y-103121266D01*
X73781579Y-103244602D01*
X73624602Y-103401579D01*
X73501266Y-103586165D01*
X73416310Y-103791266D01*
X73373000Y-104009000D01*
X73373000Y-104231000D01*
X73416310Y-104448734D01*
X73501266Y-104653835D01*
X73624602Y-104838421D01*
X73781579Y-104995398D01*
X73966165Y-105118734D01*
X74171266Y-105203690D01*
X74389000Y-105247000D01*
X74611000Y-105247000D01*
X74828734Y-105203690D01*
X75033835Y-105118734D01*
X75103300Y-105072319D01*
X75103301Y-109782517D01*
X75103237Y-109782595D01*
X75103232Y-109782600D01*
X75063245Y-109831324D01*
X75023596Y-109905504D01*
X75000883Y-109980378D01*
X74999179Y-109985994D01*
X74991304Y-110065955D01*
X74933533Y-110089885D01*
X74765326Y-110202277D01*
X74622277Y-110345326D01*
X74509885Y-110513533D01*
X74432467Y-110700435D01*
X74393000Y-110898849D01*
X74393000Y-111101151D01*
X74432467Y-111299565D01*
X74509885Y-111486467D01*
X74622277Y-111654674D01*
X74765326Y-111797723D01*
X74933533Y-111910115D01*
X75120435Y-111987533D01*
X75318849Y-112027000D01*
X75521151Y-112027000D01*
X75561321Y-112019010D01*
X73062500Y-114517832D01*
X73046205Y-114531205D01*
X73032833Y-114547499D01*
X73032832Y-114547500D01*
X72992845Y-114596224D01*
X72983594Y-114613532D01*
X72953195Y-114670405D01*
X72928778Y-114750894D01*
X72922600Y-114813623D01*
X72922600Y-114813633D01*
X72920535Y-114834600D01*
X72922600Y-114855567D01*
X72922600Y-114973531D01*
X72008797Y-115887334D01*
X71987533Y-115780435D01*
X71910115Y-115593533D01*
X71797723Y-115425326D01*
X71654674Y-115282277D01*
X71486467Y-115169885D01*
X71299565Y-115092467D01*
X71101151Y-115053000D01*
X70898849Y-115053000D01*
X70700435Y-115092467D01*
X70513533Y-115169885D01*
X70345326Y-115282277D01*
X70202277Y-115425326D01*
X70089885Y-115593533D01*
X70012467Y-115780435D01*
X69973000Y-115978849D01*
X69973000Y-116181151D01*
X70012467Y-116379565D01*
X70089885Y-116566467D01*
X70202277Y-116734674D01*
X70345326Y-116877723D01*
X70513533Y-116990115D01*
X70700435Y-117067533D01*
X70807335Y-117088797D01*
X64435569Y-123460563D01*
X64328734Y-123416310D01*
X64111000Y-123373000D01*
X63889000Y-123373000D01*
X63671266Y-123416310D01*
X63466165Y-123501266D01*
X63281579Y-123624602D01*
X63124602Y-123781579D01*
X63001266Y-123966165D01*
X62916310Y-124171266D01*
X62873000Y-124389000D01*
X60127000Y-124389000D01*
X60083690Y-124171266D01*
X59998734Y-123966165D01*
X59875398Y-123781579D01*
X59718421Y-123624602D01*
X59533835Y-123501266D01*
X59328734Y-123416310D01*
X59111000Y-123373000D01*
X58889000Y-123373000D01*
X58671266Y-123416310D01*
X58466165Y-123501266D01*
X58281579Y-123624602D01*
X58124602Y-123781579D01*
X58001266Y-123966165D01*
X57916310Y-124171266D01*
X57873000Y-124389000D01*
X55127000Y-124389000D01*
X55083690Y-124171266D01*
X54998734Y-123966165D01*
X54875398Y-123781579D01*
X54718421Y-123624602D01*
X54533835Y-123501266D01*
X54328734Y-123416310D01*
X54111000Y-123373000D01*
X53889000Y-123373000D01*
X53671266Y-123416310D01*
X53466165Y-123501266D01*
X53281579Y-123624602D01*
X53124602Y-123781579D01*
X53001266Y-123966165D01*
X52916310Y-124171266D01*
X52873000Y-124389000D01*
X52214868Y-124389000D01*
X53564431Y-123039437D01*
X53671266Y-123083690D01*
X53889000Y-123127000D01*
X54111000Y-123127000D01*
X54328734Y-123083690D01*
X54533835Y-122998734D01*
X54718421Y-122875398D01*
X54875398Y-122718421D01*
X54998734Y-122533835D01*
X55083690Y-122328734D01*
X55127000Y-122111000D01*
X55127000Y-121889000D01*
X55083690Y-121671266D01*
X54998734Y-121466165D01*
X54875398Y-121281579D01*
X54718421Y-121124602D01*
X54533835Y-121001266D01*
X54427000Y-120957013D01*
X54427000Y-118542987D01*
X54533835Y-118498734D01*
X54718421Y-118375398D01*
X54875398Y-118218421D01*
X54998734Y-118033835D01*
X55083690Y-117828734D01*
X55127000Y-117611000D01*
X55127000Y-117389000D01*
X55083690Y-117171266D01*
X54998734Y-116966165D01*
X54875398Y-116781579D01*
X54718421Y-116624602D01*
X54533835Y-116501266D01*
X54328734Y-116416310D01*
X54111000Y-116373000D01*
X53889000Y-116373000D01*
X53671266Y-116416310D01*
X53466165Y-116501266D01*
X53281579Y-116624602D01*
X53124602Y-116781579D01*
X53001266Y-116966165D01*
X52940445Y-117113000D01*
X48597107Y-117113000D01*
X48543044Y-116982481D01*
X48414236Y-116789706D01*
X48250294Y-116625764D01*
X48057519Y-116496956D01*
X47843318Y-116408231D01*
X47615924Y-116363000D01*
X47384076Y-116363000D01*
X47156682Y-116408231D01*
X46942481Y-116496956D01*
X46749706Y-116625764D01*
X46585764Y-116789706D01*
X46456956Y-116982481D01*
X46368231Y-117196682D01*
X46323000Y-117424076D01*
X41352000Y-117424076D01*
X41352000Y-114150000D01*
X46321418Y-114150000D01*
X46321418Y-115850000D01*
X46327732Y-115914103D01*
X46346430Y-115975743D01*
X46376794Y-116032550D01*
X46417657Y-116082343D01*
X46467450Y-116123206D01*
X46524257Y-116153570D01*
X46585897Y-116172268D01*
X46650000Y-116178582D01*
X48350000Y-116178582D01*
X48414103Y-116172268D01*
X48475743Y-116153570D01*
X48532550Y-116123206D01*
X48582343Y-116082343D01*
X48623206Y-116032550D01*
X48653570Y-115975743D01*
X48672268Y-115914103D01*
X48678582Y-115850000D01*
X48678582Y-114889000D01*
X52873000Y-114889000D01*
X52873000Y-115111000D01*
X52916310Y-115328734D01*
X53001266Y-115533835D01*
X53124602Y-115718421D01*
X53281579Y-115875398D01*
X53466165Y-115998734D01*
X53671266Y-116083690D01*
X53889000Y-116127000D01*
X54111000Y-116127000D01*
X54328734Y-116083690D01*
X54533835Y-115998734D01*
X54718421Y-115875398D01*
X54875398Y-115718421D01*
X54998734Y-115533835D01*
X55083690Y-115328734D01*
X55127000Y-115111000D01*
X55127000Y-114889000D01*
X55083690Y-114671266D01*
X54998734Y-114466165D01*
X54875398Y-114281579D01*
X54718421Y-114124602D01*
X54533835Y-114001266D01*
X54328734Y-113916310D01*
X54111000Y-113873000D01*
X53889000Y-113873000D01*
X53671266Y-113916310D01*
X53466165Y-114001266D01*
X53281579Y-114124602D01*
X53124602Y-114281579D01*
X53001266Y-114466165D01*
X52916310Y-114671266D01*
X52873000Y-114889000D01*
X48678582Y-114889000D01*
X48678582Y-114150000D01*
X48672268Y-114085897D01*
X48653570Y-114024257D01*
X48623206Y-113967450D01*
X48582343Y-113917657D01*
X48532550Y-113876794D01*
X48475743Y-113846430D01*
X48414103Y-113827732D01*
X48350000Y-113821418D01*
X46650000Y-113821418D01*
X46585897Y-113827732D01*
X46524257Y-113846430D01*
X46467450Y-113876794D01*
X46417657Y-113917657D01*
X46376794Y-113967450D01*
X46346430Y-114024257D01*
X46327732Y-114085897D01*
X46321418Y-114150000D01*
X41352000Y-114150000D01*
X41352000Y-101805660D01*
X45598000Y-101805660D01*
X45598000Y-102244340D01*
X45683582Y-102674592D01*
X45851458Y-103079880D01*
X46095176Y-103444630D01*
X46405370Y-103754824D01*
X46770120Y-103998542D01*
X47175408Y-104166418D01*
X47605660Y-104252000D01*
X48044340Y-104252000D01*
X48474592Y-104166418D01*
X48879880Y-103998542D01*
X49244630Y-103754824D01*
X49554824Y-103444630D01*
X49798542Y-103079880D01*
X49966418Y-102674592D01*
X50052000Y-102244340D01*
X50052000Y-101805660D01*
X50030984Y-101700000D01*
X51371418Y-101700000D01*
X51371418Y-103300000D01*
X51377732Y-103364103D01*
X51396430Y-103425743D01*
X51426794Y-103482550D01*
X51467657Y-103532343D01*
X51517450Y-103573206D01*
X51574257Y-103603570D01*
X51635897Y-103622268D01*
X51700000Y-103628582D01*
X53300000Y-103628582D01*
X53364103Y-103622268D01*
X53425743Y-103603570D01*
X53482550Y-103573206D01*
X53532343Y-103532343D01*
X53573206Y-103482550D01*
X53603570Y-103425743D01*
X53622268Y-103364103D01*
X53628582Y-103300000D01*
X53628582Y-101700000D01*
X53622268Y-101635897D01*
X53603570Y-101574257D01*
X53573206Y-101517450D01*
X53532343Y-101467657D01*
X53482550Y-101426794D01*
X53425743Y-101396430D01*
X53364103Y-101377732D01*
X53300000Y-101371418D01*
X51700000Y-101371418D01*
X51635897Y-101377732D01*
X51574257Y-101396430D01*
X51517450Y-101426794D01*
X51467657Y-101467657D01*
X51426794Y-101517450D01*
X51396430Y-101574257D01*
X51377732Y-101635897D01*
X51371418Y-101700000D01*
X50030984Y-101700000D01*
X49966418Y-101375408D01*
X49798542Y-100970120D01*
X49554824Y-100605370D01*
X49244630Y-100295176D01*
X48879880Y-100051458D01*
X48474592Y-99883582D01*
X48044340Y-99798000D01*
X47605660Y-99798000D01*
X47175408Y-99883582D01*
X46770120Y-100051458D01*
X46405370Y-100295176D01*
X46095176Y-100605370D01*
X45851458Y-100970120D01*
X45683582Y-101375408D01*
X45598000Y-101805660D01*
X41352000Y-101805660D01*
X41352000Y-96455660D01*
X45598000Y-96455660D01*
X45598000Y-96894340D01*
X45683582Y-97324592D01*
X45851458Y-97729880D01*
X46095176Y-98094630D01*
X46405370Y-98404824D01*
X46770120Y-98648542D01*
X47175408Y-98816418D01*
X47605660Y-98902000D01*
X48044340Y-98902000D01*
X48474592Y-98816418D01*
X48879880Y-98648542D01*
X49244630Y-98404824D01*
X49554824Y-98094630D01*
X49798542Y-97729880D01*
X49966418Y-97324592D01*
X50052000Y-96894340D01*
X50052000Y-96455660D01*
X49966418Y-96025408D01*
X49798542Y-95620120D01*
X49554824Y-95255370D01*
X49244630Y-94945176D01*
X48879880Y-94701458D01*
X48474592Y-94533582D01*
X48044340Y-94448000D01*
X47605660Y-94448000D01*
X47175408Y-94533582D01*
X46770120Y-94701458D01*
X46405370Y-94945176D01*
X46095176Y-95255370D01*
X45851458Y-95620120D01*
X45683582Y-96025408D01*
X45598000Y-96455660D01*
X41352000Y-96455660D01*
X41352000Y-90889000D01*
X49873000Y-90889000D01*
X49873000Y-91111000D01*
X49916310Y-91328734D01*
X50001266Y-91533835D01*
X50124602Y-91718421D01*
X50281579Y-91875398D01*
X50466165Y-91998734D01*
X50671266Y-92083690D01*
X50889000Y-92127000D01*
X51111000Y-92127000D01*
X51328734Y-92083690D01*
X51533835Y-91998734D01*
X51718421Y-91875398D01*
X51875398Y-91718421D01*
X51998734Y-91533835D01*
X52083690Y-91328734D01*
X52127000Y-91111000D01*
X52127000Y-90889000D01*
X52373000Y-90889000D01*
X52373000Y-91111000D01*
X52416310Y-91328734D01*
X52501266Y-91533835D01*
X52624602Y-91718421D01*
X52781579Y-91875398D01*
X52966165Y-91998734D01*
X53171266Y-92083690D01*
X53389000Y-92127000D01*
X53611000Y-92127000D01*
X53828734Y-92083690D01*
X53935569Y-92039437D01*
X54573001Y-92676871D01*
X54573000Y-101457013D01*
X54466165Y-101501266D01*
X54281579Y-101624602D01*
X54124602Y-101781579D01*
X54001266Y-101966165D01*
X53916310Y-102171266D01*
X53873000Y-102389000D01*
X53873000Y-102611000D01*
X53916310Y-102828734D01*
X54001266Y-103033835D01*
X54124602Y-103218421D01*
X54281579Y-103375398D01*
X54466165Y-103498734D01*
X54671266Y-103583690D01*
X54889000Y-103627000D01*
X55111000Y-103627000D01*
X55328734Y-103583690D01*
X55533835Y-103498734D01*
X55718421Y-103375398D01*
X55875398Y-103218421D01*
X55998734Y-103033835D01*
X56083690Y-102828734D01*
X56127000Y-102611000D01*
X56127000Y-102389000D01*
X56083690Y-102171266D01*
X55998734Y-101966165D01*
X55875398Y-101781579D01*
X55718421Y-101624602D01*
X55533835Y-101501266D01*
X55427000Y-101457013D01*
X55427000Y-93446100D01*
X57205135Y-93446100D01*
X57207201Y-93467077D01*
X57207200Y-120613233D01*
X57205135Y-120634200D01*
X57207200Y-120655167D01*
X57207200Y-120655177D01*
X57213378Y-120717906D01*
X57237795Y-120798395D01*
X57237796Y-120798396D01*
X57277445Y-120872576D01*
X57313337Y-120916310D01*
X57330805Y-120937595D01*
X57347100Y-120950968D01*
X57960563Y-121564431D01*
X57916310Y-121671266D01*
X57873000Y-121889000D01*
X57873000Y-122111000D01*
X57916310Y-122328734D01*
X58001266Y-122533835D01*
X58124602Y-122718421D01*
X58281579Y-122875398D01*
X58466165Y-122998734D01*
X58671266Y-123083690D01*
X58889000Y-123127000D01*
X59111000Y-123127000D01*
X59328734Y-123083690D01*
X59533835Y-122998734D01*
X59718421Y-122875398D01*
X59875398Y-122718421D01*
X59998734Y-122533835D01*
X60083690Y-122328734D01*
X60127000Y-122111000D01*
X60127000Y-121889000D01*
X60083690Y-121671266D01*
X59998734Y-121466165D01*
X59875398Y-121281579D01*
X59718421Y-121124602D01*
X59533835Y-121001266D01*
X59328734Y-120916310D01*
X59111000Y-120873000D01*
X58889000Y-120873000D01*
X58671266Y-120916310D01*
X58564431Y-120960563D01*
X58061200Y-120457332D01*
X58061200Y-117389000D01*
X58373000Y-117389000D01*
X58373000Y-117611000D01*
X58416310Y-117828734D01*
X58501266Y-118033835D01*
X58624602Y-118218421D01*
X58781579Y-118375398D01*
X58966165Y-118498734D01*
X59171266Y-118583690D01*
X59389000Y-118627000D01*
X59611000Y-118627000D01*
X59828734Y-118583690D01*
X60033835Y-118498734D01*
X60218421Y-118375398D01*
X60375398Y-118218421D01*
X60498734Y-118033835D01*
X60583690Y-117828734D01*
X60627000Y-117611000D01*
X60627000Y-117389000D01*
X60583690Y-117171266D01*
X60498734Y-116966165D01*
X60375398Y-116781579D01*
X60218421Y-116624602D01*
X60033835Y-116501266D01*
X59828734Y-116416310D01*
X59611000Y-116373000D01*
X59389000Y-116373000D01*
X59171266Y-116416310D01*
X58966165Y-116501266D01*
X58781579Y-116624602D01*
X58624602Y-116781579D01*
X58501266Y-116966165D01*
X58416310Y-117171266D01*
X58373000Y-117389000D01*
X58061200Y-117389000D01*
X58061200Y-114889000D01*
X58373000Y-114889000D01*
X58373000Y-115111000D01*
X58416310Y-115328734D01*
X58501266Y-115533835D01*
X58624602Y-115718421D01*
X58781579Y-115875398D01*
X58966165Y-115998734D01*
X59171266Y-116083690D01*
X59389000Y-116127000D01*
X59611000Y-116127000D01*
X59828734Y-116083690D01*
X60033835Y-115998734D01*
X60218421Y-115875398D01*
X60375398Y-115718421D01*
X60498734Y-115533835D01*
X60583690Y-115328734D01*
X60627000Y-115111000D01*
X60627000Y-114889000D01*
X60583690Y-114671266D01*
X60498734Y-114466165D01*
X60375398Y-114281579D01*
X60218421Y-114124602D01*
X60033835Y-114001266D01*
X59828734Y-113916310D01*
X59611000Y-113873000D01*
X59389000Y-113873000D01*
X59171266Y-113916310D01*
X58966165Y-114001266D01*
X58781579Y-114124602D01*
X58624602Y-114281579D01*
X58501266Y-114466165D01*
X58416310Y-114671266D01*
X58373000Y-114889000D01*
X58061200Y-114889000D01*
X58061200Y-109775019D01*
X58161579Y-109875398D01*
X58346165Y-109998734D01*
X58551266Y-110083690D01*
X58769000Y-110127000D01*
X58991000Y-110127000D01*
X59208734Y-110083690D01*
X59413835Y-109998734D01*
X59598421Y-109875398D01*
X59755398Y-109718421D01*
X59878734Y-109533835D01*
X59963690Y-109328734D01*
X60007000Y-109111000D01*
X60007000Y-108889000D01*
X59963690Y-108671266D01*
X59878734Y-108466165D01*
X59755398Y-108281579D01*
X59598421Y-108124602D01*
X59413835Y-108001266D01*
X59208734Y-107916310D01*
X58991000Y-107873000D01*
X58769000Y-107873000D01*
X58551266Y-107916310D01*
X58346165Y-108001266D01*
X58161579Y-108124602D01*
X58061200Y-108224981D01*
X58061200Y-104623533D01*
X58124602Y-104718421D01*
X58281579Y-104875398D01*
X58466165Y-104998734D01*
X58671266Y-105083690D01*
X58889000Y-105127000D01*
X59111000Y-105127000D01*
X59328734Y-105083690D01*
X59533835Y-104998734D01*
X59718421Y-104875398D01*
X59875398Y-104718421D01*
X59983326Y-104556894D01*
X64713536Y-109287105D01*
X64726905Y-109303395D01*
X64743195Y-109316764D01*
X64743199Y-109316768D01*
X64791923Y-109356756D01*
X64847927Y-109386689D01*
X64866104Y-109396405D01*
X64946593Y-109420822D01*
X65009322Y-109427000D01*
X65009333Y-109427000D01*
X65030300Y-109429065D01*
X65051267Y-109427000D01*
X65166201Y-109427000D01*
X65166200Y-114089709D01*
X65033835Y-114001266D01*
X64828734Y-113916310D01*
X64611000Y-113873000D01*
X64389000Y-113873000D01*
X64171266Y-113916310D01*
X63966165Y-114001266D01*
X63781579Y-114124602D01*
X63624602Y-114281579D01*
X63501266Y-114466165D01*
X63416310Y-114671266D01*
X63373000Y-114889000D01*
X63373000Y-115111000D01*
X63416310Y-115328734D01*
X63501266Y-115533835D01*
X63624602Y-115718421D01*
X63781579Y-115875398D01*
X63966165Y-115998734D01*
X64171266Y-116083690D01*
X64389000Y-116127000D01*
X64611000Y-116127000D01*
X64828734Y-116083690D01*
X65033835Y-115998734D01*
X65166200Y-115910291D01*
X65166200Y-116229930D01*
X64935568Y-116460562D01*
X64828734Y-116416310D01*
X64611000Y-116373000D01*
X64389000Y-116373000D01*
X64171266Y-116416310D01*
X63966165Y-116501266D01*
X63781579Y-116624602D01*
X63624602Y-116781579D01*
X63501266Y-116966165D01*
X63416310Y-117171266D01*
X63373000Y-117389000D01*
X63373000Y-117611000D01*
X63416310Y-117828734D01*
X63501266Y-118033835D01*
X63624602Y-118218421D01*
X63781579Y-118375398D01*
X63966165Y-118498734D01*
X64073001Y-118542987D01*
X64073000Y-120873000D01*
X63889000Y-120873000D01*
X63671266Y-120916310D01*
X63466165Y-121001266D01*
X63281579Y-121124602D01*
X63124602Y-121281579D01*
X63001266Y-121466165D01*
X62916310Y-121671266D01*
X62873000Y-121889000D01*
X62873000Y-122111000D01*
X62916310Y-122328734D01*
X63001266Y-122533835D01*
X63124602Y-122718421D01*
X63281579Y-122875398D01*
X63466165Y-122998734D01*
X63671266Y-123083690D01*
X63889000Y-123127000D01*
X64111000Y-123127000D01*
X64328734Y-123083690D01*
X64533835Y-122998734D01*
X64718421Y-122875398D01*
X64875398Y-122718421D01*
X64998734Y-122533835D01*
X65083690Y-122328734D01*
X65127000Y-122111000D01*
X65127000Y-121889000D01*
X65083690Y-121671266D01*
X64998734Y-121466165D01*
X64927000Y-121358807D01*
X64927000Y-118542987D01*
X65033835Y-118498734D01*
X65218421Y-118375398D01*
X65375398Y-118218421D01*
X65498734Y-118033835D01*
X65583690Y-117828734D01*
X65627000Y-117611000D01*
X65627000Y-117389000D01*
X65583690Y-117171266D01*
X65539438Y-117064432D01*
X65880312Y-116723558D01*
X65896595Y-116710195D01*
X65909959Y-116693911D01*
X65909968Y-116693902D01*
X65949955Y-116645177D01*
X65971148Y-116605527D01*
X65989605Y-116570996D01*
X66014022Y-116490507D01*
X66020200Y-116427778D01*
X66020200Y-116427766D01*
X66022265Y-116406801D01*
X66020200Y-116385836D01*
X66020200Y-110898849D01*
X69973000Y-110898849D01*
X69973000Y-111101151D01*
X70012467Y-111299565D01*
X70089885Y-111486467D01*
X70202277Y-111654674D01*
X70345326Y-111797723D01*
X70513533Y-111910115D01*
X70700435Y-111987533D01*
X70898849Y-112027000D01*
X71101151Y-112027000D01*
X71299565Y-111987533D01*
X71486467Y-111910115D01*
X71654674Y-111797723D01*
X71797723Y-111654674D01*
X71910115Y-111486467D01*
X71987533Y-111299565D01*
X72027000Y-111101151D01*
X72027000Y-110898849D01*
X71987533Y-110700435D01*
X71910115Y-110513533D01*
X71797723Y-110345326D01*
X71654674Y-110202277D01*
X71486467Y-110089885D01*
X71299565Y-110012467D01*
X71101151Y-109973000D01*
X70898849Y-109973000D01*
X70700435Y-110012467D01*
X70513533Y-110089885D01*
X70345326Y-110202277D01*
X70202277Y-110345326D01*
X70089885Y-110513533D01*
X70012467Y-110700435D01*
X69973000Y-110898849D01*
X66020200Y-110898849D01*
X66020200Y-110021116D01*
X66171266Y-110083690D01*
X66389000Y-110127000D01*
X66611000Y-110127000D01*
X66828734Y-110083690D01*
X67033835Y-109998734D01*
X67218421Y-109875398D01*
X67375398Y-109718421D01*
X67498734Y-109533835D01*
X67583690Y-109328734D01*
X67627000Y-109111000D01*
X67627000Y-108889000D01*
X67583690Y-108671266D01*
X67498734Y-108466165D01*
X67375398Y-108281579D01*
X67218421Y-108124602D01*
X67033835Y-108001266D01*
X66828734Y-107916310D01*
X66611000Y-107873000D01*
X66389000Y-107873000D01*
X66171266Y-107916310D01*
X65966165Y-108001266D01*
X65781579Y-108124602D01*
X65624602Y-108281579D01*
X65501266Y-108466165D01*
X65457013Y-108573000D01*
X65207169Y-108573000D01*
X60523169Y-103889000D01*
X65493000Y-103889000D01*
X65493000Y-104111000D01*
X65536310Y-104328734D01*
X65621266Y-104533835D01*
X65744602Y-104718421D01*
X65901579Y-104875398D01*
X66086165Y-104998734D01*
X66291266Y-105083690D01*
X66509000Y-105127000D01*
X66731000Y-105127000D01*
X66948734Y-105083690D01*
X67153835Y-104998734D01*
X67338421Y-104875398D01*
X67495398Y-104718421D01*
X67618734Y-104533835D01*
X67703690Y-104328734D01*
X67747000Y-104111000D01*
X67747000Y-103889000D01*
X67703690Y-103671266D01*
X67618734Y-103466165D01*
X67495398Y-103281579D01*
X67338421Y-103124602D01*
X67153835Y-103001266D01*
X66948734Y-102916310D01*
X66731000Y-102873000D01*
X66509000Y-102873000D01*
X66291266Y-102916310D01*
X66086165Y-103001266D01*
X65901579Y-103124602D01*
X65744602Y-103281579D01*
X65621266Y-103466165D01*
X65536310Y-103671266D01*
X65493000Y-103889000D01*
X60523169Y-103889000D01*
X60347068Y-103712900D01*
X60333695Y-103696605D01*
X60268676Y-103643245D01*
X60194496Y-103603595D01*
X60114007Y-103579178D01*
X60051278Y-103573000D01*
X60051267Y-103573000D01*
X60042635Y-103572150D01*
X59998734Y-103466165D01*
X59875398Y-103281579D01*
X59718421Y-103124602D01*
X59533835Y-103001266D01*
X59328734Y-102916310D01*
X59111000Y-102873000D01*
X58889000Y-102873000D01*
X58671266Y-102916310D01*
X58466165Y-103001266D01*
X58281579Y-103124602D01*
X58124602Y-103281579D01*
X58061200Y-103376467D01*
X58061200Y-102083533D01*
X58124602Y-102178421D01*
X58281579Y-102335398D01*
X58466165Y-102458734D01*
X58671266Y-102543690D01*
X58889000Y-102587000D01*
X59111000Y-102587000D01*
X59328734Y-102543690D01*
X59533835Y-102458734D01*
X59718421Y-102335398D01*
X59875398Y-102178421D01*
X59998734Y-101993835D01*
X60083690Y-101788734D01*
X60127000Y-101571000D01*
X60127000Y-101349000D01*
X65493000Y-101349000D01*
X65493000Y-101571000D01*
X65536310Y-101788734D01*
X65621266Y-101993835D01*
X65744602Y-102178421D01*
X65901579Y-102335398D01*
X66086165Y-102458734D01*
X66291266Y-102543690D01*
X66509000Y-102587000D01*
X66731000Y-102587000D01*
X66948734Y-102543690D01*
X67153835Y-102458734D01*
X67338421Y-102335398D01*
X67495398Y-102178421D01*
X67618734Y-101993835D01*
X67703690Y-101788734D01*
X67747000Y-101571000D01*
X67747000Y-101349000D01*
X67703690Y-101131266D01*
X67618734Y-100926165D01*
X67495398Y-100741579D01*
X67338421Y-100584602D01*
X67153835Y-100461266D01*
X66948734Y-100376310D01*
X66731000Y-100333000D01*
X66509000Y-100333000D01*
X66291266Y-100376310D01*
X66086165Y-100461266D01*
X65901579Y-100584602D01*
X65744602Y-100741579D01*
X65621266Y-100926165D01*
X65536310Y-101131266D01*
X65493000Y-101349000D01*
X60127000Y-101349000D01*
X60083690Y-101131266D01*
X59998734Y-100926165D01*
X59875398Y-100741579D01*
X59718421Y-100584602D01*
X59556894Y-100476674D01*
X61224568Y-98809000D01*
X65493000Y-98809000D01*
X65493000Y-99031000D01*
X65536310Y-99248734D01*
X65621266Y-99453835D01*
X65744602Y-99638421D01*
X65901579Y-99795398D01*
X66086165Y-99918734D01*
X66291266Y-100003690D01*
X66509000Y-100047000D01*
X66731000Y-100047000D01*
X66948734Y-100003690D01*
X67153835Y-99918734D01*
X67338421Y-99795398D01*
X67495398Y-99638421D01*
X67618734Y-99453835D01*
X67703690Y-99248734D01*
X67747000Y-99031000D01*
X67747000Y-98809000D01*
X67703690Y-98591266D01*
X67618734Y-98386165D01*
X67495398Y-98201579D01*
X67338421Y-98044602D01*
X67153835Y-97921266D01*
X66948734Y-97836310D01*
X66731000Y-97793000D01*
X66509000Y-97793000D01*
X66291266Y-97836310D01*
X66086165Y-97921266D01*
X65901579Y-98044602D01*
X65744602Y-98201579D01*
X65621266Y-98386165D01*
X65536310Y-98591266D01*
X65493000Y-98809000D01*
X61224568Y-98809000D01*
X61827106Y-98206463D01*
X61843395Y-98193095D01*
X61856764Y-98176805D01*
X61856767Y-98176802D01*
X61896755Y-98128077D01*
X61936404Y-98053897D01*
X61936405Y-98053896D01*
X61960822Y-97973407D01*
X61967000Y-97910678D01*
X61967000Y-97910666D01*
X61969065Y-97889701D01*
X61967000Y-97868736D01*
X61967000Y-96269000D01*
X65493000Y-96269000D01*
X65493000Y-96491000D01*
X65536310Y-96708734D01*
X65621266Y-96913835D01*
X65744602Y-97098421D01*
X65901579Y-97255398D01*
X66086165Y-97378734D01*
X66291266Y-97463690D01*
X66509000Y-97507000D01*
X66731000Y-97507000D01*
X66948734Y-97463690D01*
X67153835Y-97378734D01*
X67338421Y-97255398D01*
X67495398Y-97098421D01*
X67618734Y-96913835D01*
X67703690Y-96708734D01*
X67747000Y-96491000D01*
X67747000Y-96269000D01*
X67703690Y-96051266D01*
X67618734Y-95846165D01*
X67521071Y-95700000D01*
X73371418Y-95700000D01*
X73371418Y-97300000D01*
X73377732Y-97364103D01*
X73396430Y-97425743D01*
X73426794Y-97482550D01*
X73467657Y-97532343D01*
X73517450Y-97573206D01*
X73574257Y-97603570D01*
X73635897Y-97622268D01*
X73700000Y-97628582D01*
X75300000Y-97628582D01*
X75364103Y-97622268D01*
X75425743Y-97603570D01*
X75482550Y-97573206D01*
X75532343Y-97532343D01*
X75573206Y-97482550D01*
X75603570Y-97425743D01*
X75622268Y-97364103D01*
X75628582Y-97300000D01*
X75628582Y-96389000D01*
X80993000Y-96389000D01*
X80993000Y-96611000D01*
X81036310Y-96828734D01*
X81121266Y-97033835D01*
X81244602Y-97218421D01*
X81401579Y-97375398D01*
X81586165Y-97498734D01*
X81791266Y-97583690D01*
X82009000Y-97627000D01*
X82231000Y-97627000D01*
X82448734Y-97583690D01*
X82653835Y-97498734D01*
X82838421Y-97375398D01*
X82995398Y-97218421D01*
X83118734Y-97033835D01*
X83203690Y-96828734D01*
X83247000Y-96611000D01*
X83247000Y-96389000D01*
X83203690Y-96171266D01*
X83118734Y-95966165D01*
X82995398Y-95781579D01*
X82838421Y-95624602D01*
X82653835Y-95501266D01*
X82448734Y-95416310D01*
X82231000Y-95373000D01*
X82009000Y-95373000D01*
X81791266Y-95416310D01*
X81586165Y-95501266D01*
X81401579Y-95624602D01*
X81244602Y-95781579D01*
X81121266Y-95966165D01*
X81036310Y-96171266D01*
X80993000Y-96389000D01*
X75628582Y-96389000D01*
X75628582Y-95700000D01*
X75622268Y-95635897D01*
X75603570Y-95574257D01*
X75573206Y-95517450D01*
X75532343Y-95467657D01*
X75482550Y-95426794D01*
X75425743Y-95396430D01*
X75364103Y-95377732D01*
X75300000Y-95371418D01*
X73700000Y-95371418D01*
X73635897Y-95377732D01*
X73574257Y-95396430D01*
X73517450Y-95426794D01*
X73467657Y-95467657D01*
X73426794Y-95517450D01*
X73396430Y-95574257D01*
X73377732Y-95635897D01*
X73371418Y-95700000D01*
X67521071Y-95700000D01*
X67495398Y-95661579D01*
X67338421Y-95504602D01*
X67153835Y-95381266D01*
X66948734Y-95296310D01*
X66731000Y-95253000D01*
X66509000Y-95253000D01*
X66291266Y-95296310D01*
X66086165Y-95381266D01*
X65901579Y-95504602D01*
X65744602Y-95661579D01*
X65621266Y-95846165D01*
X65536310Y-96051266D01*
X65493000Y-96269000D01*
X61967000Y-96269000D01*
X61967000Y-92097107D01*
X62097519Y-92043044D01*
X62290294Y-91914236D01*
X62454236Y-91750294D01*
X62583044Y-91557519D01*
X62671769Y-91343318D01*
X62717000Y-91115924D01*
X62717000Y-90884076D01*
X62903000Y-90884076D01*
X62903000Y-91115924D01*
X62948231Y-91343318D01*
X63036956Y-91557519D01*
X63165764Y-91750294D01*
X63329706Y-91914236D01*
X63522481Y-92043044D01*
X63736682Y-92131769D01*
X63964076Y-92177000D01*
X64195924Y-92177000D01*
X64423318Y-92131769D01*
X64637519Y-92043044D01*
X64830294Y-91914236D01*
X64994236Y-91750294D01*
X65123044Y-91557519D01*
X65211769Y-91343318D01*
X65257000Y-91115924D01*
X65257000Y-90884076D01*
X65211769Y-90656682D01*
X65123044Y-90442481D01*
X64994236Y-90249706D01*
X64830294Y-90085764D01*
X64637519Y-89956956D01*
X64423318Y-89868231D01*
X64195924Y-89823000D01*
X63964076Y-89823000D01*
X63736682Y-89868231D01*
X63522481Y-89956956D01*
X63329706Y-90085764D01*
X63165764Y-90249706D01*
X63036956Y-90442481D01*
X62948231Y-90656682D01*
X62903000Y-90884076D01*
X62717000Y-90884076D01*
X62671769Y-90656682D01*
X62583044Y-90442481D01*
X62454236Y-90249706D01*
X62290294Y-90085764D01*
X62097519Y-89956956D01*
X61883318Y-89868231D01*
X61655924Y-89823000D01*
X61424076Y-89823000D01*
X61196682Y-89868231D01*
X60982481Y-89956956D01*
X60789706Y-90085764D01*
X60625764Y-90249706D01*
X60496956Y-90442481D01*
X60408231Y-90656682D01*
X60363000Y-90884076D01*
X60363000Y-91115924D01*
X60408231Y-91343318D01*
X60496956Y-91557519D01*
X60625764Y-91750294D01*
X60789706Y-91914236D01*
X60982481Y-92043044D01*
X61113001Y-92097107D01*
X61113000Y-97712831D01*
X60108722Y-98717110D01*
X60083690Y-98591266D01*
X59998734Y-98386165D01*
X59875398Y-98201579D01*
X59718421Y-98044602D01*
X59533835Y-97921266D01*
X59328734Y-97836310D01*
X59111000Y-97793000D01*
X58889000Y-97793000D01*
X58671266Y-97836310D01*
X58466165Y-97921266D01*
X58281579Y-98044602D01*
X58124602Y-98201579D01*
X58061200Y-98296467D01*
X58061200Y-97476591D01*
X58074257Y-97483570D01*
X58135897Y-97502268D01*
X58200000Y-97508582D01*
X59800000Y-97508582D01*
X59864103Y-97502268D01*
X59925743Y-97483570D01*
X59982550Y-97453206D01*
X60032343Y-97412343D01*
X60073206Y-97362550D01*
X60103570Y-97305743D01*
X60122268Y-97244103D01*
X60128582Y-97180000D01*
X60128582Y-95580000D01*
X60122268Y-95515897D01*
X60103570Y-95454257D01*
X60073206Y-95397450D01*
X60032343Y-95347657D01*
X59982550Y-95306794D01*
X59925743Y-95276430D01*
X59864103Y-95257732D01*
X59800000Y-95251418D01*
X58200000Y-95251418D01*
X58135897Y-95257732D01*
X58074257Y-95276430D01*
X58061200Y-95283409D01*
X58061200Y-93622968D01*
X59287105Y-92397064D01*
X59303395Y-92383695D01*
X59316764Y-92367405D01*
X59316768Y-92367401D01*
X59356755Y-92318677D01*
X59396404Y-92244497D01*
X59396405Y-92244496D01*
X59416401Y-92178582D01*
X59850000Y-92178582D01*
X59914103Y-92172268D01*
X59975743Y-92153570D01*
X60032550Y-92123206D01*
X60082343Y-92082343D01*
X60123206Y-92032550D01*
X60153570Y-91975743D01*
X60172268Y-91914103D01*
X60178582Y-91850000D01*
X60178582Y-90150000D01*
X60172268Y-90085897D01*
X60153570Y-90024257D01*
X60123206Y-89967450D01*
X60082343Y-89917657D01*
X60032550Y-89876794D01*
X59975743Y-89846430D01*
X59914103Y-89827732D01*
X59850000Y-89821418D01*
X58150000Y-89821418D01*
X58085897Y-89827732D01*
X58024257Y-89846430D01*
X57967450Y-89876794D01*
X57917657Y-89917657D01*
X57876794Y-89967450D01*
X57846430Y-90024257D01*
X57827732Y-90085897D01*
X57821418Y-90150000D01*
X57821418Y-91850000D01*
X57827732Y-91914103D01*
X57846430Y-91975743D01*
X57876794Y-92032550D01*
X57917657Y-92082343D01*
X57967450Y-92123206D01*
X58024257Y-92153570D01*
X58085897Y-92172268D01*
X58150000Y-92178582D01*
X58297849Y-92178582D01*
X57347095Y-93129336D01*
X57330806Y-93142705D01*
X57317437Y-93158995D01*
X57317432Y-93159000D01*
X57277445Y-93207724D01*
X57237796Y-93281904D01*
X57213379Y-93362394D01*
X57205135Y-93446100D01*
X55427000Y-93446100D01*
X55427000Y-92520964D01*
X55429065Y-92499999D01*
X55427000Y-92479034D01*
X55427000Y-92479022D01*
X55420822Y-92416293D01*
X55396405Y-92335804D01*
X55377948Y-92301273D01*
X55356755Y-92261623D01*
X55316768Y-92212898D01*
X55316759Y-92212889D01*
X55303395Y-92196605D01*
X55287111Y-92183241D01*
X54539437Y-91435569D01*
X54583690Y-91328734D01*
X54627000Y-91111000D01*
X54627000Y-90889000D01*
X54583690Y-90671266D01*
X54498734Y-90466165D01*
X54375398Y-90281579D01*
X54218421Y-90124602D01*
X54033835Y-90001266D01*
X53828734Y-89916310D01*
X53611000Y-89873000D01*
X53389000Y-89873000D01*
X53171266Y-89916310D01*
X52966165Y-90001266D01*
X52781579Y-90124602D01*
X52624602Y-90281579D01*
X52501266Y-90466165D01*
X52416310Y-90671266D01*
X52373000Y-90889000D01*
X52127000Y-90889000D01*
X52083690Y-90671266D01*
X51998734Y-90466165D01*
X51875398Y-90281579D01*
X51718421Y-90124602D01*
X51533835Y-90001266D01*
X51328734Y-89916310D01*
X51111000Y-89873000D01*
X50889000Y-89873000D01*
X50671266Y-89916310D01*
X50466165Y-90001266D01*
X50281579Y-90124602D01*
X50124602Y-90281579D01*
X50001266Y-90466165D01*
X49916310Y-90671266D01*
X49873000Y-90889000D01*
X41352000Y-90889000D01*
X41352000Y-85352000D01*
X110648000Y-85352000D01*
X110648001Y-139148000D01*
G37*
%TD.AperFunction*%
D25*
X80093533Y-118410115D02*
X80151304Y-118434045D01*
X80159179Y-118514006D01*
X80183596Y-118594496D01*
X80223245Y-118668676D01*
X80263232Y-118717400D01*
X80263237Y-118717405D01*
X80276606Y-118733695D01*
X80292896Y-118747064D01*
X82603401Y-121057570D01*
X82603400Y-126371418D01*
X82427000Y-126371418D01*
X82427000Y-122940964D01*
X82429065Y-122919999D01*
X82427000Y-122899034D01*
X82427000Y-122899022D01*
X82420822Y-122836293D01*
X82396405Y-122755804D01*
X82356756Y-122681625D01*
X82356755Y-122681623D01*
X82316768Y-122632898D01*
X82316759Y-122632889D01*
X82303395Y-122616605D01*
X82287112Y-122603242D01*
X81542901Y-121859032D01*
X81567533Y-121799565D01*
X81607000Y-121601151D01*
X81607000Y-121398849D01*
X81567533Y-121200435D01*
X81490115Y-121013533D01*
X81377723Y-120845326D01*
X81234674Y-120702277D01*
X81066467Y-120589885D01*
X80879565Y-120512467D01*
X80681151Y-120473000D01*
X80478849Y-120473000D01*
X80280435Y-120512467D01*
X80093533Y-120589885D01*
X80076700Y-120601132D01*
X80076700Y-118398868D01*
X80093533Y-118410115D01*
%TA.AperFunction,Conductor*%
D26*
G36*
X80093533Y-118410115D02*
G01*
X80151304Y-118434045D01*
X80159179Y-118514006D01*
X80183596Y-118594496D01*
X80223245Y-118668676D01*
X80263232Y-118717400D01*
X80263237Y-118717405D01*
X80276606Y-118733695D01*
X80292896Y-118747064D01*
X82603401Y-121057570D01*
X82603400Y-126371418D01*
X82427000Y-126371418D01*
X82427000Y-122940964D01*
X82429065Y-122919999D01*
X82427000Y-122899034D01*
X82427000Y-122899022D01*
X82420822Y-122836293D01*
X82396405Y-122755804D01*
X82356756Y-122681625D01*
X82356755Y-122681623D01*
X82316768Y-122632898D01*
X82316759Y-122632889D01*
X82303395Y-122616605D01*
X82287112Y-122603242D01*
X81542901Y-121859032D01*
X81567533Y-121799565D01*
X81607000Y-121601151D01*
X81607000Y-121398849D01*
X81567533Y-121200435D01*
X81490115Y-121013533D01*
X81377723Y-120845326D01*
X81234674Y-120702277D01*
X81066467Y-120589885D01*
X80879565Y-120512467D01*
X80681151Y-120473000D01*
X80478849Y-120473000D01*
X80280435Y-120512467D01*
X80093533Y-120589885D01*
X80076700Y-120601132D01*
X80076700Y-118398868D01*
X80093533Y-118410115D01*
G37*
%TD.AperFunction*%
%TD*%
M02*
