%TF.GenerationSoftware,KiCad,Pcbnew,5.1.10*%
%TF.CreationDate,2021-06-30T12:24:21+02:00*%
%TF.ProjectId,9v-preamp,39762d70-7265-4616-9d70-2e6b69636164,rev?*%
%TF.SameCoordinates,Original*%
%TF.FileFunction,Copper,L1,Top*%
%TF.FilePolarity,Positive*%
%FSLAX46Y46*%
G04 Gerber Fmt 4.6, Leading zero omitted, Abs format (unit mm)*
G04 Created by KiCad (PCBNEW 5.1.10) date 2021-06-30 12:24:21*
%MOMM*%
%LPD*%
G01*
G04 APERTURE LIST*
%TA.AperFunction,ComponentPad*%
%ADD10C,3.800000*%
%TD*%
%TA.AperFunction,ComponentPad*%
%ADD11C,1.600000*%
%TD*%
%TA.AperFunction,ComponentPad*%
%ADD12O,1.600000X1.600000*%
%TD*%
%TA.AperFunction,ComponentPad*%
%ADD13O,1.700000X1.700000*%
%TD*%
%TA.AperFunction,ComponentPad*%
%ADD14R,1.700000X1.700000*%
%TD*%
%TA.AperFunction,ComponentPad*%
%ADD15R,1.350000X1.350000*%
%TD*%
%TA.AperFunction,ComponentPad*%
%ADD16O,1.350000X1.350000*%
%TD*%
%TA.AperFunction,ComponentPad*%
%ADD17R,1.800000X1.800000*%
%TD*%
%TA.AperFunction,ComponentPad*%
%ADD18C,1.800000*%
%TD*%
%TA.AperFunction,ComponentPad*%
%ADD19R,1.600000X1.600000*%
%TD*%
%TA.AperFunction,ComponentPad*%
%ADD20C,3.500000*%
%TD*%
%TA.AperFunction,ComponentPad*%
%ADD21C,1.400000*%
%TD*%
%TA.AperFunction,ComponentPad*%
%ADD22O,1.400000X1.400000*%
%TD*%
%TA.AperFunction,ViaPad*%
%ADD23C,0.800000*%
%TD*%
%TA.AperFunction,Conductor*%
%ADD24C,0.800000*%
%TD*%
%TA.AperFunction,Conductor*%
%ADD25C,0.254000*%
%TD*%
%TA.AperFunction,Conductor*%
%ADD26C,0.100000*%
%TD*%
G04 APERTURE END LIST*
D10*
%TO.P,J8,1*%
%TO.N,Earth*%
X45500000Y-89000000D03*
%TD*%
%TO.P,J9,1*%
%TO.N,Earth*%
X107000000Y-89000000D03*
%TD*%
%TO.P,J7,1*%
%TO.N,Earth*%
X107000000Y-135500000D03*
%TD*%
%TO.P,J6,1*%
%TO.N,Earth*%
X45500000Y-135500000D03*
%TD*%
D11*
%TO.P,R1,1*%
%TO.N,Net-(C7-Pad1)*%
X58880000Y-109000000D03*
D12*
%TO.P,R1,2*%
%TO.N,V-*%
X66500000Y-109000000D03*
%TD*%
D11*
%TO.P,C7,1*%
%TO.N,Net-(C7-Pad1)*%
X51000000Y-91000000D03*
%TO.P,C7,2*%
%TO.N,Net-(C1-Pad2)*%
X53500000Y-91000000D03*
%TD*%
D13*
%TO.P,BT1,2*%
%TO.N,V-*%
X47500000Y-117540000D03*
D14*
%TO.P,BT1,1*%
%TO.N,Net-(BT1-Pad1)*%
X47500000Y-115000000D03*
%TD*%
D11*
%TO.P,C4,2*%
%TO.N,V-*%
X54000000Y-117500000D03*
%TO.P,C4,1*%
%TO.N,Net-(C2-Pad2)*%
X54000000Y-115000000D03*
%TD*%
%TO.P,C2,2*%
%TO.N,Net-(C2-Pad2)*%
X97500000Y-119500000D03*
%TO.P,C2,1*%
%TO.N,V-*%
X95000000Y-119500000D03*
%TD*%
%TO.P,C3,1*%
%TO.N,V-*%
X94500000Y-128000000D03*
%TO.P,C3,2*%
%TO.N,Net-(C2-Pad2)*%
X94500000Y-125500000D03*
%TD*%
D15*
%TO.P,SW1,1*%
%TO.N,Net-(BT1-Pad1)*%
X47500000Y-122500000D03*
D16*
%TO.P,SW1,2*%
%TO.N,Net-(C2-Pad2)*%
X47500000Y-124500000D03*
%TD*%
D10*
%TO.P,J2,1*%
%TO.N,V-*%
X47825000Y-96675000D03*
%TD*%
%TO.P,J1,1*%
%TO.N,Net-(C1-Pad1)*%
X47825000Y-102025000D03*
%TD*%
D14*
%TO.P,RV1,1*%
%TO.N,+out*%
X59000000Y-91000000D03*
D13*
%TO.P,RV1,2*%
%TO.N,Net-(RV1-Pad2)*%
X61540000Y-91000000D03*
%TO.P,RV1,3*%
%TO.N,V-*%
X64080000Y-91000000D03*
%TD*%
D17*
%TO.P,D1,1*%
%TO.N,V-*%
X101500000Y-127500000D03*
D18*
%TO.P,D1,2*%
%TO.N,Net-(C2-Pad2)*%
X101500000Y-124960000D03*
%TD*%
D11*
%TO.P,C6,1*%
%TO.N,V-*%
X54000000Y-122000000D03*
%TO.P,C6,2*%
%TO.N,Net-(C2-Pad2)*%
X54000000Y-124500000D03*
%TD*%
D19*
%TO.P,C1,1*%
%TO.N,Net-(C1-Pad1)*%
X52500000Y-102500000D03*
D11*
%TO.P,C1,2*%
%TO.N,Net-(C1-Pad2)*%
X55000000Y-102500000D03*
%TD*%
D19*
%TO.P,C5,1*%
%TO.N,Net-(C2-Pad2)*%
X55000000Y-133500000D03*
D11*
%TO.P,C5,2*%
%TO.N,V-*%
X51500000Y-133500000D03*
%TD*%
%TO.P,C8,1*%
%TO.N,VCC*%
X59500000Y-115000000D03*
%TO.P,C8,2*%
%TO.N,V-*%
X59500000Y-117500000D03*
%TD*%
%TO.P,C9,2*%
%TO.N,Net-(C9-Pad2)*%
X59000000Y-124500000D03*
%TO.P,C9,1*%
%TO.N,+out*%
X59000000Y-122000000D03*
%TD*%
%TO.P,C10,2*%
%TO.N,Net-(C10-Pad2)*%
X64000000Y-124500000D03*
%TO.P,C10,1*%
%TO.N,V-*%
X64000000Y-122000000D03*
%TD*%
%TO.P,C11,1*%
%TO.N,Net-(C11-Pad1)*%
X64500000Y-115000000D03*
%TO.P,C11,2*%
%TO.N,V-*%
X64500000Y-117500000D03*
%TD*%
D12*
%TO.P,D2,2*%
%TO.N,Net-(D2-Pad2)*%
X74380000Y-127500000D03*
D19*
%TO.P,D2,1*%
%TO.N,VCC*%
X82000000Y-127500000D03*
%TD*%
%TO.P,D3,1*%
%TO.N,Net-(D2-Pad2)*%
X74380000Y-134000000D03*
D12*
%TO.P,D3,2*%
%TO.N,V-*%
X82000000Y-134000000D03*
%TD*%
D20*
%TO.P,J3,1*%
%TO.N,Net-(D2-Pad2)*%
X98000000Y-105000000D03*
%TD*%
%TO.P,J4,1*%
%TO.N,V-*%
X98000000Y-111000000D03*
%TD*%
D10*
%TO.P,J5,1*%
%TO.N,Earth*%
X98000000Y-99500000D03*
%TD*%
D21*
%TO.P,R2,1*%
%TO.N,VCC*%
X80580000Y-121500000D03*
D22*
%TO.P,R2,2*%
%TO.N,Net-(C11-Pad1)*%
X75500000Y-121500000D03*
%TD*%
%TO.P,R3,2*%
%TO.N,Net-(D2-Pad2)*%
X80580000Y-114000000D03*
D21*
%TO.P,R3,1*%
%TO.N,Net-(C11-Pad1)*%
X75500000Y-114000000D03*
%TD*%
D22*
%TO.P,R4,2*%
%TO.N,Net-(R4-Pad2)*%
X71000000Y-111000000D03*
D21*
%TO.P,R4,1*%
%TO.N,Net-(C9-Pad2)*%
X71000000Y-116080000D03*
%TD*%
%TO.P,R5,1*%
%TO.N,Net-(C10-Pad2)*%
X80500000Y-111000000D03*
D22*
%TO.P,R5,2*%
%TO.N,Net-(R5-Pad2)*%
X75420000Y-111000000D03*
%TD*%
%TO.P,R6,2*%
%TO.N,V-*%
X80580000Y-117500000D03*
D21*
%TO.P,R6,1*%
%TO.N,Net-(C11-Pad1)*%
X75500000Y-117500000D03*
%TD*%
%TO.P,R7,1*%
%TO.N,Net-(R4-Pad2)*%
X85000000Y-116080000D03*
D22*
%TO.P,R7,2*%
%TO.N,Net-(R5-Pad2)*%
X85000000Y-111000000D03*
%TD*%
D19*
%TO.P,U2,1*%
%TO.N,Net-(U2-Pad1)*%
X74500000Y-96500000D03*
D12*
%TO.P,U2,5*%
%TO.N,Net-(U2-Pad5)*%
X82120000Y-104120000D03*
%TO.P,U2,2*%
%TO.N,Net-(R5-Pad2)*%
X74500000Y-99040000D03*
%TO.P,U2,6*%
%TO.N,Net-(R4-Pad2)*%
X82120000Y-101580000D03*
%TO.P,U2,3*%
%TO.N,Net-(D2-Pad2)*%
X74500000Y-101580000D03*
%TO.P,U2,7*%
%TO.N,VCC*%
X82120000Y-99040000D03*
%TO.P,U2,4*%
%TO.N,V-*%
X74500000Y-104120000D03*
%TO.P,U2,8*%
%TO.N,Net-(U2-Pad8)*%
X82120000Y-96500000D03*
%TD*%
D19*
%TO.P,U1,1*%
%TO.N,Net-(U1-Pad1)*%
X59000000Y-96380000D03*
D12*
%TO.P,U1,5*%
%TO.N,Net-(C1-Pad2)*%
X66620000Y-104000000D03*
%TO.P,U1,2*%
%TO.N,V-*%
X59000000Y-98920000D03*
%TO.P,U1,6*%
%TO.N,VCC*%
X66620000Y-101460000D03*
%TO.P,U1,3*%
%TO.N,Net-(RV1-Pad2)*%
X59000000Y-101460000D03*
%TO.P,U1,7*%
%TO.N,Net-(U1-Pad7)*%
X66620000Y-98920000D03*
%TO.P,U1,4*%
%TO.N,V-*%
X59000000Y-104000000D03*
%TO.P,U1,8*%
%TO.N,Net-(U1-Pad8)*%
X66620000Y-96380000D03*
%TD*%
D23*
%TO.N,Earth*%
X77500000Y-117500000D03*
X78000000Y-124000000D03*
X81600000Y-120200000D03*
X78600000Y-111200000D03*
%TD*%
D24*
%TO.N,Net-(C7-Pad1)*%
X51000000Y-91000000D02*
X49998300Y-91000000D01*
X49998300Y-91000000D02*
X45362300Y-95636000D01*
X45362300Y-95636000D02*
X45362300Y-103029500D01*
X45362300Y-103029500D02*
X51332800Y-109000000D01*
X51332800Y-109000000D02*
X58880000Y-109000000D01*
%TO.N,Net-(R5-Pad2)*%
X85000000Y-111000000D02*
X83500000Y-111000000D01*
X75420000Y-111000000D02*
X76920000Y-111000000D01*
X76920000Y-111000000D02*
X78179200Y-109740800D01*
X78179200Y-109740800D02*
X82240800Y-109740800D01*
X82240800Y-109740800D02*
X83500000Y-111000000D01*
%TO.N,VCC*%
X59500000Y-115000000D02*
X64000100Y-119500100D01*
X64000100Y-119500100D02*
X78580100Y-119500100D01*
X78580100Y-119500100D02*
X80580000Y-121500000D01*
X82120000Y-99040000D02*
X80520000Y-99040000D01*
X66620000Y-101460000D02*
X68220000Y-101460000D01*
X68220000Y-101460000D02*
X68220000Y-100360000D01*
X68220000Y-100360000D02*
X73410400Y-95169600D01*
X73410400Y-95169600D02*
X76649600Y-95169600D01*
X76649600Y-95169600D02*
X80520000Y-99040000D01*
X82000000Y-127500000D02*
X82000000Y-122920000D01*
X82000000Y-122920000D02*
X80580000Y-121500000D01*
%TO.N,Net-(C11-Pad1)*%
X75500000Y-114000000D02*
X65500000Y-114000000D01*
X65500000Y-114000000D02*
X64500000Y-115000000D01*
%TO.N,Net-(C1-Pad1)*%
X52500000Y-102500000D02*
X48300000Y-102500000D01*
X48300000Y-102500000D02*
X47825000Y-102025000D01*
%TO.N,Net-(C1-Pad2)*%
X66620000Y-104000000D02*
X65020000Y-104000000D01*
X65020000Y-104000000D02*
X63663500Y-105356500D01*
X63663500Y-105356500D02*
X57856500Y-105356500D01*
X57856500Y-105356500D02*
X55000000Y-102500000D01*
%TO.N,Net-(C2-Pad2)*%
X55669600Y-126169600D02*
X54000000Y-124500000D01*
X94500000Y-125500000D02*
X89573000Y-125500000D01*
X89573000Y-125500000D02*
X86242600Y-128830400D01*
X86242600Y-128830400D02*
X78711900Y-128830400D01*
X78711900Y-128830400D02*
X76051100Y-126169600D01*
X76051100Y-126169600D02*
X55669600Y-126169600D01*
X55000000Y-133500000D02*
X55000000Y-126839200D01*
X55000000Y-126839200D02*
X55669600Y-126169600D01*
X54000000Y-124500000D02*
X48975000Y-124500000D01*
X47500000Y-124500000D02*
X48975000Y-124500000D01*
%TO.N,Net-(D2-Pad2)*%
X74500000Y-101580000D02*
X76100000Y-101580000D01*
X76100000Y-101580000D02*
X79990900Y-105470900D01*
X79990900Y-105470900D02*
X97529100Y-105470900D01*
X97529100Y-105470900D02*
X98000000Y-105000000D01*
X74380000Y-134000000D02*
X74380000Y-127500000D01*
%TO.N,Net-(R4-Pad2)*%
X71000000Y-111000000D02*
X72500000Y-111000000D01*
X85000000Y-116080000D02*
X81460000Y-112540000D01*
X81460000Y-112540000D02*
X74040000Y-112540000D01*
X74040000Y-112540000D02*
X72500000Y-111000000D01*
%TO.N,V-*%
X57611700Y-98920000D02*
X59000000Y-98920000D01*
X47825000Y-96675000D02*
X50070000Y-98920000D01*
X50070000Y-98920000D02*
X57611700Y-98920000D01*
X59000000Y-104000000D02*
X57611700Y-102611700D01*
X57611700Y-102611700D02*
X57611700Y-98920000D01*
X101500000Y-127500000D02*
X99800000Y-127500000D01*
X94500000Y-128000000D02*
X99300000Y-128000000D01*
X99300000Y-128000000D02*
X99800000Y-127500000D01*
X83600000Y-134000000D02*
X89600000Y-128000000D01*
X89600000Y-128000000D02*
X94500000Y-128000000D01*
X93000000Y-117500000D02*
X80580000Y-117500000D01*
X95000000Y-119500000D02*
X93000000Y-117500000D01*
X98000000Y-111000000D02*
X93000000Y-116000000D01*
X93000000Y-116000000D02*
X93000000Y-117500000D01*
X59000000Y-98920000D02*
X64080000Y-93840000D01*
X64080000Y-93840000D02*
X64080000Y-91000000D01*
X82000000Y-134000000D02*
X83600000Y-134000000D01*
X54000000Y-117540000D02*
X54000000Y-117500000D01*
X54000000Y-122000000D02*
X54000000Y-117540000D01*
X54000000Y-117540000D02*
X49150000Y-117540000D01*
X47500000Y-117540000D02*
X49150000Y-117540000D01*
X59500000Y-117500000D02*
X54000000Y-117500000D01*
X64000000Y-122000000D02*
X59500000Y-117500000D01*
X66500000Y-109000000D02*
X68100000Y-109000000D01*
X74500000Y-104120000D02*
X72900000Y-104120000D01*
X72900000Y-104120000D02*
X68100000Y-108920000D01*
X68100000Y-108920000D02*
X68100000Y-109000000D01*
%TD*%
D25*
%TO.N,Earth*%
X110648001Y-139148000D02*
X41352000Y-139148000D01*
X41352000Y-133389000D01*
X50373000Y-133389000D01*
X50373000Y-133611000D01*
X50416310Y-133828734D01*
X50501266Y-134033835D01*
X50624602Y-134218421D01*
X50781579Y-134375398D01*
X50966165Y-134498734D01*
X51171266Y-134583690D01*
X51389000Y-134627000D01*
X51611000Y-134627000D01*
X51828734Y-134583690D01*
X52033835Y-134498734D01*
X52218421Y-134375398D01*
X52375398Y-134218421D01*
X52498734Y-134033835D01*
X52583690Y-133828734D01*
X52627000Y-133611000D01*
X52627000Y-133389000D01*
X52583690Y-133171266D01*
X52498734Y-132966165D01*
X52375398Y-132781579D01*
X52218421Y-132624602D01*
X52033835Y-132501266D01*
X51828734Y-132416310D01*
X51611000Y-132373000D01*
X51389000Y-132373000D01*
X51171266Y-132416310D01*
X50966165Y-132501266D01*
X50781579Y-132624602D01*
X50624602Y-132781579D01*
X50501266Y-132966165D01*
X50416310Y-133171266D01*
X50373000Y-133389000D01*
X41352000Y-133389000D01*
X41352000Y-117424076D01*
X46323000Y-117424076D01*
X46323000Y-117655924D01*
X46368231Y-117883318D01*
X46456956Y-118097519D01*
X46585764Y-118290294D01*
X46749706Y-118454236D01*
X46942481Y-118583044D01*
X47156682Y-118671769D01*
X47384076Y-118717000D01*
X47615924Y-118717000D01*
X47843318Y-118671769D01*
X48057519Y-118583044D01*
X48250294Y-118454236D01*
X48414236Y-118290294D01*
X48429801Y-118267000D01*
X53173181Y-118267000D01*
X53273001Y-118366820D01*
X53273000Y-121133181D01*
X53124602Y-121281579D01*
X53001266Y-121466165D01*
X52916310Y-121671266D01*
X52873000Y-121889000D01*
X52873000Y-122111000D01*
X52916310Y-122328734D01*
X53001266Y-122533835D01*
X53124602Y-122718421D01*
X53281579Y-122875398D01*
X53466165Y-122998734D01*
X53671266Y-123083690D01*
X53889000Y-123127000D01*
X54111000Y-123127000D01*
X54328734Y-123083690D01*
X54533835Y-122998734D01*
X54718421Y-122875398D01*
X54875398Y-122718421D01*
X54998734Y-122533835D01*
X55083690Y-122328734D01*
X55127000Y-122111000D01*
X55127000Y-121889000D01*
X57873000Y-121889000D01*
X57873000Y-122111000D01*
X57916310Y-122328734D01*
X58001266Y-122533835D01*
X58124602Y-122718421D01*
X58281579Y-122875398D01*
X58466165Y-122998734D01*
X58671266Y-123083690D01*
X58889000Y-123127000D01*
X59111000Y-123127000D01*
X59328734Y-123083690D01*
X59533835Y-122998734D01*
X59718421Y-122875398D01*
X59875398Y-122718421D01*
X59998734Y-122533835D01*
X60083690Y-122328734D01*
X60127000Y-122111000D01*
X60127000Y-121889000D01*
X60083690Y-121671266D01*
X59998734Y-121466165D01*
X59875398Y-121281579D01*
X59718421Y-121124602D01*
X59533835Y-121001266D01*
X59328734Y-120916310D01*
X59111000Y-120873000D01*
X58889000Y-120873000D01*
X58671266Y-120916310D01*
X58466165Y-121001266D01*
X58281579Y-121124602D01*
X58124602Y-121281579D01*
X58001266Y-121466165D01*
X57916310Y-121671266D01*
X57873000Y-121889000D01*
X55127000Y-121889000D01*
X55083690Y-121671266D01*
X54998734Y-121466165D01*
X54875398Y-121281579D01*
X54727000Y-121133181D01*
X54727000Y-118366819D01*
X54866819Y-118227000D01*
X58633181Y-118227000D01*
X58781579Y-118375398D01*
X58966165Y-118498734D01*
X59171266Y-118583690D01*
X59389000Y-118627000D01*
X59598868Y-118627000D01*
X62873000Y-121901133D01*
X62873000Y-122111000D01*
X62916310Y-122328734D01*
X63001266Y-122533835D01*
X63124602Y-122718421D01*
X63281579Y-122875398D01*
X63466165Y-122998734D01*
X63671266Y-123083690D01*
X63889000Y-123127000D01*
X64111000Y-123127000D01*
X64328734Y-123083690D01*
X64533835Y-122998734D01*
X64718421Y-122875398D01*
X64875398Y-122718421D01*
X64998734Y-122533835D01*
X65083690Y-122328734D01*
X65127000Y-122111000D01*
X65127000Y-121889000D01*
X65083690Y-121671266D01*
X64998734Y-121466165D01*
X64953756Y-121398849D01*
X74473000Y-121398849D01*
X74473000Y-121601151D01*
X74512467Y-121799565D01*
X74589885Y-121986467D01*
X74702277Y-122154674D01*
X74845326Y-122297723D01*
X75013533Y-122410115D01*
X75200435Y-122487533D01*
X75398849Y-122527000D01*
X75601151Y-122527000D01*
X75799565Y-122487533D01*
X75986467Y-122410115D01*
X76154674Y-122297723D01*
X76297723Y-122154674D01*
X76410115Y-121986467D01*
X76487533Y-121799565D01*
X76527000Y-121601151D01*
X76527000Y-121398849D01*
X76487533Y-121200435D01*
X76410115Y-121013533D01*
X76297723Y-120845326D01*
X76154674Y-120702277D01*
X75986467Y-120589885D01*
X75799565Y-120512467D01*
X75601151Y-120473000D01*
X75398849Y-120473000D01*
X75200435Y-120512467D01*
X75013533Y-120589885D01*
X74845326Y-120702277D01*
X74702277Y-120845326D01*
X74589885Y-121013533D01*
X74512467Y-121200435D01*
X74473000Y-121398849D01*
X64953756Y-121398849D01*
X64875398Y-121281579D01*
X64718421Y-121124602D01*
X64533835Y-121001266D01*
X64328734Y-120916310D01*
X64111000Y-120873000D01*
X63901133Y-120873000D01*
X60627000Y-117598868D01*
X60627000Y-117389000D01*
X60583690Y-117171266D01*
X60541657Y-117069789D01*
X63460779Y-119988912D01*
X63483546Y-120016654D01*
X63594247Y-120107503D01*
X63720543Y-120175010D01*
X63857583Y-120216580D01*
X63964392Y-120227100D01*
X63964394Y-120227100D01*
X64000099Y-120230617D01*
X64035805Y-120227100D01*
X78278968Y-120227100D01*
X79553000Y-121501133D01*
X79553000Y-121601151D01*
X79592467Y-121799565D01*
X79669885Y-121986467D01*
X79782277Y-122154674D01*
X79925326Y-122297723D01*
X80093533Y-122410115D01*
X80280435Y-122487533D01*
X80478849Y-122527000D01*
X80578868Y-122527000D01*
X81273001Y-123221134D01*
X81273000Y-126371418D01*
X81200000Y-126371418D01*
X81135897Y-126377732D01*
X81074257Y-126396430D01*
X81017450Y-126426794D01*
X80967657Y-126467657D01*
X80926794Y-126517450D01*
X80896430Y-126574257D01*
X80877732Y-126635897D01*
X80871418Y-126700000D01*
X80871418Y-128103400D01*
X79013033Y-128103400D01*
X76590426Y-125680794D01*
X76567654Y-125653046D01*
X76456953Y-125562197D01*
X76330657Y-125494690D01*
X76193617Y-125453120D01*
X76086808Y-125442600D01*
X76051100Y-125439083D01*
X76015392Y-125442600D01*
X64617846Y-125442600D01*
X64718421Y-125375398D01*
X64875398Y-125218421D01*
X64998734Y-125033835D01*
X65083690Y-124828734D01*
X65127000Y-124611000D01*
X65127000Y-124389000D01*
X65083690Y-124171266D01*
X64998734Y-123966165D01*
X64875398Y-123781579D01*
X64718421Y-123624602D01*
X64533835Y-123501266D01*
X64328734Y-123416310D01*
X64111000Y-123373000D01*
X63889000Y-123373000D01*
X63671266Y-123416310D01*
X63466165Y-123501266D01*
X63281579Y-123624602D01*
X63124602Y-123781579D01*
X63001266Y-123966165D01*
X62916310Y-124171266D01*
X62873000Y-124389000D01*
X62873000Y-124611000D01*
X62916310Y-124828734D01*
X63001266Y-125033835D01*
X63124602Y-125218421D01*
X63281579Y-125375398D01*
X63382154Y-125442600D01*
X59617846Y-125442600D01*
X59718421Y-125375398D01*
X59875398Y-125218421D01*
X59998734Y-125033835D01*
X60083690Y-124828734D01*
X60127000Y-124611000D01*
X60127000Y-124389000D01*
X60083690Y-124171266D01*
X59998734Y-123966165D01*
X59875398Y-123781579D01*
X59718421Y-123624602D01*
X59533835Y-123501266D01*
X59328734Y-123416310D01*
X59111000Y-123373000D01*
X58889000Y-123373000D01*
X58671266Y-123416310D01*
X58466165Y-123501266D01*
X58281579Y-123624602D01*
X58124602Y-123781579D01*
X58001266Y-123966165D01*
X57916310Y-124171266D01*
X57873000Y-124389000D01*
X57873000Y-124611000D01*
X57916310Y-124828734D01*
X58001266Y-125033835D01*
X58124602Y-125218421D01*
X58281579Y-125375398D01*
X58382154Y-125442600D01*
X55970734Y-125442600D01*
X55127000Y-124598867D01*
X55127000Y-124389000D01*
X55083690Y-124171266D01*
X54998734Y-123966165D01*
X54875398Y-123781579D01*
X54718421Y-123624602D01*
X54533835Y-123501266D01*
X54328734Y-123416310D01*
X54111000Y-123373000D01*
X53889000Y-123373000D01*
X53671266Y-123416310D01*
X53466165Y-123501266D01*
X53281579Y-123624602D01*
X53133181Y-123773000D01*
X48190042Y-123773000D01*
X48138738Y-123721696D01*
X47974625Y-123612039D01*
X47792273Y-123536507D01*
X47626750Y-123503582D01*
X48175000Y-123503582D01*
X48239103Y-123497268D01*
X48300743Y-123478570D01*
X48357550Y-123448206D01*
X48407343Y-123407343D01*
X48448206Y-123357550D01*
X48478570Y-123300743D01*
X48497268Y-123239103D01*
X48503582Y-123175000D01*
X48503582Y-121825000D01*
X48497268Y-121760897D01*
X48478570Y-121699257D01*
X48448206Y-121642450D01*
X48407343Y-121592657D01*
X48357550Y-121551794D01*
X48300743Y-121521430D01*
X48239103Y-121502732D01*
X48175000Y-121496418D01*
X46825000Y-121496418D01*
X46760897Y-121502732D01*
X46699257Y-121521430D01*
X46642450Y-121551794D01*
X46592657Y-121592657D01*
X46551794Y-121642450D01*
X46521430Y-121699257D01*
X46502732Y-121760897D01*
X46496418Y-121825000D01*
X46496418Y-123175000D01*
X46502732Y-123239103D01*
X46521430Y-123300743D01*
X46551794Y-123357550D01*
X46592657Y-123407343D01*
X46642450Y-123448206D01*
X46699257Y-123478570D01*
X46760897Y-123497268D01*
X46825000Y-123503582D01*
X47373250Y-123503582D01*
X47207727Y-123536507D01*
X47025375Y-123612039D01*
X46861262Y-123721696D01*
X46721696Y-123861262D01*
X46612039Y-124025375D01*
X46536507Y-124207727D01*
X46498000Y-124401312D01*
X46498000Y-124598688D01*
X46536507Y-124792273D01*
X46612039Y-124974625D01*
X46721696Y-125138738D01*
X46861262Y-125278304D01*
X47025375Y-125387961D01*
X47207727Y-125463493D01*
X47401312Y-125502000D01*
X47598688Y-125502000D01*
X47792273Y-125463493D01*
X47974625Y-125387961D01*
X48138738Y-125278304D01*
X48190042Y-125227000D01*
X53133181Y-125227000D01*
X53281579Y-125375398D01*
X53466165Y-125498734D01*
X53671266Y-125583690D01*
X53889000Y-125627000D01*
X54098867Y-125627000D01*
X54641467Y-126169601D01*
X54511189Y-126299879D01*
X54483447Y-126322646D01*
X54438240Y-126377732D01*
X54392598Y-126433347D01*
X54325090Y-126559644D01*
X54283520Y-126696683D01*
X54269483Y-126839200D01*
X54273001Y-126874918D01*
X54273000Y-132371418D01*
X54200000Y-132371418D01*
X54135897Y-132377732D01*
X54074257Y-132396430D01*
X54017450Y-132426794D01*
X53967657Y-132467657D01*
X53926794Y-132517450D01*
X53896430Y-132574257D01*
X53877732Y-132635897D01*
X53871418Y-132700000D01*
X53871418Y-134300000D01*
X53877732Y-134364103D01*
X53896430Y-134425743D01*
X53926794Y-134482550D01*
X53967657Y-134532343D01*
X54017450Y-134573206D01*
X54074257Y-134603570D01*
X54135897Y-134622268D01*
X54200000Y-134628582D01*
X55800000Y-134628582D01*
X55864103Y-134622268D01*
X55925743Y-134603570D01*
X55982550Y-134573206D01*
X56032343Y-134532343D01*
X56073206Y-134482550D01*
X56103570Y-134425743D01*
X56122268Y-134364103D01*
X56128582Y-134300000D01*
X56128582Y-132700000D01*
X56122268Y-132635897D01*
X56103570Y-132574257D01*
X56073206Y-132517450D01*
X56032343Y-132467657D01*
X55982550Y-132426794D01*
X55925743Y-132396430D01*
X55864103Y-132377732D01*
X55800000Y-132371418D01*
X55727000Y-132371418D01*
X55727000Y-127140332D01*
X55970733Y-126896600D01*
X73427748Y-126896600D01*
X73381266Y-126966165D01*
X73296310Y-127171266D01*
X73253000Y-127389000D01*
X73253000Y-127611000D01*
X73296310Y-127828734D01*
X73381266Y-128033835D01*
X73504602Y-128218421D01*
X73653001Y-128366820D01*
X73653000Y-132871418D01*
X73580000Y-132871418D01*
X73515897Y-132877732D01*
X73454257Y-132896430D01*
X73397450Y-132926794D01*
X73347657Y-132967657D01*
X73306794Y-133017450D01*
X73276430Y-133074257D01*
X73257732Y-133135897D01*
X73251418Y-133200000D01*
X73251418Y-134800000D01*
X73257732Y-134864103D01*
X73276430Y-134925743D01*
X73306794Y-134982550D01*
X73347657Y-135032343D01*
X73397450Y-135073206D01*
X73454257Y-135103570D01*
X73515897Y-135122268D01*
X73580000Y-135128582D01*
X75180000Y-135128582D01*
X75244103Y-135122268D01*
X75305743Y-135103570D01*
X75362550Y-135073206D01*
X75412343Y-135032343D01*
X75453206Y-134982550D01*
X75483570Y-134925743D01*
X75502268Y-134864103D01*
X75508582Y-134800000D01*
X75508582Y-133889000D01*
X80873000Y-133889000D01*
X80873000Y-134111000D01*
X80916310Y-134328734D01*
X81001266Y-134533835D01*
X81124602Y-134718421D01*
X81281579Y-134875398D01*
X81466165Y-134998734D01*
X81671266Y-135083690D01*
X81889000Y-135127000D01*
X82111000Y-135127000D01*
X82328734Y-135083690D01*
X82533835Y-134998734D01*
X82718421Y-134875398D01*
X82866819Y-134727000D01*
X83564292Y-134727000D01*
X83600000Y-134730517D01*
X83742517Y-134716480D01*
X83879557Y-134674910D01*
X84005853Y-134607403D01*
X84116554Y-134516554D01*
X84139326Y-134488806D01*
X89901133Y-128727000D01*
X93633181Y-128727000D01*
X93781579Y-128875398D01*
X93966165Y-128998734D01*
X94171266Y-129083690D01*
X94389000Y-129127000D01*
X94611000Y-129127000D01*
X94828734Y-129083690D01*
X95033835Y-128998734D01*
X95218421Y-128875398D01*
X95366819Y-128727000D01*
X99264292Y-128727000D01*
X99300000Y-128730517D01*
X99442517Y-128716480D01*
X99485076Y-128703570D01*
X99579557Y-128674910D01*
X99705853Y-128607403D01*
X99816554Y-128516554D01*
X99839325Y-128488807D01*
X100101133Y-128227000D01*
X100271418Y-128227000D01*
X100271418Y-128400000D01*
X100277732Y-128464103D01*
X100296430Y-128525743D01*
X100326794Y-128582550D01*
X100367657Y-128632343D01*
X100417450Y-128673206D01*
X100474257Y-128703570D01*
X100535897Y-128722268D01*
X100600000Y-128728582D01*
X102400000Y-128728582D01*
X102464103Y-128722268D01*
X102525743Y-128703570D01*
X102582550Y-128673206D01*
X102632343Y-128632343D01*
X102673206Y-128582550D01*
X102703570Y-128525743D01*
X102722268Y-128464103D01*
X102728582Y-128400000D01*
X102728582Y-126600000D01*
X102722268Y-126535897D01*
X102703570Y-126474257D01*
X102673206Y-126417450D01*
X102632343Y-126367657D01*
X102582550Y-126326794D01*
X102525743Y-126296430D01*
X102464103Y-126277732D01*
X102400000Y-126271418D01*
X100600000Y-126271418D01*
X100535897Y-126277732D01*
X100474257Y-126296430D01*
X100417450Y-126326794D01*
X100367657Y-126367657D01*
X100326794Y-126417450D01*
X100296430Y-126474257D01*
X100277732Y-126535897D01*
X100271418Y-126600000D01*
X100271418Y-126773000D01*
X99835708Y-126773000D01*
X99800000Y-126769483D01*
X99657482Y-126783520D01*
X99591643Y-126803492D01*
X99520443Y-126825090D01*
X99394147Y-126892597D01*
X99283446Y-126983446D01*
X99260683Y-127011184D01*
X98998867Y-127273000D01*
X95366819Y-127273000D01*
X95218421Y-127124602D01*
X95033835Y-127001266D01*
X94828734Y-126916310D01*
X94611000Y-126873000D01*
X94389000Y-126873000D01*
X94171266Y-126916310D01*
X93966165Y-127001266D01*
X93781579Y-127124602D01*
X93633181Y-127273000D01*
X89635705Y-127273000D01*
X89599999Y-127269483D01*
X89564294Y-127273000D01*
X89564292Y-127273000D01*
X89457483Y-127283520D01*
X89320443Y-127325090D01*
X89194147Y-127392597D01*
X89083446Y-127483446D01*
X89060679Y-127511188D01*
X83298868Y-133273000D01*
X82866819Y-133273000D01*
X82718421Y-133124602D01*
X82533835Y-133001266D01*
X82328734Y-132916310D01*
X82111000Y-132873000D01*
X81889000Y-132873000D01*
X81671266Y-132916310D01*
X81466165Y-133001266D01*
X81281579Y-133124602D01*
X81124602Y-133281579D01*
X81001266Y-133466165D01*
X80916310Y-133671266D01*
X80873000Y-133889000D01*
X75508582Y-133889000D01*
X75508582Y-133200000D01*
X75502268Y-133135897D01*
X75483570Y-133074257D01*
X75453206Y-133017450D01*
X75412343Y-132967657D01*
X75362550Y-132926794D01*
X75305743Y-132896430D01*
X75244103Y-132877732D01*
X75180000Y-132871418D01*
X75107000Y-132871418D01*
X75107000Y-128366819D01*
X75255398Y-128218421D01*
X75378734Y-128033835D01*
X75463690Y-127828734D01*
X75507000Y-127611000D01*
X75507000Y-127389000D01*
X75463690Y-127171266D01*
X75378734Y-126966165D01*
X75332252Y-126896600D01*
X75749968Y-126896600D01*
X78172579Y-129319212D01*
X78195346Y-129346954D01*
X78306047Y-129437803D01*
X78432343Y-129505310D01*
X78569383Y-129546880D01*
X78676192Y-129557400D01*
X78676194Y-129557400D01*
X78711899Y-129560917D01*
X78747605Y-129557400D01*
X86206892Y-129557400D01*
X86242600Y-129560917D01*
X86385117Y-129546880D01*
X86385120Y-129546879D01*
X86522157Y-129505310D01*
X86648453Y-129437803D01*
X86759154Y-129346954D01*
X86781926Y-129319206D01*
X89874134Y-126227000D01*
X93633181Y-126227000D01*
X93781579Y-126375398D01*
X93966165Y-126498734D01*
X94171266Y-126583690D01*
X94389000Y-126627000D01*
X94611000Y-126627000D01*
X94828734Y-126583690D01*
X95033835Y-126498734D01*
X95218421Y-126375398D01*
X95375398Y-126218421D01*
X95498734Y-126033835D01*
X95583690Y-125828734D01*
X95627000Y-125611000D01*
X95627000Y-125389000D01*
X95583690Y-125171266D01*
X95498734Y-124966165D01*
X95413867Y-124839151D01*
X100273000Y-124839151D01*
X100273000Y-125080849D01*
X100320153Y-125317903D01*
X100412647Y-125541202D01*
X100546927Y-125742167D01*
X100717833Y-125913073D01*
X100918798Y-126047353D01*
X101142097Y-126139847D01*
X101379151Y-126187000D01*
X101620849Y-126187000D01*
X101857903Y-126139847D01*
X102081202Y-126047353D01*
X102282167Y-125913073D01*
X102453073Y-125742167D01*
X102587353Y-125541202D01*
X102679847Y-125317903D01*
X102727000Y-125080849D01*
X102727000Y-124839151D01*
X102679847Y-124602097D01*
X102587353Y-124378798D01*
X102453073Y-124177833D01*
X102282167Y-124006927D01*
X102081202Y-123872647D01*
X101857903Y-123780153D01*
X101620849Y-123733000D01*
X101379151Y-123733000D01*
X101142097Y-123780153D01*
X100918798Y-123872647D01*
X100717833Y-124006927D01*
X100546927Y-124177833D01*
X100412647Y-124378798D01*
X100320153Y-124602097D01*
X100273000Y-124839151D01*
X95413867Y-124839151D01*
X95375398Y-124781579D01*
X95218421Y-124624602D01*
X95033835Y-124501266D01*
X94828734Y-124416310D01*
X94611000Y-124373000D01*
X94389000Y-124373000D01*
X94171266Y-124416310D01*
X93966165Y-124501266D01*
X93781579Y-124624602D01*
X93633181Y-124773000D01*
X89608708Y-124773000D01*
X89573000Y-124769483D01*
X89430482Y-124783520D01*
X89293443Y-124825090D01*
X89167147Y-124892597D01*
X89056446Y-124983446D01*
X89033683Y-125011183D01*
X85941468Y-128103400D01*
X83128582Y-128103400D01*
X83128582Y-126700000D01*
X83122268Y-126635897D01*
X83103570Y-126574257D01*
X83073206Y-126517450D01*
X83032343Y-126467657D01*
X82982550Y-126426794D01*
X82925743Y-126396430D01*
X82864103Y-126377732D01*
X82800000Y-126371418D01*
X82727000Y-126371418D01*
X82727000Y-122955707D01*
X82730517Y-122919999D01*
X82716480Y-122777482D01*
X82685365Y-122674910D01*
X82674910Y-122640443D01*
X82607403Y-122514147D01*
X82516554Y-122403446D01*
X82488812Y-122380679D01*
X81607000Y-121498868D01*
X81607000Y-121398849D01*
X81567533Y-121200435D01*
X81490115Y-121013533D01*
X81377723Y-120845326D01*
X81234674Y-120702277D01*
X81066467Y-120589885D01*
X80879565Y-120512467D01*
X80681151Y-120473000D01*
X80581133Y-120473000D01*
X79119426Y-119011293D01*
X79096654Y-118983546D01*
X78985953Y-118892697D01*
X78859657Y-118825190D01*
X78722617Y-118783620D01*
X78615808Y-118773100D01*
X78580100Y-118769583D01*
X78544392Y-118773100D01*
X64301233Y-118773100D01*
X64069790Y-118541657D01*
X64171266Y-118583690D01*
X64389000Y-118627000D01*
X64611000Y-118627000D01*
X64828734Y-118583690D01*
X65033835Y-118498734D01*
X65218421Y-118375398D01*
X65375398Y-118218421D01*
X65498734Y-118033835D01*
X65583690Y-117828734D01*
X65627000Y-117611000D01*
X65627000Y-117398849D01*
X74473000Y-117398849D01*
X74473000Y-117601151D01*
X74512467Y-117799565D01*
X74589885Y-117986467D01*
X74702277Y-118154674D01*
X74845326Y-118297723D01*
X75013533Y-118410115D01*
X75200435Y-118487533D01*
X75398849Y-118527000D01*
X75601151Y-118527000D01*
X75799565Y-118487533D01*
X75986467Y-118410115D01*
X76154674Y-118297723D01*
X76297723Y-118154674D01*
X76410115Y-117986467D01*
X76487533Y-117799565D01*
X76527000Y-117601151D01*
X76527000Y-117398849D01*
X76487533Y-117200435D01*
X76410115Y-117013533D01*
X76297723Y-116845326D01*
X76154674Y-116702277D01*
X75986467Y-116589885D01*
X75799565Y-116512467D01*
X75601151Y-116473000D01*
X75398849Y-116473000D01*
X75200435Y-116512467D01*
X75013533Y-116589885D01*
X74845326Y-116702277D01*
X74702277Y-116845326D01*
X74589885Y-117013533D01*
X74512467Y-117200435D01*
X74473000Y-117398849D01*
X65627000Y-117398849D01*
X65627000Y-117389000D01*
X65583690Y-117171266D01*
X65498734Y-116966165D01*
X65375398Y-116781579D01*
X65218421Y-116624602D01*
X65033835Y-116501266D01*
X64828734Y-116416310D01*
X64611000Y-116373000D01*
X64389000Y-116373000D01*
X64171266Y-116416310D01*
X63966165Y-116501266D01*
X63781579Y-116624602D01*
X63624602Y-116781579D01*
X63501266Y-116966165D01*
X63416310Y-117171266D01*
X63373000Y-117389000D01*
X63373000Y-117611000D01*
X63416310Y-117828734D01*
X63458343Y-117930210D01*
X60627000Y-115098868D01*
X60627000Y-114889000D01*
X63373000Y-114889000D01*
X63373000Y-115111000D01*
X63416310Y-115328734D01*
X63501266Y-115533835D01*
X63624602Y-115718421D01*
X63781579Y-115875398D01*
X63966165Y-115998734D01*
X64171266Y-116083690D01*
X64389000Y-116127000D01*
X64611000Y-116127000D01*
X64828734Y-116083690D01*
X65033835Y-115998734D01*
X65063595Y-115978849D01*
X69973000Y-115978849D01*
X69973000Y-116181151D01*
X70012467Y-116379565D01*
X70089885Y-116566467D01*
X70202277Y-116734674D01*
X70345326Y-116877723D01*
X70513533Y-116990115D01*
X70700435Y-117067533D01*
X70898849Y-117107000D01*
X71101151Y-117107000D01*
X71299565Y-117067533D01*
X71486467Y-116990115D01*
X71654674Y-116877723D01*
X71797723Y-116734674D01*
X71910115Y-116566467D01*
X71987533Y-116379565D01*
X72027000Y-116181151D01*
X72027000Y-115978849D01*
X71987533Y-115780435D01*
X71910115Y-115593533D01*
X71797723Y-115425326D01*
X71654674Y-115282277D01*
X71486467Y-115169885D01*
X71299565Y-115092467D01*
X71101151Y-115053000D01*
X70898849Y-115053000D01*
X70700435Y-115092467D01*
X70513533Y-115169885D01*
X70345326Y-115282277D01*
X70202277Y-115425326D01*
X70089885Y-115593533D01*
X70012467Y-115780435D01*
X69973000Y-115978849D01*
X65063595Y-115978849D01*
X65218421Y-115875398D01*
X65375398Y-115718421D01*
X65498734Y-115533835D01*
X65583690Y-115328734D01*
X65627000Y-115111000D01*
X65627000Y-114901133D01*
X65801133Y-114727000D01*
X74774603Y-114727000D01*
X74845326Y-114797723D01*
X75013533Y-114910115D01*
X75200435Y-114987533D01*
X75398849Y-115027000D01*
X75601151Y-115027000D01*
X75799565Y-114987533D01*
X75986467Y-114910115D01*
X76154674Y-114797723D01*
X76297723Y-114654674D01*
X76410115Y-114486467D01*
X76487533Y-114299565D01*
X76527000Y-114101151D01*
X76527000Y-113898849D01*
X76487533Y-113700435D01*
X76410115Y-113513533D01*
X76297723Y-113345326D01*
X76219397Y-113267000D01*
X79860603Y-113267000D01*
X79782277Y-113345326D01*
X79669885Y-113513533D01*
X79592467Y-113700435D01*
X79553000Y-113898849D01*
X79553000Y-114101151D01*
X79592467Y-114299565D01*
X79669885Y-114486467D01*
X79782277Y-114654674D01*
X79925326Y-114797723D01*
X80093533Y-114910115D01*
X80280435Y-114987533D01*
X80478849Y-115027000D01*
X80681151Y-115027000D01*
X80879565Y-114987533D01*
X81066467Y-114910115D01*
X81234674Y-114797723D01*
X81377723Y-114654674D01*
X81490115Y-114486467D01*
X81567533Y-114299565D01*
X81607000Y-114101151D01*
X81607000Y-113898849D01*
X81567533Y-113700435D01*
X81550018Y-113658150D01*
X83973000Y-116081133D01*
X83973000Y-116181151D01*
X84012467Y-116379565D01*
X84089885Y-116566467D01*
X84202277Y-116734674D01*
X84240603Y-116773000D01*
X81305397Y-116773000D01*
X81234674Y-116702277D01*
X81066467Y-116589885D01*
X80879565Y-116512467D01*
X80681151Y-116473000D01*
X80478849Y-116473000D01*
X80280435Y-116512467D01*
X80093533Y-116589885D01*
X79925326Y-116702277D01*
X79782277Y-116845326D01*
X79669885Y-117013533D01*
X79592467Y-117200435D01*
X79553000Y-117398849D01*
X79553000Y-117601151D01*
X79592467Y-117799565D01*
X79669885Y-117986467D01*
X79782277Y-118154674D01*
X79925326Y-118297723D01*
X80093533Y-118410115D01*
X80280435Y-118487533D01*
X80478849Y-118527000D01*
X80681151Y-118527000D01*
X80879565Y-118487533D01*
X81066467Y-118410115D01*
X81234674Y-118297723D01*
X81305397Y-118227000D01*
X92698868Y-118227000D01*
X93873000Y-119401133D01*
X93873000Y-119611000D01*
X93916310Y-119828734D01*
X94001266Y-120033835D01*
X94124602Y-120218421D01*
X94281579Y-120375398D01*
X94466165Y-120498734D01*
X94671266Y-120583690D01*
X94889000Y-120627000D01*
X95111000Y-120627000D01*
X95328734Y-120583690D01*
X95533835Y-120498734D01*
X95718421Y-120375398D01*
X95875398Y-120218421D01*
X95998734Y-120033835D01*
X96083690Y-119828734D01*
X96127000Y-119611000D01*
X96127000Y-119389000D01*
X96373000Y-119389000D01*
X96373000Y-119611000D01*
X96416310Y-119828734D01*
X96501266Y-120033835D01*
X96624602Y-120218421D01*
X96781579Y-120375398D01*
X96966165Y-120498734D01*
X97171266Y-120583690D01*
X97389000Y-120627000D01*
X97611000Y-120627000D01*
X97828734Y-120583690D01*
X98033835Y-120498734D01*
X98218421Y-120375398D01*
X98375398Y-120218421D01*
X98498734Y-120033835D01*
X98583690Y-119828734D01*
X98627000Y-119611000D01*
X98627000Y-119389000D01*
X98583690Y-119171266D01*
X98498734Y-118966165D01*
X98375398Y-118781579D01*
X98218421Y-118624602D01*
X98033835Y-118501266D01*
X97828734Y-118416310D01*
X97611000Y-118373000D01*
X97389000Y-118373000D01*
X97171266Y-118416310D01*
X96966165Y-118501266D01*
X96781579Y-118624602D01*
X96624602Y-118781579D01*
X96501266Y-118966165D01*
X96416310Y-119171266D01*
X96373000Y-119389000D01*
X96127000Y-119389000D01*
X96083690Y-119171266D01*
X95998734Y-118966165D01*
X95875398Y-118781579D01*
X95718421Y-118624602D01*
X95533835Y-118501266D01*
X95328734Y-118416310D01*
X95111000Y-118373000D01*
X94901133Y-118373000D01*
X93727000Y-117198868D01*
X93727000Y-116301132D01*
X97137333Y-112890801D01*
X97394161Y-112997182D01*
X97795433Y-113077000D01*
X98204567Y-113077000D01*
X98605839Y-112997182D01*
X98983829Y-112840614D01*
X99324011Y-112613311D01*
X99613311Y-112324011D01*
X99840614Y-111983829D01*
X99997182Y-111605839D01*
X100077000Y-111204567D01*
X100077000Y-110795433D01*
X99997182Y-110394161D01*
X99840614Y-110016171D01*
X99613311Y-109675989D01*
X99324011Y-109386689D01*
X98983829Y-109159386D01*
X98605839Y-109002818D01*
X98204567Y-108923000D01*
X97795433Y-108923000D01*
X97394161Y-109002818D01*
X97016171Y-109159386D01*
X96675989Y-109386689D01*
X96386689Y-109675989D01*
X96159386Y-110016171D01*
X96002818Y-110394161D01*
X95923000Y-110795433D01*
X95923000Y-111204567D01*
X96002818Y-111605839D01*
X96109199Y-111862667D01*
X92511189Y-115460679D01*
X92483446Y-115483447D01*
X92395031Y-115591182D01*
X92392598Y-115594147D01*
X92325090Y-115720444D01*
X92283520Y-115857483D01*
X92269483Y-116000000D01*
X92273000Y-116035708D01*
X92273001Y-116773000D01*
X85759397Y-116773000D01*
X85797723Y-116734674D01*
X85910115Y-116566467D01*
X85987533Y-116379565D01*
X86027000Y-116181151D01*
X86027000Y-115978849D01*
X85987533Y-115780435D01*
X85910115Y-115593533D01*
X85797723Y-115425326D01*
X85654674Y-115282277D01*
X85486467Y-115169885D01*
X85299565Y-115092467D01*
X85101151Y-115053000D01*
X85001133Y-115053000D01*
X81999326Y-112051194D01*
X81976554Y-112023446D01*
X81865853Y-111932597D01*
X81739557Y-111865090D01*
X81602517Y-111823520D01*
X81495708Y-111813000D01*
X81460000Y-111809483D01*
X81424292Y-111813000D01*
X81131810Y-111813000D01*
X81154674Y-111797723D01*
X81297723Y-111654674D01*
X81410115Y-111486467D01*
X81487533Y-111299565D01*
X81527000Y-111101151D01*
X81527000Y-110898849D01*
X81487533Y-110700435D01*
X81410115Y-110513533D01*
X81379557Y-110467800D01*
X81939668Y-110467800D01*
X82960683Y-111488817D01*
X82983446Y-111516554D01*
X83094147Y-111607403D01*
X83220443Y-111674910D01*
X83357482Y-111716480D01*
X83500000Y-111730517D01*
X83535708Y-111727000D01*
X84274603Y-111727000D01*
X84345326Y-111797723D01*
X84513533Y-111910115D01*
X84700435Y-111987533D01*
X84898849Y-112027000D01*
X85101151Y-112027000D01*
X85299565Y-111987533D01*
X85486467Y-111910115D01*
X85654674Y-111797723D01*
X85797723Y-111654674D01*
X85910115Y-111486467D01*
X85987533Y-111299565D01*
X86027000Y-111101151D01*
X86027000Y-110898849D01*
X85987533Y-110700435D01*
X85910115Y-110513533D01*
X85797723Y-110345326D01*
X85654674Y-110202277D01*
X85486467Y-110089885D01*
X85299565Y-110012467D01*
X85101151Y-109973000D01*
X84898849Y-109973000D01*
X84700435Y-110012467D01*
X84513533Y-110089885D01*
X84345326Y-110202277D01*
X84274603Y-110273000D01*
X83801134Y-110273000D01*
X82780125Y-109251993D01*
X82757354Y-109224246D01*
X82646653Y-109133397D01*
X82520357Y-109065890D01*
X82383317Y-109024320D01*
X82276508Y-109013800D01*
X82240800Y-109010283D01*
X82205092Y-109013800D01*
X78214908Y-109013800D01*
X78179200Y-109010283D01*
X78036682Y-109024320D01*
X77999141Y-109035708D01*
X77899643Y-109065890D01*
X77773347Y-109133397D01*
X77662646Y-109224246D01*
X77639883Y-109251983D01*
X76618868Y-110273000D01*
X76145397Y-110273000D01*
X76074674Y-110202277D01*
X75906467Y-110089885D01*
X75719565Y-110012467D01*
X75521151Y-109973000D01*
X75318849Y-109973000D01*
X75120435Y-110012467D01*
X74933533Y-110089885D01*
X74765326Y-110202277D01*
X74622277Y-110345326D01*
X74509885Y-110513533D01*
X74432467Y-110700435D01*
X74393000Y-110898849D01*
X74393000Y-111101151D01*
X74432467Y-111299565D01*
X74509885Y-111486467D01*
X74622277Y-111654674D01*
X74765326Y-111797723D01*
X74788190Y-111813000D01*
X74341134Y-111813000D01*
X73039325Y-110511193D01*
X73016554Y-110483446D01*
X72905853Y-110392597D01*
X72779557Y-110325090D01*
X72642517Y-110283520D01*
X72535708Y-110273000D01*
X72500000Y-110269483D01*
X72464292Y-110273000D01*
X71725397Y-110273000D01*
X71654674Y-110202277D01*
X71486467Y-110089885D01*
X71299565Y-110012467D01*
X71101151Y-109973000D01*
X70898849Y-109973000D01*
X70700435Y-110012467D01*
X70513533Y-110089885D01*
X70345326Y-110202277D01*
X70202277Y-110345326D01*
X70089885Y-110513533D01*
X70012467Y-110700435D01*
X69973000Y-110898849D01*
X69973000Y-111101151D01*
X70012467Y-111299565D01*
X70089885Y-111486467D01*
X70202277Y-111654674D01*
X70345326Y-111797723D01*
X70513533Y-111910115D01*
X70700435Y-111987533D01*
X70898849Y-112027000D01*
X71101151Y-112027000D01*
X71299565Y-111987533D01*
X71486467Y-111910115D01*
X71654674Y-111797723D01*
X71725397Y-111727000D01*
X72198868Y-111727000D01*
X73500683Y-113028817D01*
X73523446Y-113056554D01*
X73634147Y-113147403D01*
X73760443Y-113214910D01*
X73897482Y-113256480D01*
X74040000Y-113270517D01*
X74075708Y-113267000D01*
X74780603Y-113267000D01*
X74774603Y-113273000D01*
X65535708Y-113273000D01*
X65500000Y-113269483D01*
X65357482Y-113283520D01*
X65220443Y-113325090D01*
X65094147Y-113392597D01*
X64983446Y-113483446D01*
X64960679Y-113511188D01*
X64598867Y-113873000D01*
X64389000Y-113873000D01*
X64171266Y-113916310D01*
X63966165Y-114001266D01*
X63781579Y-114124602D01*
X63624602Y-114281579D01*
X63501266Y-114466165D01*
X63416310Y-114671266D01*
X63373000Y-114889000D01*
X60627000Y-114889000D01*
X60583690Y-114671266D01*
X60498734Y-114466165D01*
X60375398Y-114281579D01*
X60218421Y-114124602D01*
X60033835Y-114001266D01*
X59828734Y-113916310D01*
X59611000Y-113873000D01*
X59389000Y-113873000D01*
X59171266Y-113916310D01*
X58966165Y-114001266D01*
X58781579Y-114124602D01*
X58624602Y-114281579D01*
X58501266Y-114466165D01*
X58416310Y-114671266D01*
X58373000Y-114889000D01*
X58373000Y-115111000D01*
X58416310Y-115328734D01*
X58501266Y-115533835D01*
X58624602Y-115718421D01*
X58781579Y-115875398D01*
X58966165Y-115998734D01*
X59171266Y-116083690D01*
X59389000Y-116127000D01*
X59598868Y-116127000D01*
X59930211Y-116458343D01*
X59828734Y-116416310D01*
X59611000Y-116373000D01*
X59389000Y-116373000D01*
X59171266Y-116416310D01*
X58966165Y-116501266D01*
X58781579Y-116624602D01*
X58633181Y-116773000D01*
X54866819Y-116773000D01*
X54718421Y-116624602D01*
X54533835Y-116501266D01*
X54328734Y-116416310D01*
X54111000Y-116373000D01*
X53889000Y-116373000D01*
X53671266Y-116416310D01*
X53466165Y-116501266D01*
X53281579Y-116624602D01*
X53124602Y-116781579D01*
X53103607Y-116813000D01*
X48429801Y-116813000D01*
X48414236Y-116789706D01*
X48250294Y-116625764D01*
X48057519Y-116496956D01*
X47843318Y-116408231D01*
X47615924Y-116363000D01*
X47384076Y-116363000D01*
X47156682Y-116408231D01*
X46942481Y-116496956D01*
X46749706Y-116625764D01*
X46585764Y-116789706D01*
X46456956Y-116982481D01*
X46368231Y-117196682D01*
X46323000Y-117424076D01*
X41352000Y-117424076D01*
X41352000Y-114150000D01*
X46321418Y-114150000D01*
X46321418Y-115850000D01*
X46327732Y-115914103D01*
X46346430Y-115975743D01*
X46376794Y-116032550D01*
X46417657Y-116082343D01*
X46467450Y-116123206D01*
X46524257Y-116153570D01*
X46585897Y-116172268D01*
X46650000Y-116178582D01*
X48350000Y-116178582D01*
X48414103Y-116172268D01*
X48475743Y-116153570D01*
X48532550Y-116123206D01*
X48582343Y-116082343D01*
X48623206Y-116032550D01*
X48653570Y-115975743D01*
X48672268Y-115914103D01*
X48678582Y-115850000D01*
X48678582Y-114889000D01*
X52873000Y-114889000D01*
X52873000Y-115111000D01*
X52916310Y-115328734D01*
X53001266Y-115533835D01*
X53124602Y-115718421D01*
X53281579Y-115875398D01*
X53466165Y-115998734D01*
X53671266Y-116083690D01*
X53889000Y-116127000D01*
X54111000Y-116127000D01*
X54328734Y-116083690D01*
X54533835Y-115998734D01*
X54718421Y-115875398D01*
X54875398Y-115718421D01*
X54998734Y-115533835D01*
X55083690Y-115328734D01*
X55127000Y-115111000D01*
X55127000Y-114889000D01*
X55083690Y-114671266D01*
X54998734Y-114466165D01*
X54875398Y-114281579D01*
X54718421Y-114124602D01*
X54533835Y-114001266D01*
X54328734Y-113916310D01*
X54111000Y-113873000D01*
X53889000Y-113873000D01*
X53671266Y-113916310D01*
X53466165Y-114001266D01*
X53281579Y-114124602D01*
X53124602Y-114281579D01*
X53001266Y-114466165D01*
X52916310Y-114671266D01*
X52873000Y-114889000D01*
X48678582Y-114889000D01*
X48678582Y-114150000D01*
X48672268Y-114085897D01*
X48653570Y-114024257D01*
X48623206Y-113967450D01*
X48582343Y-113917657D01*
X48532550Y-113876794D01*
X48475743Y-113846430D01*
X48414103Y-113827732D01*
X48350000Y-113821418D01*
X46650000Y-113821418D01*
X46585897Y-113827732D01*
X46524257Y-113846430D01*
X46467450Y-113876794D01*
X46417657Y-113917657D01*
X46376794Y-113967450D01*
X46346430Y-114024257D01*
X46327732Y-114085897D01*
X46321418Y-114150000D01*
X41352000Y-114150000D01*
X41352000Y-95636000D01*
X44631783Y-95636000D01*
X44635300Y-95671708D01*
X44635301Y-102993782D01*
X44631783Y-103029500D01*
X44645820Y-103172017D01*
X44687390Y-103309056D01*
X44705115Y-103342217D01*
X44754898Y-103435353D01*
X44845747Y-103546054D01*
X44873489Y-103568821D01*
X50793479Y-109488812D01*
X50816246Y-109516554D01*
X50926947Y-109607403D01*
X50981346Y-109636480D01*
X51053243Y-109674910D01*
X51190282Y-109716480D01*
X51332799Y-109730517D01*
X51368507Y-109727000D01*
X58013181Y-109727000D01*
X58161579Y-109875398D01*
X58346165Y-109998734D01*
X58551266Y-110083690D01*
X58769000Y-110127000D01*
X58991000Y-110127000D01*
X59208734Y-110083690D01*
X59413835Y-109998734D01*
X59598421Y-109875398D01*
X59755398Y-109718421D01*
X59878734Y-109533835D01*
X59963690Y-109328734D01*
X60007000Y-109111000D01*
X60007000Y-108889000D01*
X65373000Y-108889000D01*
X65373000Y-109111000D01*
X65416310Y-109328734D01*
X65501266Y-109533835D01*
X65624602Y-109718421D01*
X65781579Y-109875398D01*
X65966165Y-109998734D01*
X66171266Y-110083690D01*
X66389000Y-110127000D01*
X66611000Y-110127000D01*
X66828734Y-110083690D01*
X67033835Y-109998734D01*
X67218421Y-109875398D01*
X67366819Y-109727000D01*
X68064292Y-109727000D01*
X68100000Y-109730517D01*
X68242517Y-109716480D01*
X68379557Y-109674910D01*
X68505853Y-109607403D01*
X68616554Y-109516554D01*
X68682208Y-109436553D01*
X68707403Y-109405853D01*
X68774910Y-109279557D01*
X68777668Y-109270464D01*
X73201133Y-104847000D01*
X73633181Y-104847000D01*
X73781579Y-104995398D01*
X73966165Y-105118734D01*
X74171266Y-105203690D01*
X74389000Y-105247000D01*
X74611000Y-105247000D01*
X74828734Y-105203690D01*
X75033835Y-105118734D01*
X75218421Y-104995398D01*
X75375398Y-104838421D01*
X75498734Y-104653835D01*
X75583690Y-104448734D01*
X75627000Y-104231000D01*
X75627000Y-104009000D01*
X75583690Y-103791266D01*
X75498734Y-103586165D01*
X75375398Y-103401579D01*
X75218421Y-103244602D01*
X75033835Y-103121266D01*
X74828734Y-103036310D01*
X74611000Y-102993000D01*
X74389000Y-102993000D01*
X74171266Y-103036310D01*
X73966165Y-103121266D01*
X73781579Y-103244602D01*
X73633181Y-103393000D01*
X72935707Y-103393000D01*
X72899999Y-103389483D01*
X72757482Y-103403520D01*
X72684222Y-103425743D01*
X72620443Y-103445090D01*
X72494147Y-103512597D01*
X72383446Y-103603446D01*
X72360679Y-103631188D01*
X67718868Y-108273000D01*
X67366819Y-108273000D01*
X67218421Y-108124602D01*
X67033835Y-108001266D01*
X66828734Y-107916310D01*
X66611000Y-107873000D01*
X66389000Y-107873000D01*
X66171266Y-107916310D01*
X65966165Y-108001266D01*
X65781579Y-108124602D01*
X65624602Y-108281579D01*
X65501266Y-108466165D01*
X65416310Y-108671266D01*
X65373000Y-108889000D01*
X60007000Y-108889000D01*
X59963690Y-108671266D01*
X59878734Y-108466165D01*
X59755398Y-108281579D01*
X59598421Y-108124602D01*
X59413835Y-108001266D01*
X59208734Y-107916310D01*
X58991000Y-107873000D01*
X58769000Y-107873000D01*
X58551266Y-107916310D01*
X58346165Y-108001266D01*
X58161579Y-108124602D01*
X58013181Y-108273000D01*
X51633933Y-108273000D01*
X47612932Y-104252000D01*
X48044340Y-104252000D01*
X48474592Y-104166418D01*
X48879880Y-103998542D01*
X49244630Y-103754824D01*
X49554824Y-103444630D01*
X49700240Y-103227000D01*
X51371418Y-103227000D01*
X51371418Y-103300000D01*
X51377732Y-103364103D01*
X51396430Y-103425743D01*
X51426794Y-103482550D01*
X51467657Y-103532343D01*
X51517450Y-103573206D01*
X51574257Y-103603570D01*
X51635897Y-103622268D01*
X51700000Y-103628582D01*
X53300000Y-103628582D01*
X53364103Y-103622268D01*
X53425743Y-103603570D01*
X53482550Y-103573206D01*
X53532343Y-103532343D01*
X53573206Y-103482550D01*
X53603570Y-103425743D01*
X53622268Y-103364103D01*
X53628582Y-103300000D01*
X53628582Y-101700000D01*
X53622268Y-101635897D01*
X53603570Y-101574257D01*
X53573206Y-101517450D01*
X53532343Y-101467657D01*
X53482550Y-101426794D01*
X53425743Y-101396430D01*
X53364103Y-101377732D01*
X53300000Y-101371418D01*
X51700000Y-101371418D01*
X51635897Y-101377732D01*
X51574257Y-101396430D01*
X51517450Y-101426794D01*
X51467657Y-101467657D01*
X51426794Y-101517450D01*
X51396430Y-101574257D01*
X51377732Y-101635897D01*
X51371418Y-101700000D01*
X51371418Y-101773000D01*
X50045504Y-101773000D01*
X49966418Y-101375408D01*
X49798542Y-100970120D01*
X49554824Y-100605370D01*
X49244630Y-100295176D01*
X48879880Y-100051458D01*
X48474592Y-99883582D01*
X48044340Y-99798000D01*
X47605660Y-99798000D01*
X47175408Y-99883582D01*
X46770120Y-100051458D01*
X46405370Y-100295176D01*
X46095176Y-100605370D01*
X46089300Y-100614164D01*
X46089300Y-98085836D01*
X46095176Y-98094630D01*
X46405370Y-98404824D01*
X46770120Y-98648542D01*
X47175408Y-98816418D01*
X47605660Y-98902000D01*
X48044340Y-98902000D01*
X48474592Y-98816418D01*
X48802473Y-98680605D01*
X49530679Y-99408812D01*
X49553446Y-99436554D01*
X49664147Y-99527403D01*
X49790443Y-99594910D01*
X49927483Y-99636480D01*
X50034292Y-99647000D01*
X50034294Y-99647000D01*
X50069999Y-99650517D01*
X50105705Y-99647000D01*
X56884701Y-99647000D01*
X56884700Y-102575992D01*
X56881183Y-102611700D01*
X56895220Y-102754217D01*
X56902907Y-102779557D01*
X56936790Y-102891256D01*
X57004297Y-103017552D01*
X57095146Y-103128253D01*
X57122889Y-103151021D01*
X57873000Y-103901133D01*
X57873000Y-104111000D01*
X57916310Y-104328734D01*
X57958343Y-104430210D01*
X56127000Y-102598868D01*
X56127000Y-102389000D01*
X56083690Y-102171266D01*
X55998734Y-101966165D01*
X55875398Y-101781579D01*
X55718421Y-101624602D01*
X55533835Y-101501266D01*
X55328734Y-101416310D01*
X55111000Y-101373000D01*
X54889000Y-101373000D01*
X54671266Y-101416310D01*
X54466165Y-101501266D01*
X54281579Y-101624602D01*
X54124602Y-101781579D01*
X54001266Y-101966165D01*
X53916310Y-102171266D01*
X53873000Y-102389000D01*
X53873000Y-102611000D01*
X53916310Y-102828734D01*
X54001266Y-103033835D01*
X54124602Y-103218421D01*
X54281579Y-103375398D01*
X54466165Y-103498734D01*
X54671266Y-103583690D01*
X54889000Y-103627000D01*
X55098868Y-103627000D01*
X57317179Y-105845312D01*
X57339946Y-105873054D01*
X57450647Y-105963903D01*
X57487926Y-105983829D01*
X57576943Y-106031410D01*
X57713982Y-106072980D01*
X57856499Y-106087017D01*
X57892207Y-106083500D01*
X63627792Y-106083500D01*
X63663500Y-106087017D01*
X63806017Y-106072980D01*
X63943057Y-106031410D01*
X64069353Y-105963903D01*
X64180054Y-105873054D01*
X64202825Y-105845307D01*
X65321134Y-104727000D01*
X65753181Y-104727000D01*
X65901579Y-104875398D01*
X66086165Y-104998734D01*
X66291266Y-105083690D01*
X66509000Y-105127000D01*
X66731000Y-105127000D01*
X66948734Y-105083690D01*
X67153835Y-104998734D01*
X67338421Y-104875398D01*
X67495398Y-104718421D01*
X67618734Y-104533835D01*
X67703690Y-104328734D01*
X67747000Y-104111000D01*
X67747000Y-103889000D01*
X67703690Y-103671266D01*
X67618734Y-103466165D01*
X67495398Y-103281579D01*
X67338421Y-103124602D01*
X67153835Y-103001266D01*
X66948734Y-102916310D01*
X66731000Y-102873000D01*
X66509000Y-102873000D01*
X66291266Y-102916310D01*
X66086165Y-103001266D01*
X65901579Y-103124602D01*
X65753181Y-103273000D01*
X65055708Y-103273000D01*
X65020000Y-103269483D01*
X64877482Y-103283520D01*
X64740443Y-103325090D01*
X64614147Y-103392597D01*
X64503446Y-103483446D01*
X64480684Y-103511182D01*
X63362368Y-104629500D01*
X59934813Y-104629500D01*
X59998734Y-104533835D01*
X60083690Y-104328734D01*
X60127000Y-104111000D01*
X60127000Y-103889000D01*
X60083690Y-103671266D01*
X59998734Y-103466165D01*
X59875398Y-103281579D01*
X59718421Y-103124602D01*
X59533835Y-103001266D01*
X59328734Y-102916310D01*
X59111000Y-102873000D01*
X58901133Y-102873000D01*
X58501505Y-102473372D01*
X58671266Y-102543690D01*
X58889000Y-102587000D01*
X59111000Y-102587000D01*
X59328734Y-102543690D01*
X59533835Y-102458734D01*
X59718421Y-102335398D01*
X59875398Y-102178421D01*
X59998734Y-101993835D01*
X60083690Y-101788734D01*
X60127000Y-101571000D01*
X60127000Y-101349000D01*
X65493000Y-101349000D01*
X65493000Y-101571000D01*
X65536310Y-101788734D01*
X65621266Y-101993835D01*
X65744602Y-102178421D01*
X65901579Y-102335398D01*
X66086165Y-102458734D01*
X66291266Y-102543690D01*
X66509000Y-102587000D01*
X66731000Y-102587000D01*
X66948734Y-102543690D01*
X67153835Y-102458734D01*
X67338421Y-102335398D01*
X67486819Y-102187000D01*
X68184292Y-102187000D01*
X68220000Y-102190517D01*
X68255708Y-102187000D01*
X68362517Y-102176480D01*
X68499557Y-102134910D01*
X68625853Y-102067403D01*
X68736554Y-101976554D01*
X68827403Y-101865853D01*
X68894910Y-101739557D01*
X68936480Y-101602517D01*
X68949630Y-101469000D01*
X73373000Y-101469000D01*
X73373000Y-101691000D01*
X73416310Y-101908734D01*
X73501266Y-102113835D01*
X73624602Y-102298421D01*
X73781579Y-102455398D01*
X73966165Y-102578734D01*
X74171266Y-102663690D01*
X74389000Y-102707000D01*
X74611000Y-102707000D01*
X74828734Y-102663690D01*
X75033835Y-102578734D01*
X75218421Y-102455398D01*
X75366819Y-102307000D01*
X75798868Y-102307000D01*
X79451579Y-105959712D01*
X79474346Y-105987454D01*
X79585047Y-106078303D01*
X79711343Y-106145810D01*
X79848382Y-106187380D01*
X79990900Y-106201417D01*
X80026608Y-106197900D01*
X96302424Y-106197900D01*
X96386689Y-106324011D01*
X96675989Y-106613311D01*
X97016171Y-106840614D01*
X97394161Y-106997182D01*
X97795433Y-107077000D01*
X98204567Y-107077000D01*
X98605839Y-106997182D01*
X98983829Y-106840614D01*
X99324011Y-106613311D01*
X99613311Y-106324011D01*
X99840614Y-105983829D01*
X99997182Y-105605839D01*
X100077000Y-105204567D01*
X100077000Y-104795433D01*
X99997182Y-104394161D01*
X99840614Y-104016171D01*
X99613311Y-103675989D01*
X99324011Y-103386689D01*
X98983829Y-103159386D01*
X98605839Y-103002818D01*
X98204567Y-102923000D01*
X97795433Y-102923000D01*
X97394161Y-103002818D01*
X97016171Y-103159386D01*
X96675989Y-103386689D01*
X96386689Y-103675989D01*
X96159386Y-104016171D01*
X96002818Y-104394161D01*
X95933251Y-104743900D01*
X83058555Y-104743900D01*
X83118734Y-104653835D01*
X83203690Y-104448734D01*
X83247000Y-104231000D01*
X83247000Y-104009000D01*
X83203690Y-103791266D01*
X83118734Y-103586165D01*
X82995398Y-103401579D01*
X82838421Y-103244602D01*
X82653835Y-103121266D01*
X82448734Y-103036310D01*
X82231000Y-102993000D01*
X82009000Y-102993000D01*
X81791266Y-103036310D01*
X81586165Y-103121266D01*
X81401579Y-103244602D01*
X81244602Y-103401579D01*
X81121266Y-103586165D01*
X81036310Y-103791266D01*
X80993000Y-104009000D01*
X80993000Y-104231000D01*
X81036310Y-104448734D01*
X81121266Y-104653835D01*
X81181445Y-104743900D01*
X80292033Y-104743900D01*
X77017133Y-101469000D01*
X80993000Y-101469000D01*
X80993000Y-101691000D01*
X81036310Y-101908734D01*
X81121266Y-102113835D01*
X81244602Y-102298421D01*
X81401579Y-102455398D01*
X81586165Y-102578734D01*
X81791266Y-102663690D01*
X82009000Y-102707000D01*
X82231000Y-102707000D01*
X82448734Y-102663690D01*
X82653835Y-102578734D01*
X82838421Y-102455398D01*
X82995398Y-102298421D01*
X83118734Y-102113835D01*
X83203690Y-101908734D01*
X83247000Y-101691000D01*
X83247000Y-101469000D01*
X83203690Y-101251266D01*
X83118734Y-101046165D01*
X82995398Y-100861579D01*
X82838421Y-100704602D01*
X82653835Y-100581266D01*
X82448734Y-100496310D01*
X82231000Y-100453000D01*
X82009000Y-100453000D01*
X81791266Y-100496310D01*
X81586165Y-100581266D01*
X81401579Y-100704602D01*
X81244602Y-100861579D01*
X81121266Y-101046165D01*
X81036310Y-101251266D01*
X80993000Y-101469000D01*
X77017133Y-101469000D01*
X76639326Y-101091194D01*
X76616554Y-101063446D01*
X76505853Y-100972597D01*
X76379557Y-100905090D01*
X76242517Y-100863520D01*
X76135708Y-100853000D01*
X76100000Y-100849483D01*
X76064292Y-100853000D01*
X75366819Y-100853000D01*
X75218421Y-100704602D01*
X75033835Y-100581266D01*
X74828734Y-100496310D01*
X74611000Y-100453000D01*
X74389000Y-100453000D01*
X74171266Y-100496310D01*
X73966165Y-100581266D01*
X73781579Y-100704602D01*
X73624602Y-100861579D01*
X73501266Y-101046165D01*
X73416310Y-101251266D01*
X73373000Y-101469000D01*
X68949630Y-101469000D01*
X68950517Y-101460000D01*
X68947000Y-101424292D01*
X68947000Y-100661132D01*
X70679132Y-98929000D01*
X73373000Y-98929000D01*
X73373000Y-99151000D01*
X73416310Y-99368734D01*
X73501266Y-99573835D01*
X73624602Y-99758421D01*
X73781579Y-99915398D01*
X73966165Y-100038734D01*
X74171266Y-100123690D01*
X74389000Y-100167000D01*
X74611000Y-100167000D01*
X74828734Y-100123690D01*
X75033835Y-100038734D01*
X75218421Y-99915398D01*
X75375398Y-99758421D01*
X75498734Y-99573835D01*
X75583690Y-99368734D01*
X75627000Y-99151000D01*
X75627000Y-98929000D01*
X75583690Y-98711266D01*
X75498734Y-98506165D01*
X75375398Y-98321579D01*
X75218421Y-98164602D01*
X75033835Y-98041266D01*
X74828734Y-97956310D01*
X74611000Y-97913000D01*
X74389000Y-97913000D01*
X74171266Y-97956310D01*
X73966165Y-98041266D01*
X73781579Y-98164602D01*
X73624602Y-98321579D01*
X73501266Y-98506165D01*
X73416310Y-98711266D01*
X73373000Y-98929000D01*
X70679132Y-98929000D01*
X73371418Y-96236715D01*
X73371418Y-97300000D01*
X73377732Y-97364103D01*
X73396430Y-97425743D01*
X73426794Y-97482550D01*
X73467657Y-97532343D01*
X73517450Y-97573206D01*
X73574257Y-97603570D01*
X73635897Y-97622268D01*
X73700000Y-97628582D01*
X75300000Y-97628582D01*
X75364103Y-97622268D01*
X75425743Y-97603570D01*
X75482550Y-97573206D01*
X75532343Y-97532343D01*
X75573206Y-97482550D01*
X75603570Y-97425743D01*
X75622268Y-97364103D01*
X75628582Y-97300000D01*
X75628582Y-95896600D01*
X76348468Y-95896600D01*
X79980679Y-99528812D01*
X80003446Y-99556554D01*
X80114147Y-99647403D01*
X80240443Y-99714910D01*
X80345587Y-99746805D01*
X80377482Y-99756480D01*
X80519999Y-99770517D01*
X80555707Y-99767000D01*
X81253181Y-99767000D01*
X81401579Y-99915398D01*
X81586165Y-100038734D01*
X81791266Y-100123690D01*
X82009000Y-100167000D01*
X82231000Y-100167000D01*
X82448734Y-100123690D01*
X82653835Y-100038734D01*
X82838421Y-99915398D01*
X82995398Y-99758421D01*
X83118734Y-99573835D01*
X83203690Y-99368734D01*
X83247000Y-99151000D01*
X83247000Y-98929000D01*
X83203690Y-98711266D01*
X83118734Y-98506165D01*
X82995398Y-98321579D01*
X82838421Y-98164602D01*
X82653835Y-98041266D01*
X82448734Y-97956310D01*
X82231000Y-97913000D01*
X82009000Y-97913000D01*
X81791266Y-97956310D01*
X81586165Y-98041266D01*
X81401579Y-98164602D01*
X81253181Y-98313000D01*
X80821133Y-98313000D01*
X78897133Y-96389000D01*
X80993000Y-96389000D01*
X80993000Y-96611000D01*
X81036310Y-96828734D01*
X81121266Y-97033835D01*
X81244602Y-97218421D01*
X81401579Y-97375398D01*
X81586165Y-97498734D01*
X81791266Y-97583690D01*
X82009000Y-97627000D01*
X82231000Y-97627000D01*
X82448734Y-97583690D01*
X82653835Y-97498734D01*
X82838421Y-97375398D01*
X82995398Y-97218421D01*
X83118734Y-97033835D01*
X83203690Y-96828734D01*
X83247000Y-96611000D01*
X83247000Y-96389000D01*
X83203690Y-96171266D01*
X83118734Y-95966165D01*
X82995398Y-95781579D01*
X82838421Y-95624602D01*
X82653835Y-95501266D01*
X82448734Y-95416310D01*
X82231000Y-95373000D01*
X82009000Y-95373000D01*
X81791266Y-95416310D01*
X81586165Y-95501266D01*
X81401579Y-95624602D01*
X81244602Y-95781579D01*
X81121266Y-95966165D01*
X81036310Y-96171266D01*
X80993000Y-96389000D01*
X78897133Y-96389000D01*
X77188926Y-94680794D01*
X77166154Y-94653046D01*
X77055453Y-94562197D01*
X76929157Y-94494690D01*
X76792117Y-94453120D01*
X76685308Y-94442600D01*
X76649600Y-94439083D01*
X76613892Y-94442600D01*
X73446107Y-94442600D01*
X73410399Y-94439083D01*
X73267882Y-94453120D01*
X73130843Y-94494690D01*
X73004547Y-94562197D01*
X72893846Y-94653046D01*
X72871079Y-94680788D01*
X67731189Y-99820679D01*
X67703447Y-99843446D01*
X67612598Y-99954147D01*
X67545090Y-100080444D01*
X67503520Y-100217483D01*
X67489483Y-100360000D01*
X67493001Y-100395717D01*
X67493001Y-100733000D01*
X67486819Y-100733000D01*
X67338421Y-100584602D01*
X67153835Y-100461266D01*
X66948734Y-100376310D01*
X66731000Y-100333000D01*
X66509000Y-100333000D01*
X66291266Y-100376310D01*
X66086165Y-100461266D01*
X65901579Y-100584602D01*
X65744602Y-100741579D01*
X65621266Y-100926165D01*
X65536310Y-101131266D01*
X65493000Y-101349000D01*
X60127000Y-101349000D01*
X60083690Y-101131266D01*
X59998734Y-100926165D01*
X59875398Y-100741579D01*
X59718421Y-100584602D01*
X59533835Y-100461266D01*
X59328734Y-100376310D01*
X59111000Y-100333000D01*
X58889000Y-100333000D01*
X58671266Y-100376310D01*
X58466165Y-100461266D01*
X58338700Y-100546435D01*
X58338700Y-99833565D01*
X58466165Y-99918734D01*
X58671266Y-100003690D01*
X58889000Y-100047000D01*
X59111000Y-100047000D01*
X59328734Y-100003690D01*
X59533835Y-99918734D01*
X59718421Y-99795398D01*
X59875398Y-99638421D01*
X59998734Y-99453835D01*
X60083690Y-99248734D01*
X60127000Y-99031000D01*
X60127000Y-98821132D01*
X60139132Y-98809000D01*
X65493000Y-98809000D01*
X65493000Y-99031000D01*
X65536310Y-99248734D01*
X65621266Y-99453835D01*
X65744602Y-99638421D01*
X65901579Y-99795398D01*
X66086165Y-99918734D01*
X66291266Y-100003690D01*
X66509000Y-100047000D01*
X66731000Y-100047000D01*
X66948734Y-100003690D01*
X67153835Y-99918734D01*
X67338421Y-99795398D01*
X67495398Y-99638421D01*
X67618734Y-99453835D01*
X67703690Y-99248734D01*
X67747000Y-99031000D01*
X67747000Y-98809000D01*
X67703690Y-98591266D01*
X67618734Y-98386165D01*
X67495398Y-98201579D01*
X67338421Y-98044602D01*
X67153835Y-97921266D01*
X66948734Y-97836310D01*
X66731000Y-97793000D01*
X66509000Y-97793000D01*
X66291266Y-97836310D01*
X66086165Y-97921266D01*
X65901579Y-98044602D01*
X65744602Y-98201579D01*
X65621266Y-98386165D01*
X65536310Y-98591266D01*
X65493000Y-98809000D01*
X60139132Y-98809000D01*
X62679133Y-96269000D01*
X65493000Y-96269000D01*
X65493000Y-96491000D01*
X65536310Y-96708734D01*
X65621266Y-96913835D01*
X65744602Y-97098421D01*
X65901579Y-97255398D01*
X66086165Y-97378734D01*
X66291266Y-97463690D01*
X66509000Y-97507000D01*
X66731000Y-97507000D01*
X66948734Y-97463690D01*
X67153835Y-97378734D01*
X67338421Y-97255398D01*
X67495398Y-97098421D01*
X67618734Y-96913835D01*
X67703690Y-96708734D01*
X67747000Y-96491000D01*
X67747000Y-96269000D01*
X67703690Y-96051266D01*
X67618734Y-95846165D01*
X67495398Y-95661579D01*
X67338421Y-95504602D01*
X67153835Y-95381266D01*
X66948734Y-95296310D01*
X66731000Y-95253000D01*
X66509000Y-95253000D01*
X66291266Y-95296310D01*
X66086165Y-95381266D01*
X65901579Y-95504602D01*
X65744602Y-95661579D01*
X65621266Y-95846165D01*
X65536310Y-96051266D01*
X65493000Y-96269000D01*
X62679133Y-96269000D01*
X64568822Y-94379312D01*
X64596553Y-94356554D01*
X64619312Y-94328822D01*
X64619316Y-94328818D01*
X64687402Y-94245854D01*
X64687404Y-94245852D01*
X64754910Y-94119557D01*
X64796480Y-93982517D01*
X64807000Y-93875708D01*
X64807000Y-93875707D01*
X64810517Y-93840000D01*
X64807000Y-93804292D01*
X64807000Y-91929801D01*
X64830294Y-91914236D01*
X64994236Y-91750294D01*
X65123044Y-91557519D01*
X65211769Y-91343318D01*
X65257000Y-91115924D01*
X65257000Y-90884076D01*
X65211769Y-90656682D01*
X65123044Y-90442481D01*
X64994236Y-90249706D01*
X64830294Y-90085764D01*
X64637519Y-89956956D01*
X64423318Y-89868231D01*
X64195924Y-89823000D01*
X63964076Y-89823000D01*
X63736682Y-89868231D01*
X63522481Y-89956956D01*
X63329706Y-90085764D01*
X63165764Y-90249706D01*
X63036956Y-90442481D01*
X62948231Y-90656682D01*
X62903000Y-90884076D01*
X62903000Y-91115924D01*
X62948231Y-91343318D01*
X63036956Y-91557519D01*
X63165764Y-91750294D01*
X63329706Y-91914236D01*
X63353001Y-91929801D01*
X63353000Y-93538866D01*
X60128582Y-96763285D01*
X60128582Y-95580000D01*
X60122268Y-95515897D01*
X60103570Y-95454257D01*
X60073206Y-95397450D01*
X60032343Y-95347657D01*
X59982550Y-95306794D01*
X59925743Y-95276430D01*
X59864103Y-95257732D01*
X59800000Y-95251418D01*
X58200000Y-95251418D01*
X58135897Y-95257732D01*
X58074257Y-95276430D01*
X58017450Y-95306794D01*
X57967657Y-95347657D01*
X57926794Y-95397450D01*
X57896430Y-95454257D01*
X57877732Y-95515897D01*
X57871418Y-95580000D01*
X57871418Y-97180000D01*
X57877732Y-97244103D01*
X57896430Y-97305743D01*
X57926794Y-97362550D01*
X57967657Y-97412343D01*
X58017450Y-97453206D01*
X58074257Y-97483570D01*
X58135897Y-97502268D01*
X58200000Y-97508582D01*
X59383286Y-97508582D01*
X59098868Y-97793000D01*
X58889000Y-97793000D01*
X58671266Y-97836310D01*
X58466165Y-97921266D01*
X58281579Y-98044602D01*
X58133181Y-98193000D01*
X57647408Y-98193000D01*
X57611700Y-98189483D01*
X57575992Y-98193000D01*
X50371133Y-98193000D01*
X49830605Y-97652473D01*
X49966418Y-97324592D01*
X50052000Y-96894340D01*
X50052000Y-96455660D01*
X49966418Y-96025408D01*
X49798542Y-95620120D01*
X49554824Y-95255370D01*
X49244630Y-94945176D01*
X48879880Y-94701458D01*
X48474592Y-94533582D01*
X48044340Y-94448000D01*
X47605660Y-94448000D01*
X47571672Y-94454761D01*
X50216307Y-91810126D01*
X50281579Y-91875398D01*
X50466165Y-91998734D01*
X50671266Y-92083690D01*
X50889000Y-92127000D01*
X51111000Y-92127000D01*
X51328734Y-92083690D01*
X51533835Y-91998734D01*
X51718421Y-91875398D01*
X51875398Y-91718421D01*
X51998734Y-91533835D01*
X52083690Y-91328734D01*
X52127000Y-91111000D01*
X52127000Y-90889000D01*
X52373000Y-90889000D01*
X52373000Y-91111000D01*
X52416310Y-91328734D01*
X52501266Y-91533835D01*
X52624602Y-91718421D01*
X52781579Y-91875398D01*
X52966165Y-91998734D01*
X53171266Y-92083690D01*
X53389000Y-92127000D01*
X53611000Y-92127000D01*
X53828734Y-92083690D01*
X54033835Y-91998734D01*
X54218421Y-91875398D01*
X54375398Y-91718421D01*
X54498734Y-91533835D01*
X54583690Y-91328734D01*
X54627000Y-91111000D01*
X54627000Y-90889000D01*
X54583690Y-90671266D01*
X54498734Y-90466165D01*
X54375398Y-90281579D01*
X54243819Y-90150000D01*
X57821418Y-90150000D01*
X57821418Y-91850000D01*
X57827732Y-91914103D01*
X57846430Y-91975743D01*
X57876794Y-92032550D01*
X57917657Y-92082343D01*
X57967450Y-92123206D01*
X58024257Y-92153570D01*
X58085897Y-92172268D01*
X58150000Y-92178582D01*
X59850000Y-92178582D01*
X59914103Y-92172268D01*
X59975743Y-92153570D01*
X60032550Y-92123206D01*
X60082343Y-92082343D01*
X60123206Y-92032550D01*
X60153570Y-91975743D01*
X60172268Y-91914103D01*
X60178582Y-91850000D01*
X60178582Y-90884076D01*
X60363000Y-90884076D01*
X60363000Y-91115924D01*
X60408231Y-91343318D01*
X60496956Y-91557519D01*
X60625764Y-91750294D01*
X60789706Y-91914236D01*
X60982481Y-92043044D01*
X61196682Y-92131769D01*
X61424076Y-92177000D01*
X61655924Y-92177000D01*
X61883318Y-92131769D01*
X62097519Y-92043044D01*
X62290294Y-91914236D01*
X62454236Y-91750294D01*
X62583044Y-91557519D01*
X62671769Y-91343318D01*
X62717000Y-91115924D01*
X62717000Y-90884076D01*
X62671769Y-90656682D01*
X62583044Y-90442481D01*
X62454236Y-90249706D01*
X62290294Y-90085764D01*
X62097519Y-89956956D01*
X61883318Y-89868231D01*
X61655924Y-89823000D01*
X61424076Y-89823000D01*
X61196682Y-89868231D01*
X60982481Y-89956956D01*
X60789706Y-90085764D01*
X60625764Y-90249706D01*
X60496956Y-90442481D01*
X60408231Y-90656682D01*
X60363000Y-90884076D01*
X60178582Y-90884076D01*
X60178582Y-90150000D01*
X60172268Y-90085897D01*
X60153570Y-90024257D01*
X60123206Y-89967450D01*
X60082343Y-89917657D01*
X60032550Y-89876794D01*
X59975743Y-89846430D01*
X59914103Y-89827732D01*
X59850000Y-89821418D01*
X58150000Y-89821418D01*
X58085897Y-89827732D01*
X58024257Y-89846430D01*
X57967450Y-89876794D01*
X57917657Y-89917657D01*
X57876794Y-89967450D01*
X57846430Y-90024257D01*
X57827732Y-90085897D01*
X57821418Y-90150000D01*
X54243819Y-90150000D01*
X54218421Y-90124602D01*
X54033835Y-90001266D01*
X53828734Y-89916310D01*
X53611000Y-89873000D01*
X53389000Y-89873000D01*
X53171266Y-89916310D01*
X52966165Y-90001266D01*
X52781579Y-90124602D01*
X52624602Y-90281579D01*
X52501266Y-90466165D01*
X52416310Y-90671266D01*
X52373000Y-90889000D01*
X52127000Y-90889000D01*
X52083690Y-90671266D01*
X51998734Y-90466165D01*
X51875398Y-90281579D01*
X51718421Y-90124602D01*
X51533835Y-90001266D01*
X51328734Y-89916310D01*
X51111000Y-89873000D01*
X50889000Y-89873000D01*
X50671266Y-89916310D01*
X50466165Y-90001266D01*
X50281579Y-90124602D01*
X50133181Y-90273000D01*
X50034007Y-90273000D01*
X49998299Y-90269483D01*
X49855782Y-90283520D01*
X49718743Y-90325090D01*
X49592447Y-90392597D01*
X49481746Y-90483446D01*
X49458979Y-90511188D01*
X44873490Y-95096678D01*
X44845746Y-95119447D01*
X44754897Y-95230148D01*
X44711083Y-95312118D01*
X44687390Y-95356444D01*
X44645820Y-95493483D01*
X44631783Y-95636000D01*
X41352000Y-95636000D01*
X41352000Y-85352000D01*
X110648000Y-85352000D01*
X110648001Y-139148000D01*
%TA.AperFunction,Conductor*%
D26*
G36*
X110648001Y-139148000D02*
G01*
X41352000Y-139148000D01*
X41352000Y-133389000D01*
X50373000Y-133389000D01*
X50373000Y-133611000D01*
X50416310Y-133828734D01*
X50501266Y-134033835D01*
X50624602Y-134218421D01*
X50781579Y-134375398D01*
X50966165Y-134498734D01*
X51171266Y-134583690D01*
X51389000Y-134627000D01*
X51611000Y-134627000D01*
X51828734Y-134583690D01*
X52033835Y-134498734D01*
X52218421Y-134375398D01*
X52375398Y-134218421D01*
X52498734Y-134033835D01*
X52583690Y-133828734D01*
X52627000Y-133611000D01*
X52627000Y-133389000D01*
X52583690Y-133171266D01*
X52498734Y-132966165D01*
X52375398Y-132781579D01*
X52218421Y-132624602D01*
X52033835Y-132501266D01*
X51828734Y-132416310D01*
X51611000Y-132373000D01*
X51389000Y-132373000D01*
X51171266Y-132416310D01*
X50966165Y-132501266D01*
X50781579Y-132624602D01*
X50624602Y-132781579D01*
X50501266Y-132966165D01*
X50416310Y-133171266D01*
X50373000Y-133389000D01*
X41352000Y-133389000D01*
X41352000Y-117424076D01*
X46323000Y-117424076D01*
X46323000Y-117655924D01*
X46368231Y-117883318D01*
X46456956Y-118097519D01*
X46585764Y-118290294D01*
X46749706Y-118454236D01*
X46942481Y-118583044D01*
X47156682Y-118671769D01*
X47384076Y-118717000D01*
X47615924Y-118717000D01*
X47843318Y-118671769D01*
X48057519Y-118583044D01*
X48250294Y-118454236D01*
X48414236Y-118290294D01*
X48429801Y-118267000D01*
X53173181Y-118267000D01*
X53273001Y-118366820D01*
X53273000Y-121133181D01*
X53124602Y-121281579D01*
X53001266Y-121466165D01*
X52916310Y-121671266D01*
X52873000Y-121889000D01*
X52873000Y-122111000D01*
X52916310Y-122328734D01*
X53001266Y-122533835D01*
X53124602Y-122718421D01*
X53281579Y-122875398D01*
X53466165Y-122998734D01*
X53671266Y-123083690D01*
X53889000Y-123127000D01*
X54111000Y-123127000D01*
X54328734Y-123083690D01*
X54533835Y-122998734D01*
X54718421Y-122875398D01*
X54875398Y-122718421D01*
X54998734Y-122533835D01*
X55083690Y-122328734D01*
X55127000Y-122111000D01*
X55127000Y-121889000D01*
X57873000Y-121889000D01*
X57873000Y-122111000D01*
X57916310Y-122328734D01*
X58001266Y-122533835D01*
X58124602Y-122718421D01*
X58281579Y-122875398D01*
X58466165Y-122998734D01*
X58671266Y-123083690D01*
X58889000Y-123127000D01*
X59111000Y-123127000D01*
X59328734Y-123083690D01*
X59533835Y-122998734D01*
X59718421Y-122875398D01*
X59875398Y-122718421D01*
X59998734Y-122533835D01*
X60083690Y-122328734D01*
X60127000Y-122111000D01*
X60127000Y-121889000D01*
X60083690Y-121671266D01*
X59998734Y-121466165D01*
X59875398Y-121281579D01*
X59718421Y-121124602D01*
X59533835Y-121001266D01*
X59328734Y-120916310D01*
X59111000Y-120873000D01*
X58889000Y-120873000D01*
X58671266Y-120916310D01*
X58466165Y-121001266D01*
X58281579Y-121124602D01*
X58124602Y-121281579D01*
X58001266Y-121466165D01*
X57916310Y-121671266D01*
X57873000Y-121889000D01*
X55127000Y-121889000D01*
X55083690Y-121671266D01*
X54998734Y-121466165D01*
X54875398Y-121281579D01*
X54727000Y-121133181D01*
X54727000Y-118366819D01*
X54866819Y-118227000D01*
X58633181Y-118227000D01*
X58781579Y-118375398D01*
X58966165Y-118498734D01*
X59171266Y-118583690D01*
X59389000Y-118627000D01*
X59598868Y-118627000D01*
X62873000Y-121901133D01*
X62873000Y-122111000D01*
X62916310Y-122328734D01*
X63001266Y-122533835D01*
X63124602Y-122718421D01*
X63281579Y-122875398D01*
X63466165Y-122998734D01*
X63671266Y-123083690D01*
X63889000Y-123127000D01*
X64111000Y-123127000D01*
X64328734Y-123083690D01*
X64533835Y-122998734D01*
X64718421Y-122875398D01*
X64875398Y-122718421D01*
X64998734Y-122533835D01*
X65083690Y-122328734D01*
X65127000Y-122111000D01*
X65127000Y-121889000D01*
X65083690Y-121671266D01*
X64998734Y-121466165D01*
X64953756Y-121398849D01*
X74473000Y-121398849D01*
X74473000Y-121601151D01*
X74512467Y-121799565D01*
X74589885Y-121986467D01*
X74702277Y-122154674D01*
X74845326Y-122297723D01*
X75013533Y-122410115D01*
X75200435Y-122487533D01*
X75398849Y-122527000D01*
X75601151Y-122527000D01*
X75799565Y-122487533D01*
X75986467Y-122410115D01*
X76154674Y-122297723D01*
X76297723Y-122154674D01*
X76410115Y-121986467D01*
X76487533Y-121799565D01*
X76527000Y-121601151D01*
X76527000Y-121398849D01*
X76487533Y-121200435D01*
X76410115Y-121013533D01*
X76297723Y-120845326D01*
X76154674Y-120702277D01*
X75986467Y-120589885D01*
X75799565Y-120512467D01*
X75601151Y-120473000D01*
X75398849Y-120473000D01*
X75200435Y-120512467D01*
X75013533Y-120589885D01*
X74845326Y-120702277D01*
X74702277Y-120845326D01*
X74589885Y-121013533D01*
X74512467Y-121200435D01*
X74473000Y-121398849D01*
X64953756Y-121398849D01*
X64875398Y-121281579D01*
X64718421Y-121124602D01*
X64533835Y-121001266D01*
X64328734Y-120916310D01*
X64111000Y-120873000D01*
X63901133Y-120873000D01*
X60627000Y-117598868D01*
X60627000Y-117389000D01*
X60583690Y-117171266D01*
X60541657Y-117069789D01*
X63460779Y-119988912D01*
X63483546Y-120016654D01*
X63594247Y-120107503D01*
X63720543Y-120175010D01*
X63857583Y-120216580D01*
X63964392Y-120227100D01*
X63964394Y-120227100D01*
X64000099Y-120230617D01*
X64035805Y-120227100D01*
X78278968Y-120227100D01*
X79553000Y-121501133D01*
X79553000Y-121601151D01*
X79592467Y-121799565D01*
X79669885Y-121986467D01*
X79782277Y-122154674D01*
X79925326Y-122297723D01*
X80093533Y-122410115D01*
X80280435Y-122487533D01*
X80478849Y-122527000D01*
X80578868Y-122527000D01*
X81273001Y-123221134D01*
X81273000Y-126371418D01*
X81200000Y-126371418D01*
X81135897Y-126377732D01*
X81074257Y-126396430D01*
X81017450Y-126426794D01*
X80967657Y-126467657D01*
X80926794Y-126517450D01*
X80896430Y-126574257D01*
X80877732Y-126635897D01*
X80871418Y-126700000D01*
X80871418Y-128103400D01*
X79013033Y-128103400D01*
X76590426Y-125680794D01*
X76567654Y-125653046D01*
X76456953Y-125562197D01*
X76330657Y-125494690D01*
X76193617Y-125453120D01*
X76086808Y-125442600D01*
X76051100Y-125439083D01*
X76015392Y-125442600D01*
X64617846Y-125442600D01*
X64718421Y-125375398D01*
X64875398Y-125218421D01*
X64998734Y-125033835D01*
X65083690Y-124828734D01*
X65127000Y-124611000D01*
X65127000Y-124389000D01*
X65083690Y-124171266D01*
X64998734Y-123966165D01*
X64875398Y-123781579D01*
X64718421Y-123624602D01*
X64533835Y-123501266D01*
X64328734Y-123416310D01*
X64111000Y-123373000D01*
X63889000Y-123373000D01*
X63671266Y-123416310D01*
X63466165Y-123501266D01*
X63281579Y-123624602D01*
X63124602Y-123781579D01*
X63001266Y-123966165D01*
X62916310Y-124171266D01*
X62873000Y-124389000D01*
X62873000Y-124611000D01*
X62916310Y-124828734D01*
X63001266Y-125033835D01*
X63124602Y-125218421D01*
X63281579Y-125375398D01*
X63382154Y-125442600D01*
X59617846Y-125442600D01*
X59718421Y-125375398D01*
X59875398Y-125218421D01*
X59998734Y-125033835D01*
X60083690Y-124828734D01*
X60127000Y-124611000D01*
X60127000Y-124389000D01*
X60083690Y-124171266D01*
X59998734Y-123966165D01*
X59875398Y-123781579D01*
X59718421Y-123624602D01*
X59533835Y-123501266D01*
X59328734Y-123416310D01*
X59111000Y-123373000D01*
X58889000Y-123373000D01*
X58671266Y-123416310D01*
X58466165Y-123501266D01*
X58281579Y-123624602D01*
X58124602Y-123781579D01*
X58001266Y-123966165D01*
X57916310Y-124171266D01*
X57873000Y-124389000D01*
X57873000Y-124611000D01*
X57916310Y-124828734D01*
X58001266Y-125033835D01*
X58124602Y-125218421D01*
X58281579Y-125375398D01*
X58382154Y-125442600D01*
X55970734Y-125442600D01*
X55127000Y-124598867D01*
X55127000Y-124389000D01*
X55083690Y-124171266D01*
X54998734Y-123966165D01*
X54875398Y-123781579D01*
X54718421Y-123624602D01*
X54533835Y-123501266D01*
X54328734Y-123416310D01*
X54111000Y-123373000D01*
X53889000Y-123373000D01*
X53671266Y-123416310D01*
X53466165Y-123501266D01*
X53281579Y-123624602D01*
X53133181Y-123773000D01*
X48190042Y-123773000D01*
X48138738Y-123721696D01*
X47974625Y-123612039D01*
X47792273Y-123536507D01*
X47626750Y-123503582D01*
X48175000Y-123503582D01*
X48239103Y-123497268D01*
X48300743Y-123478570D01*
X48357550Y-123448206D01*
X48407343Y-123407343D01*
X48448206Y-123357550D01*
X48478570Y-123300743D01*
X48497268Y-123239103D01*
X48503582Y-123175000D01*
X48503582Y-121825000D01*
X48497268Y-121760897D01*
X48478570Y-121699257D01*
X48448206Y-121642450D01*
X48407343Y-121592657D01*
X48357550Y-121551794D01*
X48300743Y-121521430D01*
X48239103Y-121502732D01*
X48175000Y-121496418D01*
X46825000Y-121496418D01*
X46760897Y-121502732D01*
X46699257Y-121521430D01*
X46642450Y-121551794D01*
X46592657Y-121592657D01*
X46551794Y-121642450D01*
X46521430Y-121699257D01*
X46502732Y-121760897D01*
X46496418Y-121825000D01*
X46496418Y-123175000D01*
X46502732Y-123239103D01*
X46521430Y-123300743D01*
X46551794Y-123357550D01*
X46592657Y-123407343D01*
X46642450Y-123448206D01*
X46699257Y-123478570D01*
X46760897Y-123497268D01*
X46825000Y-123503582D01*
X47373250Y-123503582D01*
X47207727Y-123536507D01*
X47025375Y-123612039D01*
X46861262Y-123721696D01*
X46721696Y-123861262D01*
X46612039Y-124025375D01*
X46536507Y-124207727D01*
X46498000Y-124401312D01*
X46498000Y-124598688D01*
X46536507Y-124792273D01*
X46612039Y-124974625D01*
X46721696Y-125138738D01*
X46861262Y-125278304D01*
X47025375Y-125387961D01*
X47207727Y-125463493D01*
X47401312Y-125502000D01*
X47598688Y-125502000D01*
X47792273Y-125463493D01*
X47974625Y-125387961D01*
X48138738Y-125278304D01*
X48190042Y-125227000D01*
X53133181Y-125227000D01*
X53281579Y-125375398D01*
X53466165Y-125498734D01*
X53671266Y-125583690D01*
X53889000Y-125627000D01*
X54098867Y-125627000D01*
X54641467Y-126169601D01*
X54511189Y-126299879D01*
X54483447Y-126322646D01*
X54438240Y-126377732D01*
X54392598Y-126433347D01*
X54325090Y-126559644D01*
X54283520Y-126696683D01*
X54269483Y-126839200D01*
X54273001Y-126874918D01*
X54273000Y-132371418D01*
X54200000Y-132371418D01*
X54135897Y-132377732D01*
X54074257Y-132396430D01*
X54017450Y-132426794D01*
X53967657Y-132467657D01*
X53926794Y-132517450D01*
X53896430Y-132574257D01*
X53877732Y-132635897D01*
X53871418Y-132700000D01*
X53871418Y-134300000D01*
X53877732Y-134364103D01*
X53896430Y-134425743D01*
X53926794Y-134482550D01*
X53967657Y-134532343D01*
X54017450Y-134573206D01*
X54074257Y-134603570D01*
X54135897Y-134622268D01*
X54200000Y-134628582D01*
X55800000Y-134628582D01*
X55864103Y-134622268D01*
X55925743Y-134603570D01*
X55982550Y-134573206D01*
X56032343Y-134532343D01*
X56073206Y-134482550D01*
X56103570Y-134425743D01*
X56122268Y-134364103D01*
X56128582Y-134300000D01*
X56128582Y-132700000D01*
X56122268Y-132635897D01*
X56103570Y-132574257D01*
X56073206Y-132517450D01*
X56032343Y-132467657D01*
X55982550Y-132426794D01*
X55925743Y-132396430D01*
X55864103Y-132377732D01*
X55800000Y-132371418D01*
X55727000Y-132371418D01*
X55727000Y-127140332D01*
X55970733Y-126896600D01*
X73427748Y-126896600D01*
X73381266Y-126966165D01*
X73296310Y-127171266D01*
X73253000Y-127389000D01*
X73253000Y-127611000D01*
X73296310Y-127828734D01*
X73381266Y-128033835D01*
X73504602Y-128218421D01*
X73653001Y-128366820D01*
X73653000Y-132871418D01*
X73580000Y-132871418D01*
X73515897Y-132877732D01*
X73454257Y-132896430D01*
X73397450Y-132926794D01*
X73347657Y-132967657D01*
X73306794Y-133017450D01*
X73276430Y-133074257D01*
X73257732Y-133135897D01*
X73251418Y-133200000D01*
X73251418Y-134800000D01*
X73257732Y-134864103D01*
X73276430Y-134925743D01*
X73306794Y-134982550D01*
X73347657Y-135032343D01*
X73397450Y-135073206D01*
X73454257Y-135103570D01*
X73515897Y-135122268D01*
X73580000Y-135128582D01*
X75180000Y-135128582D01*
X75244103Y-135122268D01*
X75305743Y-135103570D01*
X75362550Y-135073206D01*
X75412343Y-135032343D01*
X75453206Y-134982550D01*
X75483570Y-134925743D01*
X75502268Y-134864103D01*
X75508582Y-134800000D01*
X75508582Y-133889000D01*
X80873000Y-133889000D01*
X80873000Y-134111000D01*
X80916310Y-134328734D01*
X81001266Y-134533835D01*
X81124602Y-134718421D01*
X81281579Y-134875398D01*
X81466165Y-134998734D01*
X81671266Y-135083690D01*
X81889000Y-135127000D01*
X82111000Y-135127000D01*
X82328734Y-135083690D01*
X82533835Y-134998734D01*
X82718421Y-134875398D01*
X82866819Y-134727000D01*
X83564292Y-134727000D01*
X83600000Y-134730517D01*
X83742517Y-134716480D01*
X83879557Y-134674910D01*
X84005853Y-134607403D01*
X84116554Y-134516554D01*
X84139326Y-134488806D01*
X89901133Y-128727000D01*
X93633181Y-128727000D01*
X93781579Y-128875398D01*
X93966165Y-128998734D01*
X94171266Y-129083690D01*
X94389000Y-129127000D01*
X94611000Y-129127000D01*
X94828734Y-129083690D01*
X95033835Y-128998734D01*
X95218421Y-128875398D01*
X95366819Y-128727000D01*
X99264292Y-128727000D01*
X99300000Y-128730517D01*
X99442517Y-128716480D01*
X99485076Y-128703570D01*
X99579557Y-128674910D01*
X99705853Y-128607403D01*
X99816554Y-128516554D01*
X99839325Y-128488807D01*
X100101133Y-128227000D01*
X100271418Y-128227000D01*
X100271418Y-128400000D01*
X100277732Y-128464103D01*
X100296430Y-128525743D01*
X100326794Y-128582550D01*
X100367657Y-128632343D01*
X100417450Y-128673206D01*
X100474257Y-128703570D01*
X100535897Y-128722268D01*
X100600000Y-128728582D01*
X102400000Y-128728582D01*
X102464103Y-128722268D01*
X102525743Y-128703570D01*
X102582550Y-128673206D01*
X102632343Y-128632343D01*
X102673206Y-128582550D01*
X102703570Y-128525743D01*
X102722268Y-128464103D01*
X102728582Y-128400000D01*
X102728582Y-126600000D01*
X102722268Y-126535897D01*
X102703570Y-126474257D01*
X102673206Y-126417450D01*
X102632343Y-126367657D01*
X102582550Y-126326794D01*
X102525743Y-126296430D01*
X102464103Y-126277732D01*
X102400000Y-126271418D01*
X100600000Y-126271418D01*
X100535897Y-126277732D01*
X100474257Y-126296430D01*
X100417450Y-126326794D01*
X100367657Y-126367657D01*
X100326794Y-126417450D01*
X100296430Y-126474257D01*
X100277732Y-126535897D01*
X100271418Y-126600000D01*
X100271418Y-126773000D01*
X99835708Y-126773000D01*
X99800000Y-126769483D01*
X99657482Y-126783520D01*
X99591643Y-126803492D01*
X99520443Y-126825090D01*
X99394147Y-126892597D01*
X99283446Y-126983446D01*
X99260683Y-127011184D01*
X98998867Y-127273000D01*
X95366819Y-127273000D01*
X95218421Y-127124602D01*
X95033835Y-127001266D01*
X94828734Y-126916310D01*
X94611000Y-126873000D01*
X94389000Y-126873000D01*
X94171266Y-126916310D01*
X93966165Y-127001266D01*
X93781579Y-127124602D01*
X93633181Y-127273000D01*
X89635705Y-127273000D01*
X89599999Y-127269483D01*
X89564294Y-127273000D01*
X89564292Y-127273000D01*
X89457483Y-127283520D01*
X89320443Y-127325090D01*
X89194147Y-127392597D01*
X89083446Y-127483446D01*
X89060679Y-127511188D01*
X83298868Y-133273000D01*
X82866819Y-133273000D01*
X82718421Y-133124602D01*
X82533835Y-133001266D01*
X82328734Y-132916310D01*
X82111000Y-132873000D01*
X81889000Y-132873000D01*
X81671266Y-132916310D01*
X81466165Y-133001266D01*
X81281579Y-133124602D01*
X81124602Y-133281579D01*
X81001266Y-133466165D01*
X80916310Y-133671266D01*
X80873000Y-133889000D01*
X75508582Y-133889000D01*
X75508582Y-133200000D01*
X75502268Y-133135897D01*
X75483570Y-133074257D01*
X75453206Y-133017450D01*
X75412343Y-132967657D01*
X75362550Y-132926794D01*
X75305743Y-132896430D01*
X75244103Y-132877732D01*
X75180000Y-132871418D01*
X75107000Y-132871418D01*
X75107000Y-128366819D01*
X75255398Y-128218421D01*
X75378734Y-128033835D01*
X75463690Y-127828734D01*
X75507000Y-127611000D01*
X75507000Y-127389000D01*
X75463690Y-127171266D01*
X75378734Y-126966165D01*
X75332252Y-126896600D01*
X75749968Y-126896600D01*
X78172579Y-129319212D01*
X78195346Y-129346954D01*
X78306047Y-129437803D01*
X78432343Y-129505310D01*
X78569383Y-129546880D01*
X78676192Y-129557400D01*
X78676194Y-129557400D01*
X78711899Y-129560917D01*
X78747605Y-129557400D01*
X86206892Y-129557400D01*
X86242600Y-129560917D01*
X86385117Y-129546880D01*
X86385120Y-129546879D01*
X86522157Y-129505310D01*
X86648453Y-129437803D01*
X86759154Y-129346954D01*
X86781926Y-129319206D01*
X89874134Y-126227000D01*
X93633181Y-126227000D01*
X93781579Y-126375398D01*
X93966165Y-126498734D01*
X94171266Y-126583690D01*
X94389000Y-126627000D01*
X94611000Y-126627000D01*
X94828734Y-126583690D01*
X95033835Y-126498734D01*
X95218421Y-126375398D01*
X95375398Y-126218421D01*
X95498734Y-126033835D01*
X95583690Y-125828734D01*
X95627000Y-125611000D01*
X95627000Y-125389000D01*
X95583690Y-125171266D01*
X95498734Y-124966165D01*
X95413867Y-124839151D01*
X100273000Y-124839151D01*
X100273000Y-125080849D01*
X100320153Y-125317903D01*
X100412647Y-125541202D01*
X100546927Y-125742167D01*
X100717833Y-125913073D01*
X100918798Y-126047353D01*
X101142097Y-126139847D01*
X101379151Y-126187000D01*
X101620849Y-126187000D01*
X101857903Y-126139847D01*
X102081202Y-126047353D01*
X102282167Y-125913073D01*
X102453073Y-125742167D01*
X102587353Y-125541202D01*
X102679847Y-125317903D01*
X102727000Y-125080849D01*
X102727000Y-124839151D01*
X102679847Y-124602097D01*
X102587353Y-124378798D01*
X102453073Y-124177833D01*
X102282167Y-124006927D01*
X102081202Y-123872647D01*
X101857903Y-123780153D01*
X101620849Y-123733000D01*
X101379151Y-123733000D01*
X101142097Y-123780153D01*
X100918798Y-123872647D01*
X100717833Y-124006927D01*
X100546927Y-124177833D01*
X100412647Y-124378798D01*
X100320153Y-124602097D01*
X100273000Y-124839151D01*
X95413867Y-124839151D01*
X95375398Y-124781579D01*
X95218421Y-124624602D01*
X95033835Y-124501266D01*
X94828734Y-124416310D01*
X94611000Y-124373000D01*
X94389000Y-124373000D01*
X94171266Y-124416310D01*
X93966165Y-124501266D01*
X93781579Y-124624602D01*
X93633181Y-124773000D01*
X89608708Y-124773000D01*
X89573000Y-124769483D01*
X89430482Y-124783520D01*
X89293443Y-124825090D01*
X89167147Y-124892597D01*
X89056446Y-124983446D01*
X89033683Y-125011183D01*
X85941468Y-128103400D01*
X83128582Y-128103400D01*
X83128582Y-126700000D01*
X83122268Y-126635897D01*
X83103570Y-126574257D01*
X83073206Y-126517450D01*
X83032343Y-126467657D01*
X82982550Y-126426794D01*
X82925743Y-126396430D01*
X82864103Y-126377732D01*
X82800000Y-126371418D01*
X82727000Y-126371418D01*
X82727000Y-122955707D01*
X82730517Y-122919999D01*
X82716480Y-122777482D01*
X82685365Y-122674910D01*
X82674910Y-122640443D01*
X82607403Y-122514147D01*
X82516554Y-122403446D01*
X82488812Y-122380679D01*
X81607000Y-121498868D01*
X81607000Y-121398849D01*
X81567533Y-121200435D01*
X81490115Y-121013533D01*
X81377723Y-120845326D01*
X81234674Y-120702277D01*
X81066467Y-120589885D01*
X80879565Y-120512467D01*
X80681151Y-120473000D01*
X80581133Y-120473000D01*
X79119426Y-119011293D01*
X79096654Y-118983546D01*
X78985953Y-118892697D01*
X78859657Y-118825190D01*
X78722617Y-118783620D01*
X78615808Y-118773100D01*
X78580100Y-118769583D01*
X78544392Y-118773100D01*
X64301233Y-118773100D01*
X64069790Y-118541657D01*
X64171266Y-118583690D01*
X64389000Y-118627000D01*
X64611000Y-118627000D01*
X64828734Y-118583690D01*
X65033835Y-118498734D01*
X65218421Y-118375398D01*
X65375398Y-118218421D01*
X65498734Y-118033835D01*
X65583690Y-117828734D01*
X65627000Y-117611000D01*
X65627000Y-117398849D01*
X74473000Y-117398849D01*
X74473000Y-117601151D01*
X74512467Y-117799565D01*
X74589885Y-117986467D01*
X74702277Y-118154674D01*
X74845326Y-118297723D01*
X75013533Y-118410115D01*
X75200435Y-118487533D01*
X75398849Y-118527000D01*
X75601151Y-118527000D01*
X75799565Y-118487533D01*
X75986467Y-118410115D01*
X76154674Y-118297723D01*
X76297723Y-118154674D01*
X76410115Y-117986467D01*
X76487533Y-117799565D01*
X76527000Y-117601151D01*
X76527000Y-117398849D01*
X76487533Y-117200435D01*
X76410115Y-117013533D01*
X76297723Y-116845326D01*
X76154674Y-116702277D01*
X75986467Y-116589885D01*
X75799565Y-116512467D01*
X75601151Y-116473000D01*
X75398849Y-116473000D01*
X75200435Y-116512467D01*
X75013533Y-116589885D01*
X74845326Y-116702277D01*
X74702277Y-116845326D01*
X74589885Y-117013533D01*
X74512467Y-117200435D01*
X74473000Y-117398849D01*
X65627000Y-117398849D01*
X65627000Y-117389000D01*
X65583690Y-117171266D01*
X65498734Y-116966165D01*
X65375398Y-116781579D01*
X65218421Y-116624602D01*
X65033835Y-116501266D01*
X64828734Y-116416310D01*
X64611000Y-116373000D01*
X64389000Y-116373000D01*
X64171266Y-116416310D01*
X63966165Y-116501266D01*
X63781579Y-116624602D01*
X63624602Y-116781579D01*
X63501266Y-116966165D01*
X63416310Y-117171266D01*
X63373000Y-117389000D01*
X63373000Y-117611000D01*
X63416310Y-117828734D01*
X63458343Y-117930210D01*
X60627000Y-115098868D01*
X60627000Y-114889000D01*
X63373000Y-114889000D01*
X63373000Y-115111000D01*
X63416310Y-115328734D01*
X63501266Y-115533835D01*
X63624602Y-115718421D01*
X63781579Y-115875398D01*
X63966165Y-115998734D01*
X64171266Y-116083690D01*
X64389000Y-116127000D01*
X64611000Y-116127000D01*
X64828734Y-116083690D01*
X65033835Y-115998734D01*
X65063595Y-115978849D01*
X69973000Y-115978849D01*
X69973000Y-116181151D01*
X70012467Y-116379565D01*
X70089885Y-116566467D01*
X70202277Y-116734674D01*
X70345326Y-116877723D01*
X70513533Y-116990115D01*
X70700435Y-117067533D01*
X70898849Y-117107000D01*
X71101151Y-117107000D01*
X71299565Y-117067533D01*
X71486467Y-116990115D01*
X71654674Y-116877723D01*
X71797723Y-116734674D01*
X71910115Y-116566467D01*
X71987533Y-116379565D01*
X72027000Y-116181151D01*
X72027000Y-115978849D01*
X71987533Y-115780435D01*
X71910115Y-115593533D01*
X71797723Y-115425326D01*
X71654674Y-115282277D01*
X71486467Y-115169885D01*
X71299565Y-115092467D01*
X71101151Y-115053000D01*
X70898849Y-115053000D01*
X70700435Y-115092467D01*
X70513533Y-115169885D01*
X70345326Y-115282277D01*
X70202277Y-115425326D01*
X70089885Y-115593533D01*
X70012467Y-115780435D01*
X69973000Y-115978849D01*
X65063595Y-115978849D01*
X65218421Y-115875398D01*
X65375398Y-115718421D01*
X65498734Y-115533835D01*
X65583690Y-115328734D01*
X65627000Y-115111000D01*
X65627000Y-114901133D01*
X65801133Y-114727000D01*
X74774603Y-114727000D01*
X74845326Y-114797723D01*
X75013533Y-114910115D01*
X75200435Y-114987533D01*
X75398849Y-115027000D01*
X75601151Y-115027000D01*
X75799565Y-114987533D01*
X75986467Y-114910115D01*
X76154674Y-114797723D01*
X76297723Y-114654674D01*
X76410115Y-114486467D01*
X76487533Y-114299565D01*
X76527000Y-114101151D01*
X76527000Y-113898849D01*
X76487533Y-113700435D01*
X76410115Y-113513533D01*
X76297723Y-113345326D01*
X76219397Y-113267000D01*
X79860603Y-113267000D01*
X79782277Y-113345326D01*
X79669885Y-113513533D01*
X79592467Y-113700435D01*
X79553000Y-113898849D01*
X79553000Y-114101151D01*
X79592467Y-114299565D01*
X79669885Y-114486467D01*
X79782277Y-114654674D01*
X79925326Y-114797723D01*
X80093533Y-114910115D01*
X80280435Y-114987533D01*
X80478849Y-115027000D01*
X80681151Y-115027000D01*
X80879565Y-114987533D01*
X81066467Y-114910115D01*
X81234674Y-114797723D01*
X81377723Y-114654674D01*
X81490115Y-114486467D01*
X81567533Y-114299565D01*
X81607000Y-114101151D01*
X81607000Y-113898849D01*
X81567533Y-113700435D01*
X81550018Y-113658150D01*
X83973000Y-116081133D01*
X83973000Y-116181151D01*
X84012467Y-116379565D01*
X84089885Y-116566467D01*
X84202277Y-116734674D01*
X84240603Y-116773000D01*
X81305397Y-116773000D01*
X81234674Y-116702277D01*
X81066467Y-116589885D01*
X80879565Y-116512467D01*
X80681151Y-116473000D01*
X80478849Y-116473000D01*
X80280435Y-116512467D01*
X80093533Y-116589885D01*
X79925326Y-116702277D01*
X79782277Y-116845326D01*
X79669885Y-117013533D01*
X79592467Y-117200435D01*
X79553000Y-117398849D01*
X79553000Y-117601151D01*
X79592467Y-117799565D01*
X79669885Y-117986467D01*
X79782277Y-118154674D01*
X79925326Y-118297723D01*
X80093533Y-118410115D01*
X80280435Y-118487533D01*
X80478849Y-118527000D01*
X80681151Y-118527000D01*
X80879565Y-118487533D01*
X81066467Y-118410115D01*
X81234674Y-118297723D01*
X81305397Y-118227000D01*
X92698868Y-118227000D01*
X93873000Y-119401133D01*
X93873000Y-119611000D01*
X93916310Y-119828734D01*
X94001266Y-120033835D01*
X94124602Y-120218421D01*
X94281579Y-120375398D01*
X94466165Y-120498734D01*
X94671266Y-120583690D01*
X94889000Y-120627000D01*
X95111000Y-120627000D01*
X95328734Y-120583690D01*
X95533835Y-120498734D01*
X95718421Y-120375398D01*
X95875398Y-120218421D01*
X95998734Y-120033835D01*
X96083690Y-119828734D01*
X96127000Y-119611000D01*
X96127000Y-119389000D01*
X96373000Y-119389000D01*
X96373000Y-119611000D01*
X96416310Y-119828734D01*
X96501266Y-120033835D01*
X96624602Y-120218421D01*
X96781579Y-120375398D01*
X96966165Y-120498734D01*
X97171266Y-120583690D01*
X97389000Y-120627000D01*
X97611000Y-120627000D01*
X97828734Y-120583690D01*
X98033835Y-120498734D01*
X98218421Y-120375398D01*
X98375398Y-120218421D01*
X98498734Y-120033835D01*
X98583690Y-119828734D01*
X98627000Y-119611000D01*
X98627000Y-119389000D01*
X98583690Y-119171266D01*
X98498734Y-118966165D01*
X98375398Y-118781579D01*
X98218421Y-118624602D01*
X98033835Y-118501266D01*
X97828734Y-118416310D01*
X97611000Y-118373000D01*
X97389000Y-118373000D01*
X97171266Y-118416310D01*
X96966165Y-118501266D01*
X96781579Y-118624602D01*
X96624602Y-118781579D01*
X96501266Y-118966165D01*
X96416310Y-119171266D01*
X96373000Y-119389000D01*
X96127000Y-119389000D01*
X96083690Y-119171266D01*
X95998734Y-118966165D01*
X95875398Y-118781579D01*
X95718421Y-118624602D01*
X95533835Y-118501266D01*
X95328734Y-118416310D01*
X95111000Y-118373000D01*
X94901133Y-118373000D01*
X93727000Y-117198868D01*
X93727000Y-116301132D01*
X97137333Y-112890801D01*
X97394161Y-112997182D01*
X97795433Y-113077000D01*
X98204567Y-113077000D01*
X98605839Y-112997182D01*
X98983829Y-112840614D01*
X99324011Y-112613311D01*
X99613311Y-112324011D01*
X99840614Y-111983829D01*
X99997182Y-111605839D01*
X100077000Y-111204567D01*
X100077000Y-110795433D01*
X99997182Y-110394161D01*
X99840614Y-110016171D01*
X99613311Y-109675989D01*
X99324011Y-109386689D01*
X98983829Y-109159386D01*
X98605839Y-109002818D01*
X98204567Y-108923000D01*
X97795433Y-108923000D01*
X97394161Y-109002818D01*
X97016171Y-109159386D01*
X96675989Y-109386689D01*
X96386689Y-109675989D01*
X96159386Y-110016171D01*
X96002818Y-110394161D01*
X95923000Y-110795433D01*
X95923000Y-111204567D01*
X96002818Y-111605839D01*
X96109199Y-111862667D01*
X92511189Y-115460679D01*
X92483446Y-115483447D01*
X92395031Y-115591182D01*
X92392598Y-115594147D01*
X92325090Y-115720444D01*
X92283520Y-115857483D01*
X92269483Y-116000000D01*
X92273000Y-116035708D01*
X92273001Y-116773000D01*
X85759397Y-116773000D01*
X85797723Y-116734674D01*
X85910115Y-116566467D01*
X85987533Y-116379565D01*
X86027000Y-116181151D01*
X86027000Y-115978849D01*
X85987533Y-115780435D01*
X85910115Y-115593533D01*
X85797723Y-115425326D01*
X85654674Y-115282277D01*
X85486467Y-115169885D01*
X85299565Y-115092467D01*
X85101151Y-115053000D01*
X85001133Y-115053000D01*
X81999326Y-112051194D01*
X81976554Y-112023446D01*
X81865853Y-111932597D01*
X81739557Y-111865090D01*
X81602517Y-111823520D01*
X81495708Y-111813000D01*
X81460000Y-111809483D01*
X81424292Y-111813000D01*
X81131810Y-111813000D01*
X81154674Y-111797723D01*
X81297723Y-111654674D01*
X81410115Y-111486467D01*
X81487533Y-111299565D01*
X81527000Y-111101151D01*
X81527000Y-110898849D01*
X81487533Y-110700435D01*
X81410115Y-110513533D01*
X81379557Y-110467800D01*
X81939668Y-110467800D01*
X82960683Y-111488817D01*
X82983446Y-111516554D01*
X83094147Y-111607403D01*
X83220443Y-111674910D01*
X83357482Y-111716480D01*
X83500000Y-111730517D01*
X83535708Y-111727000D01*
X84274603Y-111727000D01*
X84345326Y-111797723D01*
X84513533Y-111910115D01*
X84700435Y-111987533D01*
X84898849Y-112027000D01*
X85101151Y-112027000D01*
X85299565Y-111987533D01*
X85486467Y-111910115D01*
X85654674Y-111797723D01*
X85797723Y-111654674D01*
X85910115Y-111486467D01*
X85987533Y-111299565D01*
X86027000Y-111101151D01*
X86027000Y-110898849D01*
X85987533Y-110700435D01*
X85910115Y-110513533D01*
X85797723Y-110345326D01*
X85654674Y-110202277D01*
X85486467Y-110089885D01*
X85299565Y-110012467D01*
X85101151Y-109973000D01*
X84898849Y-109973000D01*
X84700435Y-110012467D01*
X84513533Y-110089885D01*
X84345326Y-110202277D01*
X84274603Y-110273000D01*
X83801134Y-110273000D01*
X82780125Y-109251993D01*
X82757354Y-109224246D01*
X82646653Y-109133397D01*
X82520357Y-109065890D01*
X82383317Y-109024320D01*
X82276508Y-109013800D01*
X82240800Y-109010283D01*
X82205092Y-109013800D01*
X78214908Y-109013800D01*
X78179200Y-109010283D01*
X78036682Y-109024320D01*
X77999141Y-109035708D01*
X77899643Y-109065890D01*
X77773347Y-109133397D01*
X77662646Y-109224246D01*
X77639883Y-109251983D01*
X76618868Y-110273000D01*
X76145397Y-110273000D01*
X76074674Y-110202277D01*
X75906467Y-110089885D01*
X75719565Y-110012467D01*
X75521151Y-109973000D01*
X75318849Y-109973000D01*
X75120435Y-110012467D01*
X74933533Y-110089885D01*
X74765326Y-110202277D01*
X74622277Y-110345326D01*
X74509885Y-110513533D01*
X74432467Y-110700435D01*
X74393000Y-110898849D01*
X74393000Y-111101151D01*
X74432467Y-111299565D01*
X74509885Y-111486467D01*
X74622277Y-111654674D01*
X74765326Y-111797723D01*
X74788190Y-111813000D01*
X74341134Y-111813000D01*
X73039325Y-110511193D01*
X73016554Y-110483446D01*
X72905853Y-110392597D01*
X72779557Y-110325090D01*
X72642517Y-110283520D01*
X72535708Y-110273000D01*
X72500000Y-110269483D01*
X72464292Y-110273000D01*
X71725397Y-110273000D01*
X71654674Y-110202277D01*
X71486467Y-110089885D01*
X71299565Y-110012467D01*
X71101151Y-109973000D01*
X70898849Y-109973000D01*
X70700435Y-110012467D01*
X70513533Y-110089885D01*
X70345326Y-110202277D01*
X70202277Y-110345326D01*
X70089885Y-110513533D01*
X70012467Y-110700435D01*
X69973000Y-110898849D01*
X69973000Y-111101151D01*
X70012467Y-111299565D01*
X70089885Y-111486467D01*
X70202277Y-111654674D01*
X70345326Y-111797723D01*
X70513533Y-111910115D01*
X70700435Y-111987533D01*
X70898849Y-112027000D01*
X71101151Y-112027000D01*
X71299565Y-111987533D01*
X71486467Y-111910115D01*
X71654674Y-111797723D01*
X71725397Y-111727000D01*
X72198868Y-111727000D01*
X73500683Y-113028817D01*
X73523446Y-113056554D01*
X73634147Y-113147403D01*
X73760443Y-113214910D01*
X73897482Y-113256480D01*
X74040000Y-113270517D01*
X74075708Y-113267000D01*
X74780603Y-113267000D01*
X74774603Y-113273000D01*
X65535708Y-113273000D01*
X65500000Y-113269483D01*
X65357482Y-113283520D01*
X65220443Y-113325090D01*
X65094147Y-113392597D01*
X64983446Y-113483446D01*
X64960679Y-113511188D01*
X64598867Y-113873000D01*
X64389000Y-113873000D01*
X64171266Y-113916310D01*
X63966165Y-114001266D01*
X63781579Y-114124602D01*
X63624602Y-114281579D01*
X63501266Y-114466165D01*
X63416310Y-114671266D01*
X63373000Y-114889000D01*
X60627000Y-114889000D01*
X60583690Y-114671266D01*
X60498734Y-114466165D01*
X60375398Y-114281579D01*
X60218421Y-114124602D01*
X60033835Y-114001266D01*
X59828734Y-113916310D01*
X59611000Y-113873000D01*
X59389000Y-113873000D01*
X59171266Y-113916310D01*
X58966165Y-114001266D01*
X58781579Y-114124602D01*
X58624602Y-114281579D01*
X58501266Y-114466165D01*
X58416310Y-114671266D01*
X58373000Y-114889000D01*
X58373000Y-115111000D01*
X58416310Y-115328734D01*
X58501266Y-115533835D01*
X58624602Y-115718421D01*
X58781579Y-115875398D01*
X58966165Y-115998734D01*
X59171266Y-116083690D01*
X59389000Y-116127000D01*
X59598868Y-116127000D01*
X59930211Y-116458343D01*
X59828734Y-116416310D01*
X59611000Y-116373000D01*
X59389000Y-116373000D01*
X59171266Y-116416310D01*
X58966165Y-116501266D01*
X58781579Y-116624602D01*
X58633181Y-116773000D01*
X54866819Y-116773000D01*
X54718421Y-116624602D01*
X54533835Y-116501266D01*
X54328734Y-116416310D01*
X54111000Y-116373000D01*
X53889000Y-116373000D01*
X53671266Y-116416310D01*
X53466165Y-116501266D01*
X53281579Y-116624602D01*
X53124602Y-116781579D01*
X53103607Y-116813000D01*
X48429801Y-116813000D01*
X48414236Y-116789706D01*
X48250294Y-116625764D01*
X48057519Y-116496956D01*
X47843318Y-116408231D01*
X47615924Y-116363000D01*
X47384076Y-116363000D01*
X47156682Y-116408231D01*
X46942481Y-116496956D01*
X46749706Y-116625764D01*
X46585764Y-116789706D01*
X46456956Y-116982481D01*
X46368231Y-117196682D01*
X46323000Y-117424076D01*
X41352000Y-117424076D01*
X41352000Y-114150000D01*
X46321418Y-114150000D01*
X46321418Y-115850000D01*
X46327732Y-115914103D01*
X46346430Y-115975743D01*
X46376794Y-116032550D01*
X46417657Y-116082343D01*
X46467450Y-116123206D01*
X46524257Y-116153570D01*
X46585897Y-116172268D01*
X46650000Y-116178582D01*
X48350000Y-116178582D01*
X48414103Y-116172268D01*
X48475743Y-116153570D01*
X48532550Y-116123206D01*
X48582343Y-116082343D01*
X48623206Y-116032550D01*
X48653570Y-115975743D01*
X48672268Y-115914103D01*
X48678582Y-115850000D01*
X48678582Y-114889000D01*
X52873000Y-114889000D01*
X52873000Y-115111000D01*
X52916310Y-115328734D01*
X53001266Y-115533835D01*
X53124602Y-115718421D01*
X53281579Y-115875398D01*
X53466165Y-115998734D01*
X53671266Y-116083690D01*
X53889000Y-116127000D01*
X54111000Y-116127000D01*
X54328734Y-116083690D01*
X54533835Y-115998734D01*
X54718421Y-115875398D01*
X54875398Y-115718421D01*
X54998734Y-115533835D01*
X55083690Y-115328734D01*
X55127000Y-115111000D01*
X55127000Y-114889000D01*
X55083690Y-114671266D01*
X54998734Y-114466165D01*
X54875398Y-114281579D01*
X54718421Y-114124602D01*
X54533835Y-114001266D01*
X54328734Y-113916310D01*
X54111000Y-113873000D01*
X53889000Y-113873000D01*
X53671266Y-113916310D01*
X53466165Y-114001266D01*
X53281579Y-114124602D01*
X53124602Y-114281579D01*
X53001266Y-114466165D01*
X52916310Y-114671266D01*
X52873000Y-114889000D01*
X48678582Y-114889000D01*
X48678582Y-114150000D01*
X48672268Y-114085897D01*
X48653570Y-114024257D01*
X48623206Y-113967450D01*
X48582343Y-113917657D01*
X48532550Y-113876794D01*
X48475743Y-113846430D01*
X48414103Y-113827732D01*
X48350000Y-113821418D01*
X46650000Y-113821418D01*
X46585897Y-113827732D01*
X46524257Y-113846430D01*
X46467450Y-113876794D01*
X46417657Y-113917657D01*
X46376794Y-113967450D01*
X46346430Y-114024257D01*
X46327732Y-114085897D01*
X46321418Y-114150000D01*
X41352000Y-114150000D01*
X41352000Y-95636000D01*
X44631783Y-95636000D01*
X44635300Y-95671708D01*
X44635301Y-102993782D01*
X44631783Y-103029500D01*
X44645820Y-103172017D01*
X44687390Y-103309056D01*
X44705115Y-103342217D01*
X44754898Y-103435353D01*
X44845747Y-103546054D01*
X44873489Y-103568821D01*
X50793479Y-109488812D01*
X50816246Y-109516554D01*
X50926947Y-109607403D01*
X50981346Y-109636480D01*
X51053243Y-109674910D01*
X51190282Y-109716480D01*
X51332799Y-109730517D01*
X51368507Y-109727000D01*
X58013181Y-109727000D01*
X58161579Y-109875398D01*
X58346165Y-109998734D01*
X58551266Y-110083690D01*
X58769000Y-110127000D01*
X58991000Y-110127000D01*
X59208734Y-110083690D01*
X59413835Y-109998734D01*
X59598421Y-109875398D01*
X59755398Y-109718421D01*
X59878734Y-109533835D01*
X59963690Y-109328734D01*
X60007000Y-109111000D01*
X60007000Y-108889000D01*
X65373000Y-108889000D01*
X65373000Y-109111000D01*
X65416310Y-109328734D01*
X65501266Y-109533835D01*
X65624602Y-109718421D01*
X65781579Y-109875398D01*
X65966165Y-109998734D01*
X66171266Y-110083690D01*
X66389000Y-110127000D01*
X66611000Y-110127000D01*
X66828734Y-110083690D01*
X67033835Y-109998734D01*
X67218421Y-109875398D01*
X67366819Y-109727000D01*
X68064292Y-109727000D01*
X68100000Y-109730517D01*
X68242517Y-109716480D01*
X68379557Y-109674910D01*
X68505853Y-109607403D01*
X68616554Y-109516554D01*
X68682208Y-109436553D01*
X68707403Y-109405853D01*
X68774910Y-109279557D01*
X68777668Y-109270464D01*
X73201133Y-104847000D01*
X73633181Y-104847000D01*
X73781579Y-104995398D01*
X73966165Y-105118734D01*
X74171266Y-105203690D01*
X74389000Y-105247000D01*
X74611000Y-105247000D01*
X74828734Y-105203690D01*
X75033835Y-105118734D01*
X75218421Y-104995398D01*
X75375398Y-104838421D01*
X75498734Y-104653835D01*
X75583690Y-104448734D01*
X75627000Y-104231000D01*
X75627000Y-104009000D01*
X75583690Y-103791266D01*
X75498734Y-103586165D01*
X75375398Y-103401579D01*
X75218421Y-103244602D01*
X75033835Y-103121266D01*
X74828734Y-103036310D01*
X74611000Y-102993000D01*
X74389000Y-102993000D01*
X74171266Y-103036310D01*
X73966165Y-103121266D01*
X73781579Y-103244602D01*
X73633181Y-103393000D01*
X72935707Y-103393000D01*
X72899999Y-103389483D01*
X72757482Y-103403520D01*
X72684222Y-103425743D01*
X72620443Y-103445090D01*
X72494147Y-103512597D01*
X72383446Y-103603446D01*
X72360679Y-103631188D01*
X67718868Y-108273000D01*
X67366819Y-108273000D01*
X67218421Y-108124602D01*
X67033835Y-108001266D01*
X66828734Y-107916310D01*
X66611000Y-107873000D01*
X66389000Y-107873000D01*
X66171266Y-107916310D01*
X65966165Y-108001266D01*
X65781579Y-108124602D01*
X65624602Y-108281579D01*
X65501266Y-108466165D01*
X65416310Y-108671266D01*
X65373000Y-108889000D01*
X60007000Y-108889000D01*
X59963690Y-108671266D01*
X59878734Y-108466165D01*
X59755398Y-108281579D01*
X59598421Y-108124602D01*
X59413835Y-108001266D01*
X59208734Y-107916310D01*
X58991000Y-107873000D01*
X58769000Y-107873000D01*
X58551266Y-107916310D01*
X58346165Y-108001266D01*
X58161579Y-108124602D01*
X58013181Y-108273000D01*
X51633933Y-108273000D01*
X47612932Y-104252000D01*
X48044340Y-104252000D01*
X48474592Y-104166418D01*
X48879880Y-103998542D01*
X49244630Y-103754824D01*
X49554824Y-103444630D01*
X49700240Y-103227000D01*
X51371418Y-103227000D01*
X51371418Y-103300000D01*
X51377732Y-103364103D01*
X51396430Y-103425743D01*
X51426794Y-103482550D01*
X51467657Y-103532343D01*
X51517450Y-103573206D01*
X51574257Y-103603570D01*
X51635897Y-103622268D01*
X51700000Y-103628582D01*
X53300000Y-103628582D01*
X53364103Y-103622268D01*
X53425743Y-103603570D01*
X53482550Y-103573206D01*
X53532343Y-103532343D01*
X53573206Y-103482550D01*
X53603570Y-103425743D01*
X53622268Y-103364103D01*
X53628582Y-103300000D01*
X53628582Y-101700000D01*
X53622268Y-101635897D01*
X53603570Y-101574257D01*
X53573206Y-101517450D01*
X53532343Y-101467657D01*
X53482550Y-101426794D01*
X53425743Y-101396430D01*
X53364103Y-101377732D01*
X53300000Y-101371418D01*
X51700000Y-101371418D01*
X51635897Y-101377732D01*
X51574257Y-101396430D01*
X51517450Y-101426794D01*
X51467657Y-101467657D01*
X51426794Y-101517450D01*
X51396430Y-101574257D01*
X51377732Y-101635897D01*
X51371418Y-101700000D01*
X51371418Y-101773000D01*
X50045504Y-101773000D01*
X49966418Y-101375408D01*
X49798542Y-100970120D01*
X49554824Y-100605370D01*
X49244630Y-100295176D01*
X48879880Y-100051458D01*
X48474592Y-99883582D01*
X48044340Y-99798000D01*
X47605660Y-99798000D01*
X47175408Y-99883582D01*
X46770120Y-100051458D01*
X46405370Y-100295176D01*
X46095176Y-100605370D01*
X46089300Y-100614164D01*
X46089300Y-98085836D01*
X46095176Y-98094630D01*
X46405370Y-98404824D01*
X46770120Y-98648542D01*
X47175408Y-98816418D01*
X47605660Y-98902000D01*
X48044340Y-98902000D01*
X48474592Y-98816418D01*
X48802473Y-98680605D01*
X49530679Y-99408812D01*
X49553446Y-99436554D01*
X49664147Y-99527403D01*
X49790443Y-99594910D01*
X49927483Y-99636480D01*
X50034292Y-99647000D01*
X50034294Y-99647000D01*
X50069999Y-99650517D01*
X50105705Y-99647000D01*
X56884701Y-99647000D01*
X56884700Y-102575992D01*
X56881183Y-102611700D01*
X56895220Y-102754217D01*
X56902907Y-102779557D01*
X56936790Y-102891256D01*
X57004297Y-103017552D01*
X57095146Y-103128253D01*
X57122889Y-103151021D01*
X57873000Y-103901133D01*
X57873000Y-104111000D01*
X57916310Y-104328734D01*
X57958343Y-104430210D01*
X56127000Y-102598868D01*
X56127000Y-102389000D01*
X56083690Y-102171266D01*
X55998734Y-101966165D01*
X55875398Y-101781579D01*
X55718421Y-101624602D01*
X55533835Y-101501266D01*
X55328734Y-101416310D01*
X55111000Y-101373000D01*
X54889000Y-101373000D01*
X54671266Y-101416310D01*
X54466165Y-101501266D01*
X54281579Y-101624602D01*
X54124602Y-101781579D01*
X54001266Y-101966165D01*
X53916310Y-102171266D01*
X53873000Y-102389000D01*
X53873000Y-102611000D01*
X53916310Y-102828734D01*
X54001266Y-103033835D01*
X54124602Y-103218421D01*
X54281579Y-103375398D01*
X54466165Y-103498734D01*
X54671266Y-103583690D01*
X54889000Y-103627000D01*
X55098868Y-103627000D01*
X57317179Y-105845312D01*
X57339946Y-105873054D01*
X57450647Y-105963903D01*
X57487926Y-105983829D01*
X57576943Y-106031410D01*
X57713982Y-106072980D01*
X57856499Y-106087017D01*
X57892207Y-106083500D01*
X63627792Y-106083500D01*
X63663500Y-106087017D01*
X63806017Y-106072980D01*
X63943057Y-106031410D01*
X64069353Y-105963903D01*
X64180054Y-105873054D01*
X64202825Y-105845307D01*
X65321134Y-104727000D01*
X65753181Y-104727000D01*
X65901579Y-104875398D01*
X66086165Y-104998734D01*
X66291266Y-105083690D01*
X66509000Y-105127000D01*
X66731000Y-105127000D01*
X66948734Y-105083690D01*
X67153835Y-104998734D01*
X67338421Y-104875398D01*
X67495398Y-104718421D01*
X67618734Y-104533835D01*
X67703690Y-104328734D01*
X67747000Y-104111000D01*
X67747000Y-103889000D01*
X67703690Y-103671266D01*
X67618734Y-103466165D01*
X67495398Y-103281579D01*
X67338421Y-103124602D01*
X67153835Y-103001266D01*
X66948734Y-102916310D01*
X66731000Y-102873000D01*
X66509000Y-102873000D01*
X66291266Y-102916310D01*
X66086165Y-103001266D01*
X65901579Y-103124602D01*
X65753181Y-103273000D01*
X65055708Y-103273000D01*
X65020000Y-103269483D01*
X64877482Y-103283520D01*
X64740443Y-103325090D01*
X64614147Y-103392597D01*
X64503446Y-103483446D01*
X64480684Y-103511182D01*
X63362368Y-104629500D01*
X59934813Y-104629500D01*
X59998734Y-104533835D01*
X60083690Y-104328734D01*
X60127000Y-104111000D01*
X60127000Y-103889000D01*
X60083690Y-103671266D01*
X59998734Y-103466165D01*
X59875398Y-103281579D01*
X59718421Y-103124602D01*
X59533835Y-103001266D01*
X59328734Y-102916310D01*
X59111000Y-102873000D01*
X58901133Y-102873000D01*
X58501505Y-102473372D01*
X58671266Y-102543690D01*
X58889000Y-102587000D01*
X59111000Y-102587000D01*
X59328734Y-102543690D01*
X59533835Y-102458734D01*
X59718421Y-102335398D01*
X59875398Y-102178421D01*
X59998734Y-101993835D01*
X60083690Y-101788734D01*
X60127000Y-101571000D01*
X60127000Y-101349000D01*
X65493000Y-101349000D01*
X65493000Y-101571000D01*
X65536310Y-101788734D01*
X65621266Y-101993835D01*
X65744602Y-102178421D01*
X65901579Y-102335398D01*
X66086165Y-102458734D01*
X66291266Y-102543690D01*
X66509000Y-102587000D01*
X66731000Y-102587000D01*
X66948734Y-102543690D01*
X67153835Y-102458734D01*
X67338421Y-102335398D01*
X67486819Y-102187000D01*
X68184292Y-102187000D01*
X68220000Y-102190517D01*
X68255708Y-102187000D01*
X68362517Y-102176480D01*
X68499557Y-102134910D01*
X68625853Y-102067403D01*
X68736554Y-101976554D01*
X68827403Y-101865853D01*
X68894910Y-101739557D01*
X68936480Y-101602517D01*
X68949630Y-101469000D01*
X73373000Y-101469000D01*
X73373000Y-101691000D01*
X73416310Y-101908734D01*
X73501266Y-102113835D01*
X73624602Y-102298421D01*
X73781579Y-102455398D01*
X73966165Y-102578734D01*
X74171266Y-102663690D01*
X74389000Y-102707000D01*
X74611000Y-102707000D01*
X74828734Y-102663690D01*
X75033835Y-102578734D01*
X75218421Y-102455398D01*
X75366819Y-102307000D01*
X75798868Y-102307000D01*
X79451579Y-105959712D01*
X79474346Y-105987454D01*
X79585047Y-106078303D01*
X79711343Y-106145810D01*
X79848382Y-106187380D01*
X79990900Y-106201417D01*
X80026608Y-106197900D01*
X96302424Y-106197900D01*
X96386689Y-106324011D01*
X96675989Y-106613311D01*
X97016171Y-106840614D01*
X97394161Y-106997182D01*
X97795433Y-107077000D01*
X98204567Y-107077000D01*
X98605839Y-106997182D01*
X98983829Y-106840614D01*
X99324011Y-106613311D01*
X99613311Y-106324011D01*
X99840614Y-105983829D01*
X99997182Y-105605839D01*
X100077000Y-105204567D01*
X100077000Y-104795433D01*
X99997182Y-104394161D01*
X99840614Y-104016171D01*
X99613311Y-103675989D01*
X99324011Y-103386689D01*
X98983829Y-103159386D01*
X98605839Y-103002818D01*
X98204567Y-102923000D01*
X97795433Y-102923000D01*
X97394161Y-103002818D01*
X97016171Y-103159386D01*
X96675989Y-103386689D01*
X96386689Y-103675989D01*
X96159386Y-104016171D01*
X96002818Y-104394161D01*
X95933251Y-104743900D01*
X83058555Y-104743900D01*
X83118734Y-104653835D01*
X83203690Y-104448734D01*
X83247000Y-104231000D01*
X83247000Y-104009000D01*
X83203690Y-103791266D01*
X83118734Y-103586165D01*
X82995398Y-103401579D01*
X82838421Y-103244602D01*
X82653835Y-103121266D01*
X82448734Y-103036310D01*
X82231000Y-102993000D01*
X82009000Y-102993000D01*
X81791266Y-103036310D01*
X81586165Y-103121266D01*
X81401579Y-103244602D01*
X81244602Y-103401579D01*
X81121266Y-103586165D01*
X81036310Y-103791266D01*
X80993000Y-104009000D01*
X80993000Y-104231000D01*
X81036310Y-104448734D01*
X81121266Y-104653835D01*
X81181445Y-104743900D01*
X80292033Y-104743900D01*
X77017133Y-101469000D01*
X80993000Y-101469000D01*
X80993000Y-101691000D01*
X81036310Y-101908734D01*
X81121266Y-102113835D01*
X81244602Y-102298421D01*
X81401579Y-102455398D01*
X81586165Y-102578734D01*
X81791266Y-102663690D01*
X82009000Y-102707000D01*
X82231000Y-102707000D01*
X82448734Y-102663690D01*
X82653835Y-102578734D01*
X82838421Y-102455398D01*
X82995398Y-102298421D01*
X83118734Y-102113835D01*
X83203690Y-101908734D01*
X83247000Y-101691000D01*
X83247000Y-101469000D01*
X83203690Y-101251266D01*
X83118734Y-101046165D01*
X82995398Y-100861579D01*
X82838421Y-100704602D01*
X82653835Y-100581266D01*
X82448734Y-100496310D01*
X82231000Y-100453000D01*
X82009000Y-100453000D01*
X81791266Y-100496310D01*
X81586165Y-100581266D01*
X81401579Y-100704602D01*
X81244602Y-100861579D01*
X81121266Y-101046165D01*
X81036310Y-101251266D01*
X80993000Y-101469000D01*
X77017133Y-101469000D01*
X76639326Y-101091194D01*
X76616554Y-101063446D01*
X76505853Y-100972597D01*
X76379557Y-100905090D01*
X76242517Y-100863520D01*
X76135708Y-100853000D01*
X76100000Y-100849483D01*
X76064292Y-100853000D01*
X75366819Y-100853000D01*
X75218421Y-100704602D01*
X75033835Y-100581266D01*
X74828734Y-100496310D01*
X74611000Y-100453000D01*
X74389000Y-100453000D01*
X74171266Y-100496310D01*
X73966165Y-100581266D01*
X73781579Y-100704602D01*
X73624602Y-100861579D01*
X73501266Y-101046165D01*
X73416310Y-101251266D01*
X73373000Y-101469000D01*
X68949630Y-101469000D01*
X68950517Y-101460000D01*
X68947000Y-101424292D01*
X68947000Y-100661132D01*
X70679132Y-98929000D01*
X73373000Y-98929000D01*
X73373000Y-99151000D01*
X73416310Y-99368734D01*
X73501266Y-99573835D01*
X73624602Y-99758421D01*
X73781579Y-99915398D01*
X73966165Y-100038734D01*
X74171266Y-100123690D01*
X74389000Y-100167000D01*
X74611000Y-100167000D01*
X74828734Y-100123690D01*
X75033835Y-100038734D01*
X75218421Y-99915398D01*
X75375398Y-99758421D01*
X75498734Y-99573835D01*
X75583690Y-99368734D01*
X75627000Y-99151000D01*
X75627000Y-98929000D01*
X75583690Y-98711266D01*
X75498734Y-98506165D01*
X75375398Y-98321579D01*
X75218421Y-98164602D01*
X75033835Y-98041266D01*
X74828734Y-97956310D01*
X74611000Y-97913000D01*
X74389000Y-97913000D01*
X74171266Y-97956310D01*
X73966165Y-98041266D01*
X73781579Y-98164602D01*
X73624602Y-98321579D01*
X73501266Y-98506165D01*
X73416310Y-98711266D01*
X73373000Y-98929000D01*
X70679132Y-98929000D01*
X73371418Y-96236715D01*
X73371418Y-97300000D01*
X73377732Y-97364103D01*
X73396430Y-97425743D01*
X73426794Y-97482550D01*
X73467657Y-97532343D01*
X73517450Y-97573206D01*
X73574257Y-97603570D01*
X73635897Y-97622268D01*
X73700000Y-97628582D01*
X75300000Y-97628582D01*
X75364103Y-97622268D01*
X75425743Y-97603570D01*
X75482550Y-97573206D01*
X75532343Y-97532343D01*
X75573206Y-97482550D01*
X75603570Y-97425743D01*
X75622268Y-97364103D01*
X75628582Y-97300000D01*
X75628582Y-95896600D01*
X76348468Y-95896600D01*
X79980679Y-99528812D01*
X80003446Y-99556554D01*
X80114147Y-99647403D01*
X80240443Y-99714910D01*
X80345587Y-99746805D01*
X80377482Y-99756480D01*
X80519999Y-99770517D01*
X80555707Y-99767000D01*
X81253181Y-99767000D01*
X81401579Y-99915398D01*
X81586165Y-100038734D01*
X81791266Y-100123690D01*
X82009000Y-100167000D01*
X82231000Y-100167000D01*
X82448734Y-100123690D01*
X82653835Y-100038734D01*
X82838421Y-99915398D01*
X82995398Y-99758421D01*
X83118734Y-99573835D01*
X83203690Y-99368734D01*
X83247000Y-99151000D01*
X83247000Y-98929000D01*
X83203690Y-98711266D01*
X83118734Y-98506165D01*
X82995398Y-98321579D01*
X82838421Y-98164602D01*
X82653835Y-98041266D01*
X82448734Y-97956310D01*
X82231000Y-97913000D01*
X82009000Y-97913000D01*
X81791266Y-97956310D01*
X81586165Y-98041266D01*
X81401579Y-98164602D01*
X81253181Y-98313000D01*
X80821133Y-98313000D01*
X78897133Y-96389000D01*
X80993000Y-96389000D01*
X80993000Y-96611000D01*
X81036310Y-96828734D01*
X81121266Y-97033835D01*
X81244602Y-97218421D01*
X81401579Y-97375398D01*
X81586165Y-97498734D01*
X81791266Y-97583690D01*
X82009000Y-97627000D01*
X82231000Y-97627000D01*
X82448734Y-97583690D01*
X82653835Y-97498734D01*
X82838421Y-97375398D01*
X82995398Y-97218421D01*
X83118734Y-97033835D01*
X83203690Y-96828734D01*
X83247000Y-96611000D01*
X83247000Y-96389000D01*
X83203690Y-96171266D01*
X83118734Y-95966165D01*
X82995398Y-95781579D01*
X82838421Y-95624602D01*
X82653835Y-95501266D01*
X82448734Y-95416310D01*
X82231000Y-95373000D01*
X82009000Y-95373000D01*
X81791266Y-95416310D01*
X81586165Y-95501266D01*
X81401579Y-95624602D01*
X81244602Y-95781579D01*
X81121266Y-95966165D01*
X81036310Y-96171266D01*
X80993000Y-96389000D01*
X78897133Y-96389000D01*
X77188926Y-94680794D01*
X77166154Y-94653046D01*
X77055453Y-94562197D01*
X76929157Y-94494690D01*
X76792117Y-94453120D01*
X76685308Y-94442600D01*
X76649600Y-94439083D01*
X76613892Y-94442600D01*
X73446107Y-94442600D01*
X73410399Y-94439083D01*
X73267882Y-94453120D01*
X73130843Y-94494690D01*
X73004547Y-94562197D01*
X72893846Y-94653046D01*
X72871079Y-94680788D01*
X67731189Y-99820679D01*
X67703447Y-99843446D01*
X67612598Y-99954147D01*
X67545090Y-100080444D01*
X67503520Y-100217483D01*
X67489483Y-100360000D01*
X67493001Y-100395717D01*
X67493001Y-100733000D01*
X67486819Y-100733000D01*
X67338421Y-100584602D01*
X67153835Y-100461266D01*
X66948734Y-100376310D01*
X66731000Y-100333000D01*
X66509000Y-100333000D01*
X66291266Y-100376310D01*
X66086165Y-100461266D01*
X65901579Y-100584602D01*
X65744602Y-100741579D01*
X65621266Y-100926165D01*
X65536310Y-101131266D01*
X65493000Y-101349000D01*
X60127000Y-101349000D01*
X60083690Y-101131266D01*
X59998734Y-100926165D01*
X59875398Y-100741579D01*
X59718421Y-100584602D01*
X59533835Y-100461266D01*
X59328734Y-100376310D01*
X59111000Y-100333000D01*
X58889000Y-100333000D01*
X58671266Y-100376310D01*
X58466165Y-100461266D01*
X58338700Y-100546435D01*
X58338700Y-99833565D01*
X58466165Y-99918734D01*
X58671266Y-100003690D01*
X58889000Y-100047000D01*
X59111000Y-100047000D01*
X59328734Y-100003690D01*
X59533835Y-99918734D01*
X59718421Y-99795398D01*
X59875398Y-99638421D01*
X59998734Y-99453835D01*
X60083690Y-99248734D01*
X60127000Y-99031000D01*
X60127000Y-98821132D01*
X60139132Y-98809000D01*
X65493000Y-98809000D01*
X65493000Y-99031000D01*
X65536310Y-99248734D01*
X65621266Y-99453835D01*
X65744602Y-99638421D01*
X65901579Y-99795398D01*
X66086165Y-99918734D01*
X66291266Y-100003690D01*
X66509000Y-100047000D01*
X66731000Y-100047000D01*
X66948734Y-100003690D01*
X67153835Y-99918734D01*
X67338421Y-99795398D01*
X67495398Y-99638421D01*
X67618734Y-99453835D01*
X67703690Y-99248734D01*
X67747000Y-99031000D01*
X67747000Y-98809000D01*
X67703690Y-98591266D01*
X67618734Y-98386165D01*
X67495398Y-98201579D01*
X67338421Y-98044602D01*
X67153835Y-97921266D01*
X66948734Y-97836310D01*
X66731000Y-97793000D01*
X66509000Y-97793000D01*
X66291266Y-97836310D01*
X66086165Y-97921266D01*
X65901579Y-98044602D01*
X65744602Y-98201579D01*
X65621266Y-98386165D01*
X65536310Y-98591266D01*
X65493000Y-98809000D01*
X60139132Y-98809000D01*
X62679133Y-96269000D01*
X65493000Y-96269000D01*
X65493000Y-96491000D01*
X65536310Y-96708734D01*
X65621266Y-96913835D01*
X65744602Y-97098421D01*
X65901579Y-97255398D01*
X66086165Y-97378734D01*
X66291266Y-97463690D01*
X66509000Y-97507000D01*
X66731000Y-97507000D01*
X66948734Y-97463690D01*
X67153835Y-97378734D01*
X67338421Y-97255398D01*
X67495398Y-97098421D01*
X67618734Y-96913835D01*
X67703690Y-96708734D01*
X67747000Y-96491000D01*
X67747000Y-96269000D01*
X67703690Y-96051266D01*
X67618734Y-95846165D01*
X67495398Y-95661579D01*
X67338421Y-95504602D01*
X67153835Y-95381266D01*
X66948734Y-95296310D01*
X66731000Y-95253000D01*
X66509000Y-95253000D01*
X66291266Y-95296310D01*
X66086165Y-95381266D01*
X65901579Y-95504602D01*
X65744602Y-95661579D01*
X65621266Y-95846165D01*
X65536310Y-96051266D01*
X65493000Y-96269000D01*
X62679133Y-96269000D01*
X64568822Y-94379312D01*
X64596553Y-94356554D01*
X64619312Y-94328822D01*
X64619316Y-94328818D01*
X64687402Y-94245854D01*
X64687404Y-94245852D01*
X64754910Y-94119557D01*
X64796480Y-93982517D01*
X64807000Y-93875708D01*
X64807000Y-93875707D01*
X64810517Y-93840000D01*
X64807000Y-93804292D01*
X64807000Y-91929801D01*
X64830294Y-91914236D01*
X64994236Y-91750294D01*
X65123044Y-91557519D01*
X65211769Y-91343318D01*
X65257000Y-91115924D01*
X65257000Y-90884076D01*
X65211769Y-90656682D01*
X65123044Y-90442481D01*
X64994236Y-90249706D01*
X64830294Y-90085764D01*
X64637519Y-89956956D01*
X64423318Y-89868231D01*
X64195924Y-89823000D01*
X63964076Y-89823000D01*
X63736682Y-89868231D01*
X63522481Y-89956956D01*
X63329706Y-90085764D01*
X63165764Y-90249706D01*
X63036956Y-90442481D01*
X62948231Y-90656682D01*
X62903000Y-90884076D01*
X62903000Y-91115924D01*
X62948231Y-91343318D01*
X63036956Y-91557519D01*
X63165764Y-91750294D01*
X63329706Y-91914236D01*
X63353001Y-91929801D01*
X63353000Y-93538866D01*
X60128582Y-96763285D01*
X60128582Y-95580000D01*
X60122268Y-95515897D01*
X60103570Y-95454257D01*
X60073206Y-95397450D01*
X60032343Y-95347657D01*
X59982550Y-95306794D01*
X59925743Y-95276430D01*
X59864103Y-95257732D01*
X59800000Y-95251418D01*
X58200000Y-95251418D01*
X58135897Y-95257732D01*
X58074257Y-95276430D01*
X58017450Y-95306794D01*
X57967657Y-95347657D01*
X57926794Y-95397450D01*
X57896430Y-95454257D01*
X57877732Y-95515897D01*
X57871418Y-95580000D01*
X57871418Y-97180000D01*
X57877732Y-97244103D01*
X57896430Y-97305743D01*
X57926794Y-97362550D01*
X57967657Y-97412343D01*
X58017450Y-97453206D01*
X58074257Y-97483570D01*
X58135897Y-97502268D01*
X58200000Y-97508582D01*
X59383286Y-97508582D01*
X59098868Y-97793000D01*
X58889000Y-97793000D01*
X58671266Y-97836310D01*
X58466165Y-97921266D01*
X58281579Y-98044602D01*
X58133181Y-98193000D01*
X57647408Y-98193000D01*
X57611700Y-98189483D01*
X57575992Y-98193000D01*
X50371133Y-98193000D01*
X49830605Y-97652473D01*
X49966418Y-97324592D01*
X50052000Y-96894340D01*
X50052000Y-96455660D01*
X49966418Y-96025408D01*
X49798542Y-95620120D01*
X49554824Y-95255370D01*
X49244630Y-94945176D01*
X48879880Y-94701458D01*
X48474592Y-94533582D01*
X48044340Y-94448000D01*
X47605660Y-94448000D01*
X47571672Y-94454761D01*
X50216307Y-91810126D01*
X50281579Y-91875398D01*
X50466165Y-91998734D01*
X50671266Y-92083690D01*
X50889000Y-92127000D01*
X51111000Y-92127000D01*
X51328734Y-92083690D01*
X51533835Y-91998734D01*
X51718421Y-91875398D01*
X51875398Y-91718421D01*
X51998734Y-91533835D01*
X52083690Y-91328734D01*
X52127000Y-91111000D01*
X52127000Y-90889000D01*
X52373000Y-90889000D01*
X52373000Y-91111000D01*
X52416310Y-91328734D01*
X52501266Y-91533835D01*
X52624602Y-91718421D01*
X52781579Y-91875398D01*
X52966165Y-91998734D01*
X53171266Y-92083690D01*
X53389000Y-92127000D01*
X53611000Y-92127000D01*
X53828734Y-92083690D01*
X54033835Y-91998734D01*
X54218421Y-91875398D01*
X54375398Y-91718421D01*
X54498734Y-91533835D01*
X54583690Y-91328734D01*
X54627000Y-91111000D01*
X54627000Y-90889000D01*
X54583690Y-90671266D01*
X54498734Y-90466165D01*
X54375398Y-90281579D01*
X54243819Y-90150000D01*
X57821418Y-90150000D01*
X57821418Y-91850000D01*
X57827732Y-91914103D01*
X57846430Y-91975743D01*
X57876794Y-92032550D01*
X57917657Y-92082343D01*
X57967450Y-92123206D01*
X58024257Y-92153570D01*
X58085897Y-92172268D01*
X58150000Y-92178582D01*
X59850000Y-92178582D01*
X59914103Y-92172268D01*
X59975743Y-92153570D01*
X60032550Y-92123206D01*
X60082343Y-92082343D01*
X60123206Y-92032550D01*
X60153570Y-91975743D01*
X60172268Y-91914103D01*
X60178582Y-91850000D01*
X60178582Y-90884076D01*
X60363000Y-90884076D01*
X60363000Y-91115924D01*
X60408231Y-91343318D01*
X60496956Y-91557519D01*
X60625764Y-91750294D01*
X60789706Y-91914236D01*
X60982481Y-92043044D01*
X61196682Y-92131769D01*
X61424076Y-92177000D01*
X61655924Y-92177000D01*
X61883318Y-92131769D01*
X62097519Y-92043044D01*
X62290294Y-91914236D01*
X62454236Y-91750294D01*
X62583044Y-91557519D01*
X62671769Y-91343318D01*
X62717000Y-91115924D01*
X62717000Y-90884076D01*
X62671769Y-90656682D01*
X62583044Y-90442481D01*
X62454236Y-90249706D01*
X62290294Y-90085764D01*
X62097519Y-89956956D01*
X61883318Y-89868231D01*
X61655924Y-89823000D01*
X61424076Y-89823000D01*
X61196682Y-89868231D01*
X60982481Y-89956956D01*
X60789706Y-90085764D01*
X60625764Y-90249706D01*
X60496956Y-90442481D01*
X60408231Y-90656682D01*
X60363000Y-90884076D01*
X60178582Y-90884076D01*
X60178582Y-90150000D01*
X60172268Y-90085897D01*
X60153570Y-90024257D01*
X60123206Y-89967450D01*
X60082343Y-89917657D01*
X60032550Y-89876794D01*
X59975743Y-89846430D01*
X59914103Y-89827732D01*
X59850000Y-89821418D01*
X58150000Y-89821418D01*
X58085897Y-89827732D01*
X58024257Y-89846430D01*
X57967450Y-89876794D01*
X57917657Y-89917657D01*
X57876794Y-89967450D01*
X57846430Y-90024257D01*
X57827732Y-90085897D01*
X57821418Y-90150000D01*
X54243819Y-90150000D01*
X54218421Y-90124602D01*
X54033835Y-90001266D01*
X53828734Y-89916310D01*
X53611000Y-89873000D01*
X53389000Y-89873000D01*
X53171266Y-89916310D01*
X52966165Y-90001266D01*
X52781579Y-90124602D01*
X52624602Y-90281579D01*
X52501266Y-90466165D01*
X52416310Y-90671266D01*
X52373000Y-90889000D01*
X52127000Y-90889000D01*
X52083690Y-90671266D01*
X51998734Y-90466165D01*
X51875398Y-90281579D01*
X51718421Y-90124602D01*
X51533835Y-90001266D01*
X51328734Y-89916310D01*
X51111000Y-89873000D01*
X50889000Y-89873000D01*
X50671266Y-89916310D01*
X50466165Y-90001266D01*
X50281579Y-90124602D01*
X50133181Y-90273000D01*
X50034007Y-90273000D01*
X49998299Y-90269483D01*
X49855782Y-90283520D01*
X49718743Y-90325090D01*
X49592447Y-90392597D01*
X49481746Y-90483446D01*
X49458979Y-90511188D01*
X44873490Y-95096678D01*
X44845746Y-95119447D01*
X44754897Y-95230148D01*
X44711083Y-95312118D01*
X44687390Y-95356444D01*
X44645820Y-95493483D01*
X44631783Y-95636000D01*
X41352000Y-95636000D01*
X41352000Y-85352000D01*
X110648000Y-85352000D01*
X110648001Y-139148000D01*
G37*
%TD.AperFunction*%
D25*
X79589885Y-110513533D02*
X79512467Y-110700435D01*
X79473000Y-110898849D01*
X79473000Y-111101151D01*
X79512467Y-111299565D01*
X79589885Y-111486467D01*
X79702277Y-111654674D01*
X79845326Y-111797723D01*
X79868190Y-111813000D01*
X76051810Y-111813000D01*
X76074674Y-111797723D01*
X76145397Y-111727000D01*
X76884292Y-111727000D01*
X76920000Y-111730517D01*
X77062517Y-111716480D01*
X77199557Y-111674910D01*
X77325853Y-111607403D01*
X77436554Y-111516554D01*
X77459325Y-111488807D01*
X78480334Y-110467800D01*
X79620443Y-110467800D01*
X79589885Y-110513533D01*
%TA.AperFunction,Conductor*%
D26*
G36*
X79589885Y-110513533D02*
G01*
X79512467Y-110700435D01*
X79473000Y-110898849D01*
X79473000Y-111101151D01*
X79512467Y-111299565D01*
X79589885Y-111486467D01*
X79702277Y-111654674D01*
X79845326Y-111797723D01*
X79868190Y-111813000D01*
X76051810Y-111813000D01*
X76074674Y-111797723D01*
X76145397Y-111727000D01*
X76884292Y-111727000D01*
X76920000Y-111730517D01*
X77062517Y-111716480D01*
X77199557Y-111674910D01*
X77325853Y-111607403D01*
X77436554Y-111516554D01*
X77459325Y-111488807D01*
X78480334Y-110467800D01*
X79620443Y-110467800D01*
X79589885Y-110513533D01*
G37*
%TD.AperFunction*%
%TD*%
M02*
