M48
; DRILL file {KiCad 5.1.10} date Sun Jun 27 02:40:06 2021
; FORMAT={-:-/ absolute / inch / decimal}
; #@! TF.CreationDate,2021-06-27T02:40:06+02:00
; #@! TF.GenerationSoftware,Kicad,Pcbnew,5.1.10
; #@! TF.FileFunction,Plated,1,2,PTH
FMAT,2
INCH
T1C0.0157
T2C0.0276
T3C0.0315
T4C0.0354
T5C0.0394
T6C0.0866
%
G90
G05
T1
X2.185Y-3.7992
X2.2047Y-4.7244
X2.7559Y-4.1535
X2.8937Y-4.4291
X3.0118Y-4.5472
X3.1693Y-4.7047
X3.3858Y-4.8228
T2
X2.7953Y-4.3701
X2.7953Y-4.5701
X2.9693Y-4.3701
X2.9724Y-4.4882
X2.9724Y-4.626
X2.9724Y-4.7835
X3.1693Y-4.3701
X3.1724Y-4.4882
X3.1724Y-4.626
X3.1724Y-4.7835
X3.3465Y-4.3701
X3.3465Y-4.5701
T3
X1.8701Y-4.8228
X1.8701Y-4.9016
X2.0079Y-3.5827
X2.0276Y-5.2559
X2.0669Y-4.0354
X2.1063Y-3.5827
X2.126Y-4.5276
X2.126Y-4.626
X2.126Y-4.8031
X2.126Y-4.9016
X2.1654Y-4.0354
X2.1654Y-5.2559
X2.3181Y-4.2913
X2.3228Y-3.8339
X2.3228Y-3.9339
X2.3228Y-4.0339
X2.3228Y-4.1339
X2.3228Y-4.8031
X2.3228Y-4.9016
X2.3425Y-4.5276
X2.3425Y-4.626
X2.5197Y-4.8031
X2.5197Y-4.9016
X2.5394Y-4.5276
X2.5394Y-4.626
X2.6181Y-4.2913
X2.6228Y-3.8339
X2.6228Y-3.9339
X2.6228Y-4.0339
X2.6228Y-4.1339
X2.9283Y-5.0197
X2.9283Y-5.2756
X2.9331Y-3.8386
X2.9331Y-3.9386
X2.9331Y-4.0386
X2.9331Y-4.1386
X3.2283Y-5.0197
X3.2283Y-5.2756
X3.2331Y-3.8386
X3.2331Y-3.9386
X3.2331Y-4.0386
X3.2331Y-4.1386
X3.7205Y-4.9409
X3.7205Y-5.0394
X3.7402Y-4.7047
X3.8386Y-4.7047
T4
X3.9961Y-4.9197
X3.9961Y-5.0197
T5
X1.8701Y-4.5276
X1.8701Y-4.6276
X2.3228Y-3.5827
X2.4228Y-3.5827
X2.5228Y-3.5827
T6
X1.7913Y-3.5039
X1.7913Y-5.3346
X1.8829Y-3.8061
X1.8829Y-4.0167
X3.8583Y-3.9173
X3.8583Y-4.1339
X3.8583Y-4.3701
X4.2126Y-3.5039
X4.2126Y-5.3346
T0
M30
