%TF.GenerationSoftware,KiCad,Pcbnew,5.1.10*%
%TF.CreationDate,2021-07-22T01:23:26+02:00*%
%TF.ProjectId,9v-preamp,39762d70-7265-4616-9d70-2e6b69636164,rev?*%
%TF.SameCoordinates,Original*%
%TF.FileFunction,Other,User*%
%FSLAX46Y46*%
G04 Gerber Fmt 4.6, Leading zero omitted, Abs format (unit mm)*
G04 Created by KiCad (PCBNEW 5.1.10) date 2021-07-22 01:23:26*
%MOMM*%
%LPD*%
G01*
G04 APERTURE LIST*
%ADD10C,0.050000*%
G04 APERTURE END LIST*
D10*
%TO.C,J8*%
X47650000Y-89000000D02*
G75*
G03*
X47650000Y-89000000I-2150000J0D01*
G01*
%TO.C,J9*%
X109150000Y-89000000D02*
G75*
G03*
X109150000Y-89000000I-2150000J0D01*
G01*
%TO.C,J7*%
X109150000Y-135500000D02*
G75*
G03*
X109150000Y-135500000I-2150000J0D01*
G01*
%TO.C,J6*%
X47650000Y-135500000D02*
G75*
G03*
X47650000Y-135500000I-2150000J0D01*
G01*
%TO.C,R1*%
X67550000Y-107500000D02*
X57830000Y-107500000D01*
X67550000Y-110500000D02*
X67550000Y-107500000D01*
X57830000Y-110500000D02*
X67550000Y-110500000D01*
X57830000Y-107500000D02*
X57830000Y-110500000D01*
%TO.C,C7*%
X54550000Y-89450000D02*
X49950000Y-89450000D01*
X54550000Y-92550000D02*
X54550000Y-89450000D01*
X49950000Y-92550000D02*
X54550000Y-92550000D01*
X49950000Y-89450000D02*
X49950000Y-92550000D01*
%TO.C,BT1*%
X45700000Y-113200000D02*
X45700000Y-119350000D01*
X45700000Y-119350000D02*
X49300000Y-119350000D01*
X49300000Y-119350000D02*
X49300000Y-113200000D01*
X49300000Y-113200000D02*
X45700000Y-113200000D01*
%TO.C,C4*%
X55550000Y-118550000D02*
X55550000Y-113950000D01*
X52450000Y-118550000D02*
X55550000Y-118550000D01*
X52450000Y-113950000D02*
X52450000Y-118550000D01*
X55550000Y-113950000D02*
X52450000Y-113950000D01*
%TO.C,C2*%
X98550000Y-117950000D02*
X93950000Y-117950000D01*
X98550000Y-121050000D02*
X98550000Y-117950000D01*
X93950000Y-121050000D02*
X98550000Y-121050000D01*
X93950000Y-117950000D02*
X93950000Y-121050000D01*
%TO.C,C3*%
X92950000Y-129050000D02*
X96050000Y-129050000D01*
X96050000Y-129050000D02*
X96050000Y-124450000D01*
X96050000Y-124450000D02*
X92950000Y-124450000D01*
X92950000Y-124450000D02*
X92950000Y-129050000D01*
%TO.C,SW1*%
X49000000Y-121000000D02*
X46000000Y-121000000D01*
X46000000Y-121000000D02*
X46000000Y-126000000D01*
X46000000Y-126000000D02*
X49000000Y-126000000D01*
X49000000Y-126000000D02*
X49000000Y-121000000D01*
%TO.C,J2*%
X49975000Y-96675000D02*
G75*
G03*
X49975000Y-96675000I-2150000J0D01*
G01*
%TO.C,J1*%
X49975000Y-102025000D02*
G75*
G03*
X49975000Y-102025000I-2150000J0D01*
G01*
%TO.C,RV1*%
X57200000Y-92800000D02*
X65850000Y-92800000D01*
X65850000Y-92800000D02*
X65850000Y-89200000D01*
X65850000Y-89200000D02*
X57200000Y-89200000D01*
X57200000Y-89200000D02*
X57200000Y-92800000D01*
%TO.C,D1*%
X99900000Y-123500000D02*
X99900000Y-128950000D01*
X103100000Y-123500000D02*
X99900000Y-123500000D01*
X103100000Y-128950000D02*
X103100000Y-123500000D01*
X99900000Y-128950000D02*
X103100000Y-128950000D01*
%TO.C,C6*%
X55550000Y-120950000D02*
X52450000Y-120950000D01*
X52450000Y-120950000D02*
X52450000Y-125550000D01*
X52450000Y-125550000D02*
X55550000Y-125550000D01*
X55550000Y-125550000D02*
X55550000Y-120950000D01*
%TO.C,C1*%
X57150000Y-102500000D02*
G75*
G03*
X57150000Y-102500000I-3400000J0D01*
G01*
%TO.C,C5*%
X57500000Y-133500000D02*
G75*
G03*
X57500000Y-133500000I-4250000J0D01*
G01*
%TO.C,C8*%
X61000000Y-113500000D02*
X58000000Y-113500000D01*
X58000000Y-113500000D02*
X58000000Y-119000000D01*
X58000000Y-119000000D02*
X61000000Y-119000000D01*
X61000000Y-119000000D02*
X61000000Y-113500000D01*
%TO.C,C9*%
X60500000Y-126000000D02*
X60500000Y-120500000D01*
X57500000Y-126000000D02*
X60500000Y-126000000D01*
X57500000Y-120500000D02*
X57500000Y-126000000D01*
X60500000Y-120500000D02*
X57500000Y-120500000D01*
%TO.C,C10*%
X65500000Y-126000000D02*
X65500000Y-120500000D01*
X62500000Y-126000000D02*
X65500000Y-126000000D01*
X62500000Y-120500000D02*
X62500000Y-126000000D01*
X65500000Y-120500000D02*
X62500000Y-120500000D01*
%TO.C,C11*%
X66000000Y-113500000D02*
X63000000Y-113500000D01*
X63000000Y-113500000D02*
X63000000Y-119000000D01*
X63000000Y-119000000D02*
X66000000Y-119000000D01*
X66000000Y-119000000D02*
X66000000Y-113500000D01*
%TO.C,D2*%
X73330000Y-128750000D02*
X83050000Y-128750000D01*
X73330000Y-126250000D02*
X73330000Y-128750000D01*
X83050000Y-126250000D02*
X73330000Y-126250000D01*
X83050000Y-128750000D02*
X83050000Y-126250000D01*
%TO.C,D3*%
X73330000Y-132750000D02*
X73330000Y-135250000D01*
X73330000Y-135250000D02*
X83050000Y-135250000D01*
X83050000Y-135250000D02*
X83050000Y-132750000D01*
X83050000Y-132750000D02*
X73330000Y-132750000D01*
%TO.C,J3*%
X100000000Y-105000000D02*
G75*
G03*
X100000000Y-105000000I-2000000J0D01*
G01*
%TO.C,J4*%
X100000000Y-111000000D02*
G75*
G03*
X100000000Y-111000000I-2000000J0D01*
G01*
%TO.C,J5*%
X100150000Y-99500000D02*
G75*
G03*
X100150000Y-99500000I-2150000J0D01*
G01*
%TO.C,R2*%
X81530000Y-122550000D02*
X81530000Y-120450000D01*
X81530000Y-120450000D02*
X74550000Y-120450000D01*
X74550000Y-120450000D02*
X74550000Y-122550000D01*
X74550000Y-122550000D02*
X81530000Y-122550000D01*
%TO.C,R3*%
X81530000Y-112950000D02*
X74550000Y-112950000D01*
X81530000Y-115050000D02*
X81530000Y-112950000D01*
X74550000Y-115050000D02*
X81530000Y-115050000D01*
X74550000Y-112950000D02*
X74550000Y-115050000D01*
%TO.C,R4*%
X69950000Y-110050000D02*
X69950000Y-117030000D01*
X72050000Y-110050000D02*
X69950000Y-110050000D01*
X72050000Y-117030000D02*
X72050000Y-110050000D01*
X69950000Y-117030000D02*
X72050000Y-117030000D01*
%TO.C,R5*%
X81450000Y-112050000D02*
X81450000Y-109950000D01*
X81450000Y-109950000D02*
X74470000Y-109950000D01*
X74470000Y-109950000D02*
X74470000Y-112050000D01*
X74470000Y-112050000D02*
X81450000Y-112050000D01*
%TO.C,R6*%
X81530000Y-116450000D02*
X74550000Y-116450000D01*
X81530000Y-118550000D02*
X81530000Y-116450000D01*
X74550000Y-118550000D02*
X81530000Y-118550000D01*
X74550000Y-116450000D02*
X74550000Y-118550000D01*
%TO.C,R7*%
X83950000Y-117030000D02*
X86050000Y-117030000D01*
X86050000Y-117030000D02*
X86050000Y-110050000D01*
X86050000Y-110050000D02*
X83950000Y-110050000D01*
X83950000Y-110050000D02*
X83950000Y-117030000D01*
%TO.C,U2*%
X72950000Y-94900000D02*
X72950000Y-105700000D01*
X72950000Y-105700000D02*
X83650000Y-105700000D01*
X83650000Y-105700000D02*
X83650000Y-94900000D01*
X83650000Y-94900000D02*
X72950000Y-94900000D01*
%TO.C,U1*%
X57450000Y-94780000D02*
X57450000Y-105580000D01*
X57450000Y-105580000D02*
X68150000Y-105580000D01*
X68150000Y-105580000D02*
X68150000Y-94780000D01*
X68150000Y-94780000D02*
X57450000Y-94780000D01*
%TD*%
M02*
